<svg xmlns="http://www.w3.org/2000/svg" xmlns:xlink="http://www.w3.org/1999/xlink" width="3213" height="3213" version="1.1" viewBox="0 0 3213 3213"><title>Group</title><desc>Created with Sketch.</desc><g id="Page-1" fill="none" fill-rule="evenodd" stroke="none" stroke-width="1"><g id="berty_new_color_plain" fill-rule="nonzero"><g id="Group"><g id="Path"><path fill="#3F49EA" d="M1360,848.828371 C1360,838.622018 1360.2,828.415665 1360.7,818.309374 C1376.6,465.289629 1675.1,184.014544 2031.6,183.214045 C2032,117.272999 2024.6,74.4463407 2024.6,72.9454064 C2025.9,72.9454064 2027.2,72.8453441 2028.4,72.8453441 C1828.1,70.9441607 1630.2,110.668888 1447.1,187.516724 C1385.1,213.532918 1324.9,243.751728 1266.8,278.073092 L1266.8,278.073092 C1193.8,321.199938 1124.3,370.730769 1059.2,426.665587 C1037.5,445.277172 1016.3,464.589193 995.6,484.601651 L631.9,283.176269 L431.5,172.307256 L120.2,0.100062286 C-135,459.385955 29.9,1038.54647 488.3,1294.40573 L37.8,2155.14151 C37.9,2155.14151 37.9,2155.24158 38,2155.24158 C227.9,2254.70349 429.7,2307.93662 630.6,2319.64391 C1187.2,2352.16415 1737.6,2063.58452 2013.1,1537.2569 L2023.7,1514.54276 C2020.4,1514.54276 2017,1514.54276 2013.7,1514.4427 C1651.7,1508.23884 1360,1212.65484 1360,848.828371 Z" transform="translate(255.000000, 429.267206)"/><path fill="#FFBF47" d="M1533.2,1235.76923 C1432,1124.49997 1367.9,978.809281 1360.7,818.309374 C1360.2,828.415665 1360,838.622018 1360,848.828371 C1360,1212.65484 1651.6,1508.3389 2013.8,1514.4427 C2017.7,1514.54276 2021.5,1514.54276 2025.4,1514.54276 L2025.4,1453.4047 C1830.4,1453.50476 1654.9,1369.55251 1533.2,1235.76923 Z" transform="translate(255.000000, 429.267206)"/><path fill="#FFF" d="M2023.8,183.113983 C1667.3,183.914481 1376.7,465.289629 1360.7,818.309374 C1367.9,978.809281 1432,1124.49997 1533.2,1235.76923 C1654.9,1369.55251 1830.3,1453.50476 2025.4,1453.50476 L2025.4,183.013921 C2024.9,183.013921 2024.4,183.013921 2023.8,183.113983 Z" transform="translate(255.000000, 429.267206)"/></g><g><path id="Path" fill="#FFBF47" d="M375.2,429.367269 L163.8,311.694021 C-156.5,888.15285 54.6,1618.40741 630.7,1938.90691 L744.5,1724.37337 C285.1,1468.81429 119.8,889.05341 375.2,429.367269 Z"/><g id="Path"><path fill="#FFAE3A" d="M0.6,920.472968 L0.6,1442.19773 C0.8,1442.19773 1.1,1442.19773 1.3,1442.19773 C251.7,1441.89754 460.7,1264.88736 510.6,1029.14061 L0.6,920.472968 Z" transform="translate(2279.000000, 501.312052)"/><path fill="#FFBF47" d="M629.9,241.150109 C479,104.064777 282.7,16.3101526 66.3,2.70168172 C45.7,1.60099657 25.1,0.900560573 4.5,0.700436001 C3.2,0.700436001 1.9,0.800498287 0.7,0.800498287 C0.7,4.20261601 0.7,920.472968 0.7,920.472968 L914.5,1114.99405 C927,1054.35631 933.7,991.617253 933.7,927.277203 C933.5,655.30791 816.4,410.655621 629.9,241.150109 Z" transform="translate(2279.000000, 501.312052)"/></g><g id="Path"><g><path fill="#3442D9" d="M835.7,707.240237 L608.3,202.526067 C390.4,300.887294 245.6,494.808004 200.9,712.443476 L564.7,913.668732 C647.3,833.718966 738.5,764.675989 835.7,707.240237 Z" transform="translate(686.000000, 0.000000)"/><path fill="#FFBF47" d="M200.9,712.443476 C245.7,494.808004 390.4,300.887294 608.3,202.526067 L517.4,0.800498287 C254.6,119.374307 73.2,344.114201 0.4,601.4744 L200.9,712.443476 L200.9,712.443476 Z" transform="translate(686.000000, 0.000000)"/></g><path fill="#F74868" d="M0.7,3141.75565 C302.7,3300.35438 676,3183.98194 834.5,2881.79383 C857.1,2838.66699 874,2794.13927 885.6,2748.91112 C684.6,2737.20383 482.9,2683.97069 293,2584.50878 L0.7,3141.75565 Z"/></g><ellipse id="Oval" cx="2066.2" cy="1236.47" fill="#383B62" rx="119.2" ry="119.274"/></g></g></g></g></svg>