<?xml version="1.0" encoding="UTF-8"?>
<svg width="131px" height="131px" viewBox="0 0 131 131" version="1.1" xmlns="http://www.w3.org/2000/svg" xmlns:xlink="http://www.w3.org/1999/xlink">
    <!-- Generator: Sketch 63.1 (92452) - https://sketch.com -->
    <title>slice</title>
    <desc>Created with Sketch.</desc>
    <defs>
        <path d="M60,0 L100,40 L100,106 C100,113.731986 93.7319865,120 86,120 L14,120 C6.2680135,120 0,113.731986 0,106 L0,14 C0,6.2680135 6.2680135,0 14,0 L60,0 Z" id="path-1"></path>
    </defs>
    <g id="Page-1" stroke="none" stroke-width="1" fill="none" fill-rule="evenodd">
        <g id="Code" transform="translate(16.000000, 5.000000)">
            <g id="Main">
                <mask id="mask-2" fill="white">
                    <use xlink:href="#path-1"></use>
                </mask>
                <use id="Mask" fill="#424242" xlink:href="#path-1"></use>
                <path d="M24.9550781,77.7353516 C24.7239572,77.5042306 24.4870618,77.2615573 24.2443848,77.0073242 C24.0017078,76.7530912 23.7763682,76.4757502 23.5683594,76.175293 C23.3603505,75.8748357 23.1927903,75.5628271 23.0656738,75.2392578 C22.9385573,74.9156885 22.875,74.5690123 22.875,74.1992188 C22.875,73.528968 23.0830057,72.9222846 23.4990234,72.3791504 C23.9150411,71.8360162 24.4234996,71.2640004 25.0244141,70.6630859 L35.9101562,59.8466797 C36.4417344,59.3151015 36.9906384,58.8355327 37.5568848,58.407959 C38.1231311,57.9803852 38.7529262,57.7666016 39.4462891,57.7666016 C39.908531,57.7666016 40.3823218,57.8937162 40.8676758,58.1479492 C41.3530298,58.4021823 41.8730441,58.8066379 42.4277344,59.3613281 C42.9593126,59.8929063 43.3348785,60.3840309 43.5544434,60.8347168 C43.7740083,61.2854026 43.8837891,61.7418597 43.8837891,62.2041016 C43.8837891,62.8974644 43.6815613,63.5388154 43.2770996,64.1281738 C42.872638,64.7175322 42.4046251,65.2779921 41.8730469,65.8095703 L33.3447266,74.2685547 L41.8037109,82.5888672 C42.3584012,83.1435575 42.8437479,83.7040174 43.2597656,84.2702637 C43.6757833,84.83651 43.8837891,85.4547493 43.8837891,86.125 C43.8837891,86.5872419 43.7682303,87.0610327 43.5371094,87.5463867 C43.3059884,88.0317407 42.889977,88.5748668 42.2890625,89.1757812 C41.7574843,89.7073594 41.2663597,90.0829253 40.8156738,90.3024902 C40.364988,90.5220551 39.908531,90.6318359 39.4462891,90.6318359 C38.7760383,90.6318359 38.1462432,90.4238302 37.5568848,90.0078125 C36.9675264,89.5917948 36.3955106,89.1064481 35.8408203,88.5517578 L24.9550781,77.7353516 Z M63.1591797,88.5517578 C62.6044894,89.1064481 62.0324736,89.5917948 61.4431152,90.0078125 C60.8537568,90.4238302 60.2239617,90.6318359 59.5537109,90.6318359 C59.091469,90.6318359 58.635012,90.5220551 58.1843262,90.3024902 C57.7336403,90.0829253 57.2425157,89.7073594 56.7109375,89.1757812 C56.110023,88.5748668 55.6940116,88.0317407 55.4628906,87.5463867 C55.2317697,87.0610327 55.1162109,86.5872419 55.1162109,86.125 C55.1162109,85.4547493 55.3242167,84.83651 55.7402344,84.2702637 C56.1562521,83.7040174 56.6415988,83.1435575 57.1962891,82.5888672 L65.6552734,74.2685547 L57.1269531,65.8095703 C56.5953749,65.2779921 56.127362,64.7175322 55.7229004,64.1281738 C55.3184387,63.5388154 55.1162109,62.8974644 55.1162109,62.2041016 C55.1162109,61.7418597 55.2259917,61.2854026 55.4455566,60.8347168 C55.6651215,60.3840309 56.0406874,59.8929063 56.5722656,59.3613281 C57.1269559,58.8066379 57.6469702,58.4021823 58.1323242,58.1479492 C58.6176782,57.8937162 59.091469,57.7666016 59.5537109,57.7666016 C60.2470738,57.7666016 60.8768689,57.9803852 61.4431152,58.407959 C62.0093616,58.8355327 62.5582656,59.3151015 63.0898438,59.8466797 L73.9755859,70.6630859 C74.5765004,71.2640004 75.0849589,71.8360162 75.5009766,72.3791504 C75.9169943,72.9222846 76.125,73.528968 76.125,74.1992188 C76.125,74.5690123 76.0614427,74.9156885 75.9343262,75.2392578 C75.8072097,75.5628271 75.6396495,75.8748357 75.4316406,76.175293 C75.2236318,76.4757502 74.9982922,76.7530912 74.7556152,77.0073242 C74.5129382,77.2615573 74.2760428,77.5042306 74.0449219,77.7353516 L63.1591797,88.5517578 Z" id="&lt;&gt;" fill="#FFFFFF" mask="url(#mask-2)"></path>
            </g>
            <path d="M60,0 L85.2928932,0 C93.0248797,0 100,6.97512028 100,14.7071068 L100,40 L60,0 Z" id="Corner" fill="#2C2929" transform="translate(80.000000, 20.000000) scale(-1, -1) translate(-80.000000, -20.000000) "></path>
        </g>
    </g>
</svg>