<?xml version="1.0" encoding="UTF-8"?>
<svg width="131px" height="131px" viewBox="0 0 131 131" version="1.1" xmlns="http://www.w3.org/2000/svg" xmlns:xlink="http://www.w3.org/1999/xlink">
    <!-- Generator: Sketch 63.1 (92452) - https://sketch.com -->
    <title>slice</title>
    <desc>Created with Sketch.</desc>
    <defs>
        <path d="M60,0 L100,40 L100,106 C100,113.731986 93.7319865,120 86,120 L14,120 C6.2680135,120 0,113.731986 0,106 L0,14 C0,6.2680135 6.2680135,0 14,0 L60,0 Z" id="path-1"></path>
    </defs>
    <g id="Page-1" stroke="none" stroke-width="1" fill="none" fill-rule="evenodd">
        <g id="txt" transform="translate(16.000000, 5.000000)">
            <g id="Main">
                <mask id="mask-2" fill="white">
                    <use xlink:href="#path-1"></use>
                </mask>
                <use id="Mask" fill="#5B64F0" xlink:href="#path-1"></use>
                <rect id="Rectangle" fill="#FFFFFF" mask="url(#mask-2)" x="26" y="88" width="48" height="7" rx="3.5"></rect>
                <rect id="Rectangle" fill="#FFFFFF" mask="url(#mask-2)" x="26" y="71" width="48" height="7" rx="3.5"></rect>
                <rect id="Rectangle" fill="#FFFFFF" mask="url(#mask-2)" x="26" y="54" width="48" height="7" rx="3.5"></rect>
            </g>
            <path d="M60,0 L85.2928932,0 C93.0248797,0 100,6.97512028 100,14.7071068 L100,40 L60,0 Z" id="Corner" fill="#3741E4" transform="translate(80.000000, 20.000000) scale(-1, -1) translate(-80.000000, -20.000000) "></path>
        </g>
    </g>
</svg>