<?xml version="1.0" encoding="utf-8" ?>
<svg baseProfile="full" height="960px" version="1.1" width="920px" xmlns="http://www.w3.org/2000/svg" xmlns:ev="http://www.w3.org/2001/xml-events" xmlns:xlink="http://www.w3.org/1999/xlink"><defs /><rect fill="rgb(247,179,82)" height="41px" width="41px" x="280px" y="80px" /><rect fill="rgb(7,76,133)" height="41px" width="41px" x="320px" y="80px" /><rect fill="rgb(247,179,82)" height="41px" width="41px" x="280px" y="120px" /><rect fill="rgb(7,76,133)" height="41px" width="41px" x="320px" y="120px" /><rect fill="rgb(7,76,133)" height="41px" width="41px" x="360px" y="120px" /><rect fill="rgb(7,83,159)" height="41px" width="41px" x="480px" y="120px" /><rect fill="rgb(7,83,159)" height="41px" width="41px" x="520px" y="120px" /><rect fill="rgb(247,179,82)" height="41px" width="41px" x="560px" y="120px" /><rect fill="rgb(247,179,82)" height="41px" width="41px" x="600px" y="120px" /><rect fill="rgb(247,179,82)" height="41px" width="41px" x="160px" y="160px" /><rect fill="rgb(7,83,159)" height="41px" width="41px" x="200px" y="160px" /><rect fill="rgb(247,179,82)" height="41px" width="41px" x="280px" y="160px" /><rect fill="rgb(7,76,133)" height="41px" width="41px" x="320px" y="160px" /><rect fill="rgb(7,76,133)" height="41px" width="41px" x="360px" y="160px" /><rect fill="rgb(7,83,159)" height="41px" width="41px" x="400px" y="160px" /><rect fill="rgb(7,83,159)" height="41px" width="41px" x="440px" y="160px" /><rect fill="rgb(227,230,255)" height="41px" width="41px" x="480px" y="160px" /><rect fill="rgb(227,230,255)" height="41px" width="41px" x="520px" y="160px" /><rect fill="rgb(247,179,82)" height="41px" width="41px" x="560px" y="160px" /><rect fill="rgb(247,179,82)" height="41px" width="41px" x="600px" y="160px" /><rect fill="rgb(247,179,82)" height="41px" width="41px" x="640px" y="160px" /><rect fill="rgb(247,179,82)" height="41px" width="41px" x="160px" y="200px" /><rect fill="rgb(7,83,159)" height="41px" width="41px" x="200px" y="200px" /><rect fill="rgb(7,83,159)" height="41px" width="41px" x="240px" y="200px" /><rect fill="rgb(7,83,159)" height="41px" width="41px" x="280px" y="200px" /><rect fill="rgb(7,83,159)" height="41px" width="41px" x="320px" y="200px" /><rect fill="rgb(7,76,133)" height="41px" width="41px" x="360px" y="200px" /><rect fill="rgb(7,83,159)" height="41px" width="41px" x="400px" y="200px" /><rect fill="rgb(227,230,255)" height="41px" width="41px" x="440px" y="200px" /><rect fill="rgb(227,230,255)" height="41px" width="41px" x="480px" y="200px" /><rect fill="rgb(227,230,255)" height="41px" width="41px" x="520px" y="200px" /><rect fill="rgb(247,179,82)" height="41px" width="41px" x="560px" y="200px" /><rect fill="rgb(247,179,82)" height="41px" width="41px" x="600px" y="200px" /><rect fill="rgb(247,179,82)" height="41px" width="41px" x="640px" y="200px" /><rect fill="rgb(247,179,82)" height="41px" width="41px" x="680px" y="200px" /><rect fill="rgb(247,179,82)" height="41px" width="41px" x="160px" y="240px" /><rect fill="rgb(7,83,159)" height="41px" width="41px" x="200px" y="240px" /><rect fill="rgb(7,83,159)" height="41px" width="41px" x="240px" y="240px" /><rect fill="rgb(7,83,159)" height="41px" width="41px" x="280px" y="240px" /><rect fill="rgb(7,83,159)" height="41px" width="41px" x="320px" y="240px" /><rect fill="rgb(7,83,159)" height="41px" width="41px" x="360px" y="240px" /><rect fill="rgb(7,83,159)" height="41px" width="41px" x="400px" y="240px" /><rect fill="rgb(227,230,255)" height="41px" width="41px" x="440px" y="240px" /><rect fill="rgb(227,230,255)" height="41px" width="41px" x="480px" y="240px" /><rect fill="rgb(0,0,0)" height="41px" width="41px" x="520px" y="240px" /><rect fill="rgb(247,179,82)" height="41px" width="41px" x="560px" y="240px" /><rect fill="rgb(247,179,82)" height="41px" width="41px" x="600px" y="240px" /><rect fill="rgb(247,179,82)" height="41px" width="41px" x="640px" y="240px" /><rect fill="rgb(247,179,82)" height="41px" width="41px" x="680px" y="240px" /><rect fill="rgb(247,179,82)" height="41px" width="41px" x="200px" y="280px" /><rect fill="rgb(7,83,159)" height="41px" width="41px" x="240px" y="280px" /><rect fill="rgb(7,83,159)" height="41px" width="41px" x="280px" y="280px" /><rect fill="rgb(7,83,159)" height="41px" width="41px" x="320px" y="280px" /><rect fill="rgb(7,83,159)" height="41px" width="41px" x="360px" y="280px" /><rect fill="rgb(7,83,159)" height="41px" width="41px" x="400px" y="280px" /><rect fill="rgb(227,230,255)" height="41px" width="41px" x="440px" y="280px" /><rect fill="rgb(227,230,255)" height="41px" width="41px" x="480px" y="280px" /><rect fill="rgb(227,230,255)" height="41px" width="41px" x="520px" y="280px" /><rect fill="rgb(216,136,21)" height="41px" width="41px" x="560px" y="280px" /><rect fill="rgb(216,136,21)" height="41px" width="41px" x="600px" y="280px" /><rect fill="rgb(247,179,82)" height="41px" width="41px" x="640px" y="280px" /><rect fill="rgb(247,179,82)" height="41px" width="41px" x="680px" y="280px" /><rect fill="rgb(247,179,82)" height="41px" width="41px" x="240px" y="320px" /><rect fill="rgb(7,83,159)" height="41px" width="41px" x="280px" y="320px" /><rect fill="rgb(7,83,159)" height="41px" width="41px" x="320px" y="320px" /><rect fill="rgb(7,83,159)" height="41px" width="41px" x="360px" y="320px" /><rect fill="rgb(7,83,159)" height="41px" width="41px" x="400px" y="320px" /><rect fill="rgb(7,83,159)" height="41px" width="41px" x="440px" y="320px" /><rect fill="rgb(227,230,255)" height="41px" width="41px" x="480px" y="320px" /><rect fill="rgb(227,230,255)" height="41px" width="41px" x="520px" y="320px" /><rect fill="rgb(216,136,21)" height="41px" width="41px" x="560px" y="320px" /><rect fill="rgb(216,136,21)" height="41px" width="41px" x="600px" y="320px" /><rect fill="rgb(247,179,82)" height="41px" width="41px" x="280px" y="360px" /><rect fill="rgb(7,83,159)" height="41px" width="41px" x="320px" y="360px" /><rect fill="rgb(7,83,159)" height="41px" width="41px" x="360px" y="360px" /><rect fill="rgb(7,83,159)" height="41px" width="41px" x="400px" y="360px" /><rect fill="rgb(7,83,159)" height="41px" width="41px" x="440px" y="360px" /><rect fill="rgb(7,83,159)" height="41px" width="41px" x="480px" y="360px" /><rect fill="rgb(7,83,159)" height="41px" width="41px" x="520px" y="360px" /><rect fill="rgb(216,136,21)" height="41px" width="41px" x="560px" y="360px" /><rect fill="rgb(7,83,159)" height="41px" width="41px" x="320px" y="400px" /><rect fill="rgb(7,83,159)" height="41px" width="41px" x="360px" y="400px" /><rect fill="rgb(7,83,159)" height="41px" width="41px" x="400px" y="400px" /><rect fill="rgb(7,83,159)" height="41px" width="41px" x="440px" y="400px" /><rect fill="rgb(7,83,159)" height="41px" width="41px" x="480px" y="400px" /><rect fill="rgb(7,83,159)" height="41px" width="41px" x="320px" y="440px" /><rect fill="rgb(7,83,159)" height="41px" width="41px" x="360px" y="440px" /><rect fill="rgb(7,83,159)" height="41px" width="41px" x="400px" y="440px" /><rect fill="rgb(7,83,159)" height="41px" width="41px" x="440px" y="440px" /><rect fill="rgb(233,78,107)" height="41px" width="41px" x="280px" y="480px" /><rect fill="rgb(233,78,107)" height="41px" width="41px" x="320px" y="480px" /><rect fill="rgb(7,83,159)" height="41px" width="41px" x="360px" y="480px" /><rect fill="rgb(233,78,107)" height="41px" width="41px" x="280px" y="520px" /><rect fill="rgb(233,78,107)" height="41px" width="41px" x="320px" y="520px" /><rect fill="rgb(233,78,107)" height="41px" width="41px" x="80px" y="600px" /><rect fill="rgb(233,78,107)" height="41px" width="41px" x="80px" y="640px" /><rect fill="rgb(233,78,107)" height="41px" width="41px" x="600px" y="640px" /><rect fill="rgb(233,78,107)" height="41px" width="41px" x="80px" y="680px" /><rect fill="rgb(233,78,107)" height="41px" width="41px" x="120px" y="680px" /><rect fill="rgb(233,78,107)" height="41px" width="41px" x="280px" y="680px" /><rect fill="rgb(233,78,107)" height="41px" width="41px" x="320px" y="680px" /><rect fill="rgb(233,78,107)" height="41px" width="41px" x="400px" y="680px" /><rect fill="rgb(233,78,107)" height="41px" width="41px" x="440px" y="680px" /><rect fill="rgb(233,78,107)" height="41px" width="41px" x="480px" y="680px" /><rect fill="rgb(233,78,107)" height="41px" width="41px" x="560px" y="680px" /><rect fill="rgb(233,78,107)" height="41px" width="41px" x="600px" y="680px" /><rect fill="rgb(233,78,107)" height="41px" width="41px" x="640px" y="680px" /><rect fill="rgb(233,78,107)" height="41px" width="41px" x="720px" y="680px" /><rect fill="rgb(233,78,107)" height="41px" width="41px" x="800px" y="680px" /><rect fill="rgb(233,78,107)" height="41px" width="41px" x="80px" y="720px" /><rect fill="rgb(233,78,107)" height="41px" width="41px" x="160px" y="720px" /><rect fill="rgb(233,78,107)" height="41px" width="41px" x="240px" y="720px" /><rect fill="rgb(233,78,107)" height="41px" width="41px" x="280px" y="720px" /><rect fill="rgb(233,78,107)" height="41px" width="41px" x="400px" y="720px" /><rect fill="rgb(233,78,107)" height="41px" width="41px" x="600px" y="720px" /><rect fill="rgb(233,78,107)" height="41px" width="41px" x="720px" y="720px" /><rect fill="rgb(233,78,107)" height="41px" width="41px" x="800px" y="720px" /><rect fill="rgb(233,78,107)" height="41px" width="41px" x="80px" y="760px" /><rect fill="rgb(233,78,107)" height="41px" width="41px" x="120px" y="760px" /><rect fill="rgb(233,78,107)" height="41px" width="41px" x="160px" y="760px" /><rect fill="rgb(233,78,107)" height="41px" width="41px" x="280px" y="760px" /><rect fill="rgb(233,78,107)" height="41px" width="41px" x="320px" y="760px" /><rect fill="rgb(233,78,107)" height="41px" width="41px" x="400px" y="760px" /><rect fill="rgb(233,78,107)" height="41px" width="41px" x="600px" y="760px" /><rect fill="rgb(233,78,107)" height="41px" width="41px" x="640px" y="760px" /><rect fill="rgb(233,78,107)" height="41px" width="41px" x="760px" y="760px" /><rect fill="rgb(233,78,107)" height="41px" width="41px" x="760px" y="800px" /><rect fill="rgb(233,78,107)" height="41px" width="41px" x="720px" y="840px" /></svg>