<?xml version="1.0" encoding="utf-8"?>
<!-- Generator: Adobe Illustrator 22.1.0, SVG Export Plug-In . SVG Version: 6.00 Build 0)  -->
<!DOCTYPE svg PUBLIC "-//W3C//DTD SVG 1.1//EN" "http://www.w3.org/Graphics/SVG/1.1/DTD/svg11.dtd">
<svg version="1.1" xmlns="http://www.w3.org/2000/svg" xmlns:xlink="http://www.w3.org/1999/xlink" x="0px" y="0px"
	 viewBox="0 0 5900.3 3317.3" style="enable-background:new 0 0 5900.3 3317.3;" xml:space="preserve">
<g id="Calque_2">
</g>
<g id="Calque_1">
	<g>
		<g>
			<g>
				<g>
					<path d="M2544.8,1431.8c-24.4,0-42.7,4.1-55.9,9.1v-258h-144.2v688.7c40.7,25.4,104.6,48.8,182.8,48.8
						c157.5,0,269.2-93.5,269.2-251.9C2796.7,1527.3,2678.9,1431.8,2544.8,1431.8z M2537.7,1791.4c-20.3,0-36.6-4.1-48.8-9.1v-209.2
						c11.2-7.1,34.5-13.2,54.8-13.2c56.9,0,109.7,45.7,109.7,113.8C2653.5,1743.7,2608.8,1791.4,2537.7,1791.4z"/>
				</g>
				<g>
					<path d="M3527.7,1518.2l-4.1-72.1h-137.1v460.2h148.3v-181.8c0-110.7,73.1-157.4,152.4-157.4c7.1,0,10.2,0,12.2,0l1.2-118.9
						C3625.4,1448,3556.1,1460.3,3527.7,1518.2z"/>
				</g>
				<g>
					<path d="M3962.6,1302.8l-142.2,53.8v89.4h-54.4l1,121.9h50.4v187.9c0,92.4,69.1,158.4,170.6,158.4c29.5,0,54.9-4.1,70.1-11.2
						l11.2-121.9c-13.2,5.1-28.4,7.1-47.7,7.1c-33.5,0-56.9-19.3-56.9-53.8V1568h131l11.2-121.9h-144.3V1302.8z"/>
				</g>
				<g>
					<path d="M4481.9,1446.1l-69.1,180.8c-10.2,27.4-19.3,55.9-27.4,88.4h-2.1c-9.1-33.5-18.3-63-28.4-89.4l-68.1-179.8h-147.3
						l171.7,436.8c-43.7,105.7-88.3,147.3-159.5,170.7l61,96.5c110.7-27.4,185.9-121.9,247.8-283.4l161.5-420.5H4481.9z"/>
				</g>
				<g>
					<path d="M3096.7,1431.8c-129,0-239.7,92.4-239.7,241.8c0,150.3,118.9,246.9,269.2,246.9c61,0,105.7-11.2,137.1-26.4l13.2-122.9
						c-39.6,23.4-80.3,35.6-133.1,35.6c-81.3,0-123.9-46.7-135.1-87.4l199.3,0.6c0,0,82.9,0,92.1-59.9c0,0,3.2-30.3,3.2-45.3
						C3302.9,1520.2,3224.7,1431.8,3096.7,1431.8z M3165.7,1623.8h-162.5c10.2-46.7,48.8-79.2,93.5-79.2c42.7,0,70.1,32.5,70.1,69.1
						C3166.8,1617.7,3166.8,1620.8,3165.7,1623.8z"/>
				</g>
			</g>
			<circle cx="1848" cy="1513.1" r="32.3"/>
		</g>
		<g>
			<g>
				<path d="M1905.9,1704.7c0.1,0,0.1,0,0.2,0c66.4-0.1,122-46,137.1-107.8l-137.3-29.7V1704.7z"/>
			</g>
			<g>
				<path d="M2159,1565.2c0-73.7-31.8-140-82.4-186c-40.9-37.2-94.2-61-152.9-64.6c-5.6-0.3-11.2-0.5-16.8-0.5c-0.3,0-0.7,0-1,0v0
					c0.3,0,0.7,0,1,0c-54.3-0.5-108,10.3-157.7,31.1c-16.8,7-33.2,15.2-48.9,24.5h0l-61.7-136.8l-24.7-54.7
					c-61.3,27.7-106.3,76.7-130.2,134.3l95.2,84.2l-105.2-55.6l-141.8-78.6c-86.9,156.3-29.6,354.2,126.6,441.1l-170.9,326
					c81.9,43,183.2,11.5,226.2-70.5c2.4-4.5,4.5-9.2,6.4-13.8c-5.2-2.7-10.3-5.4-15.4-8.2c-9.2-5.1-18.3-10.3-27.3-15.6
					c-17.9-10.7-35.5-22-52.6-33.6c19.3,7.5,38.9,14.4,58.5,20.8c9.8,3.1,19.6,6.1,29.5,8.9c7.5,2.1,15.1,4.1,22.5,5.8
					c148.3,5.8,293.8-72.1,367.3-212.4l2.9-6.2c-0.9,0-1.8,0-2.7,0c-98.2-1.7-177.3-81.8-177.3-180.4c0-2.8,0.1-5.5,0.2-8.3
					c4.3-95.6,83.5-171.8,180.1-172.2c0,60.5,0,193.7,0,216.1l248.3,53.7C2157.3,1598,2159,1581.8,2159,1565.2z"/>
			</g>
		</g>
	</g>
</g>
</svg>
