<?xml version="1.0" encoding="utf-8"?>
<!-- Generator: Adobe Illustrator 22.1.0, SVG Export Plug-In . SVG Version: 6.00 Build 0)  -->
<!DOCTYPE svg PUBLIC "-//W3C//DTD SVG 1.1//EN" "http://www.w3.org/Graphics/SVG/1.1/DTD/svg11.dtd">
<svg version="1.1" id="Calque_1" xmlns="http://www.w3.org/2000/svg" xmlns:xlink="http://www.w3.org/1999/xlink" x="0px" y="0px"
	 viewBox="0 0 8000 8000" style="enable-background:new 0 0 8000 8000;" xml:space="preserve">
<style type="text/css">
	.st0{fill:#07539F;}
	.st1{fill:#F7B352;}
	.st2{fill:#FFFFFF;}
	.st3{fill:#F49A18;}
	.st4{fill:#074C84;}
	.st5{fill:#E94E6B;}
</style>
<g>
	<g>
		<g>
			<path class="st0" d="M4044.8,3186.2c0-25,0.6-49.8,1.7-74.5c38.9-860.8,767.1-1546.7,1637.1-1548.8c1-160.9-17.2-265.2-17.2-269
				c3.1,0,6.3-0.1,9.4-0.2c-488.8-4.7-971.7,92.3-1418.6,279.6c-151.2,63.4-298.3,137-440.1,220.7h0
				c-178.1,105.1-347.7,226-506.5,362.3c-52.9,45.4-104.7,92.5-155.1,141.3l-887.6-490.8l-489.1-270.4l-759.6-420
				c-622.7,1120-220.4,2532.4,898.4,3156.5L818.2,6372c0.2,0.1,0.3,0.2,0.5,0.2c463.4,242.6,955.8,372.4,1446.2,401
				c1358.2,79.2,2701.4-624.4,3373.7-1907.9l26-55.5c-8.2,0-16.3-0.1-24.4-0.3C4756.4,4794.5,4044.8,4073.5,4044.8,3186.2z"/>
		</g>
		<g>
			<path class="st1" d="M4467.4,4129.8c-247-271.3-403.3-626.6-420.9-1018.1c-1.1,24.7-1.7,49.5-1.7,74.5
				c0,887.2,711.7,1608.2,1595.3,1623.3c9.4,0.2,18.9,0.3,28.3,0.3v-149C5192.4,4660.8,4764.4,4456,4467.4,4129.8z"/>
		</g>
		<path class="st2" d="M5664.5,1562.6c-870,2-1579.2,688.2-1618.1,1549.1c17.7,391.4,174,746.8,420.9,1018.1
			c297,326.2,725,531,1201,531V1562.6C5667.1,1562.6,5665.8,1562.6,5664.5,1562.6z"/>
	</g>
	<g>
		<g>
			<g>
				<path class="st1" d="M1019.2,1116.4L503.2,829.6c-781.7,1405.9-266.5,3186.6,1139.4,3968.2l277.8-523.2
					C799.4,3651.4,395.9,2237.4,1019.2,1116.4z"/>
			</g>
		</g>
		<g>
			<g>
				<path class="st3" d="M5666.4,3536.7v1272.2c0.6,0,1.1,0,1.7,0c611.1-0.8,1121-432.4,1242.7-1007.4L5666.4,3536.7z"/>
			</g>
			<g>
				<path class="st1" d="M7202,1880.1c-368.2-334.4-847.2-548.4-1375.4-581.5c-50.3-2.6-100.6-4.3-150.8-4.8
					c-3.1,0.1-6.2,0.2-9.4,0.2c-0.1,8.2,0,2242.7,0,2242.7l2229.8,474.4c30.5-147.8,46.8-300.8,46.8-457.7
					C7943,2890,7657.2,2293.5,7202,1880.1z"/>
			</g>
		</g>
		<g>
			<g>
				<g>
					<g>
						<path class="st4" d="M3817.1,1794l-555-1230.7c-531.8,239.8-885,712.7-994.2,1243.5l887.6,490.8
							C3357.2,2102.4,3579.7,1934.2,3817.1,1794z"/>
					</g>
					<g>
						<path class="st1" d="M2267.8,1806.8c109.3-530.8,462.4-1003.7,994.2-1243.5L3040.3,71.4
							c-641.2,289.2-1084,837.2-1261.5,1464.9L2267.8,1806.8L2267.8,1806.8z"/>
					</g>
				</g>
				<g>
					<g>
						<path class="st5" d="M105.3,7731.2C842.2,8118,1753.2,7834.2,2140,7097.3c55.2-105.1,96.3-213.9,124.8-324
							c-490.4-28.6-982.7-158.4-1446.2-401L105.3,7731.2z"/>
					</g>
				</g>
			</g>
		</g>
		<circle cx="5145.7" cy="3084.8" r="290.9"/>
	</g>
</g>
</svg>
