<?xml version="1.0" encoding="UTF-8"?>
<svg width="420px" height="595px" viewBox="0 0 420 595" version="1.1" xmlns="http://www.w3.org/2000/svg" xmlns:xlink="http://www.w3.org/1999/xlink">
    <!-- Generator: Sketch 55.1 (78136) - https://sketchapp.com -->
    <title>A5 bleu verso</title>
    <desc>Created with Sketch.</desc>
    <g id="A5-bleu-verso" stroke="none" stroke-width="1" fill="none" fill-rule="evenodd">
        <rect fill="#272945" x="0" y="0" width="420" height="595"></rect>
        <g id="Background-Shape-2" opacity="0.616536458" transform="translate(-74.000000, -69.000000)" fill="#323457">
            <path d="M582.784935,557.919901 C589.971253,611.518998 415.690805,646.479854 265.683583,622.081515 C115.676361,597.683176 46.8601598,502.404911 118.441105,451.636906 C190.022051,400.868901 575.598616,504.320804 582.784935,557.919901 Z" id="Background-Shape"></path>
            <path d="M458.366218,250.81337 C464.575897,343.215979 313.980621,403.487039 184.359776,361.425319 C54.7389313,319.3636 -4.72496645,155.107841 57.1279397,67.5859151 C118.980846,-19.9360104 452.15654,158.41076 458.366218,250.81337 Z" id="Background-Shape" opacity="0.913527716" transform="translate(245.552056, 209.576457) scale(-1, 1) rotate(13.000000) translate(-245.552056, -209.576457) "></path>
        </g>
        <path d="M-20.2621943,361.869438 C-13.8547035,349.355058 -7.37833633,336.950828 0.474955861,325.251961 C5.10325582,318.358134 10.2012867,311.816074 15.1064001,305.120674 C14.5692309,305.989014 14.0523636,306.871605 13.5574549,307.765021 C15.1287863,305.807604 17.4911759,304.248523 19.212452,302.35462 C21.1322563,300.242456 22.8877469,297.961579 24.5966639,295.681061 C27.9324568,291.230394 31.1857046,286.73997 34.6908401,282.415913 C38.5964193,277.598524 42.7569105,272.977626 46.7838944,268.2593 C50.2016185,264.254865 53.5934712,259.979005 57.4571899,256.376937 C59.5629372,254.413556 61.606608,252.22521 63.7068023,250.207002 C64.409725,249.53168 71.2157544,241.606004 71.1896239,241.596481 C70.6165669,241.387634 66.9826098,244.688906 66.4084531,245.159237 C64.7309016,246.532586 63.1838951,248.034127 61.6261589,249.535787 C62.029048,247.225495 62.190364,244.878756 61.9532767,242.533539 C61.8802257,241.809602 61.4468976,236.509294 60.7682298,236.261957 C60.4292588,236.138421 60.4447244,245.854853 60.5670439,246.751927 C60.6663262,247.480587 60.9869987,248.475344 60.9602691,249.202417 C60.9173216,250.376631 60.8382348,250.050342 60.2138915,250.896183 C59.0695947,252.446542 57.3163132,253.73425 55.9956925,255.142153 C55.2800354,255.88982 53.1919813,258.624276 51.749511,259.664106 C47.6036806,263.528945 43.7798681,268.690126 40.0766145,273.137469 C40.5944737,270.478098 40.7907132,267.803491 40.7018893,265.091098 C40.6811615,264.447094 40.7859851,258.579898 40.2702701,258.391948 C39.6899547,258.180456 38.8763258,267.342003 38.9160331,268.1735 C38.9896492,269.717893 39.3997448,271.336142 39.3703325,272.869992 C39.3378991,274.55349 37.9491181,275.573385 36.8198476,276.895842 C32.6654368,281.761202 28.7504381,286.7775 24.9669471,291.928385 C16.731766,284.049555 19.3905974,270.663164 22.1490617,261.082203 C24.1374732,254.17713 27.670743,247.695206 31.6758775,241.753657 C37.0210111,233.823993 43.7405593,226.736627 50.5693253,220.044171 C58.5262207,212.246098 67.8132378,206.075889 78.0013701,201.413474 C83.3299131,198.974851 89.0157389,197.250487 94.694889,195.762712 C97.469136,195.035727 100.209159,194.591719 103.106817,194.680786 C104.412981,194.721492 105.71144,194.879506 106.999288,195.107415 C107.977803,195.280632 110.165141,195.10881 110.848336,195.60488 C116.446409,199.602379 120.081706,204.182849 121.767636,210.849393 C123.363888,217.159991 123.297706,223.98486 122.326444,230.349686 C121.244555,237.437209 119.141564,244.214266 115.592001,250.450425 C112.88388,255.208443 109.585578,259.638512 106.302822,264.019027 C94.6272381,279.599474 78.4961082,294.986221 58.3065536,298.509168 C51.7712709,299.649864 45.1134612,299.282353 38.6068308,298.002567 C37.0736815,297.700979 35.5459947,297.388887 34.0478225,296.936802 C33.0376873,296.63235 30.0238078,294.787068 29.1521192,294.954281 C27.9570684,295.183416 26.1827702,298.307517 25.3160388,299.358859 C18.7295179,307.350024 12.4489083,315.570372 6.40744354,323.971791 C-0.0200286733,332.910498 -5.90564207,342.156318 -11.4596489,351.649957 C-13.8218098,355.688011 -16.1610595,359.726353 -18.3971144,363.836968 C-18.9177219,364.793168 -19.9167319,368.033349 -21.2258454,368.568362 C-22.0537095,368.906729 -22.8492133,368.354413 -22.9678885,367.527592 C-23.1744241,366.08994 -20.9182351,363.150733 -20.2621943,361.869438" id="Leaf" fill="#4E51AC"></path>
        <path d="M31.1571639,328.134172 C32.3047587,326.598643 33.6262565,325.183423 35.239024,324.103522 C35.6467955,323.830698 38.7020086,321.968201 38.9467473,322.280885 C39.5166916,323.009061 31.4991108,327.64663 31.1571639,328.134172 M14.9257192,320.384404 C14.9425333,320.442354 14.0262682,322.448065 13.7838828,323.06064 C13.2676896,324.362974 12.8036543,325.684379 12.3751962,327.004202 C12.97159,324.689704 13.6077708,322.534383 14.9257192,320.384404 M94.522526,327.577249 C95.632809,327.809831 96.7807324,326.313639 95.3524417,326.124621 C94.1969843,325.973846 94.2455821,325.90462 93.6440565,325.051459 C93.155602,324.358661 92.8079098,323.487665 92.3659647,322.753238 C91.4285419,321.19547 90.3963594,319.724381 89.1771382,318.372366 C86.564069,315.473954 83.4981423,313.061848 80.1388783,311.110564 C74.2763823,307.705635 67.7898549,304.711942 61.1227487,303.565503 C50.5219503,301.742595 38.7857751,302.792257 28.6865042,305.887103 C22.4317337,307.803508 16.8237598,310.582696 13.1237627,316.160169 C11.2743852,318.947391 9.92720094,322.126933 9.5483473,325.512094 C9.4496088,326.396971 9.58636939,327.354977 9.43795697,328.226658 C9.20983976,329.566909 9.33447136,329.203443 7.83565369,329.616803 C6.19901848,330.067984 4.56449336,330.524938 2.93082739,330.986581 C-1.34643217,332.195858 -5.6443136,333.454191 -9.7606668,335.120392 C-11.1155527,335.668399 -12.4302972,336.302573 -13.7049715,337.013075 C-14.6691598,337.549861 -18.546591,339.324854 -18.8971309,340.68515 C-19.4809722,342.948706 -16.8605337,341.675464 -16.0639183,341.112324 C-15.3661447,340.618848 -14.6456402,340.151336 -13.9107877,339.71344 C-12.0604877,338.610904 -10.107281,337.703451 -8.09344611,336.932959 C-5.91722336,336.100126 -3.67915283,335.414021 -1.45002169,334.728293 C0.628924435,334.089207 2.71963633,333.486697 4.81492896,332.900811 C5.97885231,332.575099 7.14443612,332.255098 8.31001993,331.935098 C8.70819811,331.825714 9.3859906,331.40058 9.38728243,331.932109 C11.8305589,331.190663 14.5347345,330.976958 17.0610067,330.57802 C20.155314,330.089739 23.2641652,329.629272 26.3961359,329.398908 C28.6550021,329.232831 30.923973,329.143783 33.1958262,329.210765 C34.5233552,329.250016 35.8385779,329.373058 37.1572452,329.565132 C37.8815785,329.670862 40.7034261,329.759844 41.1523676,330.333423 C40.959449,330.086945 37.9163281,330.664732 37.5240143,330.690816 C35.9548616,330.796309 34.3878473,330.804509 32.8123524,330.794179 C29.8886668,330.775138 26.9799462,330.910122 24.0839283,331.238817 C24.1483972,331.745395 26.2237213,332.442537 26.7425173,332.728345 C27.9057714,333.369717 29.0304756,334.084432 30.0939338,334.886068 C31.9674164,336.297888 34.2175276,338.054453 35.5960043,339.815631 C35.1897333,339.296568 33.3981298,338.753657 32.744621,338.393198 C31.6976758,337.815275 30.6659123,337.190065 29.6801287,336.509212 C28.7701242,335.880549 27.9098794,335.188762 27.0609338,334.479095 C26.2118368,333.768722 24.9994653,332.234127 23.9377241,331.813243 C23.8736396,331.787792 23.4714237,332.179783 23.2098636,332.088233 C22.9463045,331.996181 22.5709124,331.43655 22.5045974,331.419021 C21.5299015,331.15654 19.7981668,331.791938 18.8182113,331.940793 C16.2767762,332.326001 13.7416622,332.747496 11.2043714,333.155439 C10.4183048,333.281686 9.72762781,333.17279 9.49025734,333.786164 C9.23749162,334.440397 9.99234243,336.011122 10.2293996,336.669981 C11.109148,339.116872 12.439187,341.254225 14.3643728,343.019355 C17.9698319,346.325963 22.1983253,348.33881 26.8574002,349.493215 C44.7027454,353.914856 63.2530429,354.489282 79.755894,346.21086 C86.5879812,342.78327 96.7979156,336.868541 94.522526,327.577249" id="Leave-the-Leaf!" fill="#6063C1"></path>
        <path d="M307.980481,511.659775 C304.569531,510.91462 300.803318,510.971651 297.328853,511.033121 C278.695311,511.286515 260.397488,520.108514 248.488828,534.204657 C238.350902,546.205007 235.563234,561.124851 233.560426,576.206908 C233.361855,577.70439 233.276704,579.192311 233.164681,580.692867 C233.140601,581.014903 233.104656,581.302105 233.066268,581.572574 C232.278615,582.276749 231.865421,583.097718 232.331661,583.999623 C230.596522,587.796774 229.128704,591.690229 227.869228,595.705941 C224.162342,607.525979 220.391592,619.570724 222.714416,632 C223.257083,625.160073 224.398603,618.165788 225.76382,611.438216 C225.842341,611.051978 225.927144,610.668814 226.015436,610.287015 C226.02451,610.246718 226.032885,610.206421 226.041959,610.166465 C226.525299,608.106189 227.153466,606.107724 227.917388,604.140678 C227.925414,604.119163 227.933092,604.09799 227.941468,604.076817 C228.042323,603.817959 228.149461,603.560467 228.255202,603.302975 C228.474014,602.769892 228.698758,602.237833 228.937113,601.708506 C229.017728,601.528194 229.095202,601.346174 229.169535,601.162788 C230.281741,598.436925 230.75147,595.365464 231.747814,592.545006 C231.986169,591.903667 232.235342,591.264718 232.49638,590.629185 C232.511735,590.591961 232.52744,590.554737 232.543144,590.517514 C233.248785,588.807276 234.028411,587.11787 234.852706,585.446222 C235.300799,585.109501 235.540201,584.27419 235.926524,583.515033 C236.006441,583.365455 236.631118,582.36793 236.817126,581.793184 C237.30256,580.854056 237.786249,579.914586 238.275172,578.977165 C238.260515,578.982629 238.245858,578.988093 238.231201,578.993557 C238.720473,578.09336 239.211142,577.19692 239.697972,576.304236 C239.805109,576.108214 239.913294,575.911851 240.021129,575.715146 C240.195969,575.40199 240.370809,575.089175 240.5453,574.777043 C242.177489,571.856183 243.90809,568.993721 245.705347,566.166774 C246.346776,565.15798 247.879156,563.711381 248.172999,562.578622 C248.183817,562.536275 248.18626,562.497344 248.192891,562.456706 C252.092764,556.979369 256.582417,551.927201 261.966511,547.924124 C261.31566,548.627616 259.932295,551.015051 259.566562,551.487689 C258.447377,552.93497 257.232222,554.282193 256.01253,555.645807 C253.828252,558.088564 251.695623,560.608843 249.800651,563.273918 C246.33526,568.147822 243.345531,573.27717 240.519475,578.50965 C240.492604,578.540385 240.463289,578.569413 240.437814,578.600831 C239.017457,580.351707 238.123365,582.998 237.100848,585.000904 C241.147294,583.126746 245.621592,581.905879 249.774477,580.241744 C253.915846,578.582731 257.944494,576.73521 261.833898,574.565653 C267.003368,571.682359 272.365825,568.426829 277.250176,564.742714 C282.847498,561.270672 287.551077,556.491705 291.702915,551.476761 C296.615185,545.543178 301.117053,539.557687 303.901231,532.353038 C305.268891,528.812695 306.344803,525.121068 306.982742,521.386411 C307.01066,521.223515 307.046256,521.046959 307.084993,520.863573 C307.73759,519.573723 308.321087,518.254846 308.810709,516.905575 C309.588241,514.765728 311.424584,512.411761 307.980481,511.659775" id="Fill-10" fill="#42498F" transform="translate(266.000000, 571.500000) scale(-1, 1) rotate(12.000000) translate(-266.000000, -571.500000) "></path>
        <path d="M376.64063,521.024635 C362.877218,521.21311 349.361781,527.774928 340.565611,538.259662 C333.07737,547.185543 331.018298,558.282947 329.538951,569.501006 C329.39228,570.614836 329.329383,571.721554 329.246639,572.83767 C329.228853,573.0772 329.202303,573.290822 329.173948,573.491997 C328.592159,574.015764 328.286959,574.626402 328.63134,575.29724 C327.349704,578.121567 326.26552,581.017525 325.335225,584.004419 C322.597184,592.796182 319.811971,601.755084 321.527693,611 C321.928527,605.912451 322.771695,600.710091 323.780094,595.706111 C323.838093,595.418827 323.900731,595.133828 323.965947,594.849846 C323.972649,594.819873 323.978836,594.7899 323.985538,594.760181 C324.34255,593.227744 324.806538,591.741282 325.370798,590.27819 C325.376727,590.262187 325.382397,590.246439 325.388584,590.23069 C325.46308,590.038151 325.542215,589.846628 325.62032,589.655106 C325.781942,589.258597 325.947947,588.862851 326.124004,588.469137 C326.183549,588.33502 326.240774,588.199633 326.295679,588.06323 C327.117195,586.03573 327.464154,583.751172 328.20009,581.65331 C328.376147,581.176281 328.560196,580.70103 328.753008,580.228319 C328.76435,580.200632 328.77595,580.172945 328.787549,580.145258 C329.308762,578.87318 329.884622,577.616597 330.493476,576.373223 C330.824454,576.12277 331.001285,575.501463 331.286637,574.936801 C331.345666,574.825545 331.807076,574.083584 331.944468,573.656087 C332.303027,572.957562 332.660297,572.258783 333.021434,571.561528 C333.010608,571.565592 332.999781,571.569656 332.988955,571.57372 C333.35035,570.904152 333.712775,570.237378 334.072366,569.573399 C334.151501,569.427597 334.23141,569.281542 334.311061,569.135233 C334.440205,568.902306 334.569348,568.669634 334.698233,568.43747 C335.903827,566.26493 337.182112,564.135825 338.509632,562.033138 C338.983414,561.282795 340.115286,560.206812 340.332329,559.364264 C340.34032,559.332767 340.342124,559.30381 340.347022,559.273583 C343.22761,555.19953 346.543831,551.441719 350.520718,548.464225 C350.039976,548.987483 349.018173,550.763261 348.748029,551.11481 C347.921358,552.1913 347.0238,553.193366 346.122891,554.207625 C344.509504,556.024552 342.934267,557.899139 341.534572,559.881426 C338.974908,563.506645 336.766586,567.321862 334.679158,571.213789 C334.65931,571.23665 334.637657,571.258241 334.61884,571.28161 C333.569713,572.583915 332.909304,574.552231 332.154036,576.041995 C335.142888,574.647993 338.447767,573.73991 341.515239,572.502124 C344.574205,571.268147 347.54991,569.893958 350.422766,568.280238 C354.241124,566.135639 358.20203,563.71417 361.809789,560.97392 C365.944175,558.391409 369.418409,554.836805 372.485108,551.106681 C376.113489,546.693273 379.438732,542.241255 381.495227,536.882425 C382.505431,534.249112 383.300138,531.503274 383.771343,528.72543 C383.791965,528.604267 383.818257,528.472945 383.84687,528.336542 C384.328901,527.377149 384.759894,526.396166 385.121546,525.392576 C385.69586,523.800955 387.05225,522.05007 384.50831,521.490742 C381.988858,520.936494 379.206996,520.978914 376.64063,521.024635 Z" id="Fill-10" fill="#313772" transform="translate(353.500000, 566.000000) rotate(-345.000000) translate(-353.500000, -566.000000) "></path>
        <path d="M314.613653,432.237453 C309.941154,429.672224 303.727632,429 298.136117,429 C276.296711,429 255.768685,435.560228 238.034884,445.33511 C228.317643,450.691139 219.624836,457.511828 211.950337,464.613359 C207.520605,468.712682 203.57072,473.147425 200.774307,478.0796 C198.887286,481.408594 197.592091,484.877145 196.714193,488.454855 C195.644269,492.814984 194.794365,497.263545 194.409875,501.696215 C194.258528,503.441718 193.005763,512.703968 196.590404,512.860798 C196.569845,513.089133 196.565033,513.306759 196.586904,513.501932 C188.803489,523.355229 183.994515,534.902903 179.535039,545.85124 C175.655141,555.378442 172.197789,564.986132 169.953397,574.842192 C166.998639,587.818255 165.057815,600.989492 164.134863,614.152092 C163.936713,616.980891 163.800676,619.811071 163.683448,622.643669 C163.584154,625.059668 163.483548,627.475667 163.385566,629.891666 C163.276212,632.599215 162.687447,635.716455 163.219347,638.408114 C163.682135,640.752262 166.188103,640.397496 166.29877,638.064748 C166.43262,635.247695 166.410749,632.425114 166.56297,629.605988 C166.765495,625.86454 166.974143,622.123093 167.200288,618.382681 C168.774556,592.39912 174.680574,566.797613 185.580155,542.253495 C189.991078,532.321093 195.045443,522.918594 201.541538,513.730613 C207.252905,505.652181 214.122992,497.831446 221.145301,490.547523 C227.970771,483.469137 235.067003,476.554488 243.429998,470.557325 C250.216538,465.690783 257.681514,461.451213 265.355138,457.506301 C275.101686,452.496057 284.829424,447.607407 295.386945,443.761291 C300.874791,441.762237 306.466306,439.972518 311.997019,438.054297 C312.992145,437.709203 314.059007,437.374473 315.016078,436.9748 C318.208792,435.641752 317.157676,433.634062 314.613653,432.237453" id="Fill-1" fill="#313772" transform="translate(240.000000, 534.500000) scale(-1, 1) translate(-240.000000, -534.500000) "></path>
        <path d="M452.729794,493.856999 C451.985001,493.317064 450.218,493.125611 449.395958,492.963866 C445.979043,492.292366 442.459129,492 438.975654,492 C428.23421,492.016033 417.318349,493.067138 406.755208,494.886412 C400.048668,496.041259 391.940964,499.927847 385.269405,497.81715 C373.646646,494.139462 361.899998,494.320069 350.87288,499.570406 C340.791207,504.371346 333.137764,513.489408 328.671433,523.341686 C327.997573,524.828983 325.263749,530.302838 324.489806,533.992786 C324.158948,534.74728 323.841209,535.506961 323.554563,536.27796 C322.741266,538.466936 322.01202,540.69458 321.334272,542.926468 C321.044712,543.878545 320.316437,545.980754 321.181233,546.387238 C319.799503,548.929412 318.574699,551.549393 317.554435,554.254254 C314.587408,562.120799 311.343452,570.749854 310.300838,579.087485 C309.914595,582.174781 309.90002,585.279996 310.25857,588.373422 C310.435902,589.902216 310.36254,592.976779 311.402238,594.139172 C313.608925,596.605896 314.741905,593.152671 314.493155,591.507874 C312.593519,578.971953 316.261613,567.199959 320.608913,555.416175 C323.419985,547.796256 328.038869,540.825202 333.213069,534.511972 C337.400527,529.401689 341.892607,525.377406 347.63281,521.989256 C354.652232,517.84614 362.157008,514.496657 369.592794,511.136801 C374.483263,508.926133 379.379562,506.774881 384.406552,504.870255 C385.524471,504.446324 387.283213,503.359852 388.522592,503.355608 C391.1437,503.346177 394.85795,505.274381 397.389664,505.991622 C405.716967,508.351774 414.15067,511.373523 422.756846,512.578827 C428.276964,513.352656 433.448734,512.481686 438.611274,510.648266 C439.138896,510.461528 440.023126,509.980067 441.10655,509.292534 C444.939344,507.822685 448.565171,505.97276 451.722161,503.304208 C453.541148,501.766455 455.191547,499.779306 456.696681,497.960504 C457.147055,497.416796 457.346249,496.793396 457.353051,496.201118 C457.694111,496.02334 457.920512,495.815854 457.971526,495.573473 C458.34708,493.783436 454.922392,493.750426 452.729794,493.856999" id="Twisted-Leaf" fill="#42498F"></path>
        <path d="M8.91887013,444.24485 C20.0364128,462.861532 32.984816,480.887599 40.7607914,501.242207 C40.447439,498.843018 40.1151815,496.446315 39.7432876,494.053022 C37.7702403,481.36619 35.3180635,468.771934 32.741243,456.193117 C31.4289729,449.788594 30.0410898,443.407281 28.6176107,437.026514 C27.8520195,433.599402 27.0958151,430.170201 26.3144486,426.746353 C26.1251845,425.916502 25.9625679,424.468047 25.7256186,423 C33.2826322,447.752513 40.5701413,472.523691 45.9006956,497.871264 C46.5999933,501.197862 47.1954978,504.51855 47.6832975,507.83346 C47.8501676,507.077249 48.0142995,506.320909 48.1939489,505.56677 C50.3507902,496.526208 53.5861217,487.557601 57.4383504,479.104499 C59.2799441,475.062023 61.3952743,471.108075 63.8858841,467.423801 C65.4389818,465.127231 69.1016693,462.397257 70.5184794,460.045234 C62.770006,474.230601 59.9721762,491.979436 55.4982046,507.40147 C54.4061949,511.164887 53.3074015,514.922195 52.230778,518.686122 C58.9777166,505.180416 69.4457388,494.083836 84,489.275069 C66.382628,500.89397 55.8155556,521.24157 48.6948002,542.05206 C48.6713366,542.298861 48.6434398,542.545664 48.6193244,542.792856 C50.7146964,538.823441 53.3541326,535.233118 56.9314041,532.718507 C64.5877499,527.33534 73.0811391,528.903548 80.5080701,533.521212 C74.6791793,529.822812 64.1446746,533.190561 59.2402081,536.949531 C55.7291417,539.640369 52.7285379,543.250332 50.1228346,546.772204 C49.498477,547.616422 48.6466681,548.60143 47.7467822,549.65243 C46.4851051,557.827117 44.4290651,565.945778 41.5181567,574 C41.9985327,571.68819 41.651211,567.99084 41.784426,566.267681 C41.7989261,566.081119 41.810688,565.89443 41.825058,565.708388 C41.3825819,567.471835 40.9550894,569.215237 40.5434889,570.930528 C41.3616921,567.657361 41.8063805,564.240447 42.1535181,560.788217 C42.2429246,559.304588 42.3301146,557.820961 42.4222594,556.33746 C42.3930552,553.521906 42.2768752,550.695226 42.0803728,547.86405 C41.3836106,545.112455 40.6034859,542.517029 39.9601212,540.358615 C37.6385219,532.570373 34.2351331,525.109039 30.0461654,518.148336 C26.2241901,511.796331 21.6492873,506.042632 16.367849,500.839072 C13.5206763,498.034756 10.5409717,495.363878 7.60323191,492.655894 C6.54092842,491.676928 4.64216751,489.269889 3,488.01515 C14.9597021,494.596452 27.2695376,501.716475 35.9941639,512.320427 C34.9713015,508.3998 33.8603267,504.534654 32.6851129,500.746958 C26.7229627,481.530015 19.1948396,461.61351 8.91887013,444.24485 Z" id="Fill-19" fill="#4A50A0"></path>
        <path d="M284.835965,377.579953 C294.718226,394.224007 306.227917,410.340027 313.139896,428.537855 C312.86136,426.392885 312.56602,424.250137 312.235448,422.110438 C310.481628,410.767907 308.301915,399.508141 306.011408,388.262179 C304.844946,382.536281 303.611272,376.831134 302.345957,371.126474 C301.665432,368.0625 300.99325,364.996658 300.298702,361.935602 C300.130467,361.193682 299.985919,359.898705 299.775297,358.586213 C306.492643,380.715944 312.970429,402.862361 317.708699,425.524098 C318.330297,428.498209 318.859635,431.467036 319.293234,434.430698 C319.441563,433.754615 319.587458,433.078417 319.747147,432.404187 C321.664339,424.321565 324.540189,416.303274 327.964392,408.745865 C329.601365,405.131731 331.481658,401.596744 333.695533,398.302857 C335.076065,396.249631 338.331787,393.808927 339.591174,391.706125 C332.703642,404.388406 330.216682,420.25657 326.239818,434.044481 C325.269143,437.409126 324.292438,440.768309 323.335439,444.133409 C329.332718,432.05877 338.637627,422.137988 351.574748,417.838759 C335.914861,428.226518 326.521908,446.41808 320.192348,465.023486 C320.171491,465.244135 320.146694,465.464788 320.125258,465.685786 C321.987811,462.136972 324.333977,458.92708 327.513773,456.678918 C334.319414,451.866153 341.869093,453.268193 348.47081,457.396569 C343.289574,454.090052 333.92557,457.100953 329.566044,460.461622 C326.445096,462.867338 323.777892,466.094789 321.461712,469.243481 C320.906727,469.998246 320.149564,470.878883 319.349665,471.818518 C318.228174,479.127013 316.400583,486.385419 313.813109,493.586213 C314.24011,491.519363 313.93138,488.213786 314.049793,486.673213 C314.062682,486.50642 314.073137,486.339511 314.08591,486.173183 C313.692598,487.749775 313.312605,489.308445 312.946738,490.841984 C313.674029,487.915642 314.069308,484.860785 314.377875,481.774355 C314.457347,480.447931 314.534849,479.121509 314.616756,477.795201 C314.590797,475.277984 314.487526,472.75082 314.312857,470.219636 C313.693513,467.759601 313.000068,465.439187 312.428189,463.509478 C310.364545,456.546481 307.33931,449.875752 303.615783,443.652606 C300.218472,437.973662 296.151892,432.829626 291.45728,428.177437 C288.92646,425.670267 286.277834,423.282396 283.666509,420.861351 C282.72224,419.986116 281.034452,417.834127 279.574748,416.712341 C290.205594,422.596286 301.14767,428.96187 308.902893,438.442225 C307.993682,434.937028 307.006149,431.481434 305.961515,428.095084 C300.661826,410.914372 293.970161,393.108225 284.835965,377.579953 Z" id="Fill-19" fill="#4A50A0" transform="translate(315.574748, 426.086213) rotate(-6.000000) translate(-315.574748, -426.086213) "></path>
        <path d="M42.4842544,543.242749 C42.4673462,540.989303 42.5913401,538.719342 42.9299391,536.418337 C43.5087221,532.476869 44.3927212,528.555879 45.2233941,524.641163 C45.8203861,521.827905 45.7826676,516.774742 48.0483758,514.532855 C48.6696463,514.048346 48.8192195,514.998869 48.8192195,515.411379 C48.8270233,515.498571 48.8174853,513.727652 48.2144237,514.036126 C44.6298705,515.896549 43.4684024,521.746328 42.3208078,524.675181 C40.6464556,528.950224 39.2218255,533.320384 38.6352386,537.768159 C38.486966,538.891744 38.4063266,540.015 38.3876842,541.136274 C38.2658579,540.836387 38.1514019,540.534188 38.0248067,540.235291 C35.9559281,535.359154 33.1638959,530.601254 29.6816595,526.213259 C28.8245402,525.133599 18.0470357,514.480342 17.2033564,516.110895 C17.2865971,516.3477 17.4608824,516.544212 17.7266457,516.700431 C17.7422533,516.718266 17.7426869,516.708357 17.7335824,516.681936 C18.3665587,517.709412 20.1662055,519.29637 20.7267797,520.196692 C22.1375364,522.462358 23.2339726,524.866739 24.3481842,527.225212 C26.7023356,532.209349 28.8861037,537.243687 31.0031058,542.288593 C31.4960469,543.463701 32.0097981,544.632204 32.5339545,545.797074 C27.1306785,537.965331 19.922553,530.855233 10,526.78496 C13.3890242,528.517567 15.6109443,531.777353 17.8996303,534.273219 C20.6600137,537.283649 23.567369,540.213163 26.332955,543.220291 C29.5949504,546.767743 33.4331276,550.503451 36.5706955,554.429066 C39.6098486,560.840968 42.5631597,567.259807 44.386218,574 C43.6392193,571.671251 44.3276894,568.45308 44.1997935,566.009066 C44.0983439,564.063764 43.8720332,562.134314 43.5620482,560.208497 C43.9453023,561.077113 44.2756639,561.946389 44.4252371,562.754895 C44.2886703,561.398798 44.1312933,560.051288 43.9622106,558.710713 C44.3961895,557.455679 44.8223646,556.284534 45.1102388,555.319809 C46.5855937,550.371012 48.3423195,545.507425 50.7346229,540.767029 C52.9483056,536.382007 55.4875809,532.0528 58.2544675,527.855702 C59.5451321,525.89884 60.853572,523.949243 62.1537746,521.996344 C63.0048242,520.717861 63.8151205,518.670834 65,517.445855 C57.3409874,524.482633 48.9731281,531.570272 44.1139515,540.013679 C43.5056873,541.070549 42.9633221,542.148558 42.4842544,543.242749 Z" id="Fill-27" fill="#6369C8"></path>
        <path d="M323.113951,456.013679 C322.505687,457.070549 321.963322,458.148558 321.484254,459.242749 C321.467346,456.989303 321.59134,454.719342 321.929939,452.418337 C322.508722,448.476869 323.392721,444.555879 324.223394,440.641163 C324.820386,437.827905 324.782668,432.774742 327.048376,430.532855 C327.669646,430.048346 327.819219,430.998869 327.819219,431.411379 C327.827023,431.498571 327.817485,429.727652 327.214424,430.036126 C323.62987,431.896549 322.468402,437.746328 321.320808,440.675181 C319.646456,444.950224 318.221825,449.320384 317.635239,453.768159 C317.486966,454.891744 317.406327,456.015 317.387684,457.136274 C317.265858,456.836387 317.151402,456.534188 317.024807,456.235291 C314.955928,451.359154 312.163896,446.601254 308.681659,442.213259 C307.82454,441.133599 297.047036,430.480342 296.203356,432.110895 C296.286597,432.3477 296.460882,432.544212 296.726646,432.700431 C296.742253,432.718266 296.742687,432.708357 296.733582,432.681936 C297.366559,433.709412 299.166206,435.29637 299.72678,436.196692 C301.137536,438.462358 302.233973,440.866739 303.348184,443.225212 C305.702336,448.209349 307.886104,453.243687 310.003106,458.288593 C310.496047,459.463701 311.009798,460.632204 311.533954,461.797074 C306.130678,453.965331 298.922553,446.855233 289,442.78496 C292.389024,444.517567 294.610944,447.777353 296.89963,450.273219 C299.660014,453.283649 302.567369,456.213163 305.332955,459.220291 C308.59495,462.767743 312.433128,466.503451 315.570695,470.429066 C318.609849,476.840968 321.56316,483.259807 323.386218,490 C322.639219,487.671251 323.327689,484.45308 323.199793,482.009066 C323.098344,480.063764 322.872033,478.134314 322.562048,476.208497 C322.945302,477.077113 323.275664,477.946389 323.425237,478.754895 C323.28867,477.398798 323.131293,476.051288 322.962211,474.710713 C323.39619,473.455679 323.822365,472.284534 324.110239,471.319809 C325.585594,466.371012 327.34232,461.507425 329.734623,456.767029 C331.948306,452.382007 334.487581,448.0528 337.254467,443.855702 C338.545132,441.89884 339.853572,439.949243 341.153775,437.996344 C342.004824,436.717861 342.81512,434.670834 344,433.445855 C336.340987,440.482633 327.973128,447.570272 323.113951,456.013679" id="Fill-27" fill="#6369C8"></path>
        <g id="Group-3" transform="translate(66.000000, 333.000000)">
            <path d="M105.678744,69.8617972 C108.170823,66.3189641 112.795408,57.321331 116.302962,56.0553704 C118.562152,55.2399747 117.903453,63.6746183 117.931353,65.2829198 C118.040002,71.505185 117.432435,77.6879961 116.68214,83.8580197 C115.330408,94.9856321 110.910363,104.895617 104.847944,114.36636 C101.728351,119.239633 98.069317,124.171998 93.0013832,127.212687 C90.6686084,128.612986 87.8616944,128.847442 85.5579328,130.053913 C82.8748661,131.458404 84.3360589,130.323021 83.1268922,133.110597 C81.4477082,136.980773 80.9106094,141.973713 80.1336774,146.103328 C76.5663863,165.060508 67.9300415,265.273105 69.4272526,284.556181 C69.5602289,286.265348 67.1699063,286.674069 67.05058,284.587533 C66.4163402,273.524136 71.9045616,196.910286 74.6734623,171.855354 C77.442363,146.800422 80.2443641,124.665642 83.0539254,115.99742 C86.4623419,105.481025 92.6181372,92.8342468 97.742407,83.0272526 C100.122592,78.4711446 102.71704,74.0719918 105.678744,69.8617972 Z" id="Leaf" fill="#585CD0"></path>
            <path d="M124.218591,187.346524 C130.667458,182.60065 137.647872,191.55753 131.812312,196.304134 C128.586275,198.927769 125.213643,197.994471 123.314943,195.808057 C122.082384,197.314091 120.92875,198.888796 119.820258,200.218874 C116.442965,204.271876 113.250914,208.421614 110.200237,212.668111 C103.862929,221.490104 98.4319694,230.810352 92.7535151,239.960171 C87.1496233,248.990545 81.5905406,258.067172 76.5112484,267.326339 C72.2083669,275.171098 66.4731726,284.399827 65,293 C67.2351935,274.760522 75.7167398,257.229154 85.8167822,241.149656 C95.83464,225.202251 107.331296,207.785914 122.842656,195.200571 C121.263979,192.873445 121.220155,189.551649 124.218591,187.346524 Z" id="Leaf" fill="#585CD0"></path>
            <path d="M1.13437321,142.018224 C4.76259754,142.727053 10.6910752,150.92618 13.681814,154.050112 C17.236106,157.762466 20.460731,161.719308 23.5003195,165.865093 C30.0439312,174.788724 35.8960417,184.276397 40.8723263,194.170378 C48.9849732,210.299547 55.4842583,226.856698 60.2010675,244.420459 C63.0883975,255.171872 64.9578241,266.315294 66.065747,277.380898 C66.2749829,279.467804 68.4652249,295.557459 65.3092203,295.991119 C62.4707271,296.381604 63.3474317,283.773915 63.2104949,282.058958 C61.6625735,262.711044 57.0254398,243.885686 50.5752293,225.649307 C49.170281,221.676685 47.8650344,216.810932 45.6181905,213.235956 C44.0001482,210.660957 45.6065871,211.558942 42.7630904,210.584429 C40.3214954,209.747154 37.5396454,209.951748 35.0393969,208.926853 C29.607854,206.701715 25.2587463,202.382059 21.4464557,198.036992 C14.0378388,189.592737 8.16688672,180.457374 5.10660747,169.637308 C3.40897611,163.637935 1.84893955,157.603664 0.983215045,151.418778 C0.759267191,149.820166 -1.2025387,141.561673 1.13437321,142.018224 Z" id="Leaf" fill="#585CD0"></path>
            <path d="M13.6225339,8.40388018 C27.7569219,32.8963792 39.3719829,59.8007471 46.8719115,87.050803 C51.4159731,103.561317 54.5937718,120.50353 57.7511678,137.323359 C62.639826,163.366766 67.2639359,189.408165 68.5792763,215.914181 C69.902593,242.573807 72.5193626,273.322553 63.7825871,299 C68.1466503,272.930415 63.9917659,245.181371 63.2561045,218.949992 C62.9045496,206.427557 61.8858087,194.027549 60.5494112,181.578289 C59.2525705,169.501836 57.1338997,157.48289 55.1609398,145.501359 C54.1998745,139.666137 53.1905393,133.839694 52.162896,128.016439 C51.8561093,126.279063 51.726516,121.123664 50.6235236,119.936786 C49.5133877,118.742094 43.8493278,118.255058 42.0710753,117.378464 C38.4902857,115.612896 35.1220697,113.105036 32.1411111,110.455159 C26.4265744,105.375414 21.4552151,98.738109 17.5314205,92.1952356 C8.45277771,77.056056 4.82314075,58.5807443 5.00659728,41.047648 C5.04184609,37.643513 10.5209516,0.98642509 8.32045469,0.481626667 C8.45294327,0.326589721 8.57826733,0.166509412 8.6964374,0 C10.3624021,2.78706265 11.9971962,5.59301285 13.6225339,8.40388018 Z" id="Leaf" fill="#363AAC"></path>
            <path d="M162.542108,91.3039822 C162.752553,90.9999389 164.122217,88.8854085 163.432497,89.0205465 C164.836792,88.7454006 161.500978,91.3526485 165,89.7528531 C163.33864,91.3245013 164.297464,93.3660969 164.319639,95.481363 C164.355817,98.9156155 163.782166,102.321706 163.136424,105.682273 C162.116051,110.994303 160.595971,116.159149 158.389602,121.099975 C153.580751,131.867159 145.415077,142.232541 135.720904,148.964107 C130.935159,152.287751 126.244916,153.419329 120.786771,154.949409 C117.339176,155.916061 117.065776,157.702406 115.235784,161.053455 C111.425878,168.032974 107.683823,174.987388 104.323824,182.202396 C100.311763,190.817876 96.4170187,199.442852 92.7431447,208.209997 C80.3665219,237.741656 70.293099,268.336897 65.0028451,300 C64.8733175,281.34103 69.1826238,262.123887 74.6183968,244.338785 C78.5780305,231.380963 83.7327298,218.890015 89.2307202,206.525517 C90.5629945,203.530072 92.5819353,199.676914 93.1477089,196.369813 C93.5438638,194.052694 92.3327014,191.824306 91.7781641,189.3834 C89.6162715,179.878062 89.7710053,169.229021 91.6694685,159.672859 C93.7626698,149.135377 99.8161111,144.244574 110.056289,142.752008 C113.801327,142.206042 118.561367,142.406142 121.995382,140.806681 C125.73669,139.06492 127.280037,133.339775 129.407481,129.664682 C135.121726,119.792605 141.911076,110.324681 149.707124,102.006638 C151.865776,99.7032656 154.187205,97.5782486 156.649982,95.6086186 C158.203008,94.3658916 161.48373,92.8348537 162.542108,91.3039822 Z" id="Leaf" fill="#363AAC"></path>
        </g>
        <g id="Group-3-Copy" transform="translate(346.500000, 105.000000) rotate(-12.000000) translate(-346.500000, -105.000000) translate(264.000000, -43.000000)">
            <path d="M105.678744,64.5532847 C108.170823,61.080839 112.795408,52.2619668 116.302962,51.0211577 C118.562152,50.221962 117.903453,58.4890299 117.931353,60.0653784 C118.040002,66.1640224 117.432435,72.2239962 116.68214,78.2714365 C115.330408,89.1779705 110.910363,98.891068 104.847944,108.173651 C101.728351,112.950104 98.069317,117.784474 93.0013832,120.764753 C90.6686084,122.137231 87.8616944,122.367029 85.5579328,123.549531 C82.8748661,124.926118 84.3360589,123.813292 83.1268922,126.545485 C81.4477082,130.338771 80.9106094,135.232513 80.1336774,139.280083 C76.5663863,157.860631 67.9300415,256.082249 69.4272526,274.982217 C69.5602289,276.657427 67.1699063,277.058027 67.05058,275.012946 C66.4163402,264.169352 71.9045616,189.077631 74.6734623,164.520479 C77.442363,139.963327 80.2443641,118.268312 83.0539254,109.772306 C86.4623419,99.4648453 92.6181372,87.069328 97.742407,77.4571748 C100.122592,72.9915854 102.71704,68.679833 105.678744,64.5532847 Z" id="Leaf" fill="#585CD0"></path>
            <path d="M124.218591,185.584673 C130.667458,180.933087 137.647872,189.712016 131.812312,194.364317 C128.586275,196.935827 125.213643,196.021071 123.314943,193.878095 C122.082384,195.354208 120.92875,196.897628 119.820258,198.201281 C116.442965,202.173759 113.250914,206.241052 110.200237,210.403181 C103.862929,219.049903 98.4319694,228.18498 92.7535151,237.153016 C87.1496233,246.003978 81.5905406,254.900275 76.5112484,263.975484 C72.2083669,271.664387 66.4731726,280.709764 65,289.139073 C67.2351935,271.261968 75.7167398,254.078906 85.8167822,238.318869 C95.83464,222.688299 107.331296,205.617982 122.842656,193.282679 C121.263979,191.001787 121.220155,187.745987 124.218591,185.584673 Z" id="Leaf" fill="#585CD0"></path>
            <path d="M1.13437321,141.156935 C4.76259754,141.851681 10.6910752,149.887912 13.681814,152.949779 C17.236106,156.588378 20.460731,160.466606 23.5003195,164.530025 C30.0439312,173.276366 35.8960417,182.575541 40.8723263,192.272953 C48.9849732,208.081675 55.4842583,224.309876 60.2010675,241.524688 C63.0883975,252.062497 64.9578241,262.984526 66.065747,273.830284 C66.2749829,275.875729 68.4652249,291.645721 65.3092203,292.070766 C62.4707271,292.453492 63.3474317,280.096287 63.2104949,278.415403 C61.6625735,259.451884 57.0254398,241.000539 50.5752293,223.126473 C49.170281,219.232777 47.8650344,214.463695 45.6181905,210.959745 C44.0001482,208.435905 45.6065871,209.316049 42.7630904,208.360898 C40.3214954,207.540257 37.5396454,207.740786 35.0393969,206.736254 C29.607854,204.555323 25.2587463,200.321488 21.4464557,196.062747 C14.0378388,187.786259 8.16688672,178.832393 5.10660747,168.227295 C3.40897611,162.347115 1.84893955,156.432731 0.983215045,150.370723 C0.759267191,148.803872 -1.2025387,140.709454 1.13437321,141.156935 Z" id="Leaf" fill="#585CD0"></path>
            <path d="M15.3572252,7.96143355 C29.0567089,31.1644539 40.3143834,56.6523634 47.583545,82.4677611 C51.9877893,98.109031 55.0678096,114.159272 58.1280549,130.093572 C62.8662929,154.765849 67.3481225,179.436223 68.6229908,204.546753 C69.9055902,229.802806 72.4418438,258.932695 63.9738921,283.258278 C68.2036764,258.561202 64.1766346,232.273087 63.463609,207.422735 C63.1228712,195.559579 62.1354762,183.812406 60.8401986,172.018573 C59.5832607,160.577921 57.5297797,149.191747 55.6175263,137.841018 C54.6860322,132.313008 53.7077535,126.793315 52.71173,121.276642 C52.4143828,119.630736 52.2887771,114.746758 51.2197229,113.622366 C50.143745,112.490572 44.6539639,112.029178 42.9304269,111.198735 C39.4598153,109.52612 36.1952368,107.150293 33.306,104.639927 C27.7672952,99.8276197 22.9489008,93.539755 19.1458384,87.3413502 C10.3465384,72.9992165 6.82858258,55.4965911 7.00639429,38.8865756 C7.04055852,35.6616611 12.3510762,0.934491881 10.2182869,0.456270034 C10.3466989,0.309395458 10.4681668,0.157743041 10.5827009,0 C12.1974051,2.64032965 13.7818978,5.29855247 15.3572252,7.96143355 Z" id="Leaf" fill="#363AAC"></path>
            <path d="M162.542108,91.4502607 C162.752553,91.152258 164.122217,89.0797381 163.432497,89.2121912 C164.836792,88.9425119 161.500978,91.4979602 165,89.9299488 C163.33864,91.4703721 164.297464,93.4714062 164.319639,95.5446472 C164.355817,98.9106695 163.782166,102.24909 163.136424,105.54289 C162.116051,110.749383 160.595971,115.811616 158.389602,120.65428 C153.580751,131.207547 145.415077,141.366994 135.720904,147.96482 C130.935159,151.222431 126.244916,152.331527 120.786771,153.831209 C117.339176,154.778656 117.065776,156.52951 115.235784,159.813983 C111.425878,166.654836 107.683823,173.471082 104.323824,180.542746 C100.311763,188.987058 96.4170187,197.440677 92.7431447,206.033639 C80.3665219,234.978577 70.293099,264.965965 65.0028451,296 C64.8733175,277.711738 69.1826238,258.876392 74.6183968,241.444637 C78.5780305,228.744255 83.7327298,216.501471 89.2307202,204.382626 C90.5629945,201.446693 92.5819353,197.670088 93.1477089,194.428691 C93.5438638,192.157608 92.3327014,189.973492 91.7781641,187.581081 C89.6162715,178.264591 89.7710053,167.82712 91.6694685,158.460815 C93.7626698,148.132687 99.8161111,143.339052 110.056289,141.87614 C113.801327,141.341021 118.561367,141.537146 121.995382,139.969462 C125.73669,138.262306 127.280037,132.650906 129.407481,129.048827 C135.121726,119.372885 141.911076,110.093065 149.707124,101.940281 C151.865776,99.6826709 154.187205,97.5998728 156.649982,95.6693745 C158.203008,94.4513374 161.48373,92.9507175 162.542108,91.4502607 Z" id="Leaf" fill="#363AAC"></path>
        </g>
        <path d="M422.599696,286.090749 C422.537548,286.818688 422.356786,287.492664 421.903878,287.941161 C421.908154,287.622536 421.91722,287.305705 421.934257,286.992222 C421.886568,287.054929 421.838729,287.117459 421.790752,287.179812 C421.541797,287.499315 421.608603,287.486596 421.573634,287.022096 C421.528227,287.248495 421.440545,287.412825 421.317373,287.528823 C421.318416,289.574048 421.422278,291.673202 421.220818,293.472695 C420.643577,298.62595 419.742747,303.792942 418.566866,308.849023 C418.280855,310.078702 417.963529,311.29668 417.616454,312.502447 C419.839823,310.850495 422.793878,309.432574 423.943141,309.000635 C426.925901,307.880848 431.491116,306.740203 434.269806,309.035739 C436.575117,310.940037 436.519793,314.092329 434.443082,316.122292 C431.970236,318.538914 427.709821,318.229586 424.539171,317.820541 C423.104941,317.635351 415.446841,316.646317 417.335662,315.517373 C417.192656,315.561636 416.893076,315.671528 416.57053,315.825174 C416.369592,316.41483 416.160303,317.001942 415.943707,317.586001 C415.987548,317.613983 416.024604,317.643492 416.071577,317.671473 C416.020429,317.646544 415.984939,317.620597 415.940054,317.595668 C413.770442,323.433209 410.833088,328.947176 407.100854,334.05566 C408.417131,333.6283 409.773073,333.323042 411.136845,333.225869 C415.175444,332.9374 423.452016,336.393424 418.684297,341.350805 C414.11282,346.103156 407.701582,340.428928 402.857663,339.444981 C397.774184,345.621866 392.219413,351.506722 386.425082,357.173318 C386.754934,357.292369 387.037814,357.519786 387.188648,357.85913 C389.442811,356.889429 391.814405,355.458789 393.869195,355.143356 C396.83421,354.689031 402.867058,354.628997 404.945856,357.289825 C407.502731,360.561677 404.443249,362.957948 401.190136,363.394975 C396.473043,364.028893 390.479339,361.502887 386.066525,359.777674 C385.547738,359.839743 384.994505,359.665237 384.680833,359.249069 C384.583234,359.212438 384.485636,359.176316 384.390647,359.141212 C378.528466,364.775247 372.464826,370.203234 366.442938,375.507592 C366.504003,375.507592 366.565067,375.507083 366.628741,375.507083 C368.172052,374.633029 369.814527,373.935007 371.571302,373.614995 C375.635476,372.869658 380.357266,373.105215 383.461633,376.089616 C386.553996,379.061298 387.438124,384.028346 383.912048,387.009185 C376.854154,392.975951 367.733641,378.088544 364.37771,377.315734 C358.261355,382.646547 351.831329,387.590701 345.310488,392.423944 C346.030734,392.250456 346.766117,392.133441 347.521332,392.102406 C353.673698,391.844972 367.64909,399.861543 359.749343,406.647417 C352.865248,412.560763 345.936789,400.152555 340.887757,395.679515 C334.745828,400.181046 328.573629,404.64798 322.557483,409.309262 C325.736484,408.66059 328.773002,408.695694 332.080916,409.85262 C335.503653,411.051265 340.978049,413.886089 338.533386,418.332673 C336.046969,422.854554 329.421745,420.402319 325.99118,418.751894 C324.120105,417.851893 320.428058,414.947368 317.119622,413.634761 C307.492326,421.575525 299.046653,430.431554 292.442306,441.034164 C288.319155,447.654181 285.07648,454.786013 282.666786,462.163069 C281.128694,466.871666 278.173074,474.761046 278.342697,481 C276.606799,468.44069 281.765956,453.725244 287.05507,442.847393 C291.9183,432.844614 298.855109,424.199213 306.848802,416.506216 C305.251212,410.87218 289.718939,402.073133 299.539865,397.413886 C304.754346,394.951476 309.701082,399.729265 310.550765,404.566069 C311.134269,407.889815 309.75223,411.958388 308.349837,415.084225 C310.860262,412.7429 313.460456,410.485521 316.131631,408.31107 C319.823156,405.30581 323.594012,402.397215 327.397226,399.529321 C321.69684,393.756393 316.866491,377.836198 325.043377,375.688711 C337.117423,372.528279 330.250551,393.559502 329.206715,397.513604 C328.970808,397.51513 328.791269,397.436781 328.664443,397.282117 C328.711415,397.651479 328.767782,398.046787 328.840329,398.446166 C336.11795,392.987653 343.492648,387.6487 350.648141,382.044681 C350.056286,381.571532 349.168504,379.833599 348.447736,378.89595 C346.820918,376.782042 345.273954,374.581644 344.187843,372.150268 C342.472299,368.308094 340.945168,362.241101 346.147644,360.29712 C351.805755,358.178633 354.068268,365.067786 353.88925,369.099728 C353.765034,371.888256 352.840196,374.496172 352.285397,377.207367 C352.11212,378.05293 352.395,381.918508 351.288534,380.205504 C351.31202,380.817546 351.296363,381.259152 351.251478,381.570514 C352.536439,380.559094 353.812528,379.535464 355.08131,378.503694 C355.032772,378.362767 354.999369,378.210138 354.999369,378.035124 C354.999369,376.830374 356.269717,376.430996 357.124097,376.827322 C358.799975,375.435856 360.461239,374.025058 362.095885,372.583225 C365.560375,369.528615 369.077579,366.384463 372.575472,363.168575 C371.888628,362.532114 372.219524,361.716059 371.581219,361.045001 C370.943957,360.375469 369.640207,359.956758 368.882382,359.326401 C366.976338,357.74008 365.446075,355.492367 364.369881,353.302145 C362.593273,349.683317 360.450279,342.172457 366.285841,340.787605 C372.300943,339.357474 374.923058,346.615988 375.063976,351.077835 C375.091638,351.942223 374.00918,359.663202 373.348954,362.453255 C379.822822,356.475296 386.208486,350.256184 392.033088,343.894618 C390.376521,343.795409 385.85567,340.260019 384.954318,339.312194 C382.754956,337.000377 379.33222,331.965155 383.53418,329.606532 C387.270067,327.51501 391.545617,331.037173 392.917739,334.31869 C393.143208,334.858996 393.773684,339.813325 393.724624,342.019319 C396.139016,339.318808 398.450067,336.59642 400.611329,333.857243 C402.052344,332.036382 403.408286,330.161084 404.685941,328.240505 C404.412456,328.071087 404.161935,327.787198 403.929682,327.438187 C397.957377,326.138807 390.767438,316.620879 398.016876,313.805387 C401.468318,312.466833 404.954729,315.769719 406.467768,318.405618 C406.777787,318.944906 407.183839,321.597594 407.517867,323.690642 C411.240184,317.302112 414.18902,310.488256 416.53243,303.467334 C416.014688,303.314196 415.591413,302.902608 415.56897,302.230532 C412.730781,300.462583 410.49332,298.996838 408.619113,295.779424 C407.454715,293.781005 405.408275,289.246405 409.194267,288.362685 C414.12117,287.212882 416.780341,294.561447 416.985977,298.124819 C417.009985,298.538443 416.943702,299.734544 416.868545,300.829909 C417.038169,300.816173 417.208314,300.827365 417.373762,300.864505 C418.726051,296.512042 419.856525,292.091405 420.805371,287.653979 C418.202045,286.691909 418.472921,273.168493 420.339821,271.335931 C424.513075,267.232253 426.957738,273.591275 426.569953,276.866688 C426.166399,280.271666 424.564819,283.342867 422.599696,286.090749 Z M425.25272,288.770079 C427.082346,286.638675 429.626403,285.152513 432.280536,284.098853 C436.597577,282.388412 442.080043,284.876052 439.451024,289.819725 C436.634982,295.113613 427.36395,294.735299 422.136371,294.376553 C422.66164,294.376553 424.632336,289.492588 425.25272,288.770079 Z M279.050965,486.018512 C278.589818,484.402934 278.263269,482.730572 278.050965,481.018512 C278.096294,482.876301 278.390466,484.588361 279.050965,486.018512 Z" id="Leaf-Bottom" fill="#4044C1" transform="translate(359.068186, 378.009256) scale(-1, 1) rotate(-10.000000) translate(-359.068186, -378.009256) "></path>
        <path d="M108.306724,28.6568652 C108.300762,28.6675656 108.294717,28.6782015 108.288588,28.6887717 C108.242454,28.8741312 108.165004,29.0125264 108.060797,29.1134481 C108.061788,31.1102082 108.160391,33.1596192 107.969131,34.9164701 C107.421117,39.9476101 106.565899,44.9921613 105.449556,49.9284304 C105.178027,51.12897 104.876768,52.3180854 104.547266,53.4952797 C106.65806,51.8824738 109.462542,50.4981528 110.553615,50.076449 C113.385349,48.983198 117.719414,47.869582 120.357411,50.1107217 C122.545997,51.9698941 122.493475,55.0474875 120.521914,57.0293464 C118.174275,59.3887023 114.129577,59.0867047 111.119466,58.6873527 C109.757855,58.5065516 102.487508,57.5409541 104.280692,56.4387624 C104.144927,56.4819759 103.860515,56.5892645 103.554301,56.7392699 C103.363537,57.3149527 103.164845,57.888152 102.959216,58.458371 C103.000837,58.4856899 103.036017,58.5144989 103.080611,58.5418177 C103.032053,58.5174791 102.99836,58.4921471 102.955747,58.4678085 C100.895989,64.1670188 98.1073624,69.5503237 94.5641023,74.5377536 C95.813732,74.1205202 97.1010191,73.8224963 98.3957385,73.7276253 C102.229852,73.4459928 110.087357,76.82012 105.561042,81.660028 C101.221031,86.2997634 95.1344131,80.7599959 90.535756,79.7993655 C85.7096683,85.8298791 80.4361517,91.5752831 74.9352045,97.1076 C75.2483551,97.2238293 75.5169116,97.4458571 75.6601086,97.7771603 C77.8001366,96.8304378 80.0516503,95.4336991 82.0024005,95.1257411 C84.817288,94.6821822 90.5446749,94.6235708 92.5182177,97.2213458 C94.9456308,100.415665 92.0410593,102.755153 88.9526605,103.181824 C84.4744078,103.80072 78.7841829,101.334572 74.5948018,99.6502405 C74.1022832,99.7108387 73.5770621,99.5404684 73.2792717,99.1341625 C73.1866148,99.0983996 73.0939579,99.0631335 73.0037784,99.0288607 C67.4384173,104.529388 61.6817964,109.82875 55.9648149,115.007412 C56.0227874,115.007412 56.0807599,115.006915 56.1412099,115.006915 C57.6063784,114.153573 59.1656903,113.472092 60.8335149,113.159664 C64.6919076,112.431989 69.1746197,112.661964 72.1218035,115.575644 C75.0575909,118.476907 75.8969536,123.326252 72.5494127,126.236456 C65.8488804,132.061829 57.1901655,117.527204 54.0041548,116.772707 C48.1974893,121.977197 42.0930334,126.804191 35.902362,131.522903 C36.5861403,131.353526 37.2842879,131.239283 38.0012642,131.208984 C43.8421186,130.957651 57.1098959,138.784255 49.6101358,145.409326 C43.0746022,151.182546 36.4969518,139.068371 31.7035666,134.701328 C25.872622,139.096187 20.0129389,143.45727 14.3014077,148.008095 C17.3194468,147.374794 20.2022166,147.409067 23.3426421,148.538577 C26.5920757,149.708818 31.7892866,152.476466 29.4684042,156.817681 C27.1078824,161.232408 20.8181126,158.838283 17.5612467,157.226967 C15.7849095,156.348293 12.2798022,153.512596 9.13888127,152.231093 C-0.000955904392,159.983688 -8.0190002,168.629858 -14.2889503,178.981221 C-18.2033336,185.444366 -21.2818226,192.407198 -23.5695071,199.609442 C-25.0297207,204.206461 -27.8356893,211.908888 -27.6746546,218 C-29.3226595,205.738304 -24.4247255,191.371565 -19.4034141,180.751483 C-14.7864238,170.985737 -8.2008456,162.545204 -0.611896988,155.034505 C-2.12859663,149.533977 -16.8744252,140.943438 -7.55076069,136.3946 C-2.60030459,133.990541 2.09596434,138.655111 2.90262459,143.3773 C3.45658415,146.622283 2.14452252,150.594445 0.813136716,153.64621 C3.19645108,151.360367 5.66498999,149.15648 8.20091576,147.033556 C11.7055275,144.099511 15.285454,141.25984 18.8961009,138.459906 C13.4843422,132.823777 8.89856786,117.280838 16.661434,115.184239 C28.1241356,112.098699 21.6049532,132.631552 20.6139701,136.491955 C20.3900079,136.493445 20.2195588,136.416952 20.0991544,136.265953 C20.1437486,136.626562 20.1972617,137.012503 20.2661351,137.402418 C27.1752693,132.073254 34.1765649,126.860816 40.9697541,121.389594 C40.4078667,120.927657 39.5650355,119.230907 38.8807617,118.315477 C37.3363145,116.251662 35.8676776,114.103406 34.8365596,111.729646 C33.2078789,107.978518 31.7580706,102.055293 36.6971304,100.157378 C42.0687543,98.089092 44.2167102,104.814995 44.0467566,108.751394 C43.9288296,111.473842 43.0508186,114.019959 42.5241111,116.666908 C42.3596079,117.492434 42.6281643,121.26641 41.5777222,119.594 C41.6000193,120.191538 41.5851546,120.622679 41.5425423,120.926663 C42.7624425,119.939211 43.9739194,118.939837 45.1784593,117.932516 C45.1323786,117.794929 45.1006671,117.645917 45.1006671,117.47505 C45.1006671,116.298849 46.3066936,115.908934 47.1178133,116.295869 C48.7088366,114.937376 50.2859862,113.560009 51.8378658,112.152343 C55.1269387,109.170117 58.4660563,106.100471 61.7868407,102.960789 C61.1347738,102.339409 61.4489154,101.542692 60.8429292,100.887536 C60.2379341,100.233871 59.0001962,99.8250812 58.2807424,99.2096619 C56.4712073,97.660931 55.0184261,95.4664817 53.9967225,93.3281603 C52.3100692,89.795087 50.2755809,82.462209 55.815672,81.110174 C61.5262121,79.713932 64.0155617,86.8004435 64.1493444,91.1565595 C64.1756054,92.0004638 63.1479559,99.5384816 62.5211591,102.26242 C68.6672363,96.4261187 74.7295755,90.3543785 80.2592612,84.1435605 C78.686571,84.0467027 74.3946232,80.5950893 73.5389093,79.6697251 C71.4509079,77.4126908 68.2014743,72.4967867 72.1906768,70.1940553 C75.7374053,68.152095 79.7964721,71.590794 81.0991194,74.7945509 C81.3131717,75.3220532 81.9117255,80.158981 81.8651493,82.3127004 C84.1572933,79.6761823 86.3513298,77.0183059 88.4031604,74.3440381 C89.7712125,72.5663256 91.0584996,70.7354654 92.2714629,68.8603984 C92.0118253,68.6949952 91.7739894,68.4178329 91.5534957,68.0770923 C85.8835858,66.8085039 79.0576942,57.5161188 85.9400719,54.7673451 C89.2167575,53.4605103 92.5266411,56.6851288 93.9630711,59.2585652 C94.2573931,59.7850741 94.6428855,62.3749017 94.9600001,64.4183522 C98.4938458,58.1812088 101.293373,51.5288187 103.51813,44.6742691 C103.026603,44.5247605 102.624759,44.1229249 102.603453,43.4667756 C99.9089697,41.7407206 97.7847974,40.3097092 96.0054872,37.1685373 C94.9000456,35.2174742 92.9572232,30.7903292 96.5515189,29.92755 C101.228959,28.8049934 103.753489,35.979422 103.948712,39.4583542 C103.971505,39.8621766 103.908578,41.0299336 103.837227,42.0993427 C103.998261,42.0859316 104.159792,42.0968591 104.316863,42.1331187 C105.600681,37.8837947 106.673916,33.5679119 107.57472,29.2356379 C105.103208,28.2963659 105.360368,15.0934106 107.132741,13.3042738 C111.094691,9.29783926 113.415574,15.5061737 113.047424,18.7039701 C112.612878,22.4744691 110.715145,25.8257478 108.510208,28.7727075 C108.280674,29.0756434 108.333872,29.0726679 108.306724,28.6568652 Z M118.122567,25.0877096 C122.199772,23.3772683 127.377656,25.8649093 124.894694,30.8085813 C122.235099,36.1024699 113.479125,35.7241558 108.541967,35.3654097 C109.038054,35.3654097 110.899267,30.481445 111.485185,29.7589353 C113.213165,27.6275318 115.615885,26.1413696 118.122567,25.0877096 Z M68.534723,120.387347 C67.240723,121.381347 68.428723,120.481347 68.534723,120.387347 Z M-27.6369103,218.264921 C-27.5915819,220.12271 -27.2974099,221.83477 -26.6369103,223.264921 C-27.0980574,221.649343 -27.4246069,219.976981 -27.6369103,218.264921 Z" id="Leaf-Bottom" fill="#4044C1" transform="translate(48.770983, 117.632461) rotate(-10.000000) translate(-48.770983, -117.632461) "></path>
        <path d="M77.7882721,154.336122 C77.8161355,154.350047 77.844393,154.363551 77.8730573,154.376576 C77.845896,154.394848 77.818756,154.41312 77.791623,154.43139 C77.7991553,154.663027 77.8014607,154.876107 77.7973882,155.062879 C79.5699795,153.040695 81.2667011,151.002129 82.8534501,148.950992 C83.9114104,147.587504 84.9069124,146.183252 85.8449374,144.745094 C85.644151,144.618231 85.4602245,144.40565 85.2897093,144.144305 C80.9049791,143.17131 75.6262896,136.044141 80.9486616,133.935858 C83.4826318,132.933529 86.0422751,135.40678 87.1531143,137.380581 C87.3807233,137.784408 87.6788375,139.770781 87.9240728,141.338087 C90.6569135,136.554259 92.8218812,131.45194 94.54236,126.194567 C94.1622453,126.079896 93.8514863,125.771692 93.835006,125.268431 C91.7512759,123.944564 90.1085827,122.846992 88.7325828,120.437744 C87.877708,118.941297 86.3752587,115.54572 89.1548474,114.883977 C92.7720678,114.022987 94.7243706,119.525704 94.8753436,122.194011 C94.8929699,122.503739 94.844306,123.399397 94.789128,124.219624 C94.9136616,124.209337 95.0385783,124.217719 95.1600464,124.24553 C96.1528661,120.986339 96.9828343,117.676099 97.6794558,114.353287 C95.7681533,113.632874 95.9670238,103.506336 97.3376591,102.134085 C100.401567,99.061189 102.196383,103.822921 101.91168,106.2756 C101.575631,109.167536 100.108051,111.737934 98.4028999,113.998224 C98.220123,114.237472 98.26917,114.227948 98.2434969,113.880123 C98.2101603,114.049655 98.145786,114.172708 98.0553555,114.259569 C98.0561219,115.791064 98.1323747,117.362943 97.9844672,118.71043 C97.5606699,122.569266 96.899301,126.438387 96.0359962,130.224458 C95.8260135,131.14526 95.59304,132.0573 95.3382252,132.960197 C96.9705725,131.72319 99.1393721,130.661429 99.9831348,130.337987 C102.173009,129.499474 105.524686,128.645341 107.564737,130.364274 C109.257244,131.790241 109.216626,134.150725 107.691953,135.670792 C105.876445,137.480395 102.748546,137.248765 100.420726,136.942466 C99.3677475,136.803794 93.7453454,136.06319 95.1320743,135.217819 C95.0270829,135.250964 94.8071375,135.333253 94.5703322,135.448306 C94.4228078,135.889849 94.2691526,136.329487 94.1101328,136.76684 C94.14232,136.787793 94.1695258,136.809889 94.204012,136.830842 C94.1664603,136.812175 94.1404041,136.792745 94.1074506,136.774078 C92.5145708,141.145317 90.358033,145.27426 87.6179118,149.09957 C88.5842921,148.779556 89.5797941,148.550974 90.5810438,148.478209 C93.5460917,148.2622 99.6225622,150.850123 96.1222117,154.562285 C92.7659369,158.120917 88.0589522,153.871969 84.5026574,153.135175 C80.7704829,157.76052 76.6922967,162.16719 72.4382308,166.410423 C72.6804007,166.49957 72.8880843,166.669863 72.9988234,166.923969 C74.6537784,166.197842 76.3949489,165.126557 77.9035291,164.890356 C80.0803754,164.550151 84.5095546,164.505197 86.0357611,166.497665 C87.9129605,168.947677 85.6667586,170.742041 83.2783968,171.069294 C79.8152148,171.543981 75.4147741,169.65247 72.1749861,168.360604 C71.794105,168.407082 71.3879341,168.276409 71.1576428,167.964777 C71.0859882,167.937347 71.0143335,167.910298 70.9445947,167.884011 C66.6407154,172.102863 62.1889286,176.167421 57.7677962,180.139405 C57.8126283,180.139405 57.8574604,180.139024 57.9042084,180.139024 C59.037272,179.484519 60.2431399,178.96183 61.5329242,178.7222 C64.5167479,178.16408 67.9833786,178.340469 70.262534,180.575233 C72.5328763,182.800474 73.1819835,186.519875 70.5932185,188.751972 C65.4114736,193.219977 58.7154007,182.072061 56.2515525,181.493369 C51.7610645,185.485163 47.0402852,189.18742 42.2528326,192.806626 C42.7816212,192.676716 43.321522,192.589093 43.8759837,192.565854 C48.3929111,192.373083 58.6533255,198.376013 52.853511,203.457378 C47.7993651,207.885381 42.7126488,198.593927 39.0057642,195.244447 C34.4965004,198.615261 29.9650121,201.96017 25.5480947,205.450608 C27.8820449,204.964873 30.1113869,204.991159 32.5399826,205.857483 C35.0528779,206.755046 39.0720543,208.877806 37.2772386,212.207475 C35.4517684,215.593528 30.5876798,213.757257 28.0690368,212.521394 C26.695336,211.84746 23.9847198,209.672507 21.5557409,208.689607 C14.4876001,214.635772 8.28697922,221.267301 3.43821781,229.206696 C0.411094752,234.163865 -1.96960342,239.504289 -3.7387461,245.028341 C-4.86797795,248.554209 -7.03792705,254.461896 -6.9133935,259.13372 C-8.18785063,249.729118 -4.40011501,238.709969 -0.516967532,230.564469 C3.05350495,223.074237 8.14635211,216.60043 14.015139,210.839796 C12.8422246,206.620945 1.43878387,200.032085 8.64908445,196.543171 C12.4774372,194.69928 16.1092185,198.276961 16.7330357,201.898834 C17.1614311,204.387704 16.1467701,207.434314 15.1171651,209.774988 C16.9602615,208.021768 18.869265,206.331409 20.8303809,204.703147 C23.540614,202.452763 26.3090904,200.274762 29.1013241,198.12724 C24.9162307,193.804384 21.3698985,181.8831 27.3731817,180.27503 C36.2376709,177.90845 31.1961699,193.656949 30.4298096,196.617841 C30.2566122,196.618983 30.1247982,196.560314 30.0316854,196.4445 C30.0661717,196.721083 30.1075551,197.017096 30.1608172,197.316157 C35.5038809,193.22874 40.9182162,189.23085 46.1716159,185.034476 C45.7370896,184.680175 45.0853002,183.378785 44.5561284,182.676659 C43.3617559,181.093732 42.22601,179.446041 41.4286122,177.62539 C40.1690991,174.748312 39.047914,170.205256 42.8674536,168.749573 C47.0215094,167.163218 48.6825953,172.32192 48.5511645,175.3411 C48.4599676,177.429191 47.7809724,179.382038 47.3736519,181.412222 C47.2464361,182.045393 47.4541198,184.939996 46.6417779,183.657273 C46.659021,184.115579 46.6475256,184.44626 46.6145721,184.679413 C47.5579616,183.922047 48.494837,183.155537 49.4263479,182.382932 C49.3907122,182.277403 49.3661886,182.163113 49.3661886,182.032059 C49.3661886,181.129924 50.2988491,180.830864 50.926115,181.127639 C52.1565064,180.085688 53.3761687,179.029261 54.5762889,177.949595 C57.1198386,175.662257 59.7020896,173.307868 62.2701628,170.899762 C61.7658978,170.42317 62.008834,169.812096 61.5402047,169.309597 C61.0723417,168.808242 60.1151577,168.494705 59.5587802,168.022684 C58.1594063,166.834822 57.0359222,165.151701 56.2458048,163.511629 C54.9414596,160.801796 53.3681219,155.17755 57.652459,154.140552 C62.0686101,153.069648 63.9937071,158.504934 64.0971657,161.846033 C64.1174742,162.493299 63.3227586,168.274885 62.8380358,170.36412 C67.5910022,165.887733 72.2792111,161.230768 76.5555014,156.467131 C75.3392876,156.392842 72.0201813,153.745488 71.3584292,153.035742 C69.7437081,151.304619 67.2308128,147.534168 70.3157961,145.767995 C73.0585995,144.201832 76.1976111,146.83928 77.2049917,149.296531 C77.3492705,149.64917 77.719439,152.512775 77.7882721,154.336122 Z M105.512644,110.470109 C108.630507,109.226152 112.590066,111.035346 110.69133,114.630743 C108.657522,118.480844 101.961777,118.205707 98.1863031,117.9448 C98.5656643,117.9448 99.9889443,114.392826 100.437,113.867364 C101.758396,112.317253 103.59577,111.236408 105.512644,110.470109 Z M67.3113219,184.464586 C66.0173219,185.458586 67.2053219,184.558586 67.3113219,184.464586 Z M-6.83378564,258.697627 C-6.78845724,259.812301 -6.49428518,260.839537 -5.83378564,261.697627 C-6.29493273,260.728281 -6.62148222,259.724864 -6.83378564,258.697627 Z" id="Leaf-Top" fill="#363990" transform="translate(52.010655, 181.415674) rotate(7.000000) translate(-52.010655, -181.415674) "></path>
        <path d="M195.560889,-1.73531125 C195.619017,6.7217377 196.744862,15.0416532 196.354211,23.5334722 C196.041429,30.3202331 194.573243,36.9586354 192.292565,43.3515576 C190.099556,49.4990273 184.802078,55.0944558 183.942432,61.5051416 C183.39444,65.5899193 184.520178,71.1356661 186.257644,74.8910526 C188.370532,79.4569777 187.47166,79.1734297 184.664186,83.4884985 C179.162886,91.9447207 174.311058,100.532879 171.26219,110.260424 C166.870393,124.271581 164.710238,140.335047 168.393915,154.775014 C168.862251,156.608723 169.885415,163.258359 172.485884,163.455984 C175.390304,163.677245 173.658037,159.995364 173.376771,158.776611 C171.583296,151.000089 170.001585,144.204082 170.334448,136.078475 C171.619184,104.727192 191.527686,82.0573245 203.13582,54.3376508 C203.783282,52.9030047 205.111958,49.509332 206.047752,47.2641676 C207.525151,43.7195511 208.695884,37.148082 210.910457,34.4015457 C215.081127,29.2274255 211.780922,39.0921292 211.060737,40.9848686 C210.150278,43.3790133 209.139808,45.9280411 208.171536,48.0439139 C203.753597,57.8442663 198.798585,68.5561991 194.233879,78.6597563 C218.855243,81.6263187 232.751325,50.780771 237.206548,30.9961688 C240.87735,14.695825 243.390639,-22.7734241 218.47653,-21.5029401 C207.874671,-20.9388494 195.481206,-13.3747465 195.560889,-1.73531125 Z" id="Leaf-Me-Alone!" fill="#4A50A0" transform="translate(203.018583, 70.965541) scale(-1, 1) rotate(-167.000000) translate(-203.018583, -70.965541) "></path>
        <path d="M166.578133,5.03465415 C164.678476,10.9034177 164.460739,16.9323492 163.405085,22.963457 C161.817039,32.037321 158.400178,38.913663 151.722479,45.3782688 C149.654195,47.3803685 148.130037,49.4360026 147.046568,51.6352656 C144.89571,53.8310467 143.023433,56.3158265 141.647909,59.3537952 C139.890803,63.2335163 139.393615,67.8883981 141.42235,71.7563676 C141.967778,72.7961538 143.328525,74.8835603 144.738817,75.8319462 C139.458806,87.0820056 136.555647,99.4031883 136.882905,111.708702 C137.08065,119.136928 137.44311,126.568199 137.86598,133.987284 C137.979847,135.979374 138.628277,139.268911 139.602226,135.928015 C140.4936,132.872202 139.375797,128.074997 139.272361,124.882518 C138.769089,109.330556 138.33883,95.1900742 144.737948,80.6600532 C145.408978,79.1371517 146.120425,77.6264369 146.861426,76.1279088 C146.904887,76.1026649 146.945305,76.0721982 146.986158,76.0426019 C147.014407,76.0643639 147.040049,76.0878668 147.068298,76.1091935 C147.11567,76.0247571 147.180426,75.9242169 147.256047,75.8119252 C147.468569,75.5925648 147.654145,75.3153175 147.830594,75.0058625 C148.398188,74.2189503 149.040534,73.2945025 149.04401,72.7883195 C149.04401,72.7844023 149.041837,72.778309 149.041837,72.7743918 C153.003258,66.3049983 157.54053,60.1920657 162.175154,54.1988237 C162.140385,54.2423476 167.202225,47.3472904 166.419502,51.1604198 C166.042265,52.9979992 162.319008,56.4973212 160.815276,58.4437103 C157.488812,62.7739038 153.582586,68.2605275 150.336524,73.5660917 C149.899747,73.8172246 149.282608,75.0502569 148.836269,75.9686113 C148.589849,76.4338819 148.359943,76.9030696 148.133948,77.3117591 C159.635759,81.1135723 168.582964,73.4555409 174.683943,64.5483735 C174.691331,64.5379277 174.69785,64.5270468 174.704804,64.516601 C176.561435,62.0553241 178.463265,59.6114568 180.839248,57.6659381 C184.803277,54.4194899 189.048494,53.8467153 193.722232,52.2489527 C206.467881,47.8922097 211.886966,31.3666176 213.608,19.1046274 C215.549813,5.27098896 206.05153,-15.9416926 189.468757,-14.5776534 C177.674457,-13.6414542 170.102776,-5.85546251 166.578133,5.03465415 Z" id="Leaf-Me-Alone!" fill="#585DD6" transform="translate(175.357928, 61.359686) scale(-1, 1) rotate(163.000000) translate(-175.357928, -61.359686) "></path>
        <path d="M161.995682,52.0243246 C162.103497,47.3055997 160.175966,42.9567035 158.042317,38.8522397 C153.888725,30.8618473 151.811249,26.0813328 152.482601,16.5916344 C152.87762,11.0105813 153.34965,5.11376533 150.509316,0.0456566526 C148.441353,-3.64490783 144.103388,-7.59308034 139.522613,-6.92566199 C132.27138,-5.26915601 128.223338,1.6603638 126.671346,8.54081541 C124.747892,17.0686863 126.950397,23.4311958 133.371274,28.8954848 C136.989415,31.9736055 139.030198,35.1444105 140.01684,39.8322407 C140.806426,43.58096 140.582189,47.8798793 141.932594,51.4850288 C143.951632,56.8743524 147.596954,60.1655563 153.080113,61.1664566 C151.101392,50.4841284 148.32176,39.4465101 143.864655,29.5429124 C143.464653,28.5629114 140.589437,24.3739413 141.78582,23.3157947 C143.103609,22.1508794 145.27848,28.8486882 145.261266,28.8068894 C146.524694,31.783239 147.590612,34.8559077 148.615307,37.9412977 C148.609871,37.9422064 148.603982,37.9417521 148.598093,37.9426607 C149.655857,41.1107398 150.68644,44.311531 151.670818,47.5332216 C152.053153,48.8848687 152.411026,50.2442394 152.729035,51.6217836 C153.195629,53.6431208 153.250895,58.9665658 154.57412,60.5471978 C154.857247,60.8852232 155.145358,61.1164797 155.435733,61.2677734 C155.965748,63.4967416 156.460428,65.7307076 156.893952,67.9692169 C158.026009,73.8156017 158.6806,79.8123714 157.946733,85.757347 C157.732463,87.4924529 155.531317,93.5269325 156.260653,95.067583 C157.593843,97.8853696 158.343565,93.5401082 158.628051,92.2475247 C160.9805,81.5424797 160.130212,71.4921317 157.563492,61.0115283 C159.923189,59.3813738 161.951741,53.9361669 161.995682,52.0243246" id="Leaf" fill="#434998" transform="translate(144.000000, 44.500000) rotate(-154.000000) translate(-144.000000, -44.500000) "></path>
        <path d="M368.778284,241 C367.34955,241 365.925172,241.028437 364.498232,241.102024 C363.410539,241.158399 361.748381,240.934894 360.828005,241.606903 C359.871758,242.304855 359.937609,243.733684 360.086991,244.742695 C360.876689,250.078605 362.804045,254.810107 366.836067,258.590469 C373.044243,264.411552 380.161264,267.369239 388.583003,268.686317 C394.498822,269.611514 399.96009,268.326864 404.314961,264.156867 C407.496814,270.010628 409.910749,276.488505 411.121944,283.026497 C411.719471,286.252589 411.901906,289.439767 411.796852,292.724728 C411.729207,294.828809 411.612111,296.927902 411.384579,299.022005 C411.285931,299.931986 410.8178,301.30943 411.17729,302.169272 C411.599043,303.179031 413.021371,303.276814 413.659894,302.415725 C414.191313,301.699065 414.09369,300.291688 414.202844,299.44357 C414.383741,298.034696 414.551315,296.624824 414.671231,295.209465 C414.865965,292.918548 415.009966,290.621146 415,288.321498 C414.975118,283.154713 413.816194,277.967722 412.230904,273.063105 C409.18972,263.653734 404.255259,255.291289 396.58094,248.730098 C391.862224,244.69555 386.461682,243.061675 380.334475,242.184621 C376.519735,241.638583 372.642732,241 368.778284,241" id="Fill-16" fill="#313772" transform="translate(387.500000, 272.000000) rotate(-56.000000) translate(-387.500000, -272.000000) "></path>
        <path d="M382.685976,269.294505 C381.568966,269.294505 380.455362,269.316979 379.339754,269.375136 C378.489376,269.419691 377.18987,269.24305 376.470304,269.774154 C375.722693,270.325761 375.774176,271.454997 375.890965,272.252441 C376.508366,276.469532 378.015208,280.208944 381.167516,283.196649 C386.021181,287.797183 391.585397,290.13471 398.169666,291.175626 C402.794761,291.90683 407.064479,290.891543 410.469196,287.5959 C412.956827,292.222259 414.844086,297.341871 415.79102,302.508995 C416.258177,305.058648 416.400808,307.577546 416.318675,310.173725 C416.265789,311.836628 416.174241,313.495588 415.996353,315.150606 C415.919228,315.869784 415.553235,316.958409 415.83429,317.637961 C416.164024,318.435997 417.276026,318.513277 417.775235,317.832739 C418.190709,317.266346 418.114385,316.154064 418.199723,315.483778 C418.341152,314.370313 418.472165,313.256059 418.565917,312.137469 C418.718163,310.326906 418.830746,308.511217 418.822532,306.693753 C418.803502,302.610326 417.897433,298.51093 416.658025,294.634701 C414.280372,287.198262 410.422521,280.589233 404.422598,275.403775 C400.73342,272.215181 396.511179,270.923893 391.720816,270.230738 C388.738384,269.799191 385.707272,269.294505 382.685976,269.294505 L396.596384,253.989094" id="Fill-16" fill="#2B316A" transform="translate(397.323145, 286.141799) rotate(-85.000000) translate(-397.323145, -286.141799) "></path>
        <path d="M337.926357,206.254553 C335.744291,206.254553 333.568877,206.298126 331.38955,206.410879 C329.728347,206.49726 327.189778,206.154794 325.784114,207.184485 C324.323664,208.253927 324.424236,210.443263 324.652382,211.989328 C325.858467,220.165319 328.802065,227.4152 334.960062,233.20769 C344.44164,242.127093 355.311272,246.659033 368.173565,248.677135 C377.208634,250.094776 385.549479,248.126361 392.200555,241.73685 C397.060113,250.706322 400.74685,260.6321 402.596675,270.649993 C403.509261,275.593198 403.787889,280.476777 403.627443,285.510185 C403.524131,288.73418 403.345293,291.950531 402.99779,295.159238 C402.847127,296.553564 402.132164,298.664163 402.681203,299.981663 C403.325335,301.528875 405.497618,301.678704 406.472816,300.359292 C407.284439,299.261185 407.135341,297.10472 407.302049,295.805184 C407.578329,293.646426 407.83426,291.486138 408.017403,289.317442 C408.314815,285.807167 408.534744,282.286954 408.519524,278.763301 C408.481523,270.846452 406.711529,262.898644 404.290359,255.383505 C399.645642,240.965919 392.109374,228.152496 380.388596,218.099057 C373.181829,211.917089 364.933729,209.413572 355.575812,208.069699 C349.749664,207.233027 343.828423,206.254553 337.926357,206.254553" id="Fill-16" fill="#383F85" transform="translate(366.519524, 253.754553) rotate(-39.000000) translate(-366.519524, -253.754553) "></path>
        <g id="Big-Leaf-Plant" transform="translate(133.000000, 181.000000)">
            <g id="Big-Ass-Leaf" transform="translate(25.000000, 0.000000)">
                <path d="M26.3924289,0.279737899 C29.4990825,-0.102049343 32.8148255,0.0327199939 35.7039225,1.26621758 C41.8472916,3.88946364 43.593554,11.1899748 43.5093095,17.1238381 C43.4184873,23.5105903 42.070168,30.4865384 46.8973795,35.6324992 C49.1163526,37.9983149 51.8765826,39.8088529 54.0554654,42.2181094 C56.3836374,44.7927247 58.210429,47.7385965 59.5630315,50.9019952 C62.0465705,56.712559 63.2655347,63.5457064 60.9944743,69.6410259 C58.9948454,75.0075972 53.9640028,79.8513875 55.0510458,85.9536984 C56.1849274,92.3195452 62.5653545,97.1862884 66.5544252,101.927845 C71.068926,107.293802 75.2255555,114.151986 75.9083959,121.188875 C76.5631717,127.932717 73.6448926,134.753143 69.1662706,139.850936 C60.2179726,150.037169 46.7672928,155.030797 33.2048793,155 C27.4466478,154.986439 20.9271607,154.724838 15.957962,151.612197 C14.4221591,150.650103 13.6119244,149.57072 12.6989327,148.070224 C11.8803376,146.724716 10.7989798,145.84952 9.5473298,144.897438 C6.79745905,142.806248 4.81156455,139.987829 3.54421657,136.832905 C-1.37716963,124.578934 2.55627944,109.419271 9.44510618,98.5376496 C11.077454,95.9595712 12.413883,93.4786868 11.6208818,90.405769 C10.793361,87.1980152 8.75949459,84.3047959 6.96056281,81.5474588 C5.18293231,78.82235 3.15353036,76.2226331 1.76414553,73.2761929 C0.308992294,70.1895869 -0.100767198,66.9573917 0.156342074,63.5793583 C0.639561334,57.2339433 3.36268163,51.3783424 7.2180273,46.2752275 C10.9314386,41.3598115 15.2916033,36.6565197 15.3013731,30.2158439 C15.3121017,23.3896049 10.7752862,17.3172443 12.7080366,10.3770681 C13.5083218,7.50326701 15.115725,4.55472971 17.7061738,2.8318433 C20.1904627,1.17946854 23.4706581,0.638804256 26.3924289,0.279737899 Z" id="leaf" fill="#4549BD"></path>
                <path d="M24.3624549,11.1924701 C24.4207125,10.2756803 25.5018264,9.7258238 26.3529028,9.96505573 C27.4731537,10.280106 27.4516092,11.3330235 27.4220332,12.2710906 C27.3313696,15.1544855 27.746265,17.9566746 28.4353169,20.7543854 C29.8674372,26.5711373 32.5141881,31.9303186 34.6110787,37.51777 C36.7061418,43.1005439 37.6896085,48.8645892 36.4605567,54.771961 C35.3019274,60.3417889 33.4816853,65.7672533 32.2959401,71.3441116 C31.2508019,76.2593959 30.1387248,81.4428389 31.7303367,86.3456069 C33.2618587,91.0648775 36.6478432,94.9082073 39.0860456,99.1730477 C44.133406,108.001539 46.3726416,117.795695 46.6721495,127.874746 C46.810952,132.55507 46.6859569,137.278431 45.6065472,141.868811 C44.985275,144.511963 44.1503897,148.084066 41.8986779,149.908905 C40.8603558,150.750435 39.0844953,151.041423 38.2105902,149.795213 C37.3901206,148.626368 38.1098956,146.816878 38.3703665,145.571072 C39.4983944,140.17818 39.7253282,134.666859 39.4552621,129.190941 C39.1938818,123.886796 38.5708736,118.591508 36.9113097,113.525829 C35.3710118,108.824805 33.0310143,104.602373 30.2769784,100.489976 C27.4706352,96.2991569 24.553195,92.0993961 23.393624,87.1337067 C22.2154657,82.0903283 23.1726011,76.9585288 24.4524225,72.0114682 C25.8058647,66.7788736 27.5786623,61.6963865 29.411419,56.6055661 C31.1975034,51.6449413 31.8305827,46.951308 30.8445894,41.7594378 C28.8968068,31.5020325 23.6831658,21.8743091 24.3624549,11.1924701 Z" id="middle-thing" fill="#5F64E0"></path>
            </g>
            <g id="Big-Ass-Leaf" transform="translate(35.000000, 11.000000)">
                <path d="M98.7580149,1.72370575 C102.60963,2.89624549 106.435007,4.78808761 109.180615,7.75455047 C115.018688,14.0628314 113.227407,23.5970798 110.004563,30.5607976 C106.53557,38.0559285 101.278713,45.5897638 104.242103,54.1895317 C105.604146,58.1430517 107.894542,61.7236436 109.186605,65.7075163 C110.567046,69.9646866 111.16287,74.3982987 111.086959,78.8410111 C110.946425,87.0009427 108.781557,95.7077002 102.903991,101.719346 C97.7290286,107.012198 89.2673052,110.103661 87.332162,117.878382 C85.3133216,125.988809 90.2488857,135.07048 92.4402733,142.754676 C94.9203814,151.450842 96.1943805,161.722282 93.2922559,170.389495 C90.5114257,178.69596 83.491585,185.225726 75.5450574,188.905729 C59.6674381,196.259365 41.2326918,195.127892 25.3118024,188.004143 C18.5523748,184.979261 11.0290504,181.263478 6.82838242,174.990811 C5.53015104,173.05205 5.14628009,171.353928 4.86335167,169.104785 C4.60975644,167.088008 3.79979601,165.489346 2.8302014,163.710897 C0.699726312,159.804275 -0.150155832,155.438041 0.0214767961,151.049887 C0.689393226,134.006529 13.2923028,118.158826 27.1159224,108.907753 C30.3913071,106.716112 33.2677906,104.484619 33.9536556,100.441188 C34.6699404,96.2204819 33.8030648,91.7408415 33.1407262,87.5444426 C32.4864523,83.3972356 31.4703102,79.2665471 31.3887821,75.0608361 C31.303759,70.6552248 32.5238216,66.6239598 34.6042967,62.7689445 C38.5126343,55.5276838 44.7952174,50.0353693 52.0121355,46.0233801 C58.9634535,42.158889 66.5630993,38.8828801 69.9652365,31.281712 C73.5714778,23.2257046 71.4370301,13.6836322 77.3618188,6.49744442 C79.8151291,3.52175774 83.2562274,0.879579201 87.2072646,0.198565789 C90.996433,-0.454650361 95.1356167,0.620946087 98.7580149,1.72370575 Z" id="leaf" fill="#363AAC"></path>
                <path d="M90.8903049,15.0453735 C91.4367765,13.9918668 92.9901206,13.9108097 93.8623657,14.641802 C95.0103996,15.6041727 94.4359294,16.8379904 93.9119594,17.9317595 C92.3016887,21.2938753 91.326039,24.8261291 90.6738995,28.4974268 C89.3174484,36.1302025 89.6226174,43.8613514 89.1645536,51.5729538 C88.7067887,59.2780625 86.8522338,66.6122978 82.3309526,72.951165 C78.0682437,78.9279357 73.10576,84.385654 68.8076175,90.3564626 C65.0192912,95.6189339 61.0126671,101.163282 60.3198196,107.799168 C59.6522942,114.186416 61.6141845,120.514145 62.2458775,126.841348 C63.5536699,139.93913 61.0680298,152.700445 56.161392,164.777429 C53.8826128,170.385371 51.2723452,175.905322 47.6133494,180.765523 C45.5067886,183.564174 42.665414,187.348919 39.0756492,188.321442 C37.420291,188.769956 35.188085,188.179104 34.8143633,186.24526 C34.4628861,184.431039 36.2499817,182.670122 37.2049698,181.33399 C41.3395345,175.550349 44.4802445,169.152241 47.0202522,162.534337 C49.4808343,156.12414 51.5131489,149.534026 52.2113699,142.669708 C52.8590962,136.299418 52.3203291,130.074069 51.2391185,123.76086 C50.1375375,117.327371 48.9104706,110.824816 50.1422751,104.341985 C51.3928293,97.7574944 55.1910007,92.1926439 59.2708334,87.0161522 C63.5858554,81.5407539 68.3138514,76.4636552 73.1164364,71.4082695 C77.7964312,66.4822782 80.9864117,61.2649835 82.5395443,54.6060615 C85.6082649,41.4503624 84.5225763,27.3198796 90.8903049,15.0453735 Z" id="middle-thing" fill="#494DC3"></path>
            </g>
            <g id="Big-Ass-Leaf" transform="translate(0.000000, 61.000000)">
                <path d="M14.4148079,-1.56319402e-13 C20.8002882,-1.56319402e-13 26.4141929,3.39497516 30.2825135,8.21255784 C34.81075,13.8522227 35.7253141,20.7393747 37.5640817,27.460851 C38.4790474,30.8058479 40.0527241,34.1264461 42.810474,36.3990764 C45.3187973,38.465891 48.5031027,38.87949 51.5054593,39.8892856 C57.5057543,41.9073026 62.3508951,46.768567 64.2643703,52.7002304 C66.5987778,59.9356556 64.1262016,67.2324714 64.5519538,74.5650982 C64.9427623,81.2991674 71.5624063,85.5004836 76.8883258,88.7286024 C82.1399395,91.911859 86.8710108,94.891661 88.4527206,101.092892 C90.1300237,107.669943 90.6927397,115.011227 88.3695784,121.508392 C84.5016595,132.326506 73.1818714,137.090175 62.2440554,137.828829 C52.3176018,138.499009 39.8362331,137.446712 32.3815524,130.219551 C27.9207935,125.894667 26.3053449,119.846125 26.5057698,113.828279 C26.6302823,110.086211 27.3693239,106.378774 28.3248565,102.762636 C29.0020436,100.199581 29.9170092,97.6475449 30.1776821,94.9990944 C30.8705336,87.9529567 24.3778119,86.5996103 18.8510659,84.6650214 C11.8281622,82.2062519 6.91152716,77.5622155 3.49265635,71.0922043 C0.308752581,65.0680616 -1.02714548,58.3056583 0.881509838,51.6731196 C1.8563218,48.2864085 3.62439855,45.2137337 6.02226729,42.6003072 C7.07781152,41.4500218 8.56553444,40.490598 9.51825549,39.2820702 C10.4075154,38.1534289 10.2139186,36.691075 9.9074573,35.3692109 C8.49042532,29.263214 4.07545493,24.2071527 2.49655677,18.1121747 C1.07109008,12.6106386 1.91375819,5.76362654 6.92839659,2.21438799 C9.09491317,0.680805265 11.7667093,0.0169217494 14.4148079,-1.56319402e-13 Z" id="leaf" fill="#4557BD"></path>
                <path d="M23.1158322,15.9095275 C29.8837574,23.1405603 31.7233613,32.951547 32.2632493,42.4606996 C32.5656663,47.7929715 32.2508976,53.4172393 33.8127878,58.5893463 C35.1491602,63.0161157 38.2821047,66.4000424 41.5114721,69.5982249 C48.0120431,76.0363037 55.261684,82.5814215 57.1630462,91.8989271 C58.2786821,97.3669653 57.5256279,103.014845 59.0671976,108.422673 C60.4689143,113.338202 62.9368602,118.167548 65.9387175,122.318456 C68.3556629,125.661062 71.5045451,128.220159 74.1466099,131.336095 C74.9526568,132.287246 76.1073399,133.68741 75.7746413,135.03012 C75.3853641,136.602648 73.3883759,137.100458 71.9715184,136.853324 C68.6680409,136.277596 65.8873186,133.11365 63.7273679,130.813493 C60.5689231,127.45003 57.885022,123.832349 55.7035555,119.774313 C53.2818288,115.267658 51.3318567,110.485535 50.4987158,105.429518 C49.634098,100.184215 50.0644147,94.7177509 48.0901377,89.6837715 C44.7679335,81.2135265 36.7098551,76.2149643 30.8838453,69.6131789 C23.6250403,61.3869198 24.7076055,51.1485643 25.4510971,41.029447 C25.8594995,35.4685368 26.2655113,29.1886553 23.46407,24.111388 C22.3946533,22.1732744 20.0103801,20.3662049 19.5505788,18.1632486 C19.1294262,16.1448558 21.4280345,14.1052126 23.1158322,15.9095275 Z" id="middle-thing" fill="#5B6CCA"></path>
            </g>
        </g>
    </g>
</svg>