<svg xmlns="http://www.w3.org/2000/svg" xmlns:xlink="http://www.w3.org/1999/xlink" width="131" height="131" version="1.1" viewBox="0 0 131 131"><title>slice</title><desc>Created with Sketch.</desc><defs><path id="path-1" d="M60,0 L100,40 L100,106 C100,113.731986 93.7319865,120 86,120 L14,120 C6.2680135,120 0,113.731986 0,106 L0,14 C0,6.2680135 6.2680135,0 14,0 L60,0 Z"/></defs><g id="Page-1" fill="none" fill-rule="evenodd" stroke="none" stroke-width="1"><g id="Zip_file" transform="translate(16.000000, 5.000000)"><g id="Main"><mask id="mask-2" fill="#fff"><use xlink:href="#path-1"/></mask><use id="Mask" fill="#A3B0BF" xlink:href="#path-1"/><polyline id="Path-2" stroke="#758CA2" stroke-linecap="round" stroke-linejoin="round" stroke-width="4" points="30 0 30 18.004 37 22 30 26 35 29.5 35 48.5" mask="url(#mask-2)"/></g><path id="Corner" fill="#758B9F" d="M60,0 L85.2928932,0 C93.0248797,0 100,6.97512028 100,14.7071068 L100,40 L60,0 Z" transform="translate(80.000000, 20.000000) scale(-1, -1) translate(-80.000000, -20.000000)"/><g id="Zipper" transform="translate(29.000000, 46.000000)"><rect id="Rectangle-2" width="12" height="22" x="0" y="0" fill="#758B9F" rx="3.6"/><rect id="Rectangle-2-Copy" width="4" height="12" x="4" y="5" fill="#667A8A" rx="1.5"/></g></g><text id="ZIP" fill="#758CA2" font-family="MaisonNeueMonoTrial-Bold, Maison Neue Mono Trial" font-size="22" font-weight="bold" letter-spacing="1.5"><tspan x="43.3" y="101">ZIP</tspan></text></g></svg>