<svg xmlns="http://www.w3.org/2000/svg" xmlns:xlink="http://www.w3.org/1999/xlink" width="131" height="131" version="1.1" viewBox="0 0 131 131"><title>slice</title><desc>Created with Sketch.</desc><defs><path id="path-1" d="M60,0 L100,40 L100,106 C100,113.731986 93.7319865,120 86,120 L14,120 C6.2680135,120 0,113.731986 0,106 L0,14 C0,6.2680135 6.2680135,0 14,0 L60,0 Z"/></defs><g id="Page-1" fill="none" fill-rule="evenodd" stroke="none" stroke-width="1"><g id="txt" transform="translate(16.000000, 5.000000)"><g id="Main"><mask id="mask-2" fill="#fff"><use xlink:href="#path-1"/></mask><use id="Mask" fill="#5B64F0" xlink:href="#path-1"/><rect id="Rectangle" width="48" height="7" x="26" y="88" fill="#FFF" mask="url(#mask-2)" rx="3.5"/><rect id="Rectangle" width="48" height="7" x="26" y="71" fill="#FFF" mask="url(#mask-2)" rx="3.5"/><rect id="Rectangle" width="48" height="7" x="26" y="54" fill="#FFF" mask="url(#mask-2)" rx="3.5"/></g><path id="Corner" fill="#3741E4" d="M60,0 L85.2928932,0 C93.0248797,0 100,6.97512028 100,14.7071068 L100,40 L60,0 Z" transform="translate(80.000000, 20.000000) scale(-1, -1) translate(-80.000000, -20.000000)"/></g></g></svg>