<svg xmlns="http://www.w3.org/2000/svg" xmlns:xlink="http://www.w3.org/1999/xlink" width="131" height="131" version="1.1" viewBox="0 0 131 131"><title>slice</title><desc>Created with Sketch.</desc><defs><path id="path-1" d="M60,0 L100,40 L100,106 C100,113.731986 93.7319865,120 86,120 L14,120 C6.2680135,120 0,113.731986 0,106 L0,14 C0,6.2680135 6.2680135,0 14,0 L60,0 Z"/><path id="path-3" d="M60,0 L100,40 L100,106 C100,113.731986 93.7319865,120 86,120 L14,120 C6.2680135,120 0,113.731986 0,106 L0,14 C0,6.2680135 6.2680135,0 14,0 L60,0 Z"/></defs><g id="Page-1" fill="none" fill-rule="evenodd" stroke="none" stroke-width="1"><g id="PDF" transform="translate(16.000000, 5.000000)"><path id="Combined-Shape" fill="#E94848" d="M60,0 L100,40 L100,106 C100,113.731986 93.7319865,120 86,120 L14,120 C6.2680135,120 0,113.731986 0,106 L0,14 C0,6.2680135 6.2680135,0 14,0 L60,0 Z"/><path id="acrobat-shape" fill="#FFF" fill-rule="nonzero" d="M46.8,50 C43.873432,50 41.4666667,52.406768 41.4666667,55.3333333 C41.4666667,58.9714613 43.4880821,63.488064 45.6166667,67.7333333 C43.9528341,72.9417904 42.0647595,78.5233984 39.65,83.2333333 C34.7076021,85.1726005 30.2999675,86.6140021 27.65,88.75 C27.6086786,88.7922558 27.5697301,88.8367685 27.5333333,88.8833333 C26.5649666,89.8736267 26,91.22192 26,92.6666667 C26,95.5932267 28.4067661,98 31.3333333,98 C32.7604517,98 34.1379173,97.46744 35.1333333,96.45 C35.1677832,96.4235901 35.2011441,96.3957893 35.2333333,96.3666667 C37.183976,94.0374283 39.4840171,89.8121253 41.5333333,85.95 C46.2563909,84.0920699 51.2066149,82.2015595 55.9833333,81.0666667 C59.470432,83.8769392 64.5151317,85.7333333 68.6666667,85.7333333 C71.593232,85.7333333 74,83.32656 74,80.4 C74,77.47344 71.593232,75.0666667 68.6666667,75.0666667 C65.3373696,75.0666667 60.4992347,76.2551168 56.8,77.5 C53.8015429,74.6851179 51.0466944,71.1695349 49.0666667,67.4333333 C50.4813749,63.0752091 52.1333333,58.7145115 52.1333333,55.3333333 C52.1333333,52.406768 49.7265685,50 46.8,50 Z M47,53 C48.122336,53 49,53.8553892 49,54.9492386 C49,56.4118644 48.1963835,59.1047764 47.265625,62 C46.021917,59.1834867 45,56.4812768 45,54.9492386 C45,53.8553892 45.8776645,53 47,53 Z M47.6451613,71 C49.197503,73.509718 51.0156036,75.8450623 53,77.9180328 C49.939215,78.7687082 46.9499484,79.8587016 44,81 C45.4247855,77.7314885 46.5653997,74.3398295 47.6451613,71 Z M69.0031201,78 C70.1237072,78 71,78.87765 71,80 C71,81.12235 70.1237072,82 69.0031201,82 C66.7534657,82 63.5560666,80.9829 61,79.5625 C63.9339487,78.7316 67.1353835,78 69.0031201,78 Z M36,88 C34.624642,90.6835093 33.2575313,93.1882463 32.30131,94.4486874 C31.9746638,94.7900869 31.5401414,95 30.9563319,95 C29.8585005,95 29,94.0615523 29,92.8615752 C29,92.2968706 29.2195714,91.7359885 29.5196507,91.3747017 C30.6669738,90.4041776 33.1630302,89.2411418 36,88 Z"/><path id="Path" fill="#C53C3C" d="M60,0 L85.2928932,0 C93.0248797,0 100,6.97512028 100,14.7071068 L100,40 L60,0 Z" transform="translate(80.000000, 20.000000) scale(-1, -1) translate(-80.000000, -20.000000)"/></g><g id="Sketch" transform="translate(16.000000, 5.000000)"><g id="MAin+zip"><mask id="mask-2" fill="#fff"><use xlink:href="#path-1"/></mask><use id="Mask" fill="#FFCF5C" xlink:href="#path-1"/><polyline id="Path-2" stroke="#758CA2" stroke-linecap="round" stroke-linejoin="round" stroke-width="3" points="30 0 30 28.004 37 32 30 36 35 39.5 35 48.5" mask="url(#mask-2)"/></g><g id="Main"><mask id="mask-4" fill="#fff"><use xlink:href="#path-3"/></mask><use id="Mask" fill="#FDB30B" xlink:href="#path-3"/></g><path id="Corner" fill="#FC9802" d="M60,0 L85.2928932,0 C93.0248797,0 100,6.97512028 100,14.7071068 L100,40 L60,0 Z" transform="translate(80.000000, 20.000000) scale(-1, -1) translate(-80.000000, -20.000000)"/><g id="Sketch_ICON" stroke="#FFF" stroke-linecap="round" stroke-linejoin="round" stroke-width="3" transform="translate(24.000000, 51.000000)"><polygon id="Path-3" points="26.029 .094 11.614 1.436 10.924 16.514"/><polygon id="Path-3-Copy" points="41.262 .094 26.846 1.436 26.157 16.514" transform="translate(33.709572, 8.303936) scale(-1, 1) translate(-33.709572, -8.303936)"/><polygon id="Path-5" points="11.038 16.823 41.251 16.823 26.174 46.402"/><polygon id="Left" points=".361 16.596 11.534 1.723 11.041 16.596"/><polygon id="Left-Copy" points="40.621 16.546 51.605 1.771 51.112 16.643" transform="translate(46.112690, 9.207077) scale(-1, 1) translate(-46.112690, -9.207077)"/><polygon id="Path-2" points="11.038 16.54 41.124 16.54 26.081 .293"/><polygon id="Path-4" points="26.126 46.784 10.941 16.69 .199 16.69"/><polygon id="Path-4-Copy" points="51.824 46.718 36.639 16.625 26.05 16.625" transform="translate(38.937107, 31.671567) scale(-1, 1) translate(-38.937107, -31.671567)"/></g></g></g></svg>