<svg xmlns="http://www.w3.org/2000/svg" xmlns:ev="http://www.w3.org/2001/xml-events" xmlns:xlink="http://www.w3.org/1999/xlink" width="920" height="960" baseProfile="full" version="1.1"><rect width="41" height="41" x="280" y="80" fill="#F7B352"/><rect width="41" height="41" x="320" y="80" fill="#074C85"/><rect width="41" height="41" x="280" y="120" fill="#F7B352"/><rect width="41" height="41" x="320" y="120" fill="#074C85"/><rect width="41" height="41" x="360" y="120" fill="#074C85"/><rect width="41" height="41" x="480" y="120" fill="#07539F"/><rect width="41" height="41" x="520" y="120" fill="#07539F"/><rect width="41" height="41" x="560" y="120" fill="#F7B352"/><rect width="41" height="41" x="600" y="120" fill="#F7B352"/><rect width="41" height="41" x="160" y="160" fill="#F7B352"/><rect width="41" height="41" x="200" y="160" fill="#07539F"/><rect width="41" height="41" x="280" y="160" fill="#F7B352"/><rect width="41" height="41" x="320" y="160" fill="#074C85"/><rect width="41" height="41" x="360" y="160" fill="#074C85"/><rect width="41" height="41" x="400" y="160" fill="#07539F"/><rect width="41" height="41" x="440" y="160" fill="#07539F"/><rect width="41" height="41" x="480" y="160" fill="#E3E6FF"/><rect width="41" height="41" x="520" y="160" fill="#E3E6FF"/><rect width="41" height="41" x="560" y="160" fill="#F7B352"/><rect width="41" height="41" x="600" y="160" fill="#F7B352"/><rect width="41" height="41" x="640" y="160" fill="#F7B352"/><rect width="41" height="41" x="160" y="200" fill="#F7B352"/><rect width="41" height="41" x="200" y="200" fill="#07539F"/><rect width="41" height="41" x="240" y="200" fill="#07539F"/><rect width="41" height="41" x="280" y="200" fill="#07539F"/><rect width="41" height="41" x="320" y="200" fill="#07539F"/><rect width="41" height="41" x="360" y="200" fill="#074C85"/><rect width="41" height="41" x="400" y="200" fill="#07539F"/><rect width="41" height="41" x="440" y="200" fill="#E3E6FF"/><rect width="41" height="41" x="480" y="200" fill="#E3E6FF"/><rect width="41" height="41" x="520" y="200" fill="#E3E6FF"/><rect width="41" height="41" x="560" y="200" fill="#F7B352"/><rect width="41" height="41" x="600" y="200" fill="#F7B352"/><rect width="41" height="41" x="640" y="200" fill="#F7B352"/><rect width="41" height="41" x="680" y="200" fill="#F7B352"/><rect width="41" height="41" x="160" y="240" fill="#F7B352"/><rect width="41" height="41" x="200" y="240" fill="#07539F"/><rect width="41" height="41" x="240" y="240" fill="#07539F"/><rect width="41" height="41" x="280" y="240" fill="#07539F"/><rect width="41" height="41" x="320" y="240" fill="#07539F"/><rect width="41" height="41" x="360" y="240" fill="#07539F"/><rect width="41" height="41" x="400" y="240" fill="#07539F"/><rect width="41" height="41" x="440" y="240" fill="#E3E6FF"/><rect width="41" height="41" x="480" y="240" fill="#E3E6FF"/><rect width="41" height="41" x="520" y="240" fill="#000"/><rect width="41" height="41" x="560" y="240" fill="#F7B352"/><rect width="41" height="41" x="600" y="240" fill="#F7B352"/><rect width="41" height="41" x="640" y="240" fill="#F7B352"/><rect width="41" height="41" x="680" y="240" fill="#F7B352"/><rect width="41" height="41" x="200" y="280" fill="#F7B352"/><rect width="41" height="41" x="240" y="280" fill="#07539F"/><rect width="41" height="41" x="280" y="280" fill="#07539F"/><rect width="41" height="41" x="320" y="280" fill="#07539F"/><rect width="41" height="41" x="360" y="280" fill="#07539F"/><rect width="41" height="41" x="400" y="280" fill="#07539F"/><rect width="41" height="41" x="440" y="280" fill="#E3E6FF"/><rect width="41" height="41" x="480" y="280" fill="#E3E6FF"/><rect width="41" height="41" x="520" y="280" fill="#E3E6FF"/><rect width="41" height="41" x="560" y="280" fill="#D88815"/><rect width="41" height="41" x="600" y="280" fill="#D88815"/><rect width="41" height="41" x="640" y="280" fill="#F7B352"/><rect width="41" height="41" x="680" y="280" fill="#F7B352"/><rect width="41" height="41" x="240" y="320" fill="#F7B352"/><rect width="41" height="41" x="280" y="320" fill="#07539F"/><rect width="41" height="41" x="320" y="320" fill="#07539F"/><rect width="41" height="41" x="360" y="320" fill="#07539F"/><rect width="41" height="41" x="400" y="320" fill="#07539F"/><rect width="41" height="41" x="440" y="320" fill="#07539F"/><rect width="41" height="41" x="480" y="320" fill="#E3E6FF"/><rect width="41" height="41" x="520" y="320" fill="#E3E6FF"/><rect width="41" height="41" x="560" y="320" fill="#D88815"/><rect width="41" height="41" x="600" y="320" fill="#D88815"/><rect width="41" height="41" x="280" y="360" fill="#F7B352"/><rect width="41" height="41" x="320" y="360" fill="#07539F"/><rect width="41" height="41" x="360" y="360" fill="#07539F"/><rect width="41" height="41" x="400" y="360" fill="#07539F"/><rect width="41" height="41" x="440" y="360" fill="#07539F"/><rect width="41" height="41" x="480" y="360" fill="#07539F"/><rect width="41" height="41" x="520" y="360" fill="#07539F"/><rect width="41" height="41" x="560" y="360" fill="#D88815"/><rect width="41" height="41" x="320" y="400" fill="#07539F"/><rect width="41" height="41" x="360" y="400" fill="#07539F"/><rect width="41" height="41" x="400" y="400" fill="#07539F"/><rect width="41" height="41" x="440" y="400" fill="#07539F"/><rect width="41" height="41" x="480" y="400" fill="#07539F"/><rect width="41" height="41" x="320" y="440" fill="#07539F"/><rect width="41" height="41" x="360" y="440" fill="#07539F"/><rect width="41" height="41" x="400" y="440" fill="#07539F"/><rect width="41" height="41" x="440" y="440" fill="#07539F"/><rect width="41" height="41" x="280" y="480" fill="#E94E6B"/><rect width="41" height="41" x="320" y="480" fill="#E94E6B"/><rect width="41" height="41" x="360" y="480" fill="#07539F"/><rect width="41" height="41" x="280" y="520" fill="#E94E6B"/><rect width="41" height="41" x="320" y="520" fill="#E94E6B"/><rect width="41" height="41" x="80" y="600" fill="#E94E6B"/><rect width="41" height="41" x="80" y="640" fill="#E94E6B"/><rect width="41" height="41" x="600" y="640" fill="#E94E6B"/><rect width="41" height="41" x="80" y="680" fill="#E94E6B"/><rect width="41" height="41" x="120" y="680" fill="#E94E6B"/><rect width="41" height="41" x="280" y="680" fill="#E94E6B"/><rect width="41" height="41" x="320" y="680" fill="#E94E6B"/><rect width="41" height="41" x="400" y="680" fill="#E94E6B"/><rect width="41" height="41" x="440" y="680" fill="#E94E6B"/><rect width="41" height="41" x="480" y="680" fill="#E94E6B"/><rect width="41" height="41" x="560" y="680" fill="#E94E6B"/><rect width="41" height="41" x="600" y="680" fill="#E94E6B"/><rect width="41" height="41" x="640" y="680" fill="#E94E6B"/><rect width="41" height="41" x="720" y="680" fill="#E94E6B"/><rect width="41" height="41" x="800" y="680" fill="#E94E6B"/><rect width="41" height="41" x="80" y="720" fill="#E94E6B"/><rect width="41" height="41" x="160" y="720" fill="#E94E6B"/><rect width="41" height="41" x="240" y="720" fill="#E94E6B"/><rect width="41" height="41" x="280" y="720" fill="#E94E6B"/><rect width="41" height="41" x="400" y="720" fill="#E94E6B"/><rect width="41" height="41" x="600" y="720" fill="#E94E6B"/><rect width="41" height="41" x="720" y="720" fill="#E94E6B"/><rect width="41" height="41" x="800" y="720" fill="#E94E6B"/><rect width="41" height="41" x="80" y="760" fill="#E94E6B"/><rect width="41" height="41" x="120" y="760" fill="#E94E6B"/><rect width="41" height="41" x="160" y="760" fill="#E94E6B"/><rect width="41" height="41" x="280" y="760" fill="#E94E6B"/><rect width="41" height="41" x="320" y="760" fill="#E94E6B"/><rect width="41" height="41" x="400" y="760" fill="#E94E6B"/><rect width="41" height="41" x="600" y="760" fill="#E94E6B"/><rect width="41" height="41" x="640" y="760" fill="#E94E6B"/><rect width="41" height="41" x="760" y="760" fill="#E94E6B"/><rect width="41" height="41" x="760" y="800" fill="#E94E6B"/><rect width="41" height="41" x="720" y="840" fill="#E94E6B"/></svg>