<?xml version="1.0" encoding="utf-8"?>
<!-- Generator: Adobe Illustrator 18.1.1, SVG Export Plug-In . SVG Version: 6.00 Build 0)  -->
<svg version="1.1" id="Layer_2" xmlns="http://www.w3.org/2000/svg" xmlns:xlink="http://www.w3.org/1999/xlink" x="0px" y="0px"
	 viewBox="0 0 32 32" enable-background="new 0 0 32 32" xml:space="preserve">
<g id="XMLID_1_">
	<rect x="25" y="29" fill="#EA4F6C" width="1" height="1"/>
	<rect x="24" y="29" fill="#EA4F6C" width="1" height="1"/>
	<rect x="26" y="27" fill="#EA4F6C" width="1" height="1"/>
	<rect x="25" y="28" fill="#EA4F6C" width="1" height="1"/>
	<rect x="26" y="28" fill="#EA4F6C" width="1" height="1"/>
	<rect x="25" y="27" fill="#EA4F6C" width="1" height="1"/>
	<rect x="28" y="22" fill="#EA4F6C" width="1" height="1"/>
	<rect x="28" y="24" fill="#EA4F6C" width="1" height="1"/>
	<rect x="28" y="23" fill="#EA4F6C" width="1" height="1"/>
	<rect x="27" y="23" fill="#EA4F6C" width="1" height="1"/>
	<rect x="27" y="24" fill="#EA4F6C" width="1" height="1"/>
	<rect x="27" y="26" fill="#EA4F6C" width="1" height="1"/>
	<rect x="27" y="25" fill="#EA4F6C" width="1" height="1"/>
	<rect x="26" y="26" fill="#EA4F6C" width="1" height="1"/>
	<rect x="26" y="25" fill="#EA4F6C" width="1" height="1"/>
	<rect x="25" y="25" fill="#EA4F6C" width="1" height="1"/>
	<rect x="25" y="23" fill="#EA4F6C" width="1" height="1"/>
	<rect x="25" y="24" fill="#EA4F6C" width="1" height="1"/>
	<rect x="24" y="24" fill="#EA4F6C" width="1" height="1"/>
	<rect x="24" y="23" fill="#EA4F6C" width="1" height="1"/>
	<rect x="24" y="22" fill="#EA4F6C" width="1" height="1"/>
	<rect x="22" y="26" fill="#EA4F6C" width="1" height="1"/>
	<rect x="21" y="27" fill="#EA4F6C" width="1" height="1"/>
	<rect x="22" y="27" fill="#EA4F6C" width="1" height="1"/>
	<rect x="22" y="22" fill="#EA4F6C" width="1" height="1"/>
	<rect x="21" y="22" fill="#EA4F6C" width="1" height="1"/>
	<rect x="21" y="25" fill="#EA4F6C" width="1" height="1"/>
	<rect x="21" y="26" fill="#EA4F6C" width="1" height="1"/>
	<rect x="21" y="21" fill="#EA4F6C" width="1" height="1"/>
	<rect x="22" y="23" fill="#EA4F6C" width="1" height="1"/>
	<rect x="21" y="23" fill="#EA4F6C" width="1" height="1"/>
	<rect x="21" y="24" fill="#EA4F6C" width="1" height="1"/>
	<rect x="20" y="25" fill="#EA4F6C" width="1" height="1"/>
	<rect x="20" y="26" fill="#EA4F6C" width="1" height="1"/>
	<rect x="19" y="22" fill="#EA4F6C" width="1" height="1"/>
	<rect x="19" y="23" fill="#EA4F6C" width="1" height="1"/>
	<rect x="20" y="24" fill="#EA4F6C" width="1" height="1"/>
	<rect x="20" y="23" fill="#EA4F6C" width="1" height="1"/>
	<rect x="20" y="22" fill="#EA4F6C" width="1" height="1"/>
	<rect x="20" y="21" fill="#EA4F6C" width="1" height="1"/>
	<rect x="17" y="23" fill="#EA4F6C" width="1" height="1"/>
	<rect x="15" y="26" fill="#EA4F6C" width="1" height="1"/>
	<rect x="16" y="23" fill="#EA4F6C" width="1" height="1"/>
	<rect x="15" y="23" fill="#EA4F6C" width="1" height="1"/>
	<rect x="16" y="27" fill="#EA4F6C" width="1" height="1"/>
	<rect x="16" y="22" fill="#EA4F6C" width="1" height="1"/>
	<rect x="16" y="24" fill="#EA4F6C" width="1" height="1"/>
	<rect x="16" y="26" fill="#EA4F6C" width="1" height="1"/>
	<rect x="16" y="25" fill="#EA4F6C" width="1" height="1"/>
	<rect x="15" y="27" fill="#EA4F6C" width="1" height="1"/>
	<rect x="15" y="25" fill="#EA4F6C" width="1" height="1"/>
	<rect x="15" y="24" fill="#EA4F6C" width="1" height="1"/>
	<rect x="15" y="22" fill="#EA4F6C" width="1" height="1"/>
	<rect x="11" y="27" fill="#EA4F6C" width="1" height="1"/>
	<rect x="12" y="27" fill="#EA4F6C" width="1" height="1"/>
	<rect x="10" y="27" fill="#EA4F6C" width="1" height="1"/>
	<rect x="13" y="26" fill="#EA4F6C" width="1" height="1"/>
	<rect x="12" y="26" fill="#EA4F6C" width="1" height="1"/>
	<rect x="11" y="26" fill="#EA4F6C" width="1" height="1"/>
	<rect x="12" y="22" fill="#EA4F6C" width="1" height="1"/>
	<rect x="11" y="22" fill="#EA4F6C" width="1" height="1"/>
	<rect x="10" y="22" fill="#EA4F6C" width="1" height="1"/>
	<rect x="13" y="24" fill="#EA4F6C" width="1" height="1"/>
	<rect x="13" y="23" fill="#EA4F6C" width="1" height="1"/>
	<rect x="12" y="23" fill="#EA4F6C" width="1" height="1"/>
	<rect x="12" y="24" fill="#EA4F6C" width="1" height="1"/>
	<rect x="11" y="24" fill="#EA4F6C" width="1" height="1"/>
	<rect x="9" y="24" fill="#EA4F6C" width="1" height="1"/>
	<rect x="10" y="25" fill="#EA4F6C" width="1" height="1"/>
	<rect x="9" y="25" fill="#EA4F6C" width="1" height="1"/>
	<rect x="9" y="26" fill="#EA4F6C" width="1" height="1"/>
	<rect x="10" y="26" fill="#EA4F6C" width="1" height="1"/>
	<rect x="10" y="23" fill="#EA4F6C" width="1" height="1"/>
	<rect x="10" y="24" fill="#EA4F6C" width="1" height="1"/>
	<rect x="9" y="23" fill="#EA4F6C" width="1" height="1"/>
	<rect x="4" y="27" fill="#EA4F6C" width="1" height="1"/>
	<rect x="5" y="27" fill="#EA4F6C" width="1" height="1"/>
	<rect x="5" y="26" fill="#EA4F6C" width="1" height="1"/>
	<rect x="4" y="26" fill="#EA4F6C" width="1" height="1"/>
	<rect x="3" y="27" fill="#EA4F6C" width="1" height="1"/>
	<rect x="7" y="25" fill="#EA4F6C" width="1" height="1"/>
	<rect x="7" y="24" fill="#EA4F6C" width="1" height="1"/>
	<rect x="6" y="26" fill="#EA4F6C" width="1" height="1"/>
	<rect x="6" y="25" fill="#EA4F6C" width="1" height="1"/>
	<rect x="6" y="24" fill="#EA4F6C" width="1" height="1"/>
	<rect x="6" y="23" fill="#EA4F6C" width="1" height="1"/>
	<rect x="4" y="23" fill="#EA4F6C" width="1" height="1"/>
	<rect x="5" y="23" fill="#EA4F6C" width="1" height="1"/>
	<rect x="4" y="22" fill="#EA4F6C" width="1" height="1"/>
	<rect x="5" y="22" fill="#EA4F6C" width="1" height="1"/>
	<rect x="3" y="24" fill="#EA4F6C" width="1" height="1"/>
	<rect x="3" y="25" fill="#EA4F6C" width="1" height="1"/>
	<rect x="3" y="26" fill="#EA4F6C" width="1" height="1"/>
	<rect x="3" y="21" fill="#EA4F6C" width="1" height="1"/>
	<rect x="3" y="19" fill="#EA4F6C" width="1" height="1"/>
	<rect x="3" y="23" fill="#EA4F6C" width="1" height="1"/>
	<rect x="3" y="20" fill="#EA4F6C" width="1" height="1"/>
	<rect x="3" y="22" fill="#EA4F6C" width="1" height="1"/>
	<rect x="2" y="24" fill="#EA4F6C" width="1" height="1"/>
	<rect x="2" y="26" fill="#EA4F6C" width="1" height="1"/>
	<rect x="2" y="25" fill="#EA4F6C" width="1" height="1"/>
	<rect x="2" y="23" fill="#EA4F6C" width="1" height="1"/>
	<rect x="2" y="22" fill="#EA4F6C" width="1" height="1"/>
	<rect x="2" y="21" fill="#EA4F6C" width="1" height="1"/>
	<rect x="2" y="20" fill="#EA4F6C" width="1" height="1"/>
	<rect x="2" y="19" fill="#EA4F6C" width="1" height="1"/>
	<rect x="10" y="18" fill="#EA4F6C" width="1" height="1"/>
	<rect x="9" y="18" fill="#EA4F6C" width="1" height="1"/>
	<rect x="8" y="18" fill="#EA4F6C" width="1" height="1"/>
	<rect x="11" y="17" fill="#EA4F6C" width="1" height="1"/>
	<rect x="10" y="17" fill="#EA4F6C" width="1" height="1"/>
	<rect x="9" y="17" fill="#EA4F6C" width="1" height="1"/>
	<rect x="8" y="17" fill="#EA4F6C" width="1" height="1"/>
	<rect x="14" y="4" fill="#084E84" width="1" height="1"/>
	<rect x="14" y="5" fill="#084E84" width="1" height="1"/>
	<rect x="13" y="3" fill="#084E84" width="1" height="1"/>
	<rect x="13" y="6" fill="#084E84" width="1" height="1"/>
	<rect x="13" y="5" fill="#084E84" width="1" height="1"/>
	<rect x="13" y="4" fill="#084E84" width="1" height="1"/>
	<rect x="12" y="6" fill="#084E84" width="1" height="1"/>
	<rect x="12" y="4" fill="#084E84" width="1" height="1"/>
	<rect x="12" y="5" fill="#084E84" width="1" height="1"/>
	<rect x="19" y="7" fill="#FFFFFF" width="1" height="1"/>
	<rect x="19" y="6" fill="#FFFFFF" width="1" height="1"/>
	<rect x="19" y="10" fill="#FFFFFF" width="1" height="1"/>
	<rect x="19" y="9" fill="#FFFFFF" width="1" height="1"/>
	<rect x="19" y="8" fill="#FFFFFF" width="1" height="1"/>
	<rect x="19" y="11" fill="#FFFFFF" width="1" height="1"/>
	<rect x="17" y="7" fill="#FFFFFF" width="1" height="1"/>
	<rect x="18" y="7" fill="#FFFFFF" width="1" height="1"/>
	<rect x="17" y="8" fill="#FFFFFF" width="1" height="1"/>
	<rect x="18" y="8" fill="#191919" width="1" height="1"/>
	<rect x="18" y="9" fill="#FFFFFF" width="1" height="1"/>
	<rect x="18" y="6" fill="#FFFFFF" width="1" height="1"/>
	<rect x="18" y="10" fill="#FFFFFF" width="1" height="1"/>
	<rect x="18" y="11" fill="#FFFFFF" width="1" height="1"/>
	<rect x="17" y="10" fill="#FFFFFF" width="1" height="1"/>
	<rect x="17" y="9" fill="#FFFFFF" width="1" height="1"/>
	<rect x="16" y="8" fill="#FFFFFF" width="1" height="1"/>
	<rect x="16" y="9" fill="#FFFFFF" width="1" height="1"/>
	<rect x="20" y="10" fill="#F49A20" width="1" height="1"/>
	<rect x="21" y="11" fill="#F49A20" width="1" height="1"/>
	<rect x="20" y="11" fill="#F49A20" width="1" height="1"/>
	<rect x="19" y="12" fill="#F49A20" width="1" height="1"/>
	<rect x="20" y="12" fill="#F49A20" width="1" height="1"/>
	<rect x="18" y="12" fill="#F49A20" width="1" height="1"/>
	<rect x="17" y="11" fill="#F49A20" width="1" height="1"/>
	<rect x="24" y="11" fill="#F7B351" width="1" height="1"/>
	<rect x="24" y="10" fill="#F7B351" width="1" height="1"/>
	<rect x="24" y="9" fill="#F7B351" width="1" height="1"/>
	<rect x="24" y="8" fill="#F7B351" width="1" height="1"/>
	<rect x="23" y="10" fill="#F7B351" width="1" height="1"/>
	<rect x="23" y="9" fill="#F7B351" width="1" height="1"/>
	<rect x="23" y="8" fill="#F7B351" width="1" height="1"/>
	<rect x="23" y="7" fill="#F7B351" width="1" height="1"/>
	<rect x="23" y="6" fill="#F7B351" width="1" height="1"/>
	<rect x="22" y="10" fill="#F7B351" width="1" height="1"/>
	<rect x="22" y="9" fill="#F7B351" width="1" height="1"/>
	<rect x="22" y="8" fill="#F7B351" width="1" height="1"/>
	<rect x="22" y="7" fill="#F7B351" width="1" height="1"/>
	<rect x="22" y="6" fill="#F7B351" width="1" height="1"/>
	<rect x="21" y="10" fill="#F7B351" width="1" height="1"/>
	<rect x="21" y="9" fill="#F7B351" width="1" height="1"/>
	<rect x="21" y="8" fill="#F7B351" width="1" height="1"/>
	<rect x="21" y="7" fill="#F7B351" width="1" height="1"/>
	<rect x="21" y="6" fill="#F7B351" width="1" height="1"/>
	<rect x="21" y="5" fill="#F7B351" width="1" height="1"/>
	<rect x="20" y="9" fill="#F7B351" width="1" height="1"/>
	<rect x="20" y="8" fill="#F7B351" width="1" height="1"/>
	<rect x="20" y="7" fill="#F7B351" width="1" height="1"/>
	<rect x="20" y="6" fill="#F7B351" width="1" height="1"/>
	<rect x="20" y="5" fill="#F7B351" width="1" height="1"/>
	<rect x="19" y="5" fill="#0955A0" width="1" height="1"/>
	<rect x="18" y="13" fill="#0955A0" width="1" height="1"/>
	<rect x="18" y="5" fill="#0955A0" width="1" height="1"/>
	<rect x="17" y="14" fill="#0955A0" width="1" height="1"/>
	<rect x="17" y="13" fill="#0955A0" width="1" height="1"/>
	<rect x="17" y="12" fill="#0955A0" width="1" height="1"/>
	<rect x="17" y="6" fill="#0955A0" width="1" height="1"/>
	<rect x="17" y="5" fill="#0955A0" width="1" height="1"/>
	<rect x="16" y="15" fill="#0955A0" width="1" height="1"/>
	<rect x="16" y="14" fill="#0955A0" width="1" height="1"/>
	<rect x="16" y="13" fill="#0955A0" width="1" height="1"/>
	<rect x="16" y="12" fill="#0955A0" width="1" height="1"/>
	<rect x="16" y="11" fill="#0955A0" width="1" height="1"/>
	<rect x="16" y="10" fill="#0955A0" width="1" height="1"/>
	<rect x="16" y="7" fill="#0955A0" width="1" height="1"/>
	<rect x="16" y="6" fill="#0955A0" width="1" height="1"/>
	<rect x="15" y="15" fill="#0955A0" width="1" height="1"/>
	<rect x="15" y="14" fill="#0955A0" width="1" height="1"/>
	<rect x="15" y="13" fill="#0955A0" width="1" height="1"/>
	<rect x="15" y="12" fill="#0955A0" width="1" height="1"/>
	<rect x="15" y="11" fill="#0955A0" width="1" height="1"/>
	<rect x="15" y="10" fill="#0955A0" width="1" height="1"/>
	<rect x="15" y="9" fill="#0955A0" width="1" height="1"/>
	<rect x="15" y="8" fill="#0955A0" width="1" height="1"/>
	<rect x="15" y="7" fill="#0955A0" width="1" height="1"/>
	<rect x="15" y="6" fill="#0955A0" width="1" height="1"/>
	<rect x="14" y="16" fill="#0955A0" width="1" height="1"/>
	<rect x="14" y="15" fill="#0955A0" width="1" height="1"/>
	<rect x="14" y="14" fill="#0955A0" width="1" height="1"/>
	<rect x="14" y="13" fill="#0955A0" width="1" height="1"/>
	<rect x="14" y="12" fill="#0955A0" width="1" height="1"/>
	<rect x="14" y="11" fill="#0955A0" width="1" height="1"/>
	<rect x="14" y="10" fill="#0955A0" width="1" height="1"/>
	<rect x="14" y="9" fill="#0955A0" width="1" height="1"/>
	<rect x="14" y="8" fill="#0955A0" width="1" height="1"/>
	<rect x="14" y="7" fill="#0955A0" width="1" height="1"/>
	<rect x="14" y="6" fill="#0955A0" width="1" height="1"/>
	<rect x="13" y="16" fill="#0955A0" width="1" height="1"/>
	<rect x="13" y="15" fill="#0955A0" width="1" height="1"/>
	<rect x="13" y="14" fill="#0955A0" width="1" height="1"/>
	<rect x="13" y="13" fill="#0955A0" width="1" height="1"/>
	<rect x="13" y="12" fill="#0955A0" width="1" height="1"/>
	<rect x="13" y="11" fill="#0955A0" width="1" height="1"/>
	<rect x="13" y="10" fill="#0955A0" width="1" height="1"/>
	<rect x="13" y="9" fill="#0955A0" width="1" height="1"/>
	<rect x="13" y="8" fill="#0955A0" width="1" height="1"/>
	<rect x="13" y="7" fill="#0955A0" width="1" height="1"/>
	<rect x="13" y="2" fill="#F7B351" width="1" height="1"/>
	<rect x="12" y="16" fill="#0955A0" width="1" height="1"/>
	<rect x="12" y="15" fill="#0955A0" width="1" height="1"/>
	<rect x="12" y="14" fill="#0955A0" width="1" height="1"/>
	<rect x="12" y="13" fill="#0955A0" width="1" height="1"/>
	<rect x="12" y="12" fill="#0955A0" width="1" height="1"/>
	<rect x="12" y="11" fill="#0955A0" width="1" height="1"/>
	<rect x="12" y="10" fill="#0955A0" width="1" height="1"/>
	<rect x="12" y="9" fill="#0955A0" width="1" height="1"/>
	<rect x="12" y="8" fill="#0955A0" width="1" height="1"/>
	<rect x="12" y="7" fill="#0955A0" width="1" height="1"/>
	<rect x="12" y="3" fill="#F7B351" width="1" height="1"/>
	<rect x="11" y="16" fill="#0955A0" width="1" height="1"/>
	<rect x="11" y="15" fill="#0955A0" width="1" height="1"/>
	<rect x="11" y="14" fill="#0955A0" width="1" height="1"/>
	<rect x="11" y="13" fill="#0955A0" width="1" height="1"/>
	<rect x="11" y="12" fill="#0955A0" width="1" height="1"/>
	<rect x="11" y="11" fill="#0955A0" width="1" height="1"/>
	<rect x="11" y="10" fill="#0955A0" width="1" height="1"/>
	<rect x="11" y="9" fill="#0955A0" width="1" height="1"/>
	<rect x="11" y="8" fill="#0955A0" width="1" height="1"/>
	<rect x="11" y="7" fill="#0955A0" width="1" height="1"/>
	<rect x="11" y="6" fill="#0955A0" width="1" height="1"/>
	<rect x="11" y="5" fill="#F7B351" width="1" height="1"/>
	<rect x="11" y="4" fill="#F7B351" width="1" height="1"/>
	<rect x="10" y="16" fill="#0955A0" width="1" height="1"/>
	<rect x="10" y="15" fill="#0955A0" width="1" height="1"/>
	<rect x="10" y="14" fill="#0955A0" width="1" height="1"/>
	<rect x="10" y="13" fill="#0955A0" width="1" height="1"/>
	<rect x="10" y="11" fill="#F7B351" width="1" height="1"/>
	<rect x="10" y="10" fill="#0955A0" width="1" height="1"/>
	<rect x="10" y="9" fill="#0955A0" width="1" height="1"/>
	<rect x="10" y="8" fill="#0955A0" width="1" height="1"/>
	<rect x="10" y="7" fill="#0955A0" width="1" height="1"/>
	<rect x="10" y="6" fill="#0955A0" width="1" height="1"/>
	<rect x="10" y="5" fill="#0955A0" width="1" height="1"/>
	<rect x="9" y="16" fill="#0955A0" width="1" height="1"/>
	<rect x="9" y="15" fill="#0955A0" width="1" height="1"/>
	<rect x="9" y="11" fill="#F7B351" width="1" height="1"/>
	<rect x="9" y="10" fill="#0955A0" width="1" height="1"/>
	<rect x="9" y="9" fill="#0955A0" width="1" height="1"/>
	<rect x="9" y="8" fill="#0955A0" width="1" height="1"/>
	<rect x="9" y="7" fill="#0955A0" width="1" height="1"/>
	<rect x="9" y="6" fill="#0955A0" width="1" height="1"/>
	<rect x="9" y="5" fill="#0955A0" width="1" height="1"/>
	<rect x="9" y="4" fill="#0955A0" width="1" height="1"/>
	<rect x="8" y="10" fill="#F7B351" width="1" height="1"/>
	<rect x="8" y="9" fill="#F7B351" width="1" height="1"/>
	<rect x="8" y="8" fill="#0955A0" width="1" height="1"/>
	<rect x="8" y="7" fill="#0955A0" width="1" height="1"/>
	<rect x="8" y="6" fill="#0955A0" width="1" height="1"/>
	<rect x="8" y="5" fill="#0955A0" width="1" height="1"/>
	<rect x="8" y="4" fill="#0955A0" width="1" height="1"/>
	<rect x="7" y="8" fill="#F7B351" width="1" height="1"/>
	<rect x="7" y="7" fill="#F7B351" width="1" height="1"/>
	<rect x="7" y="6" fill="#F7B351" width="1" height="1"/>
	<rect x="7" y="5" fill="#F7B351" width="1" height="1"/>
	<rect x="7" y="4" fill="#F7B351" width="1" height="1"/>
</g>
</svg>
