<svg xmlns="http://www.w3.org/2000/svg" xmlns:xlink="http://www.w3.org/1999/xlink" id="Layer_1" x="0" y="0" enable-background="new 0 0 5780 5780" version="1.1" viewBox="0 0 5780 5780" xml:space="preserve"><style type="text/css">.st0{fill:#f7b352}.st1{fill:#fff}.st2{fill:#f49a18}.st3{fill:#07539f}.st4{fill:#074c84}.st5{fill:#e94e6b}</style><g><g><g transform="matrix( 1, 0, 0, 1, 0,0)"><g id="Layer0_1_FILL"><path d="M4250,1360v-170h-170v-170h-850v170h-170v170h-170v510h170v170h170v170h680v-170h170v-170h340v-510H4250z" class="st0"/></g></g></g><g><g transform="matrix( 1, 0, 0, 1, 0,0)"><g id="Layer0_2_FILL"><path d="M3060,1190v170h-170v510h170v170h170v170h340V1020h-340v170H3060z" class="st1"/></g></g></g><g><g transform="matrix( 1, 0, 0, 1, 0,0)"><g id="Layer0_3_FILL"><path d="M3400,1530h-170v170h170V1530z"/></g></g></g><g><g transform="matrix( 1, 0, 0, 1, 0,0)"><g id="Layer0_4_FILL"><path d="M3570,1700v510h340v-170h170v-170h-170v-170H3570z" class="st2"/></g></g></g><g><g transform="matrix( 1, 0, 0, 1, 0,0)"><g id="Layer0_5_FILL"><path d="M3060,1360v-170h170v-170h-510v170l-609.6-59.2L2040,1020h-340c-137.4,192.9-137.4,419.5,0,680l170,170 l74,72l-74,268v340h-170v340l170,170c111.5,43,224.7,43,339.8,0H2890v-170h340v-170h170v-170h170v-340h-340v-170h-170v-170h-170 v-510H3060 M3230,850v170h510V850H3230z" class="st3"/></g></g></g><g><g transform="matrix( 1, 0, 0, 1, 0,0)"><g id="Layer0_6_FILL"><path d="M2720,1190V850h-170V680l-195.6-57.6l-253.2,266L2210,1190h170v170h170v-170H2720z" class="st4"/></g></g></g><g><g transform="matrix( 1, 0, 0, 1, 0,0)"><g id="Layer0_7_FILL"><path d="M2210,680h-170v510h170V850h170V680h170V510h-340V680z" class="st0"/></g></g></g><g><g transform="matrix( 1, 0, 0, 1, 0,0)"><g id="Layer0_8_FILL"><path d="M1360,1530h170v340h170v170h170v170h170v-340h-170v-170h-170V850h-340V1530z" class="st0"/></g></g></g><g><g transform="matrix( 1, 0, 0, 1, 0,0)"><g id="Layer0_9_FILL"><path d="M1870,3060v-170h-340v340h-170v340h680v-170h170v-340H1870z" class="st5"/></g></g></g></g><g><g transform="matrix( 1, 0, 0, 1, 0,0)"><g id="Layer0_10_FILL"><path d="M2890,4250v-170h-170v850h170v-510h170v-170H2890 M3060,4250h170v-170h-170V4250 M3740,4760v170h340v-170 H3740 M4080,4250v-170h-340v-340h-170v340h-170v170h170v510h170v-510H4080 M4590,5270v-170h-170v170H4590 M4590,4420h-170v340 h170V4420 M4930,4420h-170v340h-170v340h170v-170h170V4420 M5100,4080h-170v340h170V4080 M4420,4080h-170v340h170V4080 M1360,4250v-170h-340v-510H850v1360h510v-170h-340v-510H1360 M1530,4250h-170v510h170V4250 M2380,4930v-170h-510v170H2380 M2550,4250h-170v170h170V4250 M1870,4080v170h510v-170H1870 M1870,4250h-170v510h170v-170h510v-170h-510V4250z" class="st5"/></g></g><g><g transform="matrix( 1, 0, 0, 1, 0,0) matrix( 1, 0, 0, 1, 0,0)"><g id="Layer0_0_FILL"><path d="M4080,5270v170h340v-170H4080z" class="st5"/></g></g></g></g></svg>