<?xml version="1.0" encoding="utf-8" ?>
<svg baseProfile="full" height="1360px" version="1.1" width="1360px" xmlns="http://www.w3.org/2000/svg" xmlns:ev="http://www.w3.org/2001/xml-events" xmlns:xlink="http://www.w3.org/1999/xlink"><defs /><rect fill="rgb(247,179,82)" height="41px" width="41px" x="520px" y="120px" /><rect fill="rgb(247,179,82)" height="41px" width="41px" x="560px" y="120px" /><rect fill="rgb(247,179,82)" height="41px" width="41px" x="480px" y="160px" /><rect fill="rgb(247,179,82)" height="41px" width="41px" x="520px" y="160px" /><rect fill="rgb(7,76,132)" height="41px" width="41px" x="560px" y="160px" /><rect fill="rgb(247,179,82)" height="41px" width="41px" x="320px" y="200px" /><rect fill="rgb(247,179,82)" height="41px" width="41px" x="360px" y="200px" /><rect fill="rgb(247,179,82)" height="41px" width="41px" x="480px" y="200px" /><rect fill="rgb(7,76,132)" height="41px" width="41px" x="520px" y="200px" /><rect fill="rgb(7,76,132)" height="41px" width="41px" x="560px" y="200px" /><rect fill="rgb(7,76,132)" height="41px" width="41px" x="600px" y="200px" /><rect fill="rgb(7,83,159)" height="41px" width="41px" x="760px" y="200px" /><rect fill="rgb(7,83,159)" height="41px" width="41px" x="800px" y="200px" /><rect fill="rgb(7,83,159)" height="41px" width="41px" x="840px" y="200px" /><rect fill="rgb(247,179,82)" height="41px" width="41px" x="320px" y="240px" /><rect fill="rgb(247,179,82)" height="41px" width="41px" x="360px" y="240px" /><rect fill="rgb(7,83,159)" height="41px" width="41px" x="400px" y="240px" /><rect fill="rgb(7,83,159)" height="41px" width="41px" x="440px" y="240px" /><rect fill="rgb(247,179,82)" height="41px" width="41px" x="480px" y="240px" /><rect fill="rgb(7,76,132)" height="41px" width="41px" x="520px" y="240px" /><rect fill="rgb(7,76,132)" height="41px" width="41px" x="560px" y="240px" /><rect fill="rgb(7,76,132)" height="41px" width="41px" x="600px" y="240px" /><rect fill="rgb(7,83,159)" height="41px" width="41px" x="640px" y="240px" /><rect fill="rgb(7,83,159)" height="41px" width="41px" x="680px" y="240px" /><rect fill="rgb(7,83,159)" height="41px" width="41px" x="720px" y="240px" /><rect fill="rgb(255,255,255)" height="41px" width="41px" x="760px" y="240px" /><rect fill="rgb(255,255,255)" height="41px" width="41px" x="800px" y="240px" /><rect fill="rgb(247,179,82)" height="41px" width="41px" x="840px" y="240px" /><rect fill="rgb(247,179,82)" height="41px" width="41px" x="880px" y="240px" /><rect fill="rgb(247,179,82)" height="41px" width="41px" x="920px" y="240px" /><rect fill="rgb(247,179,82)" height="41px" width="41px" x="320px" y="280px" /><rect fill="rgb(247,179,82)" height="41px" width="41px" x="360px" y="280px" /><rect fill="rgb(7,83,159)" height="41px" width="41px" x="400px" y="280px" /><rect fill="rgb(7,83,159)" height="41px" width="41px" x="440px" y="280px" /><rect fill="rgb(7,83,159)" height="41px" width="41px" x="480px" y="280px" /><rect fill="rgb(7,83,159)" height="41px" width="41px" x="520px" y="280px" /><rect fill="rgb(7,76,132)" height="41px" width="41px" x="560px" y="280px" /><rect fill="rgb(7,83,159)" height="41px" width="41px" x="600px" y="280px" /><rect fill="rgb(7,83,159)" height="41px" width="41px" x="640px" y="280px" /><rect fill="rgb(7,83,159)" height="41px" width="41px" x="680px" y="280px" /><rect fill="rgb(255,255,255)" height="41px" width="41px" x="720px" y="280px" /><rect fill="rgb(255,255,255)" height="41px" width="41px" x="760px" y="280px" /><rect fill="rgb(255,255,255)" height="41px" width="41px" x="800px" y="280px" /><rect fill="rgb(247,179,82)" height="41px" width="41px" x="840px" y="280px" /><rect fill="rgb(247,179,82)" height="41px" width="41px" x="880px" y="280px" /><rect fill="rgb(247,179,82)" height="41px" width="41px" x="920px" y="280px" /><rect fill="rgb(247,179,82)" height="41px" width="41px" x="960px" y="280px" /><rect fill="rgb(247,179,82)" height="41px" width="41px" x="320px" y="320px" /><rect fill="rgb(247,179,82)" height="41px" width="41px" x="360px" y="320px" /><rect fill="rgb(7,83,159)" height="41px" width="41px" x="400px" y="320px" /><rect fill="rgb(7,83,159)" height="41px" width="41px" x="440px" y="320px" /><rect fill="rgb(7,83,159)" height="41px" width="41px" x="480px" y="320px" /><rect fill="rgb(7,83,159)" height="41px" width="41px" x="520px" y="320px" /><rect fill="rgb(7,83,159)" height="41px" width="41px" x="560px" y="320px" /><rect fill="rgb(7,83,159)" height="41px" width="41px" x="600px" y="320px" /><rect fill="rgb(7,83,159)" height="41px" width="41px" x="640px" y="320px" /><rect fill="rgb(255,255,255)" height="41px" width="41px" x="680px" y="320px" /><rect fill="rgb(255,255,255)" height="41px" width="41px" x="720px" y="320px" /><rect fill="rgb(255,255,255)" height="41px" width="41px" x="760px" y="320px" /><rect fill="rgb(255,255,255)" height="41px" width="41px" x="800px" y="320px" /><rect fill="rgb(247,179,82)" height="41px" width="41px" x="840px" y="320px" /><rect fill="rgb(247,179,82)" height="41px" width="41px" x="880px" y="320px" /><rect fill="rgb(247,179,82)" height="41px" width="41px" x="920px" y="320px" /><rect fill="rgb(247,179,82)" height="41px" width="41px" x="960px" y="320px" /><rect fill="rgb(247,179,82)" height="41px" width="41px" x="1000px" y="320px" /><rect fill="rgb(247,179,82)" height="41px" width="41px" x="360px" y="360px" /><rect fill="rgb(7,83,159)" height="41px" width="41px" x="400px" y="360px" /><rect fill="rgb(7,83,159)" height="41px" width="41px" x="440px" y="360px" /><rect fill="rgb(7,83,159)" height="41px" width="41px" x="480px" y="360px" /><rect fill="rgb(7,83,159)" height="41px" width="41px" x="520px" y="360px" /><rect fill="rgb(7,83,159)" height="41px" width="41px" x="560px" y="360px" /><rect fill="rgb(7,83,159)" height="41px" width="41px" x="600px" y="360px" /><rect fill="rgb(7,83,159)" height="41px" width="41px" x="640px" y="360px" /><rect fill="rgb(255,255,255)" height="41px" width="41px" x="680px" y="360px" /><rect fill="rgb(255,255,255)" height="41px" width="41px" x="720px" y="360px" /><rect fill="rgb(0,0,0)" height="41px" width="41px" x="760px" y="360px" /><rect fill="rgb(255,255,255)" height="41px" width="41px" x="800px" y="360px" /><rect fill="rgb(247,179,82)" height="41px" width="41px" x="840px" y="360px" /><rect fill="rgb(247,179,82)" height="41px" width="41px" x="880px" y="360px" /><rect fill="rgb(247,179,82)" height="41px" width="41px" x="920px" y="360px" /><rect fill="rgb(247,179,82)" height="41px" width="41px" x="960px" y="360px" /><rect fill="rgb(247,179,82)" height="41px" width="41px" x="1000px" y="360px" /><rect fill="rgb(247,179,82)" height="41px" width="41px" x="360px" y="400px" /><rect fill="rgb(247,179,82)" height="41px" width="41px" x="400px" y="400px" /><rect fill="rgb(7,83,159)" height="41px" width="41px" x="440px" y="400px" /><rect fill="rgb(7,83,159)" height="41px" width="41px" x="480px" y="400px" /><rect fill="rgb(7,83,159)" height="41px" width="41px" x="520px" y="400px" /><rect fill="rgb(7,83,159)" height="41px" width="41px" x="560px" y="400px" /><rect fill="rgb(7,83,159)" height="41px" width="41px" x="600px" y="400px" /><rect fill="rgb(7,83,159)" height="41px" width="41px" x="640px" y="400px" /><rect fill="rgb(255,255,255)" height="41px" width="41px" x="680px" y="400px" /><rect fill="rgb(255,255,255)" height="41px" width="41px" x="720px" y="400px" /><rect fill="rgb(255,255,255)" height="41px" width="41px" x="760px" y="400px" /><rect fill="rgb(255,255,255)" height="41px" width="41px" x="800px" y="400px" /><rect fill="rgb(244,154,24)" height="41px" width="41px" x="840px" y="400px" /><rect fill="rgb(244,154,24)" height="41px" width="41px" x="880px" y="400px" /><rect fill="rgb(247,179,82)" height="41px" width="41px" x="920px" y="400px" /><rect fill="rgb(247,179,82)" height="41px" width="41px" x="960px" y="400px" /><rect fill="rgb(247,179,82)" height="41px" width="41px" x="1000px" y="400px" /><rect fill="rgb(247,179,82)" height="41px" width="41px" x="400px" y="440px" /><rect fill="rgb(247,179,82)" height="41px" width="41px" x="440px" y="440px" /><rect fill="rgb(7,83,159)" height="41px" width="41px" x="480px" y="440px" /><rect fill="rgb(7,83,159)" height="41px" width="41px" x="520px" y="440px" /><rect fill="rgb(7,83,159)" height="41px" width="41px" x="560px" y="440px" /><rect fill="rgb(7,83,159)" height="41px" width="41px" x="600px" y="440px" /><rect fill="rgb(7,83,159)" height="41px" width="41px" x="640px" y="440px" /><rect fill="rgb(7,83,159)" height="41px" width="41px" x="680px" y="440px" /><rect fill="rgb(255,255,255)" height="41px" width="41px" x="720px" y="440px" /><rect fill="rgb(255,255,255)" height="41px" width="41px" x="760px" y="440px" /><rect fill="rgb(255,255,255)" height="41px" width="41px" x="800px" y="440px" /><rect fill="rgb(244,154,24)" height="41px" width="41px" x="840px" y="440px" /><rect fill="rgb(244,154,24)" height="41px" width="41px" x="880px" y="440px" /><rect fill="rgb(244,154,24)" height="41px" width="41px" x="920px" y="440px" /><rect fill="rgb(247,179,82)" height="41px" width="41px" x="440px" y="480px" /><rect fill="rgb(7,83,159)" height="41px" width="41px" x="480px" y="480px" /><rect fill="rgb(7,83,159)" height="41px" width="41px" x="520px" y="480px" /><rect fill="rgb(7,83,159)" height="41px" width="41px" x="560px" y="480px" /><rect fill="rgb(7,83,159)" height="41px" width="41px" x="600px" y="480px" /><rect fill="rgb(7,83,159)" height="41px" width="41px" x="640px" y="480px" /><rect fill="rgb(7,83,159)" height="41px" width="41px" x="680px" y="480px" /><rect fill="rgb(7,83,159)" height="41px" width="41px" x="720px" y="480px" /><rect fill="rgb(255,255,255)" height="41px" width="41px" x="760px" y="480px" /><rect fill="rgb(255,255,255)" height="41px" width="41px" x="800px" y="480px" /><rect fill="rgb(244,154,24)" height="41px" width="41px" x="840px" y="480px" /><rect fill="rgb(244,154,24)" height="41px" width="41px" x="880px" y="480px" /><rect fill="rgb(7,83,159)" height="41px" width="41px" x="440px" y="520px" /><rect fill="rgb(7,83,159)" height="41px" width="41px" x="480px" y="520px" /><rect fill="rgb(7,83,159)" height="41px" width="41px" x="520px" y="520px" /><rect fill="rgb(7,83,159)" height="41px" width="41px" x="560px" y="520px" /><rect fill="rgb(7,83,159)" height="41px" width="41px" x="600px" y="520px" /><rect fill="rgb(7,83,159)" height="41px" width="41px" x="640px" y="520px" /><rect fill="rgb(7,83,159)" height="41px" width="41px" x="680px" y="520px" /><rect fill="rgb(7,83,159)" height="41px" width="41px" x="720px" y="520px" /><rect fill="rgb(7,83,159)" height="41px" width="41px" x="760px" y="520px" /><rect fill="rgb(7,83,159)" height="41px" width="41px" x="800px" y="520px" /><rect fill="rgb(7,83,159)" height="41px" width="41px" x="440px" y="560px" /><rect fill="rgb(7,83,159)" height="41px" width="41px" x="480px" y="560px" /><rect fill="rgb(7,83,159)" height="41px" width="41px" x="520px" y="560px" /><rect fill="rgb(7,83,159)" height="41px" width="41px" x="560px" y="560px" /><rect fill="rgb(7,83,159)" height="41px" width="41px" x="600px" y="560px" /><rect fill="rgb(7,83,159)" height="41px" width="41px" x="640px" y="560px" /><rect fill="rgb(7,83,159)" height="41px" width="41px" x="680px" y="560px" /><rect fill="rgb(7,83,159)" height="41px" width="41px" x="720px" y="560px" /><rect fill="rgb(7,83,159)" height="41px" width="41px" x="760px" y="560px" /><rect fill="rgb(7,83,159)" height="41px" width="41px" x="800px" y="560px" /><rect fill="rgb(7,83,159)" height="41px" width="41px" x="400px" y="600px" /><rect fill="rgb(7,83,159)" height="41px" width="41px" x="440px" y="600px" /><rect fill="rgb(7,83,159)" height="41px" width="41px" x="480px" y="600px" /><rect fill="rgb(7,83,159)" height="41px" width="41px" x="520px" y="600px" /><rect fill="rgb(7,83,159)" height="41px" width="41px" x="560px" y="600px" /><rect fill="rgb(7,83,159)" height="41px" width="41px" x="600px" y="600px" /><rect fill="rgb(7,83,159)" height="41px" width="41px" x="640px" y="600px" /><rect fill="rgb(7,83,159)" height="41px" width="41px" x="680px" y="600px" /><rect fill="rgb(7,83,159)" height="41px" width="41px" x="720px" y="600px" /><rect fill="rgb(7,83,159)" height="41px" width="41px" x="760px" y="600px" /><rect fill="rgb(7,83,159)" height="41px" width="41px" x="400px" y="640px" /><rect fill="rgb(7,83,159)" height="41px" width="41px" x="440px" y="640px" /><rect fill="rgb(7,83,159)" height="41px" width="41px" x="480px" y="640px" /><rect fill="rgb(7,83,159)" height="41px" width="41px" x="520px" y="640px" /><rect fill="rgb(7,83,159)" height="41px" width="41px" x="560px" y="640px" /><rect fill="rgb(7,83,159)" height="41px" width="41px" x="600px" y="640px" /><rect fill="rgb(7,83,159)" height="41px" width="41px" x="640px" y="640px" /><rect fill="rgb(7,83,159)" height="41px" width="41px" x="680px" y="640px" /><rect fill="rgb(7,83,159)" height="41px" width="41px" x="720px" y="640px" /><rect fill="rgb(233,78,107)" height="41px" width="41px" x="360px" y="680px" /><rect fill="rgb(233,78,107)" height="41px" width="41px" x="400px" y="680px" /><rect fill="rgb(7,83,159)" height="41px" width="41px" x="440px" y="680px" /><rect fill="rgb(7,83,159)" height="41px" width="41px" x="480px" y="680px" /><rect fill="rgb(7,83,159)" height="41px" width="41px" x="520px" y="680px" /><rect fill="rgb(7,83,159)" height="41px" width="41px" x="560px" y="680px" /><rect fill="rgb(7,83,159)" height="41px" width="41px" x="600px" y="680px" /><rect fill="rgb(7,83,159)" height="41px" width="41px" x="640px" y="680px" /><rect fill="rgb(233,78,107)" height="41px" width="41px" x="360px" y="720px" /><rect fill="rgb(233,78,107)" height="41px" width="41px" x="400px" y="720px" /><rect fill="rgb(233,78,107)" height="41px" width="41px" x="440px" y="720px" /><rect fill="rgb(233,78,107)" height="41px" width="41px" x="480px" y="720px" /><rect fill="rgb(233,78,107)" height="41px" width="41px" x="320px" y="760px" /><rect fill="rgb(233,78,107)" height="41px" width="41px" x="360px" y="760px" /><rect fill="rgb(233,78,107)" height="41px" width="41px" x="400px" y="760px" /><rect fill="rgb(233,78,107)" height="41px" width="41px" x="440px" y="760px" /><rect fill="rgb(233,78,107)" height="41px" width="41px" x="480px" y="760px" /><rect fill="rgb(233,78,107)" height="41px" width="41px" x="320px" y="800px" /><rect fill="rgb(233,78,107)" height="41px" width="41px" x="360px" y="800px" /><rect fill="rgb(233,78,107)" height="41px" width="41px" x="400px" y="800px" /><rect fill="rgb(233,78,107)" height="41px" width="41px" x="440px" y="800px" /><rect fill="rgb(233,78,107)" height="41px" width="41px" x="200px" y="840px" /><rect fill="rgb(233,78,107)" height="41px" width="41px" x="200px" y="880px" /><rect fill="rgb(233,78,107)" height="41px" width="41px" x="840px" y="880px" /><rect fill="rgb(233,78,107)" height="41px" width="41px" x="200px" y="920px" /><rect fill="rgb(233,78,107)" height="41px" width="41px" x="840px" y="920px" /><rect fill="rgb(233,78,107)" height="41px" width="41px" x="200px" y="960px" /><rect fill="rgb(233,78,107)" height="41px" width="41px" x="240px" y="960px" /><rect fill="rgb(233,78,107)" height="41px" width="41px" x="280px" y="960px" /><rect fill="rgb(233,78,107)" height="41px" width="41px" x="440px" y="960px" /><rect fill="rgb(233,78,107)" height="41px" width="41px" x="480px" y="960px" /><rect fill="rgb(233,78,107)" height="41px" width="41px" x="520px" y="960px" /><rect fill="rgb(233,78,107)" height="41px" width="41px" x="640px" y="960px" /><rect fill="rgb(233,78,107)" height="41px" width="41px" x="720px" y="960px" /><rect fill="rgb(233,78,107)" height="41px" width="41px" x="800px" y="960px" /><rect fill="rgb(233,78,107)" height="41px" width="41px" x="840px" y="960px" /><rect fill="rgb(233,78,107)" height="41px" width="41px" x="880px" y="960px" /><rect fill="rgb(233,78,107)" height="41px" width="41px" x="920px" y="960px" /><rect fill="rgb(233,78,107)" height="41px" width="41px" x="1000px" y="960px" /><rect fill="rgb(233,78,107)" height="41px" width="41px" x="1160px" y="960px" /><rect fill="rgb(233,78,107)" height="41px" width="41px" x="200px" y="1000px" /><rect fill="rgb(233,78,107)" height="41px" width="41px" x="320px" y="1000px" /><rect fill="rgb(233,78,107)" height="41px" width="41px" x="400px" y="1000px" /><rect fill="rgb(233,78,107)" height="41px" width="41px" x="560px" y="1000px" /><rect fill="rgb(233,78,107)" height="41px" width="41px" x="640px" y="1000px" /><rect fill="rgb(233,78,107)" height="41px" width="41px" x="680px" y="1000px" /><rect fill="rgb(233,78,107)" height="41px" width="41px" x="840px" y="1000px" /><rect fill="rgb(233,78,107)" height="41px" width="41px" x="1000px" y="1000px" /><rect fill="rgb(233,78,107)" height="41px" width="41px" x="1160px" y="1000px" /><rect fill="rgb(233,78,107)" height="41px" width="41px" x="200px" y="1040px" /><rect fill="rgb(233,78,107)" height="41px" width="41px" x="320px" y="1040px" /><rect fill="rgb(233,78,107)" height="41px" width="41px" x="400px" y="1040px" /><rect fill="rgb(233,78,107)" height="41px" width="41px" x="440px" y="1040px" /><rect fill="rgb(233,78,107)" height="41px" width="41px" x="480px" y="1040px" /><rect fill="rgb(233,78,107)" height="41px" width="41px" x="520px" y="1040px" /><rect fill="rgb(233,78,107)" height="41px" width="41px" x="640px" y="1040px" /><rect fill="rgb(233,78,107)" height="41px" width="41px" x="840px" y="1040px" /><rect fill="rgb(233,78,107)" height="41px" width="41px" x="1040px" y="1040px" /><rect fill="rgb(233,78,107)" height="41px" width="41px" x="1120px" y="1040px" /><rect fill="rgb(233,78,107)" height="41px" width="41px" x="200px" y="1080px" /><rect fill="rgb(233,78,107)" height="41px" width="41px" x="320px" y="1080px" /><rect fill="rgb(233,78,107)" height="41px" width="41px" x="400px" y="1080px" /><rect fill="rgb(233,78,107)" height="41px" width="41px" x="640px" y="1080px" /><rect fill="rgb(233,78,107)" height="41px" width="41px" x="840px" y="1080px" /><rect fill="rgb(233,78,107)" height="41px" width="41px" x="1040px" y="1080px" /><rect fill="rgb(233,78,107)" height="41px" width="41px" x="1120px" y="1080px" /><rect fill="rgb(233,78,107)" height="41px" width="41px" x="200px" y="1120px" /><rect fill="rgb(233,78,107)" height="41px" width="41px" x="240px" y="1120px" /><rect fill="rgb(233,78,107)" height="41px" width="41px" x="280px" y="1120px" /><rect fill="rgb(233,78,107)" height="41px" width="41px" x="440px" y="1120px" /><rect fill="rgb(233,78,107)" height="41px" width="41px" x="480px" y="1120px" /><rect fill="rgb(233,78,107)" height="41px" width="41px" x="520px" y="1120px" /><rect fill="rgb(233,78,107)" height="41px" width="41px" x="640px" y="1120px" /><rect fill="rgb(233,78,107)" height="41px" width="41px" x="880px" y="1120px" /><rect fill="rgb(233,78,107)" height="41px" width="41px" x="920px" y="1120px" /><rect fill="rgb(233,78,107)" height="41px" width="41px" x="1080px" y="1120px" /><rect fill="rgb(233,78,107)" height="41px" width="41px" x="1120px" y="1120px" /><rect fill="rgb(233,78,107)" height="41px" width="41px" x="1080px" y="1160px" /><rect fill="rgb(233,78,107)" height="41px" width="41px" x="1040px" y="1200px" /><rect fill="rgb(233,78,107)" height="41px" width="41px" x="960px" y="1240px" /><rect fill="rgb(233,78,107)" height="41px" width="41px" x="1000px" y="1240px" /></svg>