<svg xmlns="http://www.w3.org/2000/svg" xmlns:xlink="http://www.w3.org/1999/xlink" width="227" height="120" version="1.1" viewBox="0 0 227 120"><title>ascii_lines</title><desc>Created with Sketch.</desc><g id="Page-1" fill="none" fill-rule="evenodd" stroke="none" stroke-width="1" opacity=".782"><path id="ascii_lines" fill="#000" fill-rule="nonzero" stroke="#000" d="M44.3031141,1.27636719 L41.0106337,9.14501953 L40.2210829,9.14501953 L43.4974501,1.27636719 L44.3031141,1.27636719 Z M50.0990017,9.14501953 L49.3040799,9.14501953 L46.0169705,1.27636719 L46.8172635,1.27636719 L50.0990017,9.14501953 Z M15.2699653,13.2763672 L11.9774848,21.1450195 L11.187934,21.1450195 L14.4643012,13.2763672 L15.2699653,13.2763672 Z M21.0658529,21.1450195 L20.270931,21.1450195 L16.9838216,13.2763672 L17.7841146,13.2763672 L21.0658529,21.1450195 Z M38.4964844,13.2763672 L35.2040039,21.1450195 L34.4144531,21.1450195 L37.6908203,13.2763672 L38.4964844,13.2763672 Z M50.1097439,13.2763672 L46.8172635,21.1450195 L46.0277127,21.1450195 L49.3040799,13.2763672 L50.1097439,13.2763672 Z M55.9056315,21.1450195 L55.1107096,21.1450195 L51.8236003,13.2763672 L52.6238932,13.2763672 L55.9056315,21.1450195 Z M74.7005208,23.3955078 L68.0994466,23.3955078 L68.0994466,22.6918945 L74.7005208,22.6918945 L74.7005208,23.3955078 Z M80.5071506,23.3955078 L73.9060764,23.3955078 L73.9060764,22.6918945 L80.5071506,22.6918945 L80.5071506,23.3955078 Z M86.3137804,23.3955078 L79.7127062,23.3955078 L79.7127062,22.6918945 L86.3137804,22.6918945 L86.3137804,23.3955078 Z M92.1204102,23.3955078 L85.5193359,23.3955078 L85.5193359,22.6918945 L92.1204102,22.6918945 L92.1204102,23.3955078 Z M97.9270399,23.3955078 L91.3259657,23.3955078 L91.3259657,22.6918945 L97.9270399,22.6918945 L97.9270399,23.3955078 Z M103.73367,23.3955078 L97.1325955,23.3955078 L97.1325955,22.6918945 L103.73367,22.6918945 L103.73367,23.3955078 Z M9.4633355,25.2763672 L6.17085503,33.1450195 L5.38130425,33.1450195 L8.65767144,25.2763672 L9.4633355,25.2763672 Z M21.0765951,25.2763672 L17.7841146,33.1450195 L16.9945638,33.1450195 L20.270931,25.2763672 L21.0765951,25.2763672 Z M26.8724826,33.1450195 L26.0775608,33.1450195 L22.7904514,25.2763672 L23.5907444,25.2763672 L26.8724826,33.1450195 Z M32.6898546,25.2763672 L29.3973741,33.1450195 L28.6078234,33.1450195 L31.8841905,25.2763672 L32.6898546,25.2763672 Z M44.3031141,25.2763672 L41.0106337,33.1450195 L40.2210829,33.1450195 L43.4974501,25.2763672 L44.3031141,25.2763672 Z M61.7122613,33.1450195 L60.9173394,33.1450195 L57.63023,25.2763672 L58.430523,25.2763672 L61.7122613,33.1450195 Z M67.5296332,25.2763672 L64.2371528,33.1450195 L63.447602,33.1450195 L66.7239692,25.2763672 L67.5296332,25.2763672 Z M83.3972765,35.0571289 L82.570128,35.0571289 L82.570128,25.4213867 L83.3972765,25.4213867 L83.3972765,35.0571289 Z M108.165299,33.1450195 L107.370378,33.1450195 L104.083268,25.2763672 L104.883561,25.2763672 L108.165299,33.1450195 Z M2.10445964,47.0571289 L1.2773112,47.0571289 L1.2773112,37.4213867 L2.10445964,37.4213867 L2.10445964,47.0571289 Z M13.7177192,47.0571289 L12.8905707,47.0571289 L12.8905707,37.4213867 L13.7177192,37.4213867 L13.7177192,47.0571289 Z M32.6791124,45.1450195 L31.8841905,45.1450195 L28.5970812,37.2763672 L29.3973741,37.2763672 L32.6791124,45.1450195 Z M38.4964844,37.2763672 L35.2040039,45.1450195 L34.4144531,45.1450195 L37.6908203,37.2763672 L38.4964844,37.2763672 Z M60.1707574,47.0571289 L59.3436089,47.0571289 L59.3436089,37.4213867 L60.1707574,37.4213867 L60.1707574,47.0571289 Z M73.2449544,46.1225586 L72.9173177,46.5844727 C72.1188111,45.9793264 71.5100932,45.2757202 71.0911458,44.4736328 C70.6721984,43.6715455 70.4627279,42.8247115 70.4627279,41.9331055 C70.4627279,41.034338 70.6704081,40.1866088 71.0857747,39.3898926 C71.5011414,38.5931764 72.1116496,37.8922556 72.9173177,37.2871094 L73.2449544,37.7490234 C72.5896777,38.336266 72.1179214,38.95125 71.8296712,39.5939941 C71.5414211,40.2367382 71.3972982,41.0128535 71.3972982,41.9223633 C71.3972982,42.8640998 71.5467921,43.6563282 71.8457845,44.2990723 C72.1447769,44.9418164 72.6111622,45.5496391 73.2449544,46.1225586 Z M75.6892795,37.2871094 C76.4913669,37.8922556 77.1000847,38.5931764 77.5154514,39.3898926 C77.930818,40.1866088 78.1384983,41.034338 78.1384983,41.9331055 C78.1384983,42.8247115 77.9299229,43.6715455 77.5127658,44.4736328 C77.0956088,45.2757202 76.4877861,45.9793264 75.6892795,46.5844727 L75.3562717,46.1225586 C76.0115484,45.5424776 76.4833048,44.9257031 76.7715549,44.2722168 C77.059805,43.6187305 77.203928,42.8354538 77.203928,41.9223633 C77.203928,40.9806268 77.0553292,40.1928743 76.7581272,39.559082 C76.4609252,38.9252898 75.9936447,38.321943 75.3562717,37.7490234 L75.6892795,37.2871094 Z M83.3972765,47.0571289 L82.570128,47.0571289 L82.570128,37.4213867 L83.3972765,37.4213867 L83.3972765,47.0571289 Z M112.430425,47.0571289 L111.603277,47.0571289 L111.603277,37.4213867 L112.430425,37.4213867 L112.430425,47.0571289 Z M9.45259332,57.1450195 L8.65767144,57.1450195 L5.37056207,49.2763672 L6.17085503,49.2763672 L9.45259332,57.1450195 Z M21.0658529,57.1450195 L20.270931,57.1450195 L16.9838216,49.2763672 L17.7841146,49.2763672 L21.0658529,57.1450195 Z M60.1707574,59.0571289 L59.3436089,59.0571289 L59.3436089,49.4213867 L60.1707574,49.4213867 L60.1707574,59.0571289 Z M83.3972765,59.0571289 L82.570128,59.0571289 L82.570128,49.4213867 L83.3972765,49.4213867 L83.3972765,59.0571289 Z M92.1204102,59.3955078 L85.5193359,59.3955078 L85.5193359,58.6918945 L92.1204102,58.6918945 L92.1204102,59.3955078 Z M97.9270399,59.3955078 L91.3259657,59.3955078 L91.3259657,58.6918945 L97.9270399,58.6918945 L97.9270399,59.3955078 Z M103.73367,59.3955078 L97.1325955,59.3955078 L97.1325955,58.6918945 L103.73367,58.6918945 L103.73367,59.3955078 Z M109.540299,59.3955078 L102.939225,59.3955078 L102.939225,58.6918945 L109.540299,58.6918945 L109.540299,59.3955078 Z M112.430425,59.0571289 L111.603277,59.0571289 L111.603277,49.4213867 L112.430425,49.4213867 L112.430425,59.0571289 Z M15.2592231,69.1450195 L14.4643012,69.1450195 L11.1771918,61.2763672 L11.9774848,61.2763672 L15.2592231,69.1450195 Z M26.8724826,69.1450195 L26.0775608,69.1450195 L22.7904514,61.2763672 L23.5907444,61.2763672 L26.8724826,69.1450195 Z M67.5188911,69.1450195 L66.7239692,69.1450195 L63.4368598,61.2763672 L64.2371528,61.2763672 L67.5188911,69.1450195 Z M74.7005208,71.3955078 L68.0994466,71.3955078 L68.0994466,70.6918945 L74.7005208,70.6918945 L74.7005208,71.3955078 Z M80.5071506,71.3955078 L73.9060764,71.3955078 L73.9060764,70.6918945 L80.5071506,70.6918945 L80.5071506,71.3955078 Z M86.3137804,71.3955078 L79.7127062,71.3955078 L79.7127062,70.6918945 L86.3137804,70.6918945 L86.3137804,71.3955078 Z M92.1204102,71.3955078 L85.5193359,71.3955078 L85.5193359,70.6918945 L92.1204102,70.6918945 L92.1204102,71.3955078 Z M96.5627821,61.2763672 L93.2703016,69.1450195 L92.4807509,69.1450195 L95.7571181,61.2763672 L96.5627821,61.2763672 Z M109.540299,71.3955078 L102.939225,71.3955078 L102.939225,70.6918945 L109.540299,70.6918945 L109.540299,71.3955078 Z M115.346929,71.3955078 L108.745855,71.3955078 L108.745855,70.6918945 L115.346929,70.6918945 L115.346929,71.3955078 Z M185.026487,71.3955078 L178.425412,71.3955078 L178.425412,70.6918945 L185.026487,70.6918945 L185.026487,71.3955078 Z M190.833116,71.3955078 L184.232042,71.3955078 L184.232042,70.6918945 L190.833116,70.6918945 L190.833116,71.3955078 Z M21.0658529,81.1450195 L20.270931,81.1450195 L16.9838216,73.2763672 L17.7841146,73.2763672 L21.0658529,81.1450195 Z M26.8832248,73.2763672 L23.5907444,81.1450195 L22.8011936,81.1450195 L26.0775608,73.2763672 L26.8832248,73.2763672 Z M73.336263,73.2763672 L70.0437826,81.1450195 L69.2542318,81.1450195 L72.530599,73.2763672 L73.336263,73.2763672 Z M102.369412,73.2763672 L99.0769314,81.1450195 L98.2873806,81.1450195 L101.563748,73.2763672 L102.369412,73.2763672 Z M113.982671,73.2763672 L110.690191,81.1450195 L109.90064,81.1450195 L113.177007,73.2763672 L113.982671,73.2763672 Z M132.766819,83.3955078 L126.165744,83.3955078 L126.165744,82.6918945 L132.766819,82.6918945 L132.766819,83.3955078 Z M138.573448,83.3955078 L131.972374,83.3955078 L131.972374,82.6918945 L138.573448,82.6918945 L138.573448,83.3955078 Z M144.380078,83.3955078 L137.779004,83.3955078 L137.779004,82.6918945 L144.380078,82.6918945 L144.380078,83.3955078 Z M155.993338,83.3955078 L149.392263,83.3955078 L149.392263,82.6918945 L155.993338,82.6918945 L155.993338,83.3955078 Z M161.799967,83.3955078 L155.198893,83.3955078 L155.198893,82.6918945 L161.799967,82.6918945 L161.799967,83.3955078 Z M167.606597,83.3955078 L161.005523,83.3955078 L161.005523,82.6918945 L167.606597,82.6918945 L167.606597,83.3955078 Z M173.413227,83.3955078 L166.812153,83.3955078 L166.812153,82.6918945 L173.413227,82.6918945 L173.413227,83.3955078 Z M177.855599,73.2763672 L174.563118,81.1450195 L173.773568,81.1450195 L177.049935,73.2763672 L177.855599,73.2763672 Z M189.468859,73.2763672 L186.176378,81.1450195 L185.386827,81.1450195 L188.663194,73.2763672 L189.468859,73.2763672 Z M196.639746,83.3955078 L190.038672,83.3955078 L190.038672,82.6918945 L196.639746,82.6918945 L196.639746,83.3955078 Z M202.446376,83.3955078 L195.845302,83.3955078 L195.845302,82.6918945 L202.446376,82.6918945 L202.446376,83.3955078 Z M208.253006,83.3955078 L201.651931,83.3955078 L201.651931,82.6918945 L208.253006,82.6918945 L208.253006,83.3955078 Z M219.866265,83.3955078 L213.265191,83.3955078 L213.265191,82.6918945 L219.866265,82.6918945 L219.866265,83.3955078 Z M225.672895,83.3955078 L219.071821,83.3955078 L219.071821,82.6918945 L225.672895,82.6918945 L225.672895,83.3955078 Z M21.0765951,85.2763672 L17.7841146,93.1450195 L16.9945638,93.1450195 L20.270931,85.2763672 L21.0765951,85.2763672 Z M57.2806315,95.3955078 L50.6795573,95.3955078 L50.6795573,94.6918945 L57.2806315,94.6918945 L57.2806315,95.3955078 Z M63.0872613,95.3955078 L56.4861871,95.3955078 L56.4861871,94.6918945 L63.0872613,94.6918945 L63.0872613,95.3955078 Z M67.5296332,85.2763672 L64.2371528,93.1450195 L63.447602,93.1450195 L66.7239692,85.2763672 L67.5296332,85.2763672 Z M96.5627821,85.2763672 L93.2703016,93.1450195 L92.4807509,93.1450195 L95.7571181,85.2763672 L96.5627821,85.2763672 Z M109.540299,95.3955078 L102.939225,95.3955078 L102.939225,94.6918945 L109.540299,94.6918945 L109.540299,95.3955078 Z M119.778559,93.1450195 L118.983637,93.1450195 L115.696528,85.2763672 L116.496821,85.2763672 L119.778559,93.1450195 Z M125.595931,85.2763672 L122.303451,93.1450195 L121.5139,93.1450195 L124.790267,85.2763672 L125.595931,85.2763672 Z M136.81173,90.3842773 L133.6213,90.3842773 L133.6213,89.5678711 L136.81173,89.5678711 L136.81173,90.3842773 Z M144.380078,95.3955078 L137.779004,95.3955078 L137.779004,94.6918945 L144.380078,94.6918945 L144.380078,95.3955078 Z M145.368837,85.2871094 C146.170924,85.8922556 146.779642,86.5931764 147.195009,87.3898926 C147.610375,88.1866088 147.818056,89.034338 147.818056,89.9331055 C147.818056,90.8247115 147.60948,91.6715455 147.192323,92.4736328 C146.775166,93.2757202 146.167343,93.9793264 145.368837,94.5844727 L145.035829,94.1225586 C145.691106,93.5424776 146.162862,92.9257031 146.451112,92.2722168 C146.739362,91.6187305 146.883485,90.8354538 146.883485,89.9223633 C146.883485,88.9806268 146.734886,88.1928743 146.437684,87.559082 C146.140482,86.9252898 145.673202,86.321943 145.035829,85.7490234 L145.368837,85.2871094 Z M161.799967,95.3955078 L155.198893,95.3955078 L155.198893,94.6918945 L161.799967,94.6918945 L161.799967,95.3955078 Z M167.606597,95.3955078 L161.005523,95.3955078 L161.005523,94.6918945 L167.606597,94.6918945 L167.606597,95.3955078 Z M172.048969,85.2763672 L168.756489,93.1450195 L167.966938,93.1450195 L171.243305,85.2763672 L172.048969,85.2763672 Z M185.026487,95.3955078 L178.425412,95.3955078 L178.425412,94.6918945 L185.026487,94.6918945 L185.026487,95.3955078 Z M190.833116,95.3955078 L184.232042,95.3955078 L184.232042,94.6918945 L190.833116,94.6918945 L190.833116,95.3955078 Z M195.275488,85.2763672 L191.983008,93.1450195 L191.193457,93.1450195 L194.469824,85.2763672 L195.275488,85.2763672 Z M206.888748,85.2763672 L203.596267,93.1450195 L202.806717,93.1450195 L206.083084,85.2763672 L206.888748,85.2763672 Z M212.695378,85.2763672 L209.402897,93.1450195 L208.613346,93.1450195 L211.889714,85.2763672 L212.695378,85.2763672 Z M224.308637,85.2763672 L221.016157,93.1450195 L220.226606,93.1450195 L223.502973,85.2763672 L224.308637,85.2763672 Z M15.2699653,97.2763672 L11.9774848,105.14502 L11.187934,105.14502 L14.4643012,97.2763672 L15.2699653,97.2763672 Z M22.4408529,107.395508 L15.8397786,107.395508 L15.8397786,106.691895 L22.4408529,106.691895 L22.4408529,107.395508 Z M28.2474826,107.395508 L21.6464084,107.395508 L21.6464084,106.691895 L28.2474826,106.691895 L28.2474826,107.395508 Z M34.0541124,107.395508 L27.4530382,107.395508 L27.4530382,106.691895 L34.0541124,106.691895 L34.0541124,107.395508 Z M39.8607422,107.395508 L33.259668,107.395508 L33.259668,106.691895 L39.8607422,106.691895 L39.8607422,107.395508 Z M45.667372,107.395508 L39.0662977,107.395508 L39.0662977,106.691895 L45.667372,106.691895 L45.667372,107.395508 Z M50.1097439,97.2763672 L46.8172635,105.14502 L46.0277127,105.14502 L49.3040799,97.2763672 L50.1097439,97.2763672 Z M90.7561523,97.2763672 L87.4636719,105.14502 L86.6741211,105.14502 L89.9504883,97.2763672 L90.7561523,97.2763672 Z M97.9270399,107.395508 L91.3259657,107.395508 L91.3259657,106.691895 L97.9270399,106.691895 L97.9270399,107.395508 Z M103.73367,107.395508 L97.1325955,107.395508 L97.1325955,106.691895 L103.73367,106.691895 L103.73367,107.395508 Z M109.540299,107.395508 L102.939225,107.395508 L102.939225,106.691895 L109.540299,106.691895 L109.540299,107.395508 Z M115.346929,107.395508 L108.745855,107.395508 L108.745855,106.691895 L115.346929,106.691895 L115.346929,107.395508 Z M119.789301,97.2763672 L116.496821,105.14502 L115.70727,105.14502 L118.983637,97.2763672 L119.789301,97.2763672 Z M125.585189,105.14502 L124.790267,105.14502 L121.503158,97.2763672 L122.303451,97.2763672 L125.585189,105.14502 Z M132.766819,107.395508 L126.165744,107.395508 L126.165744,106.691895 L132.766819,106.691895 L132.766819,107.395508 Z M138.573448,107.395508 L131.972374,107.395508 L131.972374,106.691895 L138.573448,106.691895 L138.573448,107.395508 Z M143.01582,97.2763672 L139.72334,105.14502 L138.933789,105.14502 L142.210156,97.2763672 L143.01582,97.2763672 Z M150.186708,107.395508 L143.585634,107.395508 L143.585634,106.691895 L150.186708,106.691895 L150.186708,107.395508 Z M154.62908,97.2763672 L151.336599,105.14502 L150.547049,105.14502 L153.823416,97.2763672 L154.62908,97.2763672 Z M172.038227,105.14502 L171.243305,105.14502 L167.956196,97.2763672 L168.756489,97.2763672 L172.038227,105.14502 Z M179.219857,107.395508 L172.618783,107.395508 L172.618783,106.691895 L179.219857,106.691895 L179.219857,107.395508 Z M185.026487,107.395508 L178.425412,107.395508 L178.425412,106.691895 L185.026487,106.691895 L185.026487,107.395508 Z M189.468859,97.2763672 L186.176378,105.14502 L185.386827,105.14502 L188.663194,97.2763672 L189.468859,97.2763672 Z M195.264746,105.14502 L194.469824,105.14502 L191.182715,97.2763672 L191.983008,97.2763672 L195.264746,105.14502 Z M202.446376,107.395508 L195.845302,107.395508 L195.845302,106.691895 L202.446376,106.691895 L202.446376,107.395508 Z M208.253006,107.395508 L201.651931,107.395508 L201.651931,106.691895 L208.253006,106.691895 L208.253006,107.395508 Z M218.502007,97.2763672 L215.209527,105.14502 L214.419976,105.14502 L217.696343,97.2763672 L218.502007,97.2763672 Z M9.4633355,109.276367 L6.17085503,117.14502 L5.38130425,117.14502 L8.65767144,109.276367 L9.4633355,109.276367 Z M16.6342231,119.395508 L10.0331489,119.395508 L10.0331489,118.691895 L16.6342231,118.691895 L16.6342231,119.395508 Z M22.4408529,119.395508 L15.8397786,119.395508 L15.8397786,118.691895 L22.4408529,118.691895 L22.4408529,119.395508 Z M26.8832248,109.276367 L23.5907444,117.14502 L22.8011936,117.14502 L26.0775608,109.276367 L26.8832248,109.276367 Z M189.468859,109.276367 L186.176378,117.14502 L185.386827,117.14502 L188.663194,109.276367 L189.468859,109.276367 Z M196.639746,119.395508 L190.038672,119.395508 L190.038672,118.691895 L196.639746,118.691895 L196.639746,119.395508 Z M202.446376,119.395508 L195.845302,119.395508 L195.845302,118.691895 L202.446376,118.691895 L202.446376,119.395508 Z M208.253006,119.395508 L201.651931,119.395508 L201.651931,118.691895 L208.253006,118.691895 L208.253006,119.395508 Z M212.695378,109.276367 L209.402897,117.14502 L208.613346,117.14502 L211.889714,109.276367 L212.695378,109.276367 Z"/></g></svg>