<?xml version="1.0" encoding="UTF-8"?>
<svg width="488px" height="488px" viewBox="0 0 488 488" version="1.1" xmlns="http://www.w3.org/2000/svg" xmlns:xlink="http://www.w3.org/1999/xlink">
    <!-- Generator: Sketch 51.3 (57544) - http://www.bohemiancoding.com/sketch -->
    <title>berty_bot_circle</title>
    <desc>Created with Sketch.</desc>
    <defs></defs>
    <g id="Page-1" stroke="none" stroke-width="1" fill="none" fill-rule="evenodd">
        <rect id="Rectangle-3" fill="#FAD2ED" fill-rule="nonzero" x="-192" y="-221" width="872" height="954"></rect>
        <g id="assistant" transform="translate(64.000000, 43.000000)" fill-rule="nonzero">
            <g id="Group" transform="translate(46.094646, 80.692308)">
                <path d="M144.504779,90.3514793 C144.504779,89.2650888 144.52603,88.1786982 144.579156,87.1029586 C146.268587,49.5266272 177.985261,19.5869822 215.864639,19.5017751 C215.90714,12.4828402 215.120864,7.92426036 215.120864,7.76449704 C215.258994,7.76449704 215.397123,7.75384615 215.524627,7.75384615 C194.242049,7.55147929 173.214478,11.7798817 153.75946,19.9597633 C147.171742,22.7289941 140.77528,25.9455621 134.601951,29.5988166 C126.845445,34.1893491 119.460826,39.4615385 112.543722,45.4153846 C110.238021,47.3964497 107.985446,49.452071 105.785998,51.5822485 L67.1415954,30.1420118 L45.8483912,18.3408284 L12.7716724,0.0106508876 C-14.3442244,48.8982249 3.17698006,110.545562 51.8835908,137.779882 L4.01638282,229.398817 C4.02700817,229.398817 4.02700817,229.409467 4.03763353,229.409467 C24.2151758,239.99645 45.6571349,245.662722 67.0034658,246.908876 C126.144172,250.370414 184.626106,219.653254 213.898949,163.629586 L215.025236,161.211834 C214.674599,161.211834 214.313337,161.211834 213.962701,161.201183 C175.498929,160.540828 144.504779,129.078107 144.504779,90.3514793 Z" id="Shape" fill="#ED4CB7"></path>
                <path d="M162.907887,131.538462 C152.155032,119.694675 145.344182,104.186982 144.579156,87.1029586 C144.52603,88.1786982 144.504779,89.2650888 144.504779,90.3514793 C144.504779,129.078107 175.488303,160.551479 213.973326,161.201183 C214.387715,161.211834 214.791478,161.211834 215.205867,161.211834 L215.205867,154.704142 C194.486432,154.714793 175.83894,145.778698 162.907887,131.538462 Z" id="Shape" fill="#F7B352"></path>
                <path d="M215.035861,19.4911243 C177.156484,19.5763314 146.279213,49.5266272 144.579156,87.1029586 C145.344182,104.186982 152.155032,119.694675 162.907887,131.538462 C175.83894,145.778698 194.475806,154.714793 215.205867,154.714793 L215.205867,19.4804734 C215.15274,19.4804734 215.099613,19.4804734 215.035861,19.4911243 Z" id="Shape" fill="#FFFFFF"></path>
            </g>
            <g id="Group" transform="translate(19.000000, 35.000000)">
                <path d="M39.8663184,45.7029586 L17.4043256,33.1775148 C-16.6286749,94.5372781 5.80144186,172.267456 67.0140912,206.382249 L79.1057411,183.546746 C30.2928768,156.344379 12.729171,94.6331361 39.8663184,45.7029586 Z" id="Shape" fill="#F7B352"></path>
                <g transform="translate(205.151758, 38.360947)">
                    <path d="M37.0637521,112.977515 L37.0637521,168.511243 C37.0850028,168.511243 37.1168789,168.511243 37.1381296,168.511243 C63.7440094,168.47929 85.9509938,149.63787 91.2530442,124.544379 L37.0637521,112.977515 Z" id="Shape" fill="#F49A18"></path>
                    <g id="wrench" transform="translate(102.742958, 102.569940) rotate(8.000000) translate(-102.742958, -102.569940) translate(11.742958, 12.069940)" fill="#800FAD">
                        <path d="M172.150512,38.937639 C171.536824,36.463705 168.440984,35.6253619 166.638274,37.4280735 L146.266003,57.8003588 L127.669046,54.7017769 L124.570466,36.1048065 L144.942737,15.7325212 C146.756406,13.9188508 145.882447,10.8284881 143.392077,10.2093196 C130.411467,6.99293139 116.118549,10.4586308 105.973509,20.6009385 C95.113412,31.4610432 92.1244196,47.2032636 96.6448939,60.9290771 L13.7282061,142.859133 C6.88174234,149.705602 6.88174234,160.806799 13.7282061,167.653267 C20.5746698,174.499736 31.6758587,174.499736 38.5223225,167.653267 L121.389696,85.7725256 C135.120979,90.3505364 150.833052,87.3286657 161.76438,76.3973292 C171.920379,66.2413231 175.380597,51.9264777 172.150512,38.937639 Z M27.582631,160.360747 C23.9525532,160.360747 21.0073957,157.415588 21.0073957,153.785507 C21.0073957,150.152687 23.9525532,147.210267 27.582631,147.210267 C31.2127088,147.210267 34.1578663,150.152687 34.1578663,153.785507 C34.1578663,157.415588 31.2127088,160.360747 27.582631,160.360747 Z" id="Shape" transform="translate(90.956705, 90.918109) rotate(6.000000) translate(-90.956705, -90.918109) "></path>
                    </g>
                    <path d="M103.929088,40.6686391 C87.8954331,26.0769231 67.0378684,16.7360947 44.044608,15.287574 C41.8557856,15.1704142 39.6669632,15.095858 37.4781408,15.0745562 C37.3400112,15.0745562 37.2018817,15.0852071 37.0743775,15.0852071 C37.0743775,15.4473373 37.0743775,112.977515 37.0743775,112.977515 L134.168838,133.68284 C135.497007,127.228402 136.208906,120.550296 136.208906,113.701775 C136.187655,84.7526627 123.745369,58.7112426 103.929088,40.6686391 Z" id="Shape" fill="#F7B352"></path>
                </g>
                <g id="Shape">
                    <g transform="translate(72.889910, 0.000000)">
                        <path d="M88.7960615,75.2804734 L64.6340125,21.5573964 C41.4813718,32.0272189 26.095863,52.6686391 21.3463309,75.8343195 L60.0013593,97.2532544 C68.7778995,88.7431953 78.46822,81.3940828 88.7960615,75.2804734 Z" fill="#D735A1"></path>
                        <path d="M21.3463309,75.8343195 C26.1064884,52.6686391 41.4813718,32.0272189 64.6340125,21.5573964 L54.9755681,0.0852071006 C27.0521446,12.7065089 7.77775721,36.6284024 0.0425014055,64.0224852 L21.3463309,75.8343195 Z" fill="#F7B352"></path>
                    </g>
                    <path d="M0.0743774597,334.416568 C32.1629386,351.298225 71.8273754,338.911243 88.6685573,306.745562 C91.0698867,302.15503 92.8655711,297.415385 94.0981119,292.601183 C72.7411556,291.35503 51.3098218,285.688757 31.1322796,275.101775 L0.0743774597,334.416568 Z" fill="#800FAD"></path>
                </g>
                <ellipse id="Oval" fill="#000000" cx="219.54101" cy="131.613018" rx="12.6654188" ry="12.695858"></ellipse>
            </g>
        </g>
    </g>
</svg>