<?xml version="1.0" encoding="UTF-8"?>
<svg width="213px" height="64px" viewBox="0 0 213 64" version="1.1" xmlns="http://www.w3.org/2000/svg" xmlns:xlink="http://www.w3.org/1999/xlink">
    <!-- Generator: Sketch 52.6 (67491) - http://www.bohemiancoding.com/sketch -->
    <title>btn android@1x</title>
    <desc>Created with Sketch.</desc>
    <g id="Page-1" stroke="none" stroke-width="1" fill="none" fill-rule="evenodd">
        <g id="btn-android">
            <rect id="button" fill="#2D6FE2" x="0" y="0" width="213" height="64" rx="10"></rect>
            <text id="Download-app" font-family="MaisonNeue-Medium, Maison Neue" font-size="15" font-weight="400" letter-spacing="1.20000005" fill="#FFFFFF">
                <tspan x="73" y="23">Download app</tspan>
            </text>
            <text id="for-Android" font-family="MaisonNeue-Medium, Maison Neue" font-size="25" font-weight="400" letter-spacing="-0.185185179" fill="#FFFFFF">
                <tspan x="72" y="51">for Android</tspan>
            </text>
            <g id="android-logo" transform="translate(17.000000, 9.000000)" fill="#FFFFFF">
                <path d="M3.01430983,15 C2.17518162,15 1.46321274,15.2834142 0.877962868,15.8502426 C0.292712996,16.417071 0,17.097248 0,17.8911148 L0,30.0800576 C0,30.8937967 0.292624936,31.5827584 0.877962868,32.1496721 C1.46321274,32.7165005 2.17518162,33 3.01430983,33 C3.8528216,33 4.56047553,32.7165858 5.13665517,32.1496721 C5.71169003,31.5828437 6,30.8937967 6,30.0800576 L6,17.8911148 C6,17.0971627 5.70737506,16.417071 5.12203713,15.8502426 C4.5366992,15.2834142 3.83397666,15 3.01430983,15 Z" id="Path"></path>
                <path d="M26.3944104,4.10298623 L28.3901687,0.590252409 C28.5211726,0.357694777 28.4745727,0.179362935 28.2499463,0.0539657931 C28.0061218,-0.0541630161 27.8187922,0.000627626749 27.6878729,0.214464451 L25.6642054,3.75527949 C23.8835167,3.00410704 22.0001561,2.62783492 20.0141237,2.62783492 C18.0276684,2.62783492 16.1441388,3.00418773 14.3641267,3.75527949 L12.3403746,0.214464451 C12.2088633,0.000627626749 12.0215336,-0.0536788573 11.7783011,0.0539657931 C11.5531673,0.179927786 11.5065674,0.357694777 11.6380788,0.590252409 L13.6339217,4.10298623 C11.6101696,5.08768463 9.99837359,6.45906457 8.79912564,8.22011168 C7.59987769,9.98212711 7,11.9076268 7,14 L33,14 C33,11.908111 32.4000377,9.98253058 31.2008744,8.22011168 C30.0015418,6.45906457 28.3990489,5.08768463 26.3944104,4.10298623 Z M14.8558352,9.21231455 C14.6400044,9.4187276 14.3822253,9.52144997 14.0825825,9.52144997 C13.7823476,9.52144997 13.5298121,9.4187276 13.3237917,9.21231455 C13.1177714,9.00686981 13.0147613,8.76188543 13.0147613,8.47502132 C13.0147613,8.18912552 13.1177714,7.94365698 13.3237917,7.73772808 C13.5298121,7.53228335 13.7829396,7.42956098 14.0825825,7.42956098 C14.3822253,7.42956098 14.6400044,7.53228335 14.8558352,7.73772808 C15.0711586,7.94414114 15.1793277,8.18912552 15.1793277,8.47502132 C15.1787357,8.76140127 15.0706511,9.00686981 14.8558352,9.21231455 Z M26.7033563,9.21231455 C26.4969131,9.4187276 26.2437855,9.52144997 25.9446501,9.52144997 C25.6443307,9.52144997 25.3866361,9.4187276 25.1712282,9.21231455 C24.955482,9.00686981 24.8478203,8.76188543 24.8478203,8.47502132 C24.8478203,8.18912552 24.955482,7.94365698 25.1712282,7.73772808 C25.3866361,7.53228335 25.6443307,7.42956098 25.9446501,7.42956098 C26.2442929,7.42956098 26.4968285,7.53228335 26.7033563,7.73772808 C26.9095457,7.94414114 27.0123867,8.18912552 27.0123867,8.47502132 C27.0123867,8.76140127 26.9094611,9.00686981 26.7033563,9.21231455 Z" id="Shape" fill-rule="nonzero"></path>
                <path d="M7,34.269171 C7,35.1572692 7.30193713,35.9090449 7.90589662,36.525978 C8.51036743,37.1429112 9.24633387,37.4513342 10.1151595,37.4513342 L12.2112491,37.4513342 L12.2399685,44.019709 C12.2399685,44.8491345 12.5231571,45.5534672 13.0895342,46.1320977 C13.6559114,46.7107283 14.3360582,47 15.1287817,47 C15.9403389,47 16.6297748,46.7107283 17.1962372,46.1320977 C17.7626995,45.5534672 18.0458881,44.8492216 18.0458881,44.019709 L18.0458881,37.4519436 L21.9544528,37.4519436 L21.9544528,44.019709 C21.9544528,44.8491345 22.2375561,45.5534672 22.8040185,46.1320977 C23.3704808,46.7107283 24.0593202,47 24.871474,47 C25.6830312,47 26.3724671,46.7107283 26.9389295,46.1320977 C27.5053919,45.5534672 27.7884952,44.8492216 27.7884952,44.019709 L27.7884952,37.4519436 L29.9128782,37.4519436 C30.7624439,37.4519436 31.4889508,37.1434335 32.0940182,36.5265003 C32.6978924,35.9095672 33,35.1577915 33,34.2697804 L33,15 L7,15 L7,34.269171 Z" id="Path"></path>
                <path d="M36.9854685,15 C36.1656294,15 35.4633631,15.2792351 34.877965,15.83617 C34.292655,16.3941283 34,17.079508 34,17.8911148 L34,30.0800576 C34,30.8937967 34.2925669,31.5827584 34.877965,32.1496721 C35.4633631,32.7165858 36.1661578,33 36.9854685,33 C37.8241545,33 38.5366369,32.7165858 39.122035,32.1496721 C39.7074331,31.5827584 40,30.8937967 40,30.0800576 L40,17.8911148 C40,17.0794227 39.7074331,16.3941283 39.122035,15.83617 C38.5366369,15.2792351 37.8241545,15 36.9854685,15 Z" id="Path"></path>
            </g>
        </g>
    </g>
</svg>