<?xml version="1.0" encoding="UTF-8"?>
<svg width="213px" height="64px" viewBox="0 0 213 64" version="1.1" xmlns="http://www.w3.org/2000/svg" xmlns:xlink="http://www.w3.org/1999/xlink">
    <!-- Generator: Sketch 52.6 (67491) - http://www.bohemiancoding.com/sketch -->
    <title>btn_ios@1x</title>
    <desc>Created with Sketch.</desc>
    <g id="Page-1" stroke="none" stroke-width="1" fill="none" fill-rule="evenodd">
        <g id="btn_ios">
            <rect id="button" fill="#2D6FE2" x="0" y="0" width="213" height="64" rx="10"></rect>
            <text id="Download-app" font-family="MaisonNeue-Medium, Maison Neue" font-size="15" font-weight="400" letter-spacing="1.20000005" fill="#FFFFFF">
                <tspan x="73" y="23">Download app</tspan>
            </text>
            <text id="for-IOS" font-family="MaisonNeue-Medium, Maison Neue" font-size="25" font-weight="400" fill="#FFFFFF">
                <tspan x="85" y="47">for</tspan>
                <tspan x="116.75" y="47" font-size="29"> IOS</tspan>
            </text>
            <path d="M49.1592222,46.7045905 C47.4044667,49.2593143 45.5893333,51.7983238 42.7235,51.8515429 C39.9030556,51.9047619 38.9988667,50.1883429 35.7804778,50.1883429 C32.5587111,50.1883429 31.5508667,51.7983238 28.88789,51.9047619 C26.1212156,52.0078476 24.0174722,49.1455429 22.2482556,46.6023429 C18.6338011,41.402381 15.8751067,31.8994286 19.5852578,25.4862819 C21.4225156,22.3013733 24.7146667,20.2862571 28.2822122,20.233059 C30.9992333,20.1832762 33.5659222,22.0567333 35.2254667,22.0567333 C36.8875444,22.0567333 40.0029111,19.8074324 43.2780889,20.1373486 C44.6490444,20.1937314 48.4967556,20.6873276 50.9678111,24.2871562 C50.7725333,24.4149448 46.3750889,26.962 46.4287111,32.2684 C46.4825444,38.6071238 52.0079556,40.7140952 52.0721333,40.7428 C52.0221,40.8917714 51.1888444,43.7507238 49.1592222,46.7045905 Z M37.1265222,13.174139 C38.6433556,11.4045638 41.2062444,10.0883562 43.3213667,9.99991619 C43.5915889,12.4579448 42.5983111,14.9193676 41.1313,16.6930286 C39.6613333,18.4635048 37.2550889,19.8426743 34.8936,19.6585238 C34.5727111,17.2536933 35.7629556,14.7456514 37.1265222,13.174139 Z" id="logo" fill="#FFFFFF" fill-rule="nonzero"></path>
        </g>
    </g>
</svg>