<svg xmlns="http://www.w3.org/2000/svg" xmlns:ev="http://www.w3.org/2001/xml-events" xmlns:xlink="http://www.w3.org/1999/xlink" width="1720" height="1520" baseProfile="full" version="1.1"><rect width="41" height="41" x="800" y="0" fill="#F48F18"/><rect width="41" height="41" x="600" y="40" fill="#F7B352"/><rect width="41" height="41" x="760" y="40" fill="#F48F18"/><rect width="41" height="41" x="800" y="40" fill="#F48F18"/><rect width="41" height="41" x="840" y="40" fill="#163079"/><rect width="41" height="41" x="1080" y="40" fill="#07539F"/><rect width="41" height="41" x="1120" y="40" fill="#FFF"/><rect width="41" height="41" x="1160" y="40" fill="#FFF"/><rect width="41" height="41" x="1200" y="40" fill="#FFF"/><rect width="41" height="41" x="1240" y="40" fill="#F7B352"/><rect width="41" height="41" x="1280" y="40" fill="#F7B352"/><rect width="41" height="41" x="1320" y="40" fill="#F7B352"/><rect width="41" height="41" x="560" y="80" fill="#F7B352"/><rect width="41" height="41" x="600" y="80" fill="#F7B352"/><rect width="41" height="41" x="640" y="80" fill="#07539F"/><rect width="41" height="41" x="720" y="80" fill="#F48F18"/><rect width="41" height="41" x="760" y="80" fill="#F48F18"/><rect width="41" height="41" x="800" y="80" fill="#163079"/><rect width="41" height="41" x="840" y="80" fill="#163079"/><rect width="41" height="41" x="880" y="80" fill="#163079"/><rect width="41" height="41" x="1000" y="80" fill="#07539F"/><rect width="41" height="41" x="1040" y="80" fill="#07539F"/><rect width="41" height="41" x="1080" y="80" fill="#FFF"/><rect width="41" height="41" x="1120" y="80" fill="#FFF"/><rect width="41" height="41" x="1160" y="80" fill="#FFF"/><rect width="41" height="41" x="1200" y="80" fill="#FFF"/><rect width="41" height="41" x="1240" y="80" fill="#F7B352"/><rect width="41" height="41" x="1280" y="80" fill="#F7B352"/><rect width="41" height="41" x="1320" y="80" fill="#F7B352"/><rect width="41" height="41" x="1360" y="80" fill="#F7B352"/><rect width="41" height="41" x="520" y="120" fill="#F7B352"/><rect width="41" height="41" x="560" y="120" fill="#F7B352"/><rect width="41" height="41" x="600" y="120" fill="#07539F"/><rect width="41" height="41" x="640" y="120" fill="#07539F"/><rect width="41" height="41" x="680" y="120" fill="#07539F"/><rect width="41" height="41" x="720" y="120" fill="#F48F18"/><rect width="41" height="41" x="760" y="120" fill="#163079"/><rect width="41" height="41" x="800" y="120" fill="#163079"/><rect width="41" height="41" x="840" y="120" fill="#163079"/><rect width="41" height="41" x="880" y="120" fill="#163079"/><rect width="41" height="41" x="920" y="120" fill="#07539F"/><rect width="41" height="41" x="960" y="120" fill="#07539F"/><rect width="41" height="41" x="1000" y="120" fill="#07539F"/><rect width="41" height="41" x="1040" y="120" fill="#FFF"/><rect width="41" height="41" x="1080" y="120" fill="#FFF"/><rect width="41" height="41" x="1120" y="120" fill="#FFF"/><rect width="41" height="41" x="1160" y="120" fill="#FFF"/><rect width="41" height="41" x="1200" y="120" fill="#FFF"/><rect width="41" height="41" x="1240" y="120" fill="#F7B352"/><rect width="41" height="41" x="1280" y="120" fill="#F7B352"/><rect width="41" height="41" x="1320" y="120" fill="#F7B352"/><rect width="41" height="41" x="1360" y="120" fill="#F7B352"/><rect width="41" height="41" x="1400" y="120" fill="#F7B352"/><rect width="41" height="41" x="480" y="160" fill="#F7B352"/><rect width="41" height="41" x="520" y="160" fill="#F7B352"/><rect width="41" height="41" x="560" y="160" fill="#07539F"/><rect width="41" height="41" x="600" y="160" fill="#07539F"/><rect width="41" height="41" x="640" y="160" fill="#07539F"/><rect width="41" height="41" x="680" y="160" fill="#07539F"/><rect width="41" height="41" x="720" y="160" fill="#07539F"/><rect width="41" height="41" x="760" y="160" fill="#163079"/><rect width="41" height="41" x="800" y="160" fill="#163079"/><rect width="41" height="41" x="840" y="160" fill="#163079"/><rect width="41" height="41" x="880" y="160" fill="#07539F"/><rect width="41" height="41" x="920" y="160" fill="#07539F"/><rect width="41" height="41" x="960" y="160" fill="#07539F"/><rect width="41" height="41" x="1000" y="160" fill="#FFF"/><rect width="41" height="41" x="1040" y="160" fill="#FFF"/><rect width="41" height="41" x="1080" y="160" fill="#FFF"/><rect width="41" height="41" x="1120" y="160" fill="#FFF"/><rect width="41" height="41" x="1160" y="160" fill="#FFF"/><rect width="41" height="41" x="1200" y="160" fill="#FFF"/><rect width="41" height="41" x="1240" y="160" fill="#F7B352"/><rect width="41" height="41" x="1280" y="160" fill="#F7B352"/><rect width="41" height="41" x="1320" y="160" fill="#F7B352"/><rect width="41" height="41" x="1360" y="160" fill="#F7B352"/><rect width="41" height="41" x="1400" y="160" fill="#F7B352"/><rect width="41" height="41" x="1440" y="160" fill="#F7B352"/><rect width="41" height="41" x="480" y="200" fill="#F7B352"/><rect width="41" height="41" x="520" y="200" fill="#F7B352"/><rect width="41" height="41" x="560" y="200" fill="#07539F"/><rect width="41" height="41" x="600" y="200" fill="#07539F"/><rect width="41" height="41" x="640" y="200" fill="#07539F"/><rect width="41" height="41" x="680" y="200" fill="#07539F"/><rect width="41" height="41" x="720" y="200" fill="#07539F"/><rect width="41" height="41" x="760" y="200" fill="#07539F"/><rect width="41" height="41" x="800" y="200" fill="#163079"/><rect width="41" height="41" x="840" y="200" fill="#07539F"/><rect width="41" height="41" x="880" y="200" fill="#07539F"/><rect width="41" height="41" x="920" y="200" fill="#07539F"/><rect width="41" height="41" x="960" y="200" fill="#07539F"/><rect width="41" height="41" x="1000" y="200" fill="#FFF"/><rect width="41" height="41" x="1040" y="200" fill="#FFF"/><rect width="41" height="41" x="1080" y="200" fill="#FFF"/><rect width="41" height="41" x="1120" y="200" fill="#FFF"/><rect width="41" height="41" x="1160" y="200" fill="#FFF"/><rect width="41" height="41" x="1200" y="200" fill="#FFF"/><rect width="41" height="41" x="1240" y="200" fill="#F7B352"/><rect width="41" height="41" x="1280" y="200" fill="#F7B352"/><rect width="41" height="41" x="1320" y="200" fill="#F7B352"/><rect width="41" height="41" x="1360" y="200" fill="#F7B352"/><rect width="41" height="41" x="1400" y="200" fill="#F7B352"/><rect width="41" height="41" x="1440" y="200" fill="#F7B352"/><rect width="41" height="41" x="1480" y="200" fill="#F7B352"/><rect width="41" height="41" x="480" y="240" fill="#F7B352"/><rect width="41" height="41" x="520" y="240" fill="#F7B352"/><rect width="41" height="41" x="560" y="240" fill="#07539F"/><rect width="41" height="41" x="600" y="240" fill="#07539F"/><rect width="41" height="41" x="640" y="240" fill="#07539F"/><rect width="41" height="41" x="680" y="240" fill="#07539F"/><rect width="41" height="41" x="720" y="240" fill="#07539F"/><rect width="41" height="41" x="760" y="240" fill="#07539F"/><rect width="41" height="41" x="800" y="240" fill="#07539F"/><rect width="41" height="41" x="840" y="240" fill="#07539F"/><rect width="41" height="41" x="880" y="240" fill="#07539F"/><rect width="41" height="41" x="920" y="240" fill="#07539F"/><rect width="41" height="41" x="960" y="240" fill="#07539F"/><rect width="41" height="41" x="1000" y="240" fill="#FFF"/><rect width="41" height="41" x="1040" y="240" fill="#FFF"/><rect width="41" height="41" x="1080" y="240" fill="#FFF"/><rect width="41" height="41" x="1120" y="240" fill="#000"/><rect width="41" height="41" x="1160" y="240" fill="#000"/><rect width="41" height="41" x="1200" y="240" fill="#FFF"/><rect width="41" height="41" x="1240" y="240" fill="#F7B352"/><rect width="41" height="41" x="1280" y="240" fill="#F7B352"/><rect width="41" height="41" x="1320" y="240" fill="#F7B352"/><rect width="41" height="41" x="1360" y="240" fill="#F7B352"/><rect width="41" height="41" x="1400" y="240" fill="#F7B352"/><rect width="41" height="41" x="1440" y="240" fill="#F7B352"/><rect width="41" height="41" x="1480" y="240" fill="#F7B352"/><rect width="41" height="41" x="480" y="280" fill="#F7B352"/><rect width="41" height="41" x="520" y="280" fill="#F7B352"/><rect width="41" height="41" x="560" y="280" fill="#07539F"/><rect width="41" height="41" x="600" y="280" fill="#07539F"/><rect width="41" height="41" x="640" y="280" fill="#07539F"/><rect width="41" height="41" x="680" y="280" fill="#07539F"/><rect width="41" height="41" x="720" y="280" fill="#07539F"/><rect width="41" height="41" x="760" y="280" fill="#07539F"/><rect width="41" height="41" x="800" y="280" fill="#07539F"/><rect width="41" height="41" x="840" y="280" fill="#07539F"/><rect width="41" height="41" x="880" y="280" fill="#07539F"/><rect width="41" height="41" x="920" y="280" fill="#07539F"/><rect width="41" height="41" x="960" y="280" fill="#07539F"/><rect width="41" height="41" x="1000" y="280" fill="#FFF"/><rect width="41" height="41" x="1040" y="280" fill="#FFF"/><rect width="41" height="41" x="1080" y="280" fill="#FFF"/><rect width="41" height="41" x="1120" y="280" fill="#000"/><rect width="41" height="41" x="1160" y="280" fill="#000"/><rect width="41" height="41" x="1200" y="280" fill="#FFF"/><rect width="41" height="41" x="1240" y="280" fill="#F7B352"/><rect width="41" height="41" x="1280" y="280" fill="#F7B352"/><rect width="41" height="41" x="1320" y="280" fill="#F7B352"/><rect width="41" height="41" x="1360" y="280" fill="#F7B352"/><rect width="41" height="41" x="1400" y="280" fill="#F7B352"/><rect width="41" height="41" x="1440" y="280" fill="#F7B352"/><rect width="41" height="41" x="1480" y="280" fill="#F7B352"/><rect width="41" height="41" x="480" y="320" fill="#F7B352"/><rect width="41" height="41" x="520" y="320" fill="#F7B352"/><rect width="41" height="41" x="560" y="320" fill="#07539F"/><rect width="41" height="41" x="600" y="320" fill="#07539F"/><rect width="41" height="41" x="640" y="320" fill="#07539F"/><rect width="41" height="41" x="680" y="320" fill="#07539F"/><rect width="41" height="41" x="720" y="320" fill="#07539F"/><rect width="41" height="41" x="760" y="320" fill="#07539F"/><rect width="41" height="41" x="800" y="320" fill="#07539F"/><rect width="41" height="41" x="840" y="320" fill="#07539F"/><rect width="41" height="41" x="880" y="320" fill="#07539F"/><rect width="41" height="41" x="920" y="320" fill="#07539F"/><rect width="41" height="41" x="960" y="320" fill="#07539F"/><rect width="41" height="41" x="1000" y="320" fill="#FFF"/><rect width="41" height="41" x="1040" y="320" fill="#FFF"/><rect width="41" height="41" x="1080" y="320" fill="#FFF"/><rect width="41" height="41" x="1120" y="320" fill="#FFF"/><rect width="41" height="41" x="1160" y="320" fill="#FFF"/><rect width="41" height="41" x="1200" y="320" fill="#FFF"/><rect width="41" height="41" x="1240" y="320" fill="#F48F18"/><rect width="41" height="41" x="1280" y="320" fill="#F48F18"/><rect width="41" height="41" x="1320" y="320" fill="#F48F18"/><rect width="41" height="41" x="1360" y="320" fill="#F48F18"/><rect width="41" height="41" x="1400" y="320" fill="#F7B352"/><rect width="41" height="41" x="1440" y="320" fill="#F7B352"/><rect width="41" height="41" x="1480" y="320" fill="#F7B352"/><rect width="41" height="41" x="480" y="360" fill="#F7B352"/><rect width="41" height="41" x="520" y="360" fill="#F7B352"/><rect width="41" height="41" x="560" y="360" fill="#07539F"/><rect width="41" height="41" x="600" y="360" fill="#07539F"/><rect width="41" height="41" x="640" y="360" fill="#07539F"/><rect width="41" height="41" x="680" y="360" fill="#07539F"/><rect width="41" height="41" x="720" y="360" fill="#07539F"/><rect width="41" height="41" x="760" y="360" fill="#07539F"/><rect width="41" height="41" x="800" y="360" fill="#07539F"/><rect width="41" height="41" x="840" y="360" fill="#07539F"/><rect width="41" height="41" x="880" y="360" fill="#07539F"/><rect width="41" height="41" x="920" y="360" fill="#07539F"/><rect width="41" height="41" x="960" y="360" fill="#07539F"/><rect width="41" height="41" x="1000" y="360" fill="#F48F18"/><rect width="41" height="41" x="1040" y="360" fill="#FFF"/><rect width="41" height="41" x="1080" y="360" fill="#FFF"/><rect width="41" height="41" x="1120" y="360" fill="#FFF"/><rect width="41" height="41" x="1160" y="360" fill="#FFF"/><rect width="41" height="41" x="1200" y="360" fill="#FFF"/><rect width="41" height="41" x="1240" y="360" fill="#F48F18"/><rect width="41" height="41" x="1280" y="360" fill="#F48F18"/><rect width="41" height="41" x="1320" y="360" fill="#F48F18"/><rect width="41" height="41" x="1360" y="360" fill="#F48F18"/><rect width="41" height="41" x="520" y="400" fill="#F7B352"/><rect width="41" height="41" x="560" y="400" fill="#F7B352"/><rect width="41" height="41" x="600" y="400" fill="#07539F"/><rect width="41" height="41" x="640" y="400" fill="#07539F"/><rect width="41" height="41" x="680" y="400" fill="#07539F"/><rect width="41" height="41" x="720" y="400" fill="#07539F"/><rect width="41" height="41" x="760" y="400" fill="#07539F"/><rect width="41" height="41" x="800" y="400" fill="#07539F"/><rect width="41" height="41" x="840" y="400" fill="#07539F"/><rect width="41" height="41" x="880" y="400" fill="#07539F"/><rect width="41" height="41" x="920" y="400" fill="#07539F"/><rect width="41" height="41" x="960" y="400" fill="#07539F"/><rect width="41" height="41" x="1000" y="400" fill="#07539F"/><rect width="41" height="41" x="1040" y="400" fill="#F48F18"/><rect width="41" height="41" x="1080" y="400" fill="#FFF"/><rect width="41" height="41" x="1120" y="400" fill="#FFF"/><rect width="41" height="41" x="1160" y="400" fill="#FFF"/><rect width="41" height="41" x="1200" y="400" fill="#FFF"/><rect width="41" height="41" x="1240" y="400" fill="#F48F18"/><rect width="41" height="41" x="1280" y="400" fill="#F48F18"/><rect width="41" height="41" x="1320" y="400" fill="#F48F18"/><rect width="41" height="41" x="1360" y="400" fill="#F48F18"/><rect width="41" height="41" x="560" y="440" fill="#F7B352"/><rect width="41" height="41" x="600" y="440" fill="#F7B352"/><rect width="41" height="41" x="640" y="440" fill="#07539F"/><rect width="41" height="41" x="680" y="440" fill="#07539F"/><rect width="41" height="41" x="720" y="440" fill="#07539F"/><rect width="41" height="41" x="760" y="440" fill="#07539F"/><rect width="41" height="41" x="800" y="440" fill="#07539F"/><rect width="41" height="41" x="840" y="440" fill="#07539F"/><rect width="41" height="41" x="880" y="440" fill="#07539F"/><rect width="41" height="41" x="920" y="440" fill="#07539F"/><rect width="41" height="41" x="960" y="440" fill="#07539F"/><rect width="41" height="41" x="1000" y="440" fill="#07539F"/><rect width="41" height="41" x="1040" y="440" fill="#07539F"/><rect width="41" height="41" x="1080" y="440" fill="#F48F18"/><rect width="41" height="41" x="1120" y="440" fill="#FFF"/><rect width="41" height="41" x="1160" y="440" fill="#FFF"/><rect width="41" height="41" x="1200" y="440" fill="#FFF"/><rect width="41" height="41" x="1240" y="440" fill="#F48F18"/><rect width="41" height="41" x="1280" y="440" fill="#F48F18"/><rect width="41" height="41" x="1320" y="440" fill="#F48F18"/><rect width="41" height="41" x="600" y="480" fill="#F7B352"/><rect width="41" height="41" x="640" y="480" fill="#F7B352"/><rect width="41" height="41" x="680" y="480" fill="#07539F"/><rect width="41" height="41" x="720" y="480" fill="#07539F"/><rect width="41" height="41" x="760" y="480" fill="#07539F"/><rect width="41" height="41" x="800" y="480" fill="#07539F"/><rect width="41" height="41" x="840" y="480" fill="#07539F"/><rect width="41" height="41" x="880" y="480" fill="#07539F"/><rect width="41" height="41" x="920" y="480" fill="#07539F"/><rect width="41" height="41" x="960" y="480" fill="#07539F"/><rect width="41" height="41" x="1000" y="480" fill="#07539F"/><rect width="41" height="41" x="1040" y="480" fill="#07539F"/><rect width="41" height="41" x="1080" y="480" fill="#07539F"/><rect width="41" height="41" x="1120" y="480" fill="#F48F18"/><rect width="41" height="41" x="1160" y="480" fill="#F48F18"/><rect width="41" height="41" x="1200" y="480" fill="#F48F18"/><rect width="41" height="41" x="1240" y="480" fill="#F48F18"/><rect width="41" height="41" x="1280" y="480" fill="#F48F18"/><rect width="41" height="41" x="640" y="520" fill="#F7B352"/><rect width="41" height="41" x="680" y="520" fill="#07539F"/><rect width="41" height="41" x="720" y="520" fill="#07539F"/><rect width="41" height="41" x="760" y="520" fill="#07539F"/><rect width="41" height="41" x="800" y="520" fill="#07539F"/><rect width="41" height="41" x="840" y="520" fill="#07539F"/><rect width="41" height="41" x="880" y="520" fill="#07539F"/><rect width="41" height="41" x="920" y="520" fill="#07539F"/><rect width="41" height="41" x="960" y="520" fill="#07539F"/><rect width="41" height="41" x="1000" y="520" fill="#07539F"/><rect width="41" height="41" x="1040" y="520" fill="#07539F"/><rect width="41" height="41" x="1080" y="520" fill="#07539F"/><rect width="41" height="41" x="1120" y="520" fill="#07539F"/><rect width="41" height="41" x="1160" y="520" fill="#07539F"/><rect width="41" height="41" x="640" y="560" fill="#07539F"/><rect width="41" height="41" x="680" y="560" fill="#07539F"/><rect width="41" height="41" x="720" y="560" fill="#07539F"/><rect width="41" height="41" x="760" y="560" fill="#07539F"/><rect width="41" height="41" x="800" y="560" fill="#07539F"/><rect width="41" height="41" x="840" y="560" fill="#07539F"/><rect width="41" height="41" x="880" y="560" fill="#07539F"/><rect width="41" height="41" x="920" y="560" fill="#07539F"/><rect width="41" height="41" x="960" y="560" fill="#07539F"/><rect width="41" height="41" x="1000" y="560" fill="#07539F"/><rect width="41" height="41" x="1040" y="560" fill="#07539F"/><rect width="41" height="41" x="1080" y="560" fill="#07539F"/><rect width="41" height="41" x="1120" y="560" fill="#07539F"/><rect width="41" height="41" x="600" y="600" fill="#07539F"/><rect width="41" height="41" x="640" y="600" fill="#07539F"/><rect width="41" height="41" x="680" y="600" fill="#07539F"/><rect width="41" height="41" x="720" y="600" fill="#07539F"/><rect width="41" height="41" x="760" y="600" fill="#07539F"/><rect width="41" height="41" x="800" y="600" fill="#07539F"/><rect width="41" height="41" x="840" y="600" fill="#07539F"/><rect width="41" height="41" x="880" y="600" fill="#07539F"/><rect width="41" height="41" x="920" y="600" fill="#07539F"/><rect width="41" height="41" x="960" y="600" fill="#07539F"/><rect width="41" height="41" x="1000" y="600" fill="#07539F"/><rect width="41" height="41" x="1040" y="600" fill="#07539F"/><rect width="41" height="41" x="1080" y="600" fill="#07539F"/><rect width="41" height="41" x="560" y="640" fill="#E94E6B"/><rect width="41" height="41" x="600" y="640" fill="#07539F"/><rect width="41" height="41" x="640" y="640" fill="#07539F"/><rect width="41" height="41" x="680" y="640" fill="#07539F"/><rect width="41" height="41" x="720" y="640" fill="#07539F"/><rect width="41" height="41" x="760" y="640" fill="#07539F"/><rect width="41" height="41" x="800" y="640" fill="#07539F"/><rect width="41" height="41" x="840" y="640" fill="#07539F"/><rect width="41" height="41" x="880" y="640" fill="#07539F"/><rect width="41" height="41" x="920" y="640" fill="#07539F"/><rect width="41" height="41" x="960" y="640" fill="#07539F"/><rect width="41" height="41" x="1000" y="640" fill="#07539F"/><rect width="41" height="41" x="1040" y="640" fill="#07539F"/><rect width="41" height="41" x="520" y="680" fill="#E94E6B"/><rect width="41" height="41" x="560" y="680" fill="#E94E6B"/><rect width="41" height="41" x="600" y="680" fill="#E94E6B"/><rect width="41" height="41" x="640" y="680" fill="#07539F"/><rect width="41" height="41" x="680" y="680" fill="#07539F"/><rect width="41" height="41" x="720" y="680" fill="#07539F"/><rect width="41" height="41" x="760" y="680" fill="#07539F"/><rect width="41" height="41" x="800" y="680" fill="#07539F"/><rect width="41" height="41" x="840" y="680" fill="#07539F"/><rect width="41" height="41" x="880" y="680" fill="#07539F"/><rect width="41" height="41" x="920" y="680" fill="#07539F"/><rect width="41" height="41" x="960" y="680" fill="#07539F"/><rect width="41" height="41" x="1000" y="680" fill="#07539F"/><rect width="41" height="41" x="480" y="720" fill="#E94E6B"/><rect width="41" height="41" x="520" y="720" fill="#E94E6B"/><rect width="41" height="41" x="560" y="720" fill="#E94E6B"/><rect width="41" height="41" x="600" y="720" fill="#E94E6B"/><rect width="41" height="41" x="640" y="720" fill="#E94E6B"/><rect width="41" height="41" x="680" y="720" fill="#E94E6B"/><rect width="41" height="41" x="720" y="720" fill="#E94E6B"/><rect width="41" height="41" x="440" y="760" fill="#E94E6B"/><rect width="41" height="41" x="480" y="760" fill="#E94E6B"/><rect width="41" height="41" x="520" y="760" fill="#E94E6B"/><rect width="41" height="41" x="560" y="760" fill="#E94E6B"/><rect width="41" height="41" x="600" y="760" fill="#E94E6B"/><rect width="41" height="41" x="640" y="760" fill="#E94E6B"/><rect width="41" height="41" x="680" y="760" fill="#E94E6B"/><rect width="41" height="41" x="400" y="800" fill="#E94E6B"/><rect width="41" height="41" x="440" y="800" fill="#E94E6B"/><rect width="41" height="41" x="480" y="800" fill="#E94E6B"/><rect width="41" height="41" x="520" y="800" fill="#E94E6B"/><rect width="41" height="41" x="560" y="800" fill="#E94E6B"/><rect width="41" height="41" x="360" y="840" fill="#E94E6B"/><rect width="41" height="41" x="400" y="840" fill="#E94E6B"/><rect width="41" height="41" x="440" y="840" fill="#E94E6B"/><rect width="41" height="41" x="480" y="840" fill="#E94E6B"/><rect width="41" height="41" x="520" y="840" fill="#E94E6B"/><rect width="41" height="41" x="0" y="960" fill="#E94E6B"/><rect width="41" height="41" x="40" y="960" fill="#E94E6B"/><rect width="41" height="41" x="0" y="1000" fill="#E94E6B"/><rect width="41" height="41" x="40" y="1000" fill="#E94E6B"/><rect width="41" height="41" x="0" y="1040" fill="#E94E6B"/><rect width="41" height="41" x="40" y="1040" fill="#E94E6B"/><rect width="41" height="41" x="1160" y="1040" fill="#E94E6B"/><rect width="41" height="41" x="1200" y="1040" fill="#E94E6B"/><rect width="41" height="41" x="0" y="1080" fill="#E94E6B"/><rect width="41" height="41" x="40" y="1080" fill="#E94E6B"/><rect width="41" height="41" x="1160" y="1080" fill="#E94E6B"/><rect width="41" height="41" x="1200" y="1080" fill="#E94E6B"/><rect width="41" height="41" x="0" y="1120" fill="#E94E6B"/><rect width="41" height="41" x="40" y="1120" fill="#E94E6B"/><rect width="41" height="41" x="80" y="1120" fill="#E94E6B"/><rect width="41" height="41" x="120" y="1120" fill="#E94E6B"/><rect width="41" height="41" x="160" y="1120" fill="#E94E6B"/><rect width="41" height="41" x="200" y="1120" fill="#E94E6B"/><rect width="41" height="41" x="400" y="1120" fill="#E94E6B"/><rect width="41" height="41" x="440" y="1120" fill="#E94E6B"/><rect width="41" height="41" x="480" y="1120" fill="#E94E6B"/><rect width="41" height="41" x="520" y="1120" fill="#E94E6B"/><rect width="41" height="41" x="560" y="1120" fill="#E94E6B"/><rect width="41" height="41" x="720" y="1120" fill="#E94E6B"/><rect width="41" height="41" x="760" y="1120" fill="#E94E6B"/><rect width="41" height="41" x="880" y="1120" fill="#E94E6B"/><rect width="41" height="41" x="920" y="1120" fill="#E94E6B"/><rect width="41" height="41" x="960" y="1120" fill="#E94E6B"/><rect width="41" height="41" x="1080" y="1120" fill="#E94E6B"/><rect width="41" height="41" x="1120" y="1120" fill="#E94E6B"/><rect width="41" height="41" x="1160" y="1120" fill="#E94E6B"/><rect width="41" height="41" x="1200" y="1120" fill="#E94E6B"/><rect width="41" height="41" x="1240" y="1120" fill="#E94E6B"/><rect width="41" height="41" x="1280" y="1120" fill="#E94E6B"/><rect width="41" height="41" x="1320" y="1120" fill="#E94E6B"/><rect width="41" height="41" x="1440" y="1120" fill="#E94E6B"/><rect width="41" height="41" x="1480" y="1120" fill="#E94E6B"/><rect width="41" height="41" x="1640" y="1120" fill="#E94E6B"/><rect width="41" height="41" x="1680" y="1120" fill="#E94E6B"/><rect width="41" height="41" x="0" y="1160" fill="#E94E6B"/><rect width="41" height="41" x="40" y="1160" fill="#E94E6B"/><rect width="41" height="41" x="80" y="1160" fill="#E94E6B"/><rect width="41" height="41" x="120" y="1160" fill="#E94E6B"/><rect width="41" height="41" x="160" y="1160" fill="#E94E6B"/><rect width="41" height="41" x="200" y="1160" fill="#E94E6B"/><rect width="41" height="41" x="240" y="1160" fill="#E94E6B"/><rect width="41" height="41" x="360" y="1160" fill="#E94E6B"/><rect width="41" height="41" x="400" y="1160" fill="#E94E6B"/><rect width="41" height="41" x="440" y="1160" fill="#E94E6B"/><rect width="41" height="41" x="480" y="1160" fill="#E94E6B"/><rect width="41" height="41" x="520" y="1160" fill="#E94E6B"/><rect width="41" height="41" x="560" y="1160" fill="#E94E6B"/><rect width="41" height="41" x="600" y="1160" fill="#E94E6B"/><rect width="41" height="41" x="720" y="1160" fill="#E94E6B"/><rect width="41" height="41" x="760" y="1160" fill="#E94E6B"/><rect width="41" height="41" x="840" y="1160" fill="#E94E6B"/><rect width="41" height="41" x="880" y="1160" fill="#E94E6B"/><rect width="41" height="41" x="920" y="1160" fill="#E94E6B"/><rect width="41" height="41" x="960" y="1160" fill="#E94E6B"/><rect width="41" height="41" x="1080" y="1160" fill="#E94E6B"/><rect width="41" height="41" x="1120" y="1160" fill="#E94E6B"/><rect width="41" height="41" x="1160" y="1160" fill="#E94E6B"/><rect width="41" height="41" x="1200" y="1160" fill="#E94E6B"/><rect width="41" height="41" x="1240" y="1160" fill="#E94E6B"/><rect width="41" height="41" x="1280" y="1160" fill="#E94E6B"/><rect width="41" height="41" x="1320" y="1160" fill="#E94E6B"/><rect width="41" height="41" x="1440" y="1160" fill="#E94E6B"/><rect width="41" height="41" x="1480" y="1160" fill="#E94E6B"/><rect width="41" height="41" x="1640" y="1160" fill="#E94E6B"/><rect width="41" height="41" x="1680" y="1160" fill="#E94E6B"/><rect width="41" height="41" x="0" y="1200" fill="#E94E6B"/><rect width="41" height="41" x="40" y="1200" fill="#E94E6B"/><rect width="41" height="41" x="200" y="1200" fill="#E94E6B"/><rect width="41" height="41" x="240" y="1200" fill="#E94E6B"/><rect width="41" height="41" x="360" y="1200" fill="#E94E6B"/><rect width="41" height="41" x="400" y="1200" fill="#E94E6B"/><rect width="41" height="41" x="560" y="1200" fill="#E94E6B"/><rect width="41" height="41" x="600" y="1200" fill="#E94E6B"/><rect width="41" height="41" x="720" y="1200" fill="#E94E6B"/><rect width="41" height="41" x="760" y="1200" fill="#E94E6B"/><rect width="41" height="41" x="800" y="1200" fill="#E94E6B"/><rect width="41" height="41" x="840" y="1200" fill="#E94E6B"/><rect width="41" height="41" x="880" y="1200" fill="#E94E6B"/><rect width="41" height="41" x="1160" y="1200" fill="#E94E6B"/><rect width="41" height="41" x="1200" y="1200" fill="#E94E6B"/><rect width="41" height="41" x="1440" y="1200" fill="#E94E6B"/><rect width="41" height="41" x="1480" y="1200" fill="#E94E6B"/><rect width="41" height="41" x="1640" y="1200" fill="#E94E6B"/><rect width="41" height="41" x="1680" y="1200" fill="#E94E6B"/><rect width="41" height="41" x="0" y="1240" fill="#E94E6B"/><rect width="41" height="41" x="40" y="1240" fill="#E94E6B"/><rect width="41" height="41" x="200" y="1240" fill="#E94E6B"/><rect width="41" height="41" x="240" y="1240" fill="#E94E6B"/><rect width="41" height="41" x="360" y="1240" fill="#E94E6B"/><rect width="41" height="41" x="400" y="1240" fill="#E94E6B"/><rect width="41" height="41" x="560" y="1240" fill="#E94E6B"/><rect width="41" height="41" x="600" y="1240" fill="#E94E6B"/><rect width="41" height="41" x="720" y="1240" fill="#E94E6B"/><rect width="41" height="41" x="760" y="1240" fill="#E94E6B"/><rect width="41" height="41" x="800" y="1240" fill="#E94E6B"/><rect width="41" height="41" x="840" y="1240" fill="#E94E6B"/><rect width="41" height="41" x="1160" y="1240" fill="#E94E6B"/><rect width="41" height="41" x="1200" y="1240" fill="#E94E6B"/><rect width="41" height="41" x="1440" y="1240" fill="#E94E6B"/><rect width="41" height="41" x="1480" y="1240" fill="#E94E6B"/><rect width="41" height="41" x="1640" y="1240" fill="#E94E6B"/><rect width="41" height="41" x="1680" y="1240" fill="#E94E6B"/><rect width="41" height="41" x="0" y="1280" fill="#E94E6B"/><rect width="41" height="41" x="40" y="1280" fill="#E94E6B"/><rect width="41" height="41" x="200" y="1280" fill="#E94E6B"/><rect width="41" height="41" x="240" y="1280" fill="#E94E6B"/><rect width="41" height="41" x="360" y="1280" fill="#E94E6B"/><rect width="41" height="41" x="400" y="1280" fill="#E94E6B"/><rect width="41" height="41" x="440" y="1280" fill="#E94E6B"/><rect width="41" height="41" x="480" y="1280" fill="#E94E6B"/><rect width="41" height="41" x="520" y="1280" fill="#E94E6B"/><rect width="41" height="41" x="560" y="1280" fill="#E94E6B"/><rect width="41" height="41" x="600" y="1280" fill="#E94E6B"/><rect width="41" height="41" x="720" y="1280" fill="#E94E6B"/><rect width="41" height="41" x="760" y="1280" fill="#E94E6B"/><rect width="41" height="41" x="800" y="1280" fill="#E94E6B"/><rect width="41" height="41" x="1160" y="1280" fill="#E94E6B"/><rect width="41" height="41" x="1200" y="1280" fill="#E94E6B"/><rect width="41" height="41" x="1440" y="1280" fill="#E94E6B"/><rect width="41" height="41" x="1480" y="1280" fill="#E94E6B"/><rect width="41" height="41" x="1520" y="1280" fill="#E94E6B"/><rect width="41" height="41" x="1560" y="1280" fill="#E94E6B"/><rect width="41" height="41" x="1600" y="1280" fill="#E94E6B"/><rect width="41" height="41" x="1640" y="1280" fill="#E94E6B"/><rect width="41" height="41" x="1680" y="1280" fill="#E94E6B"/><rect width="41" height="41" x="0" y="1320" fill="#E94E6B"/><rect width="41" height="41" x="40" y="1320" fill="#E94E6B"/><rect width="41" height="41" x="200" y="1320" fill="#E94E6B"/><rect width="41" height="41" x="240" y="1320" fill="#E94E6B"/><rect width="41" height="41" x="360" y="1320" fill="#E94E6B"/><rect width="41" height="41" x="400" y="1320" fill="#E94E6B"/><rect width="41" height="41" x="440" y="1320" fill="#E94E6B"/><rect width="41" height="41" x="480" y="1320" fill="#E94E6B"/><rect width="41" height="41" x="520" y="1320" fill="#E94E6B"/><rect width="41" height="41" x="560" y="1320" fill="#E94E6B"/><rect width="41" height="41" x="720" y="1320" fill="#E94E6B"/><rect width="41" height="41" x="760" y="1320" fill="#E94E6B"/><rect width="41" height="41" x="1160" y="1320" fill="#E94E6B"/><rect width="41" height="41" x="1200" y="1320" fill="#E94E6B"/><rect width="41" height="41" x="1480" y="1320" fill="#E94E6B"/><rect width="41" height="41" x="1520" y="1320" fill="#E94E6B"/><rect width="41" height="41" x="1560" y="1320" fill="#E94E6B"/><rect width="41" height="41" x="1600" y="1320" fill="#E94E6B"/><rect width="41" height="41" x="1640" y="1320" fill="#E94E6B"/><rect width="41" height="41" x="1680" y="1320" fill="#E94E6B"/><rect width="41" height="41" x="0" y="1360" fill="#E94E6B"/><rect width="41" height="41" x="40" y="1360" fill="#E94E6B"/><rect width="41" height="41" x="200" y="1360" fill="#E94E6B"/><rect width="41" height="41" x="240" y="1360" fill="#E94E6B"/><rect width="41" height="41" x="360" y="1360" fill="#E94E6B"/><rect width="41" height="41" x="400" y="1360" fill="#E94E6B"/><rect width="41" height="41" x="720" y="1360" fill="#E94E6B"/><rect width="41" height="41" x="760" y="1360" fill="#E94E6B"/><rect width="41" height="41" x="1160" y="1360" fill="#E94E6B"/><rect width="41" height="41" x="1200" y="1360" fill="#E94E6B"/><rect width="41" height="41" x="1640" y="1360" fill="#E94E6B"/><rect width="41" height="41" x="1680" y="1360" fill="#E94E6B"/><rect width="41" height="41" x="0" y="1400" fill="#E94E6B"/><rect width="41" height="41" x="40" y="1400" fill="#E94E6B"/><rect width="41" height="41" x="200" y="1400" fill="#E94E6B"/><rect width="41" height="41" x="240" y="1400" fill="#E94E6B"/><rect width="41" height="41" x="360" y="1400" fill="#E94E6B"/><rect width="41" height="41" x="400" y="1400" fill="#E94E6B"/><rect width="41" height="41" x="720" y="1400" fill="#E94E6B"/><rect width="41" height="41" x="760" y="1400" fill="#E94E6B"/><rect width="41" height="41" x="1160" y="1400" fill="#E94E6B"/><rect width="41" height="41" x="1200" y="1400" fill="#E94E6B"/><rect width="41" height="41" x="1640" y="1400" fill="#E94E6B"/><rect width="41" height="41" x="1680" y="1400" fill="#E94E6B"/><rect width="41" height="41" x="0" y="1440" fill="#E94E6B"/><rect width="41" height="41" x="40" y="1440" fill="#E94E6B"/><rect width="41" height="41" x="80" y="1440" fill="#E94E6B"/><rect width="41" height="41" x="120" y="1440" fill="#E94E6B"/><rect width="41" height="41" x="160" y="1440" fill="#E94E6B"/><rect width="41" height="41" x="200" y="1440" fill="#E94E6B"/><rect width="41" height="41" x="240" y="1440" fill="#E94E6B"/><rect width="41" height="41" x="360" y="1440" fill="#E94E6B"/><rect width="41" height="41" x="400" y="1440" fill="#E94E6B"/><rect width="41" height="41" x="440" y="1440" fill="#E94E6B"/><rect width="41" height="41" x="480" y="1440" fill="#E94E6B"/><rect width="41" height="41" x="520" y="1440" fill="#E94E6B"/><rect width="41" height="41" x="560" y="1440" fill="#E94E6B"/><rect width="41" height="41" x="600" y="1440" fill="#E94E6B"/><rect width="41" height="41" x="720" y="1440" fill="#E94E6B"/><rect width="41" height="41" x="760" y="1440" fill="#E94E6B"/><rect width="41" height="41" x="1160" y="1440" fill="#E94E6B"/><rect width="41" height="41" x="1200" y="1440" fill="#E94E6B"/><rect width="41" height="41" x="1240" y="1440" fill="#E94E6B"/><rect width="41" height="41" x="1280" y="1440" fill="#E94E6B"/><rect width="41" height="41" x="1320" y="1440" fill="#E94E6B"/><rect width="41" height="41" x="1440" y="1440" fill="#E94E6B"/><rect width="41" height="41" x="1480" y="1440" fill="#E94E6B"/><rect width="41" height="41" x="1520" y="1440" fill="#E94E6B"/><rect width="41" height="41" x="1560" y="1440" fill="#E94E6B"/><rect width="41" height="41" x="1600" y="1440" fill="#E94E6B"/><rect width="41" height="41" x="1640" y="1440" fill="#E94E6B"/><rect width="41" height="41" x="1680" y="1440" fill="#E94E6B"/><rect width="41" height="41" x="0" y="1480" fill="#E94E6B"/><rect width="41" height="41" x="40" y="1480" fill="#E94E6B"/><rect width="41" height="41" x="80" y="1480" fill="#E94E6B"/><rect width="41" height="41" x="120" y="1480" fill="#E94E6B"/><rect width="41" height="41" x="160" y="1480" fill="#E94E6B"/><rect width="41" height="41" x="200" y="1480" fill="#E94E6B"/><rect width="41" height="41" x="400" y="1480" fill="#E94E6B"/><rect width="41" height="41" x="440" y="1480" fill="#E94E6B"/><rect width="41" height="41" x="480" y="1480" fill="#E94E6B"/><rect width="41" height="41" x="520" y="1480" fill="#E94E6B"/><rect width="41" height="41" x="560" y="1480" fill="#E94E6B"/><rect width="41" height="41" x="600" y="1480" fill="#E94E6B"/><rect width="41" height="41" x="720" y="1480" fill="#E94E6B"/><rect width="41" height="41" x="760" y="1480" fill="#E94E6B"/><rect width="41" height="41" x="1200" y="1480" fill="#E94E6B"/><rect width="41" height="41" x="1240" y="1480" fill="#E94E6B"/><rect width="41" height="41" x="1280" y="1480" fill="#E94E6B"/><rect width="41" height="41" x="1320" y="1480" fill="#E94E6B"/><rect width="41" height="41" x="1440" y="1480" fill="#E94E6B"/><rect width="41" height="41" x="1480" y="1480" fill="#E94E6B"/><rect width="41" height="41" x="1520" y="1480" fill="#E94E6B"/><rect width="41" height="41" x="1560" y="1480" fill="#E94E6B"/><rect width="41" height="41" x="1600" y="1480" fill="#E94E6B"/><rect width="41" height="41" x="1640" y="1480" fill="#E94E6B"/></svg>