<svg xmlns="http://www.w3.org/2000/svg" xmlns:xlink="http://www.w3.org/1999/xlink" width="131" height="131" version="1.1" viewBox="0 0 131 131"><title>slice</title><desc>Created with Sketch.</desc><g id="Page-1" fill="none" fill-rule="evenodd" stroke="none" stroke-width="1"><g id="ai" transform="translate(4.000000, 5.000000)"><path id="Combined-Shape" fill="#261003" d="M72,0 L112,40 L112,106 C112,113.731986 105.731986,120 98,120 L26,120 C18.2680135,120 12,113.731986 12,106 L12,14 C12,6.2680135 18.2680135,0 26,0 L72,0 Z"/><path id="XMLID_34_" fill="#FF8D27" fill-rule="nonzero" d="M46.9335232,83.5574374 L43.5924035,94.4867452 C43.5310986,94.8490427 43.3778362,95 43.040659,95 L37.4312564,95 C37.0327742,95 36.9408168,94.8188513 37.0327742,94.3659794 C40.0060641,84.7349043 45.0024173,68.7334315 48.4967993,57.8343152 C48.6500617,57.2002946 48.8339765,56.5662739 48.9259339,54.3622975 C48.9259339,54.1207658 49.0791963,54 49.2631111,54 L56.8342721,54 C57.1101444,54 57.1714493,54.0603829 57.2634067,54.3019146 C61.3401857,67.1936672 65.7847944,81.3836524 69.9535308,94.3961708 C70.0761406,94.7584683 69.9535308,94.9698085 69.6163535,94.9698085 L63.4552064,94.9698085 C63.1793341,94.9698085 63.0567242,94.8490427 62.9647668,94.607511 L59.4397323,83.5574374 L46.9335232,83.5574374 L46.9335232,83.5574374 Z M57.9990661,77.39838 C56.895577,73.2017673 54.1981594,64.6877761 53.1253228,60.3100147 L53.0640179,60.3100147 C52.2364011,64.4462445 49.9987705,71.5714286 48.3435369,77.39838 L57.9990661,77.39838 Z"/><path id="XMLID_37_" fill="#FF8D27" fill-rule="nonzero" d="M75,57.756392 C75,55.5142045 76.5127119,54 78.559322,54 C80.6949153,54 82,55.5142045 82,57.756392 C82,60.0568182 80.5762712,61.5127841 78.5,61.5127841 C76.3940678,61.5419034 75,60.0859375 75,57.756392 Z M75.3559322,66.0262784 C75.3559322,65.6768466 75.4745763,65.53125 75.7118644,65.53125 L81.2584746,65.53125 C81.5847458,65.53125 81.6737288,65.5894886 81.6737288,66.0262784 L81.6737288,94.5049716 C81.6737288,94.7961648 81.5550847,95 81.2584746,95 L75.8305085,95 C75.5042373,95 75.3559322,94.8835227 75.3559322,94.446733 L75.3559322,66.0262784 L75.3559322,66.0262784 Z"/><path id="Path" fill="#FF8D27" d="M72,0 L97.2928932,0 C105.02488,0 112,6.97512028 112,14.7071068 L112,40 L72,0 Z" transform="translate(92.000000, 20.000000) scale(-1, -1) translate(-92.000000, -20.000000)"/><rect id="Rectangle" width="56" height="28" x="0" y="12" fill="#FF8D27" rx="4"/><path id="XMLID_40_" fill="#261003" fill-rule="nonzero" d="M16,36 L20.2933333,17 L25.8,17 L30,36 L25.3955556,36 L24.7733333,31.5646688 L21.1955556,31.5646688 L20.6044444,36 L16,36 Z M22.5882353,20 L22.5176471,20 L21,28 L24,28 L22.5882353,20 Z"/><rect id="XMLID_41_" width="4" height="19" x="33" y="17" fill="#261003" fill-rule="nonzero"/></g></g></svg>