<?xml version="1.0" encoding="UTF-8"?>
<svg width="131px" height="131px" viewBox="0 0 131 131" version="1.1" xmlns="http://www.w3.org/2000/svg" xmlns:xlink="http://www.w3.org/1999/xlink">
    <!-- Generator: Sketch 63.1 (92452) - https://sketch.com -->
    <title>slice</title>
    <desc>Created with Sketch.</desc>
    <defs>
        <path d="M60,0 L100,40 L100,106 C100,113.731986 93.7319865,120 86,120 L14,120 C6.2680135,120 0,113.731986 0,106 L0,14 C0,6.2680135 6.2680135,0 14,0 L60,0 Z" id="path-1"></path>
    </defs>
    <g id="Page-1" stroke="none" stroke-width="1" fill="none" fill-rule="evenodd">
        <g id="Code" transform="translate(16.000000, 5.000000)">
            <g id="Main">
                <mask id="mask-2" fill="white">
                    <use xlink:href="#path-1"></use>
                </mask>
                <use id="Mask" fill="#424242" xlink:href="#path-1"></use>
                <path d="M31.5841584,81.1898734 C31.4081399,81.0140638 31.2277237,80.8294665 31.0429043,80.6360759 C30.8580849,80.4426854 30.6864694,80.231717 30.5280528,80.0031646 C30.3696362,79.7746121 30.2420247,79.5372727 30.1452145,79.2911392 C30.0484044,79.0450058 30,78.7812954 30,78.5 C30,77.9901522 30.1584143,77.5286589 30.4752475,77.1155063 C30.7920808,76.7023538 31.1793156,76.2672315 31.6369637,75.8101266 L39.9273927,67.5822785 C40.3322352,67.1779164 40.7502729,66.813117 41.1815182,66.4878692 C41.6127634,66.1626214 42.0924066,66 42.620462,66 C42.972499,66 43.3333315,66.0966938 43.7029703,66.2900844 C44.0726091,66.4834749 44.4686448,66.7911371 44.8910891,67.2130802 C45.2959316,67.6174422 45.5819574,67.991032 45.7491749,68.3338608 C45.9163925,68.6766895 46,69.0239082 46,69.3755274 C46,69.9029562 45.8459861,70.3908205 45.5379538,70.839135 C45.2299215,71.2874495 44.8734894,71.7137814 44.4686469,72.1181435 L37.9735974,78.5527426 L44.4158416,84.8818565 C44.8382859,85.3037996 45.2079192,85.7301315 45.5247525,86.160865 C45.8415857,86.5915985 46,87.0618821 46,87.57173 C46,87.9233492 45.9119921,88.2837534 45.7359736,88.6529536 C45.5599551,89.0221537 45.2431266,89.4353001 44.7854785,89.8924051 C44.380636,90.2967671 44.0066024,90.5824535 43.6633663,90.7494726 C43.3201303,90.9164917 42.972499,91 42.620462,91 C42.1100084,91 41.6303653,90.8417737 41.1815182,90.5253165 C40.732671,90.2088592 40.2970318,89.8396646 39.8745875,89.4177215 L31.5841584,81.1898734 Z M61.1254125,89.4177215 C60.7029682,89.8396646 60.267329,90.2088592 59.8184818,90.5253165 C59.3696347,90.8417737 58.8899916,91 58.379538,91 C58.027501,91 57.6798697,90.9164917 57.3366337,90.7494726 C56.9933976,90.5824535 56.619364,90.2967671 56.2145215,89.8924051 C55.7568734,89.4353001 55.4400449,89.0221537 55.2640264,88.6529536 C55.0880079,88.2837534 55,87.9233492 55,87.57173 C55,87.0618821 55.1584143,86.5915985 55.4752475,86.160865 C55.7920808,85.7301315 56.1617141,85.3037996 56.5841584,84.8818565 L63.0264026,78.5527426 L56.5313531,72.1181435 C56.1265106,71.7137814 55.7700785,71.2874495 55.4620462,70.839135 C55.1540139,70.3908205 55,69.9029562 55,69.3755274 C55,69.0239082 55.0836075,68.6766895 55.2508251,68.3338608 C55.4180426,67.991032 55.7040684,67.6174422 56.1089109,67.2130802 C56.5313552,66.7911371 56.9273909,66.4834749 57.2970297,66.2900844 C57.6666685,66.0966938 58.027501,66 58.379538,66 C58.9075934,66 59.3872366,66.1626214 59.8184818,66.4878692 C60.2497271,66.813117 60.6677648,67.1779164 61.0726073,67.5822785 L69.3630363,75.8101266 C69.8206844,76.2672315 70.2079192,76.7023538 70.5247525,77.1155063 C70.8415857,77.5286589 71,77.9901522 71,78.5 C71,78.7812954 70.9515956,79.0450058 70.8547855,79.2911392 C70.7579753,79.5372727 70.6303638,79.7746121 70.4719472,80.0031646 C70.3135306,80.231717 70.1419151,80.4426854 69.9570957,80.6360759 C69.7722763,80.8294665 69.5918601,81.0140638 69.4158416,81.1898734 L61.1254125,89.4177215 Z" id="&lt;&gt;" fill="#FFFFFF" mask="url(#mask-2)"></path>
            </g>
            <path d="M60,0 L85.2928932,0 C93.0248797,0 100,6.97512028 100,14.7071068 L100,40 L60,0 Z" id="Corner" fill="#2C2929" transform="translate(80.000000, 20.000000) scale(-1, -1) translate(-80.000000, -20.000000) "></path>
        </g>
    </g>
</svg>