<?xml version="1.0" encoding="UTF-8"?>
<svg width="131px" height="131px" viewBox="0 0 131 131" version="1.1" xmlns="http://www.w3.org/2000/svg" xmlns:xlink="http://www.w3.org/1999/xlink">
    <!-- Generator: Sketch 63.1 (92452) - https://sketch.com -->
    <title>slice</title>
    <desc>Created with Sketch.</desc>
    <g id="Page-1" stroke="none" stroke-width="1" fill="none" fill-rule="evenodd">
        <g id="PDF" transform="translate(16.000000, 5.000000)">
            <path d="M60,0 L100,40 L100,106 C100,113.731986 93.7319865,120 86,120 L14,120 C6.2680135,120 0,113.731986 0,106 L0,14 C0,6.2680135 6.2680135,0 14,0 L60,0 Z" id="Combined-Shape" fill="#E94848"></path>
            <path d="M46.8,50 C43.873432,50 41.4666667,52.406768 41.4666667,55.3333333 C41.4666667,58.9714613 43.4880821,63.488064 45.6166667,67.7333333 C43.9528341,72.9417904 42.0647595,78.5233984 39.65,83.2333333 C34.7076021,85.1726005 30.2999675,86.6140021 27.65,88.75 C27.6086786,88.7922558 27.5697301,88.8367685 27.5333333,88.8833333 C26.5649666,89.8736267 26,91.22192 26,92.6666667 C26,95.5932267 28.4067661,98 31.3333333,98 C32.7604517,98 34.1379173,97.46744 35.1333333,96.45 C35.1677832,96.4235901 35.2011441,96.3957893 35.2333333,96.3666667 C37.183976,94.0374283 39.4840171,89.8121253 41.5333333,85.95 C46.2563909,84.0920699 51.2066149,82.2015595 55.9833333,81.0666667 C59.470432,83.8769392 64.5151317,85.7333333 68.6666667,85.7333333 C71.593232,85.7333333 74,83.32656 74,80.4 C74,77.47344 71.593232,75.0666667 68.6666667,75.0666667 C65.3373696,75.0666667 60.4992347,76.2551168 56.8,77.5 C53.8015429,74.6851179 51.0466944,71.1695349 49.0666667,67.4333333 C50.4813749,63.0752091 52.1333333,58.7145115 52.1333333,55.3333333 C52.1333333,52.406768 49.7265685,50 46.8,50 Z M47,53 C48.122336,53 49,53.8553892 49,54.9492386 C49,56.4118644 48.1963835,59.1047764 47.265625,62 C46.021917,59.1834867 45,56.4812768 45,54.9492386 C45,53.8553892 45.8776645,53 47,53 Z M47.6451613,71 C49.197503,73.509718 51.0156036,75.8450623 53,77.9180328 C49.939215,78.7687082 46.9499484,79.8587016 44,81 C45.4247855,77.7314885 46.5653997,74.3398295 47.6451613,71 Z M69.0031201,78 C70.1237072,78 71,78.87765 71,80 C71,81.12235 70.1237072,82 69.0031201,82 C66.7534657,82 63.5560666,80.9829 61,79.5625 C63.9339487,78.7316 67.1353835,78 69.0031201,78 Z M36,88 C34.624642,90.6835093 33.2575313,93.1882463 32.30131,94.4486874 C31.9746638,94.7900869 31.5401414,95 30.9563319,95 C29.8585005,95 29,94.0615523 29,92.8615752 C29,92.2968706 29.2195714,91.7359885 29.5196507,91.3747017 C30.6669738,90.4041776 33.1630302,89.2411418 36,88 Z" id="acrobat-shape" fill="#FFFFFF" fill-rule="nonzero"></path>
            <path d="M60,0 L85.2928932,0 C93.0248797,0 100,6.97512028 100,14.7071068 L100,40 L60,0 Z" id="Path" fill="#C53C3C" transform="translate(80.000000, 20.000000) scale(-1, -1) translate(-80.000000, -20.000000) "></path>
        </g>
        <g id="psd" transform="translate(4.000000, 5.000000)">
            <path d="M72,0 L112,40 L112,106 C112,113.731986 105.731986,120 98,120 L26,120 C18.2680135,120 12,113.731986 12,106 L12,14 C12,6.2680135 18.2680135,0 26,0 L72,0 Z" id="Combined-Shape" fill="#080442"></path>
            <path d="M48.2760736,74.2835596 C45.9447853,74.2835596 45.1165644,74.2217195 44.6564417,74.1598793 L44.6564417,60.0912519 C45.0858896,60.0294118 46.6503067,59.9675716 48.8282209,59.9675716 C54.0429448,59.9675716 56.3128834,62.1628959 56.3128834,67.2028658 C56.3128834,73.4487179 52.6625767,74.2835596 48.2760736,74.2835596 M48.8282209,54 C44.6257669,54 40.4539877,54.0618401 38.3374233,54.1236802 C38.0613497,54.1236802 38,54.2473605 38,54.5565611 L38,94.5671192 C38,94.8763198 38.1226994,95 38.398773,95 L44.2883436,95 C44.5644172,95 44.6871166,94.8763198 44.6871166,94.505279 L44.6871166,80.2202112 C45.0858896,80.2202112 46.5582822,80.2202112 48.1226994,80.2202112 C56.2822086,80.2202112 63,77.561086 63,67.6048265 C62.9079755,60.3386124 59.6871166,54 48.8282209,54" id="XMLID_47_" fill="#5BC3F6" fill-rule="nonzero"></path>
            <path d="M77.0890302,64 C70.6550079,64 67.09062,68.0585366 67.09062,73.1785366 C67.09062,77.7990244 69.0540541,80.2653659 74.672496,82.9190244 C78.5993641,84.7609756 79.5961844,85.697561 79.5961844,87.3521951 C79.5961844,88.7570732 78.7201908,90.1931707 76.2130366,90.1931707 C73.3736089,90.1931707 70.2019078,88.8507317 67.3624801,86.7590244 C67.3322734,86.7278049 67.2718601,86.6965854 67.2416534,86.6965854 C67.1208267,86.6965854 67,86.8214634 67,87.0712195 L67,92.9092683 C67,93.2214634 67.1208267,93.4087805 67.3322734,93.5336585 C69.6279809,95.1882927 72.8903021,96 75.7901431,96 C81.8012719,96 86,92.5658537 86,86.2595122 C86,81.7014634 83.5834658,79.36 77.9650238,76.7063415 C73.8569157,74.8019512 73.1621622,73.9902439 73.1621622,72.4604878 C73.1621622,71.2429268 73.8871224,69.8068293 76.54531,69.8068293 C79.3847377,69.8068293 82.163752,70.9619512 84.127186,72.2107317 C84.1875994,72.2731707 84.2782194,72.2731707 84.3386328,72.2731707 C84.5198728,72.2731707 84.6104928,72.0858537 84.6104928,71.804878 L84.6104928,66.622439 C84.6104928,66.2478049 84.5500795,66.0604878 84.2782194,65.8107317 C82.7678855,64.8117073 80.4419714,64 77.0890302,64" id="XMLID_50_" fill="#5BC3F6" fill-rule="nonzero"></path>
            <path d="M72,0 L97.2928932,0 C105.02488,0 112,6.97512028 112,14.7071068 L112,40 L72,0 Z" id="Path" fill="#58BEF0" transform="translate(92.000000, 20.000000) scale(-1, -1) translate(-92.000000, -20.000000) "></path>
            <rect id="Rectangle" fill="#58BEF0" x="0" y="12" width="56" height="28" rx="4"></rect>
            <path d="M9,17.3770992 C10.0616622,17.1450382 11.5656836,17 13.7774799,17 C15.8418231,17 17.3458445,17.4641221 18.3485255,18.4793893 C19.3217158,19.4366412 20,21.119084 20,23.0335878 C20,24.9480916 19.4986595,26.6305344 18.613941,27.6748092 C17.4343164,29.0381679 15.7533512,29.6473282 13.8069705,29.6473282 C13.4530831,29.6473282 13.0991957,29.6183206 12.8632708,29.589313 L12.8632708,36 L9.02949062,36 L9.02949062,17.3770992 L9,17.3770992 Z M13,25.9418605 C13.1842105,25.9709302 13.4210526,26 13.7894737,26 C15.1578947,26 16,24.9825581 16,23.3546512 C16,21.9593023 15.3421053,21 14.0526316,21 C13.5263158,21 13.1842105,21.0581395 13.0263158,21.1162791 L13.0263158,25.9418605 L13,25.9418605 Z" id="XMLID_27_" fill="#070444" fill-rule="nonzero"></path>
            <path d="M23.7082153,30.7898659 C24.5580737,31.3561848 25.917847,31.9508197 27.305949,31.9508197 C28.5807365,31.9508197 29.203966,31.3845007 29.203966,30.4500745 C29.203966,29.5439642 28.5807365,29.0342772 27.0226629,28.3263785 C24.6713881,27.2220566 23.1416431,25.5230999 23.1416431,22.7764531 C23.1416431,19.5201192 25.2096317,17 28.694051,17 C30.3654391,17 31.5269122,17.3964232 32.4617564,17.9627422 L31.6685552,21.8986587 C31.0736544,21.5305514 30.0538244,21.0208644 28.6373938,21.0208644 C27.5042493,21.0208644 26.8810198,21.5588674 26.8810198,22.3800298 C26.8810198,23.314456 27.6175637,23.6825633 29.3739377,24.5603577 C31.8668555,25.7496274 33,27.533532 33,30.1102832 C33,33.2816692 31.1303116,36 27.0793201,36 C25.407932,36 23.7932011,35.4053651 23,34.8390462 L23.7082153,30.7898659 Z" id="XMLID_28_" fill="#070444" fill-rule="nonzero"></path>
            <path d="M40.3526752,32 C40.2441598,32 40.1085154,32 40,32 L40,20 L40.0542577,20 C40.8409947,20 41.7905049,20 42.2788244,20.4285714 C42.7942728,20.8571429 43.1740769,21.3714286 43.4724943,22 C43.7709118,22.6285714 43.9608139,23.3428571 43.9879427,24.0571429 C44.0150716,24.9142857 43.9879427,25.6 43.9879427,26.2 C43.9879427,26.7714286 43.9879427,27.5142857 43.8522984,28.2 C43.743783,28.9142857 43.5267521,29.5714286 43.2283346,30.1714286 C42.9299171,30.7714286 42.3873399,31.2 41.8718915,31.5714286 C41.4649586,31.9142857 40.9495102,32 40.3526752,32 M41.030445,17 C40.6088993,17 40.1873536,17.0287009 39.9063232,17.0574018 C39.4004684,17.0861027 39.1194379,17.0861027 39.0070258,17.0861027 L36,17.0861027 L36,36 L39.5409836,36 C41.1147541,36 42.4355972,35.7703927 43.5035129,35.3111782 C44.5714286,34.8519637 45.470726,34.2205438 46.117096,33.3882175 C46.7915691,32.5558912 47.2693208,31.5800604 47.5503513,30.4320242 C47.8313817,29.2839879 48,28.0498489 48,26.7009063 C48,24.9501511 48,23.6012085 47.6627635,22.2522659 C47.35363,21.0468278 46.735363,20.070997 46.117096,19.3534743 C45.498829,18.6359517 44.7962529,18.1193353 44.0655738,17.7749245 C43.3348946,17.4305136 42.6042155,17.2009063 41.9578454,17.0861027 C41.6206089,17.0287009 41.3114754,17 41.030445,17" id="XMLID_35_" fill="#070444" fill-rule="nonzero"></path>
        </g>
    </g>
</svg>