<?xml version="1.0" encoding="UTF-8"?>
<svg width="3213px" height="3213px" viewBox="0 0 3213 3213" version="1.1" xmlns="http://www.w3.org/2000/svg" xmlns:xlink="http://www.w3.org/1999/xlink">
    <!-- Generator: Sketch 55.1 (78136) - https://sketchapp.com -->
    <title>berty_5_colors_picto</title>
    <desc>Created with Sketch.</desc>
    <g id="Page-1" stroke="none" stroke-width="1" fill="none" fill-rule="evenodd">
        <g id="berty_5_colors">
            <g id="berty_5_colors_picto">
                <g id="Group" transform="translate(686.000000, 0.000000)" fill-rule="nonzero">
                    <path d="M835.7,707.240237 L608.3,202.526067 C390.4,300.887294 245.6,494.808004 200.9,712.443476 L564.7,913.668732 C647.3,833.718966 738.5,764.675989 835.7,707.240237 Z" id="Path" fill="#3F49EA"></path>
                    <path d="M200.9,712.443476 C245.7,494.808004 390.4,300.887294 608.3,202.526067 L517.4,0.800498287 C254.6,119.374307 73.2,344.114201 0.4,601.4744 L200.9,712.443476 L200.9,712.443476 Z" id="Path" fill="#FFBF47"></path>
                </g>
                <g id="Group" transform="translate(255.000000, 429.267206)" fill-rule="nonzero">
                    <path d="M993.987412,472.277378 C1013.13281,453.953687 1032.69977,436.219963 1052.68304,419.080788 C1117.67368,363.239931 1187.56278,313.270026 1261.71386,269.463149 C1263.07006,268.662001 1263.845,268.207835 1264.38128,267.901763 C1264.81018,267.656974 1265.10901,267.492551 1265.44026,267.328713 C1265.67681,267.212474 1265.67681,267.212474 1266.12347,267.018761 C1266.67908,266.738766 1266.67908,266.738766 1269.51002,266.264898 C1270.92487,266.22385 1270.92487,266.22385 1273.56441,266.923808 C1275.18909,267.644168 1275.18909,267.644168 1276.96576,269.110441 C1278.60302,271.009243 1278.60302,271.009243 1279.52701,273.31295 C1280.00956,275.519554 1280.00956,275.519554 1279.92153,277.242081 C1279.7,278.677575 1279.7,278.677575 1279.37291,279.662077 C1278.72828,281.142561 1278.72828,281.142561 1278.23102,281.894616 C1276.95438,283.46621 1276.95438,283.46621 1276.53061,283.811389 C1275.95242,284.317819 1275.6976,284.496347 1274.35547,285.407169 C1274.02637,285.630507 1273.63278,285.896114 1273.08567,286.264309 C1272.76689,286.478836 1271.48026,287.343893 1271.44248,287.369304 C1262.77652,293.197376 1255.42439,298.248811 1245.96394,304.985336 C1214.70807,327.24179 1183.4611,351.761752 1154.19526,378.143101 C1101.89659,425.287133 1063.85309,471.386472 1046.0369,513.861314 C1039.44865,529.568078 1035.76529,544.528825 1035.12886,558.659186 L1035.12677,558.703379 C1034.92124,562.857751 1032.26303,566.382602 1028.46531,567.796403 C1026.50284,568.526987 1024.81942,568.581844 1023.11759,568.340767 C1021.71176,568.14162 1020.43911,567.735727 1018.94264,567.124058 C1016.93607,566.30389 1014.28109,564.978173 1010.82784,563.096406 C1004.3353,559.558445 994.764605,553.904809 982.053671,546.10414 C956.815325,530.61543 919.066773,506.580082 868.780311,473.98169 C768.293276,408.840581 617.678147,309.465 416.921895,175.846646 L427.296667,158.76799 L636.744842,274.428269 L993.987411,472.277378 Z" id="Path" stroke="#FFFDFD" stroke-width="20" fill="#3F49EA"></path>
                    <path d="M1360,848.828371 C1360,838.622018 1360.2,828.415665 1360.7,818.309374 C1376.6,465.289629 1675.1,184.014544 2031.6,183.214045 C2032,117.272999 2024.6,74.4463407 2024.6,72.9454064 C2025.9,72.9454064 2027.2,72.8453441 2028.4,72.8453441 C1828.1,70.9441607 1630.2,110.668888 1447.1,187.516724 C1385.1,213.532918 1324.9,243.751728 1266.8,278.073092 C1193.8,321.199938 1124.3,370.730769 1059.2,426.665587 C1037.5,445.277172 1016.3,464.589193 995.6,484.601651 L631.9,283.176269 L431.5,172.307256 L120.2,0.100062286 C-135,459.385955 29.9,1038.54647 488.3,1294.40573 L37.8,2155.14151 C37.9,2155.14151 37.9,2155.24158 38,2155.24158 C227.9,2254.70349 429.7,2307.93662 630.6,2319.64391 C1187.2,2352.16415 1737.6,2063.58452 2013.1,1537.2569 L2023.7,1514.54276 C2020.4,1514.54276 2017,1514.54276 2013.7,1514.4427 C1651.7,1508.23884 1360,1212.65484 1360,848.828371 Z" id="Path-Copy" fill="#3F49EA"></path>
                    <path d="M1533.2,1235.76923 C1432,1124.49997 1367.9,978.809281 1360.7,818.309374 C1360.2,828.415665 1360,838.622018 1360,848.828371 C1360,1212.65484 1651.6,1508.3389 2013.8,1514.4427 C2017.7,1514.54276 2021.5,1514.54276 2025.4,1514.54276 L2025.4,1453.4047 C1830.4,1453.50476 1654.9,1369.55251 1533.2,1235.76923 Z" id="Path" fill="#FFBF47"></path>
                    <path d="M2023.8,183.113983 C1667.3,183.914481 1376.7,465.289629 1360.7,818.309374 C1367.9,978.809281 1432,1124.49997 1533.2,1235.76923 C1654.9,1369.55251 1830.3,1453.50476 2025.4,1453.50476 L2025.4,183.013921 C2024.9,183.013921 2024.4,183.013921 2023.8,183.113983 Z" id="Path" fill="#FFFFFF"></path>
                </g>
                <g id="Group" transform="translate(0.000000, 311.000000)" fill-rule="nonzero">
                    <path d="M375.2,118.367269 L163.8,0.694020554 C-156.5,577.15285 54.6,1307.40741 630.7,1627.90691 L744.5,1413.37337 C285.1,1157.81429 119.8,578.05341 375.2,118.367269 Z" id="Path" fill="#FFBF47"></path>
                    <g transform="translate(2279.000000, 190.312052)" fill="#FFBF47" id="Path">
                        <path d="M0.6,920.472968 L0.6,1442.19773 C0.8,1442.19773 1.1,1442.19773 1.3,1442.19773 C251.7,1441.89754 460.7,1264.88736 510.6,1029.14061 L0.6,920.472968 Z"></path>
                        <path d="M629.9,241.150109 C479,104.064777 282.7,16.3101526 66.3,2.70168172 C45.7,1.60099657 25.1,0.900560573 4.5,0.700436001 C3.2,0.700436001 1.9,0.800498287 0.7,0.800498287 C0.7,4.20261601 0.7,920.472968 0.7,920.472968 L914.5,1114.99405 C927,1054.35631 933.7,991.617253 933.7,927.277203 C933.5,655.30791 816.4,410.655621 629.9,241.150109 Z"></path>
                    </g>
                    <g transform="translate(0.000000, 2273.000000)" fill="#F74868" id="Path">
                        <path d="M0.7,557.755652 C302.7,716.354376 676,599.981937 834.5,297.793834 C857.1,254.666988 874,210.139271 885.6,164.911118 C684.6,153.203831 482.9,99.9706945 293,0.508782311 L0.7,557.755652 Z"></path>
                    </g>
                    <ellipse id="Oval" fill="#383B62" cx="2066.2" cy="925.469667" rx="119.2" ry="119.274245"></ellipse>
                </g>
                <path d="M2789.6,1540.45266 L2271.35718,1431.78502" id="Path-2" stroke="#FFFFFF" stroke-width="20"></path>
            </g>
        </g>
    </g>
</svg>