<?xml version="1.0" encoding="utf-8"?>
<!-- Generator: Adobe Illustrator 21.0.0, SVG Export Plug-In . SVG Version: 6.00 Build 0)  -->
<svg version="1.1" id="Layer_1" xmlns="http://www.w3.org/2000/svg" xmlns:xlink="http://www.w3.org/1999/xlink" x="0px" y="0px"
	 viewBox="0 0 5720 5720" style="enable-background:new 0 0 5720 5720;" xml:space="preserve">
<style type="text/css">
	.st0{fill:#E94E6B;}
	.st1{fill:#07539F;}
	.st2{fill:#F7B352;}
	.st3{fill:#FFFFFF;}
	.st4{fill:#F49A18;}
	.st5{fill:#074C84;}
</style>
<g transform="matrix( 1, 0, 0, 1, 0,0) ">
	<g>
		<g id="Layer0_2_FILL">
			<path class="st0" d="M2990,4030v130h-130v-130h-260v910h260v-520h130v-130h260v-260H2990 M4030,4290v-260h-260v-260h-260v260
				h-130v260h130v520h130v130h390v-260h-260v-390H4030 M4420,4290v-260h-260v390h130v260h130v390h-130v130h-130v260h260v-130h130
				v-130h130v-260h130v-260h130v-260h130v-390h-260v260h-130v260h-130v-260H4420 M1430,4160h-130v-130H780v-520H520v1430h780v-130
				h130V4160 M1170,4680H780v-390h390V4680 M1690,4030v130h-130v520h130v130h130v130h520v-260h-520v-130h520v-130h130v-260h-130
				v-130h-130v-130h-390v130H1690 M1820,4290v-130h390v130H1820z"/>
		</g>
	</g>
</g>
<g>
	<g transform="matrix( 1, 0, 0, 1, 0,0) ">
		<g>
			<g id="Layer0_0_FILL">
				<path class="st1" d="M3116,910v130H2082.4l-156-44.2L1820,910h-260v650l130,260l130,130l130,130v130l-130,130v260h-130v260
					l120.9,215.4L2210,2990h390v-130h390v-130h260v-130h130v-130h129.6v-129.1c123.8-443.3,123.8-920.2,0-1430.9H3116z"/>
			</g>
		</g>
	</g>
	<g transform="matrix( 1, 0, 0, 1, 0,0) ">
		<g>
			<g id="Layer0_1_FILL">
				<path class="st2" d="M4030,1170v-130h-260V910h-260v130h-390v130h-130v130h-130v780h130v130h130v130h650v-130h130v-130h130v-130
					h390v-390h-130v-260h-130v-130H4030z"/>
			</g>
		</g>
	</g>
	<g transform="matrix( 1, 0, 0, 1, 0,0) ">
		<g>
			<g id="Layer0_3_FILL">
				<path class="st3" d="M3120,1040v130h-130v130h-130v650h130v130h130v130h390V1040H3120z"/>
			</g>
		</g>
	</g>
	<g transform="matrix( 1, 0, 0, 1, 0,0) ">
		<g>
			<g id="Layer0_4_FILL">
				<path d="M3380,1560h-130v130h130V1560z"/>
			</g>
		</g>
	</g>
	<g transform="matrix( 1, 0, 0, 1, 0,0) ">
		<g>
			<g id="Layer0_5_FILL">
				<path class="st4" d="M2860,2080h130v-130h-130V2080 M2990,2080v130h130v-130H2990 M3770,1820v-130h-260v520h-390v130h650v-130
					h130v-130h130v-260H3770z"/>
			</g>
		</g>
	</g>
	<g transform="matrix( 1, 0, 0, 1, 0,0) ">
		<g>
			<g id="Layer0_6_FILL">
				<path class="st0" d="M1560,3120h-130v390h390v-130h260v-130h130v-260h-390v-130h-260V3120z"/>
			</g>
		</g>
	</g>
	<g transform="matrix( 1, 0, 0, 1, 0,0) ">
		<g>
			<g id="Layer0_7_FILL">
				<path class="st2" d="M1560,780h-260v780h130v390h130v130h130v130h130v130h130v-130h130v-130h-130v-130h-130v-130h-130v-260h-130
					V780z"/>
			</g>
		</g>
	</g>
	<g transform="matrix( 1, 0, 0, 1, 0,0) ">
		<g>
			<g id="Layer0_8_FILL">
				<path class="st5" d="M2730,910h-130V650h-260l-260,260c-50.2,41.6-50.2,84.9,0,130v130h260v130h260v-130h130V910z"/>
			</g>
		</g>
	</g>
	<g transform="matrix( 1, 0, 0, 1, 0,0) ">
		<g>
			<g id="Layer0_9_FILL">
				<path class="st2" d="M2080,650h-130v260h-130v130h260V910h130V780h130V650h130V390h-260v130h-130V650z"/>
			</g>
		</g>
	</g>
</g>
</svg>
