<?xml version="1.0" encoding="utf-8"?>
<!-- Generator: Adobe Illustrator 24.1.2, SVG Export Plug-In . SVG Version: 6.00 Build 0)  -->
<svg version="1.1" id="Calque_1" xmlns="http://www.w3.org/2000/svg" xmlns:xlink="http://www.w3.org/1999/xlink" x="0px" y="0px"
	 viewBox="0 0 421.3 135.5" style="enable-background:new 0 0 421.3 135.5;" xml:space="preserve">
<style type="text/css">
	.st0{fill:#212CD6;}
	.st1{fill:#3F49EA;}
	.st2{fill:url(#SVGID_1_);}
	.st3{fill:#FFBF47;}
	.st4{fill:#FFFFFF;}
	.st5{fill:#FFAE3A;}
	.st6{fill:#3442D9;}
	.st7{fill:#F74868;}
	.st8{fill:#383B62;}
</style>
<desc>Created with Sketch.</desc>
<g>
	<g id="Yolo_4_">
		
			<g id="Group_4_" transform="translate(56.000000, 15.500000) rotate(-1.000000) translate(-56.000000, -15.500000) translate(2.000000, -3.000000)">
			<path id="YOLO_9_" class="st0" d="M197.1,99.8l1.3-0.2c0,0.2,0.1,0.3,0.3,0.3c0.5,0,0.8-0.2,0.8-0.5l0,0l-1-1.1l0.3-18.9
				c0-0.3-0.2-0.5-0.5-0.5l0,0l-4.1-0.1l-1.3-0.3c0,0.2-0.1,0.2-0.2,0.2c-0.3-0.2-0.6-0.2-1-0.2l0,0l0-0.3l5.4,0.1
				c0.3,0,0.5-0.2,0.5-0.5l0,0l0-1.8l-1.6-1.1l0.1-7.2l0.3-0.5l0.5,0.3l1.3,0c0.7,0,1.4-0.2,2.1-0.5c0-0.3-0.2-0.5-0.5-0.5l0,0
				l-3.4-0.1c0-0.3,4.6-7.2,13.9-20.8l0,0l1.5,0l1.6-1.5l2.8,0l0.5-0.3c0-0.3-0.2-0.5-0.5-0.5l0,0l-2.3,0c1.6-2.9,4.5-7.2,8.8-12.8
				c0-0.3-0.2-0.5-0.5-0.5l0,0l-20-0.3c-5.7,8.4-8.5,12.7-8.5,12.8c0,0.3,0.2,0.5,0.5,0.5l0,0l2.3,0l0,0.5l-1.3,0.2l-1.3-0.3
				c-0.8,0.2-1.5,0.7-2.1,1.5c-1.4,0-2.5,0.8-3.4,2.5c0.6,1.6,1.1,2.4,1.5,2.4c0,0.2-0.4,1.1-1.3,2.8l0,0l-0.5,0l-4.3-7.6
				c0.3,0,0.6-0.2,1-0.5c0-0.2-0.1-0.4-0.2-0.8l0,0l0-0.2l2.8,0l0-0.8l-3.4-0.1c-0.3,0-0.9-0.8-1.8-2.3l0,0l-1.8,0.2l-1,0
				c-0.5-0.3-0.8-0.5-0.8-0.8l0,0l0-0.3c1.5-0.2,2.5-0.3,2.8-0.4c-2.6-4.9-4.7-8.2-6.3-10l0,0L155,28.8c0,0.7,2,3.9,6,9.7
				c0,0.3-1,0.6-3.1,0.7c0.4,0.7,0.8,1,1,1.1l0,0l2.9,0.1l1.8,2.1l2.8,0c0.4,0,0.5,0.2,0.5,0.5l0,0l-1.3,0.2l-1.6,0l0.2,1.3
				c-0.4,0-0.7,0.1-1,0.3c8,13.1,12.7,20.2,13.9,21.3l0,0l1.3,0l2.6,0.3c0,0.3-0.4,0.5-1.3,0.7c0-0.2-0.1-0.3-0.3-0.3l0,0l-1.8,0
				l-0.8,0.5l0.3,0.5l-0.1,4.9l-0.3,1.8c1.2,0.5,1.8,0.8,1.8,1.1l0,0l0,1.8c0,0.4-0.2,0.5-0.5,0.5l0,0l-5.7-0.1l-0.5,0.3
				c0,0.3,0.2,0.5,0.5,0.5l0,0l0.3,0l0.5-0.3l0,0.3c0.2,0,0.4-0.1,0.8-0.3l0,0l1.5,0.3l3.9,0.1c0.5,0.3,0.8,0.6,0.8,0.8l0,0
				l-0.3,18.4c0.9,0.8,1.3,1.2,1.3,1.3c0.2,0,0.3-0.1,0.3-0.3c0.3,0.1,1.5,0.3,3.6,0.6c0-0.2,0.1-0.3,0.3-0.3c0,0.2,0.1,0.3,0.3,0.3
				l0,0L197.1,99.8z M253.4,100.6c3.2,0.1,6.9-0.4,10.9-1.3c8.2-3,14.4-7.7,18.4-14c0-0.2-0.9-0.3-2.8-0.3c0-0.3,0.2-0.4,0.5-0.5
				l0,0l2.5,0l1-0.7l4.8,0.1l0.5-0.2c3.3-5.6,5-11.2,5.1-16.8c0-0.4-0.5-0.6-1.5-0.8l0,0l-0.2,0l-0.5,0.2c0-0.2-0.1-0.2-0.2-0.2l0,0
				l-2.5,0c-0.3,0-0.4-0.2-0.5-0.5c0.1-3.2-0.2-4.8-0.9-4.8l0,0l-0.5,0c-0.6,0-1,0.1-1.3,0.2c-0.4-0.2-1.8-0.3-4.3-0.3l0,0l0-0.3
				l6.1,0.1l0.7-0.5c-1.8-7.2-4.5-13-8.3-17.3l0,0l0-0.2c0.6,0,1-0.1,1.3-0.2c0,0.2,0.1,0.3,0.2,0.3l0,0l1.3,0
				c0.3,0,0.5-0.2,0.5-0.5l0,0l0-0.3l-1.2-0.3l-2.8,0c-1-0.7-2-1-3-1c-4-3.3-6.3-4.9-6.9-4.9l0,0l0-0.5c0.4,0,0.7-0.1,1-0.2
				c-4.1-2.6-9.1-4-15-4.1c-8.6-0.2-15.2,1.1-19.7,3.7l0,0l-2.8,0c-3.5,2-5.9,3.6-7.1,4.7c0,0.3,0.3,0.5,1,0.5l0,0l-0.2,0.5l0.2,0.5
				l1.3-0.2l0.3,0c0.4,0,0.9,0.2,1.5,0.5c0,0.5-1.1,0.7-3.3,0.7c-1.2,0-2.6,1-4.1,3c-4,5.8-6.2,11.7-6.8,17.5c0,0.2,0.1,0.4,0.2,0.8
				c0.2,0,0.4-0.1,0.8-0.2c0.3,0.2,0.6,0.2,0.8,0.2l0,0l0,1c-1.4,0.2-2,0.4-2,0.7c0,0.3,0.2,0.5,0.5,0.5l0,0l4.3,0.1
				c0.6,1.2,1,1.8,1.2,1.8l0,0l9.1,0.2c0.3,0,0.5,0.2,0.5,0.5l0,0l0,0.3l-3.8-0.1c-1.2,0-3,0-5.6,0.2c0-0.2-0.1-0.3-0.2-0.3l0,0
				l-0.3,0.5l0,0.8c0.2,4.1,1.5,8.7,4.1,13.7l0,0l-1.3,0.2l-3.3-0.1c-0.4,0-0.5,0.2-0.6,0.8l0,0l-2.5,0l0,0.5l2.3,0
				c0.4,0,0.7,0.1,1,0.3c1.9,2.8,4.5,5.6,7.7,8.4c4.1,3.7,9.9,6.2,17.2,7.6c0.2,0,0.4-0.1,0.8-0.3c0.7,0.4,2,0.6,4,0.6l0,0
				L253.4,100.6z M251.9,85.7c-1,0-3-0.5-6-1.4l0,0l-3-0.1l0-0.5l1.5,0l0-0.3l-0.2-0.5l3.5,0.1l0.5-0.2c0-0.2-0.9-1-2.8-2.3
				c-3.3-3.4-5.3-7.1-6.1-11.2l0,0l0-1.2c4.1-0.1,6.4-0.2,7.1-0.1l0,0l1.3,0.3c0-0.2,0.1-0.3,0.3-0.3c0.2,0,0.4,0.1,0.7,0.3
				c0.3,0,0.5-0.2,0.5-0.5l0,0l0-0.5l-2,0c-1.8,0-4.4-0.2-8-0.4c-0.2-1.2-0.5-1.8-0.7-1.8l0,0l-4.5-0.1l0-0.8l1.2,0
				c0.4,0,0.5-0.2,0.5-0.5l0,0l0-0.5l-1.5-1.1l0-0.5c0-0.9,0.6-2.8,1.9-5.8c4.5-7.1,10.3-10.6,17.3-10.5c2.4,0,5.5,1.3,9.3,3.7
				c3.4,2.5,5.9,5.9,7.4,10.4l0,0l0,0.3l-3.8-0.1c-1.2,0-3,0-5.6,0.1l0,0l0,0.5l8.6,0.1l1.2,0.3c-0.1,3.3,0.3,5,0.9,5l0,0l1.8,0
				l0.5-0.2c1.7,0.2,2.5,0.5,2.5,0.8l0,0l0,2c0,0.5-0.5,2.4-1.6,5.8c-2.7,4.8-5.7,7.8-9,9.2c-0.2,0-0.4-0.1-0.8-0.2
				c-0.3,0.1-0.6,0.2-1,0.2l0,0l-2.5,0c-2.2,0.5-3.4,0.7-3.5,0.7l0,0l-2.8,0l0,0.5l1.3,0c0.3,0,0.5,0.2,0.5,0.5
				C254.5,85.5,252.9,85.7,251.9,85.7z M219.5,67.5l0.5-0.3c0-0.3-0.2-0.5-0.5-0.5l0,0l-2.8,0l0,0.8L219.5,67.5z M247.9,73.8
				c0.3,0,0.5-0.2,0.5-0.5l0,0l0-0.8c0-0.3-0.2-0.5-0.5-0.5l0,0l-0.3,0c-0.3,0-0.5,0.2-0.5,0.5l0,0l0,0.8c0,0.3,0.2,0.5,0.5,0.5l0,0
				L247.9,73.8z M219.1,76l0.7-0.5l-0.2-1.3l-1.5,0l-0.5,0.3c0.2,1,0.4,1.5,0.7,1.5l0,0L219.1,76z M337.3,102.5
				c0.4,0,0.5-0.2,0.5-0.5l0,0l0-2.3l-0.3-0.5l-1.6,0.2c-0.9-0.2-1.4-0.3-1.6-0.3l0,0l0-0.5c0.6,0,1-0.1,1.3-0.2l0,0l1.6,0.3
				c0.4,0,0.5-0.2,0.5-0.5l0,0l0.1-7.8l0.3-1.3l-0.5-0.3l-19.6-0.3l-2.6-0.3c0,0.2-0.2,0.3-0.5,0.3c-0.3,0-0.5-0.2-0.5-0.5l0,0
				l0.3-15.6c0-0.3-0.6-0.6-1.8-0.8l0,0l0.2-0.5l0.5-27.1c0-0.3-0.2-0.5-0.5-0.5l0,0l-2.9-0.1l0-0.5c0-0.3,0.2-0.4,0.5-0.5l0,0
				l2.3,0l2.1-1.5l0.1-5.5c0-0.3-0.4-0.5-1.3-0.5c-0.1-2.1-0.4-3.2-0.7-3.2l0,0l-18-0.3c-0.3,0-0.5,0.2-0.5,0.5l0,0l0,2.3
				c1.2,0,1.8,0.5,1.8,1.6l0,0l-0.1,4.7c0,0.3-0.3,0.5-0.8,0.5c-1.2,1-2.6,1.5-4.2,1.5l0,0l0,0.3c2.1,0.2,3.1,0.5,3.1,0.8l0,0
				l-0.5,27.4c0,0.2,0.6,0.6,1.8,1.3l0,0l-0.4,25c-0.3,0.5-0.6,0.8-0.8,0.8l0,0l-2.3,0l0,0.5l2.3,0c0.5,0.3,0.8,0.5,0.8,0.8l0,0
				l0,2.3c3.2,0.2,5.6,0.4,7,0.4l0,0L337.3,102.5z M377.6,102.8c3.2,0.1,6.9-0.4,10.9-1.3c8.2-3,14.4-7.7,18.4-14
				c0-0.2-0.9-0.3-2.8-0.3c0-0.3,0.2-0.4,0.5-0.5l0,0l2.5,0l1-0.7l4.8,0.1l0.5-0.2c3.3-5.6,5-11.2,5.1-16.8c0-0.4-0.5-0.6-1.5-0.8
				l0,0l-0.2,0l-0.5,0.2c0-0.2-0.1-0.2-0.2-0.2l0,0l-2.5,0c-0.3,0-0.4-0.2-0.5-0.5c0.1-3.2-0.2-4.8-0.9-4.8l0,0l-0.5,0
				c-0.6,0-1,0.1-1.3,0.2c-0.4-0.2-1.8-0.3-4.3-0.3l0,0l0-0.3l6.1,0.1l0.7-0.5c-1.8-7.2-4.5-13-8.3-17.3l0,0l0-0.2
				c0.6,0,1-0.1,1.3-0.2c0,0.2,0.1,0.3,0.2,0.3l0,0l1.3,0c0.3,0,0.5-0.2,0.5-0.5l0,0l0-0.3l-1.2-0.3l-2.8,0c-1-0.7-2-1-3-1
				c-4-3.3-6.3-4.9-6.9-4.9l0,0l0-0.5c0.4,0,0.7-0.1,1-0.2c-4.1-2.6-9.1-4-15-4.1c-8.6-0.2-15.2,1.1-19.7,3.7l0,0l-2.8,0
				c-3.5,2-5.9,3.6-7.1,4.7c0,0.3,0.3,0.5,1,0.5l0,0l-0.2,0.5l0.2,0.5l1.3-0.2l0.3,0c0.4,0,0.9,0.2,1.5,0.5c0,0.5-1.1,0.7-3.3,0.7
				c-1.2,0-2.6,1-4.1,3c-4,5.8-6.2,11.7-6.8,17.5c0,0.2,0.1,0.4,0.2,0.8c0.2,0,0.4-0.1,0.8-0.2c0.3,0.2,0.6,0.2,0.8,0.2l0,0l0,1
				c-1.4,0.2-2,0.4-2,0.7c0,0.3,0.2,0.5,0.5,0.5l0,0l4.3,0.1c0.6,1.2,1,1.8,1.2,1.8l0,0l9.1,0.2c0.3,0,0.5,0.2,0.5,0.5l0,0l0,0.3
				l-3.8-0.1c-1.2,0-3,0-5.6,0.2c0-0.2-0.1-0.3-0.2-0.3l0,0l-0.3,0.5l0,0.8c0.2,4.1,1.5,8.7,4.1,13.7l0,0l-1.3,0.2l-3.3-0.1
				c-0.4,0-0.5,0.2-0.6,0.8l0,0l-2.5,0l0,0.5l2.3,0c0.4,0,0.7,0.1,1,0.3c1.9,2.8,4.5,5.6,7.7,8.4c4.1,3.7,9.9,6.2,17.2,7.6
				c0.2,0,0.4-0.1,0.8-0.3c0.7,0.4,2,0.6,4,0.6l0,0L377.6,102.8z M376.1,87.9c-1,0-3-0.5-6-1.4l0,0l-3-0.1l0-0.5l1.5,0l0-0.3
				l-0.2-0.5l3.5,0.1l0.5-0.2c0-0.2-0.9-1-2.8-2.3c-3.3-3.4-5.3-7.1-6.1-11.2l0,0l0-1.2c4.1-0.1,6.4-0.2,7.1-0.1l0,0l1.3,0.3
				c0-0.2,0.1-0.3,0.3-0.3c0.2,0,0.4,0.1,0.7,0.3c0.3,0,0.5-0.2,0.5-0.5l0,0l0-0.5l-2,0c-1.8,0-4.4-0.2-8-0.4
				c-0.2-1.2-0.5-1.8-0.7-1.8l0,0l-4.5-0.1l0-0.8l1.2,0c0.4,0,0.5-0.2,0.5-0.5l0,0l0-0.5l-1.5-1.1l0-0.5c0-0.9,0.6-2.8,1.9-5.8
				c4.5-7.1,10.3-10.6,17.3-10.5c2.4,0,5.5,1.3,9.3,3.7c3.4,2.5,5.9,5.9,7.4,10.4l0,0l0,0.3l-3.8-0.1c-1.2,0-3,0-5.6,0.1l0,0l0,0.5
				l8.6,0.1l1.2,0.3c-0.1,3.3,0.3,5,0.9,5l0,0l1.8,0l0.5-0.2c1.7,0.2,2.5,0.5,2.5,0.8l0,0l0,2c0,0.5-0.5,2.4-1.6,5.8
				c-2.7,4.8-5.7,7.8-9,9.2c-0.2,0-0.4-0.1-0.8-0.2c-0.3,0.1-0.6,0.2-1,0.2l0,0l-2.5,0c-2.2,0.5-3.4,0.7-3.5,0.7l0,0l-2.8,0l0,0.5
				l1.3,0c0.3,0,0.5,0.2,0.5,0.5C378.6,87.7,377,87.9,376.1,87.9z M343.6,69.7l0.5-0.3c0-0.3-0.2-0.5-0.5-0.5l0,0l-2.8,0l0,0.8
				L343.6,69.7z M372,75.9c0.3,0,0.5-0.2,0.5-0.5l0,0l0-0.8c0-0.3-0.2-0.5-0.5-0.5l0,0l-0.3,0c-0.3,0-0.5,0.2-0.5,0.5l0,0l0,0.8
				c0,0.3,0.2,0.5,0.5,0.5l0,0L372,75.9z M343.2,78.2l0.7-0.5l-0.2-1.3l-1.5,0l-0.5,0.3c0.2,1,0.4,1.5,0.7,1.5l0,0L343.2,78.2z"/>
			<path id="YOLO_8_" class="st1" d="M191.2,98.9l1.3-0.3c0,0.2,0.1,0.3,0.3,0.3c0.5,0,0.8-0.2,0.8-0.5l0,0l-1-1l0-18.9
				c0-0.3-0.2-0.5-0.5-0.5l0,0l-4.1,0l-1.3-0.2c0,0.2-0.1,0.2-0.2,0.2c-0.3-0.2-0.7-0.2-1-0.2l0,0v-0.3l5.4,0c0.3,0,0.5-0.2,0.5-0.5
				l0,0V75l-1.6-1v-7.2l0.3-0.5l0.5,0.3h1.3c0.7,0,1.4-0.2,2.1-0.5c0-0.3-0.2-0.4-0.5-0.5l0,0h-3.4c0-0.3,4.5-7.3,13.5-21l0,0h1.5
				l1.6-1.5h2.8l0.5-0.3c0-0.3-0.2-0.5-0.5-0.5l0,0l-2.3,0c1.6-2.9,4.4-7.3,8.6-13c0-0.3-0.2-0.4-0.5-0.5l0,0l-20,0
				c-5.5,8.5-8.3,12.8-8.3,13c0,0.3,0.2,0.5,0.5,0.5l0,0l2.3,0v0.5l-1.3,0.3l-1.3-0.3c-0.8,0.2-1.5,0.7-2.1,1.5
				c-1.4,0-2.5,0.9-3.4,2.6c0.6,1.6,1.1,2.3,1.5,2.3c0,0.2-0.4,1.1-1.3,2.8l0,0h-0.5l-4.4-7.5c0.3,0,0.6-0.2,1-0.5
				c0-0.2-0.1-0.4-0.2-0.8l0,0v-0.2h2.8v-0.8l-3.4,0c-0.3,0-0.9-0.8-1.8-2.3l0,0l-1.8,0.2h-1c-0.5-0.3-0.8-0.5-0.8-0.8l0,0V39
				c1.5-0.2,2.5-0.3,2.8-0.5c-2.7-4.8-4.9-8.1-6.5-9.9l0,0l-20.2,0c0,0.7,2.1,3.9,6.2,9.6c0,0.3-1,0.6-3.1,0.8c0.4,0.7,0.8,1,1,1
				l0,0h2.9l1.8,2.1h2.8c0.4,0,0.5,0.2,0.5,0.5l0,0l-1.3,0.3l-1.6,0l0.3,1.3c-0.4,0-0.7,0.1-1,0.3c8.3,12.9,13,19.9,14.3,21l0,0h1.3
				l2.6,0.3c0,0.3-0.4,0.5-1.3,0.8c0-0.2-0.1-0.3-0.3-0.3l0,0h-1.8l-0.8,0.5l0.3,0.5v4.9l-0.3,1.8c1.2,0.5,1.8,0.8,1.8,1l0,0v1.8
				c0,0.4-0.2,0.5-0.5,0.5l0,0l-5.7,0l-0.5,0.3c0,0.3,0.2,0.5,0.5,0.5l0,0h0.3l0.5-0.3v0.3c0.2,0,0.4-0.1,0.8-0.3l0,0l1.5,0.3l3.9,0
				c0.5,0.3,0.8,0.5,0.8,0.8l0,0v18.4c0.9,0.8,1.3,1.2,1.3,1.3c0.2,0,0.3-0.1,0.3-0.3c0.3,0.1,1.5,0.3,3.6,0.5
				c0-0.2,0.1-0.3,0.3-0.3c0,0.2,0.1,0.3,0.3,0.3l0,0L191.2,98.9z M247.5,98.7c3.2,0,6.9-0.5,10.9-1.5c8.2-3.1,14.2-7.9,18.1-14.3
				c0-0.2-0.9-0.3-2.8-0.3c0-0.3,0.2-0.4,0.5-0.5l0,0h2.5l1-0.8l4.8,0l0.5-0.2c3.2-5.7,4.8-11.3,4.8-16.9c0-0.4-0.5-0.6-1.5-0.7l0,0
				h-0.2l-0.5,0.2c0-0.2-0.1-0.2-0.2-0.2l0,0h-2.5c-0.3,0-0.4-0.2-0.5-0.5c0-3.2-0.3-4.8-1-4.8l0,0l-0.5,0c-0.6,0-1,0.1-1.3,0.2
				c-0.4-0.2-1.8-0.2-4.3-0.2l0,0v-0.3l6.1,0l0.7-0.5c-1.9-7.2-4.7-12.9-8.6-17.1l0,0V40c0.6,0,1-0.1,1.3-0.3c0,0.2,0.1,0.3,0.2,0.3
				l0,0h1.3c0.3,0,0.5-0.2,0.5-0.5l0,0v-0.3l-1.2-0.3h-2.8c-1-0.7-2-1-3-1c-4.1-3.2-6.4-4.8-7-4.8l0,0v-0.5c0.4,0,0.7-0.1,1-0.2
				c-4.1-2.5-9.2-3.8-15.1-3.8c-8.6,0-15.2,1.3-19.7,4l0,0l-2.8,0c-3.5,2.1-5.8,3.7-7.1,4.8c0,0.3,0.3,0.5,1,0.5l0,0l-0.2,0.5
				l0.2,0.5l1.3-0.2h0.3c0.4,0,0.9,0.2,1.5,0.5c0,0.5-1.1,0.8-3.3,0.8c-1.2,0-2.6,1-4.1,3c-3.9,5.9-6,11.8-6.5,17.6
				c0,0.2,0.1,0.4,0.2,0.8c0.2,0,0.4-0.1,0.8-0.2c0.3,0.2,0.6,0.2,0.8,0.2l0,0v1c-1.4,0.2-2,0.4-2,0.8c0,0.3,0.2,0.5,0.5,0.5l0,0
				h4.3c0.6,1.2,1.1,1.8,1.3,1.8l0,0l9.1,0c0.3,0,0.5,0.2,0.5,0.5l0,0v0.3l-3.8,0c-1.2,0-3,0.1-5.6,0.3c0-0.2-0.1-0.3-0.2-0.3l0,0
				l-0.3,0.5v0.8c0.3,4.1,1.7,8.7,4.3,13.6l0,0l-1.3,0.2h-3.3c-0.4,0-0.5,0.3-0.5,0.8l0,0h-2.5v0.5h2.3c0.4,0,0.7,0.1,1,0.3
				c2,2.8,4.6,5.5,7.8,8.3c4.2,3.6,10,6.1,17.4,7.3c0.2,0,0.4-0.1,0.8-0.3c0.7,0.4,2.1,0.5,4,0.5l0,0H247.5z M245.8,83.8
				c-1,0-3-0.4-6-1.3l0,0h-3V82h1.5v-0.3l-0.2-0.5h3.5L242,81c0-0.2-0.9-1-2.8-2.3c-3.4-3.3-5.5-7-6.3-11.1l0,0v-1.2
				c4.1-0.2,6.4-0.3,7.1-0.3l0,0l1.3,0.3c0-0.2,0.1-0.3,0.3-0.3c0.2,0,0.4,0.1,0.7,0.3c0.3,0,0.5-0.2,0.5-0.5l0,0v-0.5l-2.5,0
				c-1.8,0-4.3-0.1-7.6-0.2c-0.2-1.2-0.5-1.8-0.8-1.8l0,0l-4.5,0v-0.8h1.2c0.4,0,0.5-0.2,0.5-0.5l0,0v-0.5l-1.5-1v-0.5
				c0-0.9,0.6-2.8,1.8-5.8c4.4-7.2,10.1-10.8,17.1-10.8c2.4,0,5.5,1.2,9.3,3.5c3.5,2.4,6,5.8,7.6,10.3l0,0v0.3h-3.8
				c-1.2,0-3,0.1-5.6,0.2l0,0v0.5l8.6,0l1.2,0.3c0,3.3,0.3,5,1,5l0,0h1.8l0.5-0.2c1.7,0.2,2.5,0.4,2.5,0.7l0,0v2
				c0,0.5-0.5,2.4-1.5,5.8c-2.6,4.8-5.5,7.9-8.8,9.3c-0.2,0-0.4-0.1-0.8-0.2c-0.3,0.2-0.6,0.2-1,0.2l0,0h-2.5
				c-2.2,0.5-3.3,0.8-3.5,0.8l0,0h-2.8v0.5h1.3c0.3,0,0.5,0.2,0.5,0.5C248.3,83.5,246.7,83.8,245.8,83.8z M213,66.1l0.5-0.3
				c0-0.3-0.2-0.4-0.5-0.5l0,0h-2.8v0.8H213z M241.5,71.9c0.3,0,0.5-0.2,0.5-0.5l0,0v-0.8c0-0.3-0.2-0.4-0.5-0.5l0,0h-0.3
				c-0.3,0-0.4,0.2-0.5,0.5l0,0v0.8c0,0.3,0.2,0.5,0.5,0.5l0,0H241.5z M212.8,74.7l0.7-0.5l-0.2-1.3l-1.5,0l-0.5,0.3
				c0.2,1,0.4,1.5,0.8,1.5l0,0H212.8z M331.4,99.1c0.4,0,0.5-0.2,0.5-0.5l0,0v-2.3l-0.3-0.5l-1.6,0.2c-0.9-0.2-1.4-0.2-1.6-0.2l0,0
				v-0.5c0.6,0,1-0.1,1.3-0.3l0,0l1.6,0.3c0.4,0,0.5-0.2,0.5-0.5l0,0v-7.8l0.2-1.3l-0.5-0.3l-19.6,0l-2.6-0.3c0,0.2-0.2,0.3-0.5,0.3
				c-0.3,0-0.5-0.2-0.5-0.5l0,0V69.1c0-0.3-0.6-0.5-1.8-0.8l0,0l0.2-0.5V40.7c0-0.3-0.2-0.4-0.5-0.5l0,0h-2.9v-0.5
				c0-0.3,0.2-0.4,0.5-0.5l0,0h2.3l2.1-1.6v-5.5c0-0.3-0.4-0.5-1.3-0.5c-0.2-2.1-0.4-3.1-0.8-3.1l0,0l-18,0c-0.3,0-0.4,0.2-0.5,0.5
				l0,0v2.3c1.2,0,1.8,0.5,1.8,1.5l0,0v4.7c0,0.3-0.3,0.5-0.8,0.5c-1.2,1-2.6,1.5-4.2,1.6l0,0V40c2.1,0.2,3.1,0.4,3.1,0.8l0,0v27.4
				c0,0.2,0.6,0.6,1.8,1.3l0,0l0,25c-0.3,0.5-0.5,0.8-0.8,0.8l0,0h-2.3v0.5h2.3c0.5,0.3,0.8,0.5,0.8,0.8l0,0v2.3
				c3.2,0.2,5.6,0.3,7,0.3l0,0L331.4,99.1z M371.7,98.7c3.2,0,6.9-0.5,10.9-1.5c8.2-3.1,14.2-7.9,18.1-14.3c0-0.2-0.9-0.3-2.8-0.3
				c0-0.3,0.2-0.4,0.5-0.5l0,0h2.5l1-0.8h4.8l0.5-0.2c3.2-5.7,4.8-11.3,4.8-16.9c0-0.4-0.5-0.6-1.5-0.7l0,0h-0.2l-0.5,0.2
				c0-0.2-0.1-0.2-0.2-0.2l0,0H407c-0.3,0-0.4-0.2-0.5-0.5c0-3.2-0.3-4.8-1-4.8l0,0H405c-0.6,0-1,0.1-1.3,0.2
				c-0.4-0.2-1.8-0.2-4.3-0.2l0,0v-0.3l6.1,0l0.7-0.5c-1.9-7.2-4.7-12.9-8.6-17.1l0,0V40c0.6,0,1-0.1,1.3-0.3c0,0.2,0.1,0.3,0.2,0.3
				l0,0l1.3,0c0.3,0,0.5-0.2,0.5-0.5l0,0v-0.3l-1.2-0.3l-2.8,0c-1-0.7-2-1-3-1c-4.1-3.2-6.4-4.8-7-4.8l0,0v-0.5c0.4,0,0.7-0.1,1-0.2
				c-4.1-2.5-9.2-3.8-15.1-3.8c-8.6,0-15.2,1.3-19.7,4l0,0h-2.8c-3.5,2.1-5.8,3.7-7.1,4.8c0,0.3,0.3,0.5,1,0.5l0,0l-0.2,0.5l0.2,0.5
				l1.3-0.2h0.3c0.4,0,0.9,0.2,1.5,0.5c0,0.5-1.1,0.8-3.3,0.8c-1.2,0-2.6,1-4.1,3c-3.9,5.9-6,11.8-6.5,17.6c0,0.2,0.1,0.4,0.2,0.8
				c0.2,0,0.4-0.1,0.8-0.2c0.3,0.2,0.6,0.2,0.8,0.2l0,0v1c-1.4,0.2-2,0.4-2,0.8s0.2,0.5,0.5,0.5l0,0h4.3c0.6,1.2,1.1,1.8,1.3,1.8
				l0,0h9.1c0.3,0,0.5,0.2,0.5,0.5l0,0v0.3H345c-1.2,0-3,0.1-5.6,0.3c0-0.2-0.1-0.3-0.2-0.3l0,0l-0.3,0.5v0.8
				c0.3,4.1,1.7,8.7,4.3,13.6l0,0l-1.3,0.2h-3.3c-0.4,0-0.5,0.3-0.5,0.8l0,0l-2.5,0v0.5l2.3,0c0.4,0,0.7,0.1,1,0.3
				c2,2.8,4.6,5.5,7.8,8.3c4.2,3.6,10,6.1,17.4,7.3c0.2,0,0.4-0.1,0.8-0.3c0.7,0.4,2.1,0.5,4,0.5l0,0H371.7z M369.9,83.8
				c-1,0-3-0.4-6-1.3l0,0h-3V82h1.5v-0.3l-0.2-0.5h3.5l0.5-0.2c0-0.2-0.9-1-2.8-2.3c-3.4-3.3-5.5-7-6.3-11.1l0,0v-1.2
				c4.1-0.2,6.4-0.3,7.1-0.3l0,0l1.3,0.3c0-0.2,0.1-0.3,0.3-0.3c0.2,0,0.4,0.1,0.7,0.3c0.3,0,0.5-0.2,0.5-0.5l0,0v-0.5l-2.5,0
				c-1.8,0-4.3-0.1-7.6-0.2c-0.2-1.2-0.5-1.8-0.8-1.8l0,0h-4.5v-0.8h1.2c0.4,0,0.5-0.2,0.5-0.5l0,0v-0.5l-1.5-1v-0.5
				c0-0.9,0.6-2.8,1.8-5.8c4.4-7.2,10.1-10.8,17.1-10.8c2.4,0,5.5,1.2,9.3,3.5c3.5,2.4,6,5.8,7.6,10.3l0,0v0.3l-3.8,0
				c-1.2,0-3,0.1-5.6,0.2l0,0v0.5l8.6,0l1.2,0.3c0,3.3,0.3,5,1,5l0,0h1.8l0.5-0.2c1.7,0.2,2.5,0.4,2.5,0.7l0,0v2
				c0,0.5-0.5,2.4-1.5,5.8c-2.6,4.8-5.5,7.9-8.8,9.3c-0.2,0-0.4-0.1-0.8-0.2c-0.3,0.2-0.6,0.2-1,0.2l0,0h-2.5
				c-2.2,0.5-3.3,0.8-3.5,0.8l0,0l-2.8,0v0.5l1.3,0c0.3,0,0.5,0.2,0.5,0.5C372.5,83.5,370.9,83.8,369.9,83.8z M337.2,66.1l0.5-0.3
				c0-0.3-0.2-0.4-0.5-0.5l0,0h-2.8v0.8H337.2z M365.7,71.9c0.3,0,0.5-0.2,0.5-0.5l0,0v-0.8c0-0.3-0.2-0.4-0.5-0.5l0,0l-0.3,0
				c-0.3,0-0.4,0.2-0.5,0.5l0,0v0.8c0,0.3,0.2,0.5,0.5,0.5l0,0H365.7z M336.9,74.7l0.7-0.5l-0.2-1.3h-1.5l-0.5,0.3
				c0.2,1,0.4,1.5,0.8,1.5l0,0H336.9z"/>
		</g>
	</g>
	<g>
		<g>
			<path id="Shape_6_" class="st1" d="M313.4,113.6c-0.7,0-1.3,0.1-1.7,0.3v-7.8h-4.3v20.7c1.2,0.8,3.2,1.5,5.5,1.5
				c4.7,0,8.1-2.8,8.1-7.6C321,116.5,317.5,113.6,313.4,113.6z M313.2,124.4c-0.6,0-1.1-0.1-1.5-0.3v-6.3c0.3-0.2,1-0.4,1.7-0.4
				c1.7,0,3.3,1.4,3.3,3.4C316.7,123,315.4,124.4,313.2,124.4z"/>
			<path class="st1" d="M332.7,114.3l-2.1,5.4c-0.3,0.8-0.6,1.7-0.8,2.7h-0.1c-0.3-1-0.6-1.9-0.9-2.7l-2.1-5.4h-4.4l5.2,13.2
				c-1.3,3.2-2.7,4.4-4.8,5.1l1.8,2.9c3.3-0.8,5.6-3.7,7.5-8.5l4.9-12.7L332.7,114.3L332.7,114.3z"/>
		</g>
		<g>
			<path id="Shape_5_" class="st1" d="M352.2,113.6c-0.7,0-1.3,0.1-1.7,0.3v-7.8h-4.3v20.7c1.2,0.8,3.2,1.5,5.5,1.5
				c4.7,0,8.1-2.8,8.1-7.6C359.8,116.5,356.3,113.6,352.2,113.6z M352,124.4c-0.6,0-1.1-0.1-1.5-0.3v-6.3c0.3-0.2,1-0.4,1.7-0.4
				c1.7,0,3.3,1.4,3.3,3.4C355.5,123,354.2,124.4,352,124.4z"/>
			<path id="Path_4_" class="st1" d="M381.8,116.2l-0.1-2.2h-4.1v13.9h4.5v-5.5c0-3.3,2.2-4.7,4.6-4.7c0.2,0,0.3,0,0.4,0l0-3.6
				C384.8,114.1,382.7,114.5,381.8,116.2z"/>
			<path class="st1" d="M394.9,109.7l-4.3,1.6v2.7H389l0,3.7h1.5v5.7c0,2.8,2.1,4.8,5.1,4.8c0.9,0,1.7-0.1,2.1-0.3l0.3-3.7
				c-0.4,0.2-0.9,0.2-1.4,0.2c-1,0-1.7-0.6-1.7-1.6v-5h3.9l0.3-3.7h-4.3L394.9,109.7L394.9,109.7z"/>
			<path class="st1" d="M410.6,114l-2.1,5.4c-0.3,0.8-0.6,1.7-0.8,2.7h-0.1c-0.3-1-0.6-1.9-0.9-2.7l-2.1-5.4h-4.4l5.2,13.2
				c-1.3,3.2-2.7,4.4-4.8,5.1l1.8,2.9c3.3-0.8,5.6-3.7,7.5-8.5l4.9-12.7L410.6,114L410.6,114z"/>
			<path class="st1" d="M368.8,113.6c-3.9,0-7.2,2.8-7.2,7.3c0,4.5,3.6,7.4,8.1,7.4c1.8,0,3.2-0.3,4.1-0.8l0.4-3.7
				c-1.2,0.7-2.4,1.1-4,1.1c-2.4,0-3.7-1.4-4.1-2.6l6,0c0,0,2.5,0,2.8-1.8c0,0,0.1-0.9,0.1-1.4C375.1,116.3,372.7,113.6,368.8,113.6
				z M370.9,119.4H366c0.3-1.4,1.5-2.4,2.8-2.4c1.3,0,2.1,1,2.1,2.1C371,119.2,371,119.3,370.9,119.4z"/>
		</g>
	</g>
	<g>
		<g transform="translate(255.000000, 429.000000)">
			
				<linearGradient id="SVGID_1_" gradientUnits="userSpaceOnUse" x1="-656.0386" y1="773.7181" x2="-656.0386" y2="773.676" gradientTransform="matrix(2031.5023 0 0 -2320.5793 1332542.375 1795063.25)">
				<stop  offset="0" style="stop-color:#4E53FF"/>
				<stop  offset="1" style="stop-color:#3442D9"/>
			</linearGradient>
			<path class="st2" d="M-187.1-375.3c0-0.4,0-0.9,0-1.3c0.7-14.8,13.2-26.7,28.2-26.7c0-2.8-0.3-4.6-0.3-4.6c0.1,0,0.1,0,0.2,0
				c-8.4-0.1-16.7,1.6-24.4,4.8c-2.6,1.1-5.1,2.4-7.6,3.8l0,0c-3.1,1.8-6,3.9-8.7,6.2c-0.9,0.8-1.8,1.6-2.7,2.4l-15.3-8.5l-8.4-4.7
				l-13.1-7.2c-10.7,19.3-3.8,43.6,15.5,54.4l-18.9,36.2c0,0,0,0,0,0c8,4.2,16.5,6.4,24.9,6.9c23.4,1.4,46.5-10.8,58.1-32.9l0.4-1
				c-0.1,0-0.3,0-0.4,0C-174.9-347.6-187.1-360-187.1-375.3z"/>
			<path class="st3" d="M-179.8-359.1c-4.3-4.7-7-10.8-7.3-17.5c0,0.4,0,0.9,0,1.3c0,15.3,12.3,27.7,27.5,28c0.2,0,0.3,0,0.5,0v-2.6
				C-167.3-349.9-174.7-353.4-179.8-359.1z"/>
			<path class="st4" d="M-159.2-403.3c-15,0-27.2,11.9-27.9,26.7c0.3,6.7,3,12.9,7.3,17.5c5.1,5.6,12.5,9.1,20.7,9.1L-159.2-403.3
				C-159.2-403.3-159.2-403.3-159.2-403.3z"/>
		</g>
		<g>
			<path class="st3" d="M15.7,18l-8.9-4.9C-6.6,37.3,2.3,68,26.5,81.4l4.8-9C12,61.7,5,37.3,15.7,18z"/>
			<g transform="translate(2279.000000, 501.000000)">
				<path class="st5" d="M-2183.2-441.3v21.9c0,0,0,0,0,0c10.5,0,19.3-7.5,21.4-17.4L-2183.2-441.3z"/>
				<path class="st3" d="M-2156.7-469.8c-6.3-5.8-14.6-9.4-23.7-10c-0.9,0-1.7-0.1-2.6-0.1c-0.1,0-0.1,0-0.2,0c0,0.1,0,38.6,0,38.6
					l38.4,8.2c0.5-2.5,0.8-5.2,0.8-7.9C-2143.9-452.4-2148.9-462.7-2156.7-469.8z"/>
			</g>
			<g>
				<g transform="translate(686.000000, 0.000000)">
					<path class="st6" d="M-622,29.7l-9.6-21.2c-9.2,4.1-15.3,12.3-17.1,21.4l15.3,8.5C-630,35-626.1,32.1-622,29.7z"/>
					<path class="st3" d="M-648.7,29.9c1.9-9.1,8-17.3,17.1-21.4l-3.8-8.5c-11.1,5-18.7,14.4-21.7,25.2L-648.7,29.9L-648.7,29.9z"/>
				</g>
				<path class="st7" d="M0,132c12.7,6.7,28.4,1.8,35.1-10.9c1-1.8,1.7-3.7,2.1-5.6c-8.5-0.5-16.9-2.7-24.9-6.9L0,132z"/>
			</g>
			<circle id="Oval_5_" class="st8" cx="86.9" cy="51.9" r="5"/>
		</g>
	</g>
</g>
</svg>
