<?xml version="1.0" encoding="utf-8"?>
<!-- Generator: Adobe Illustrator 23.0.1, SVG Export Plug-In . SVG Version: 6.00 Build 0)  -->
<svg version="1.1" id="Calque_1" xmlns="http://www.w3.org/2000/svg" xmlns:xlink="http://www.w3.org/1999/xlink" x="0px" y="0px"
	 viewBox="0 0 763 498" style="enable-background:new 0 0 763 498;" xml:space="preserve">
<style type="text/css">
	.st0{fill:#D3D5DD;}
	.st1{fill:#FFBF47;}
	.st2{fill:#3442D9;}
	.st3{fill:url(#SVGID_1_);}
	.st4{fill:#FFC14B;}
	.st5{fill:#FFFFFF;}
	.st6{fill:#FFAE3A;}
	.st7{fill:#F74868;}
	.st8{fill:#383B62;}
</style>
<path class="st0" d="M496,360h-14v-54c0-5.52-4.48-10-10-10H338v-43.5h-0.02C337.46,191.48,287.64,142,226.5,142
	s-110.96,49.48-111.48,110.5H115v226c0,5.52,4.48,10,10,10h203c5.52,0,10-4.48,10-10V450h134c5.52,0,10-4.48,10-10v-55h14
	c6.6,0,12-5.4,12-12v-1C508,365.4,502.6,360,496,360z M322.98,252.5H270.4c0.73-18,0.33-65.28-21.33-92.83
	C291.12,169.78,322.54,207.5,322.98,252.5z M202.7,159.98c-21.43,27.6-21.82,74.58-21.1,92.52h-51.58
	C130.46,207.94,161.27,170.52,202.7,159.98z M182,474.5h-53v-208h53V474.5z M256,474.5h-60v-208h60V474.5z M256.37,252.5h-60.74
	c-0.32-8.07-0.45-23.44,1.96-39.73c5.1-34.47,17.72-48.95,28.41-54.95c10.69,6,23.31,20.48,28.41,54.95
	C256.82,229.06,256.69,244.43,256.37,252.5z M324,474.5h-54v-208h54V474.5z M370,436h-32V310h32V436z M421,436h-37V310h37V436z
	 M468,436h-33V310h33V436z"/>
<path class="st0" d="M226,88c-14.91,0-27,12.09-27,27c0,14.91,12.09,27,27,27s27-12.09,27-27C253,100.09,240.91,88,226,88z M226,128
	c-7.17,0-13-5.83-13-13c0-7.17,5.83-13,13-13s13,5.83,13,13C239,122.17,233.17,128,226,128z"/>
<g id="Page-1">
	<g>
		<path id="Shape" class="st1" d="M470.08,43.55l-21.61-11.64c-33.22,59.65-11.57,134.9,48.18,168.07l11.5-22.39
			C460.66,149.81,444.11,91.44,470.08,43.55z"/>
		<path class="st2" d="M589.31,72.84l-23.58-52.22c-22.6,10.18-37.62,30.24-42.25,52.76L561.2,94.2
			C569.77,85.93,579.23,78.78,589.31,72.84z"/>
		<path class="st1" d="M523.47,73.38c4.65-22.52,19.65-42.58,42.25-52.76L556.3-0.26c-27.26,12.27-46.07,35.52-53.62,62.15
			L523.47,73.38L523.47,73.38z"/>
		
			<linearGradient id="SVGID_1_" gradientUnits="userSpaceOnUse" x1="-593.0141" y1="801.6703" x2="-593.0141" y2="801.2872" gradientTransform="matrix(548.5527 0 0 -627.6781 325862.1875 503234.4062)">
			<stop  offset="0" style="stop-color:#4E53FF"/>
			<stop  offset="1" style="stop-color:#3442D9"/>
		</linearGradient>
		<path class="st3" d="M598.32,131.43c0-1.06,0.02-2.11,0.07-3.16c1.64-36.55,32.52-65.68,69.39-65.76
			c0.04-6.83-0.72-11.26-0.72-11.42c0.13,0-0.86-0.3-0.73-0.3c-20.72-0.2-40.06,4.21-59,12.17c-6.41,2.69-12.64,5.82-18.65,9.38
			c-7.55,4.47-14.74,9.59-21.47,15.39c-2.24,1.93-4.44,3.93-6.58,6l-37.62-20.86l-20.73-11.48l-32.2-17.83
			c-26.39,47.56-9.34,107.53,38.07,134.02l-46.59,89.13c19.66,10.31,40.53,15.82,61.31,17.03c57.57,3.37,114.95-28.88,143.45-83.38
			C628.49,199.71,598.32,169.1,598.32,131.43z"/>
		<path class="st4" d="M616.23,171.5c-10.47-11.52-17.1-26.61-17.84-43.23c-0.05,1.05-0.07,2.1-0.07,3.16
			c0,37.67,30.16,68.29,67.62,68.92c0.4,0.01,0.8,0.01,1.2,0.01v-6.33C646.97,194.04,628.82,185.35,616.23,171.5z"/>
		<path class="st5" d="M666.97,62.5c-36.87,0.08-66.93,29.22-68.58,65.77c0.74,16.62,7.37,31.71,17.84,43.23
			c12.59,13.85,30.73,22.55,50.91,22.55V62.49C667.09,62.49,667.03,62.49,666.97,62.5z"/>
		<path class="st6" d="M666.22,145.93c-0.01,36.31-0.01,54.46,0,54.46c25.97-0.03,47.72-18.82,52.89-43.22L666.22,145.93z"/>
		<path class="st4" d="M731.49,75.64c-15.65-14.18-36.01-23.26-58.45-24.67c-2.14-0.11-4.27-0.19-6.41-0.21
			c-0.13,0-0.27,0.01-0.39,0.01c0,0.35,0,95.16,0,95.16l94.77,20.13c1.3-6.27,1.99-12.77,1.99-19.42
			C762.98,118.49,750.83,93.18,731.49,75.64z"/>
		<path class="st7" d="M431.49,323.96c31.32,16.41,70.04,4.37,86.48-26.9c2.34-4.46,4-8.64,5.2-13.32
			c-20.85-1.21-41.9-6.76-61.59-17.05L431.49,323.96z"/>
	</g>
</g>
<g>
	<path class="st8" d="M646,115c-7.18,0-13,5.82-13,13h5c0-4.41,3.59-8,8-8s8,3.59,8,8h5C659,120.82,653.18,115,646,115z"/>
	<g>
		<path class="st8" d="M646,113.5c-8.19,0.41-14.09,6.31-14.5,14.5c-0.04,0.81,0.72,1.5,1.5,1.5c1.67,0,3.33,0,5,0
			c0.86,0,1.43-0.69,1.5-1.5c0.68-8.34,12.32-8.34,13,0c0.07,0.81,0.63,1.5,1.5,1.5c1.67,0,3.33,0,5,0c0.78,0,1.54-0.69,1.5-1.5
			C660.09,119.81,654.19,113.91,646,113.5c-1.93-0.1-1.92,2.9,0,3c6.48,0.33,11.17,5.02,11.5,11.5c0.5-0.5,1-1,1.5-1.5
			c-1.67,0-3.33,0-5,0c0.5,0.5,1,1,1.5,1.5c-0.99-12.23-18.01-12.23-19,0c0.5-0.5,1-1,1.5-1.5c-1.67,0-3.33,0-5,0
			c0.5,0.5,1,1,1.5,1.5c0.33-6.48,5.02-11.17,11.5-11.5C647.92,116.4,647.93,113.4,646,113.5z"/>
	</g>
</g>
<path class="st0" d="M7.5,497.5c20.94-0.02,41.89-0.03,62.83-0.05c50.29-0.04,100.58-0.08,150.87-0.12
	c60.82-0.05,121.63-0.1,182.45-0.14c52.53-0.04,105.05-0.08,157.58-0.12c25.35-0.02,50.83,0.72,76.17-0.06c0.37-0.01,0.73,0,1.1,0
	c9.65-0.01,9.67-15.01,0-15c-20.94,0.02-41.89,0.03-62.83,0.05c-50.29,0.04-100.58,0.08-150.87,0.12
	c-60.82,0.05-121.63,0.1-182.45,0.14c-52.53,0.04-105.05,0.08-157.58,0.12c-25.35,0.02-50.83-0.72-76.17,0.06
	c-0.37,0.01-0.73,0-1.1,0C-2.15,482.51-2.17,497.51,7.5,497.5L7.5,497.5z"/>
<g>
	<g>
		<path class="st0" d="M399,102c-2.92,27.07,2.83,57.99,17.61,80.93c6.68,10.37,15.45,19.07,25.88,25.66
			c3.27,2.07,6.29-3.12,3.03-5.18c-30.93-19.54-41.5-57.75-40.97-92.48c0.05-2.97,0.13-5.97,0.45-8.93
			C405.41,98.17,399.41,98.2,399,102L399,102z"/>
	</g>
</g>
<g>
	<g>
		<path class="st0" d="M381,158c2.03,22.66,14.58,44.85,32.49,58.59c3.06,2.35,6.05-2.86,3.03-5.18
			c-16.1-12.35-27.74-33.52-29.51-53.41C386.66,154.18,380.66,154.15,381,158L381,158z"/>
	</g>
</g>
</svg>
