<svg xmlns="http://www.w3.org/2000/svg" xmlns:xlink="http://www.w3.org/1999/xlink" width="640" height="512" version="1.1" viewBox="0 0 640 512"><title>photo-video-light</title><desc>Created with Sketch.</desc><g id="Page-1" fill="none" fill-rule="evenodd" stroke="none" stroke-width="1"><g id="photo-video-light" fill="#353DD0" fill-rule="nonzero"><path id="Shape" d="M608,0 L160,0 C142.33,0 128,13.13 128,29.33 L128,128 L256,128 L256,32 L512,32 L512,320 L480,320 L480,352 L608,352 C625.67,352 640,338.87 640,322.67 L640,29.33 C640,13.13 625.67,0 608,0 Z M224,96 L160,96 L160,32 L224,32 L224,96 Z M608,320 L544,320 L544,256 L608,256 L608,320 Z M608,224 L544,224 L544,128 L608,128 L608,224 Z M608,96 L544,96 L544,32 L608,32 L608,96 Z M416,160 L32,160 C14.326888,160 0,174.326888 0,192 L0,480 C0,497.673112 14.326888,512 32,512 L416,512 C433.673112,512 448,497.673112 448,480 L448,192 C448,174.326888 433.673112,160 416,160 Z M416,480 L32,480 L32,456 L113.69,394.74 L193.69,434.74 L320.53,339.6 L416,403.23 L416,480 Z M416,364.77 L319.47,300.41 L190.31,397.27 L110.31,357.27 L32,416 L32,192 L416,192 L416,364.77 Z M112,320 C138.509668,320 160,298.509668 160,272 C160,245.490332 138.509668,224 112,224 C85.490332,224 64,245.490332 64,272 C64,298.509668 85.490332,320 112,320 Z M112,256 C120.836556,256 128,263.163444 128,272 C128,280.836556 120.836556,288 112,288 C103.163444,288 96,280.836556 96,272 C96,263.163444 103.163444,256 112,256 Z"/></g></g></svg>