<?xml version="1.0" encoding="UTF-8"?>
<svg width="1271px" height="1271px" viewBox="0 0 1271 1271" version="1.1" xmlns="http://www.w3.org/2000/svg" xmlns:xlink="http://www.w3.org/1999/xlink">
    <!-- Generator: Sketch 60 (88103) - https://sketch.com -->
    <title>Combined Shape</title>
    <desc>Created with Sketch.</desc>
    <g id="Page-1" stroke="none" stroke-width="1" fill="none" fill-rule="evenodd">
        <path d="M635.5,0 C986.476958,0 1271,284.523042 1271,635.5 C1271,986.476958 986.476958,1271 635.5,1271 C284.523042,1271 0,986.476958 0,635.5 C0,284.523042 284.523042,0 635.5,0 Z M580.9,191.2 C519.6,218.9 474.6,267.9 450.7,325.5 L450.7,325.5 L545.9,409.7 L440.7,354.1 L298.9,275.5 L296.336215,280.201327 C213.15589,435.7469 270.862,630.569 425.5,716.6 L425.5,716.6 L254.6,1042.6 L257.062742,1043.86767 C338.52017,1084.96495 438.23,1053.28 480.8,972.1 C483.2,967.6 485.3,962.9 487.2,958.3 C482,955.6 476.9,952.9 471.8,950.1 C462.6,945 453.5,939.8 444.5,934.5 C426.6,923.8 409,912.5 391.9,900.9 C411.2,908.4 430.8,915.3 450.4,921.7 C460.2,924.8 470,927.8 479.9,930.6 C487.4,932.7 495,934.7 502.4,936.4 C650.7,942.2 796.2,864.3 869.7,724 L869.7,724 L872.6,717.8 L869.9,717.8 L866.95979,717.72554 C770.12591,714.49615 692.6,635.014 692.6,537.4 C692.6,534.6 692.7,531.9 692.8,529.1 C697.1,433.5 776.3,357.3 872.9,356.9 L872.9,356.9 L872.9,573 L1121.2,626.7 L1121.50532,625.128337 C1124.41144,609.919556 1126,594.246667 1126,578.2 C1126,504.5 1094.2,438.2 1043.6,392.2 C1002.7,355 949.4,331.2 890.7,327.6 C885.8,327.3375 880.9,327.151563 876,327.10918 L876,327.10918 L873.9,327.1 L872.271183,327.088389 C818.5264,326.817 765.403,337.608 716.2,358.2 C699.4,365.2 683,373.4 667.3,382.7 L667.3,382.7 L605.6,245.9 Z M872.9,580.2 L872.9,717.7 L873.1,717.7 L875.08873,717.68329 C940.60795,716.68041 995.251,671.082 1010.2,609.9 L1010.2,609.9 L872.9,580.2 Z M815,493.8 C797.161203,493.8 782.7,508.261203 782.7,526.1 C782.7,543.938797 797.161203,558.4 815,558.4 C832.838797,558.4 847.3,543.938797 847.3,526.1 C847.3,508.261203 832.838797,493.8 815,493.8 Z" id="Combined-Shape" fill="#444245"></path>
    </g>
</svg>