<?xml version="1.0" encoding="UTF-8"?>
<svg width="1328px" height="447px" viewBox="0 0 1328 447" version="1.1" xmlns="http://www.w3.org/2000/svg" xmlns:xlink="http://www.w3.org/1999/xlink">
    <!-- Generator: Sketch 51.3 (57544) - http://www.bohemiancoding.com/sketch -->
    <title>Untitled 2</title>
    <desc>Created with Sketch.</desc>
    <defs></defs>
    <g id="Page-1" stroke="none" stroke-width="1" fill="none" fill-rule="evenodd">
        <g id="mono-white-line-copy-2" transform="translate(6.000000, 6.000000)">
            <text id="technologies" fill="#2D6FE2" font-family="Agenda-Bold, Agenda" font-size="110" font-weight="bold" letter-spacing="-1">
                <tspan x="421" y="414">technologie</tspan>
                <tspan x="964.07" y="414">s</tspan>
            </text>
            <g id="berty" transform="translate(417.000000, 8.000000)" fill="#FFFFFF" fill-rule="nonzero" stroke="#2D6FE2" stroke-linecap="round" stroke-linejoin="round" stroke-width="12">
                <path d="M78.8060048,97.8657855 C71.3151744,97.7135847 63.8597753,98.9328195 56.8088247,101.463142 L56.8088247,0 L0,0 L0,270.833757 C16.0033176,280.814947 41.2041138,290 72.0001659,290 C134.00564,290 178,253.245043 178,190.925267 C178,135.416878 131.599237,97.8657855 78.8060048,97.8657855 Z M75.9862321,239.268429 C69.4135277,239.349116 62.8901355,238.126379 56.7940615,235.671073 L56.7940615,153.40366 C61.223024,150.60244 70.3909762,148.199288 78.392635,148.199288 C100.803185,148.199288 121.604545,166.18607 121.604545,192.945094 C121.604545,220.500254 104.036327,239.268429 75.9862321,239.268429 Z" id="Shape"></path>
                <path d="M468.162014,131.365562 L466.581246,103 L412,103 L412,284 L471.055118,284 L471.055118,212.496375 C471.055118,168.960251 500.13529,150.575711 531.661179,150.575711 L536.507874,150.575711 L537,103.810866 C507.039967,103.78138 479.480911,108.558117 468.162014,131.365562 Z" id="Shape"></path>
                <path d="M638.829815,47 L582.550132,68.217338 L582.550132,103.441665 L561,103.441665 L561.385884,151.490957 L581.333113,151.490957 L581.333113,225.559561 C581.333113,261.980688 608.671504,288 648.877639,288 C660.558047,288 670.605871,286.404267 676.631596,283.567408 L681.084103,235.532892 C675.859828,237.542333 669.834103,238.3402 662.190633,238.3402 C648.907322,238.3402 639.675792,230.730918 639.675792,217.122862 L639.675792,151.535283 L691.547493,151.535283 L696,103.485991 L638.829815,103.485991 L638.829815,47 Z" id="Shape"></path>
                <path d="M843.500039,103.059209 L816.165566,174.450189 C811.893696,185.866673 808.272016,197.514833 805.317846,209.33896 L804.50167,209.33896 C800.880817,196.105798 797.259964,184.471274 793.253283,174.05053 L766.304638,103 L708,103 L775.950354,275.460359 C758.662264,317.172941 740.988346,333.618178 712.822858,342.854747 L736.951985,381 C780.773211,370.179596 810.526533,332.878068 835.056328,269.095416 L899,103.059209 L843.500039,103.059209 Z" id="Shape"></path>
                <path d="M296.597411,98 C245.696756,98 202,134.503107 202,193.500422 C202,252.882759 248.891915,291 308.209447,291 C332.261893,291 349.894436,286.557431 362.320054,280.634006 L367.541772,232.091537 C351.906203,241.317272 335.871239,246.144863 315.028744,246.144863 C282.958817,246.144863 266.125063,227.678585 261.776097,211.626103 L340.397714,211.848231 C340.397714,211.848231 373.118507,211.848231 376.757438,188.154531 C376.757438,188.154531 378,176.174403 378,170.280595 C377.955623,132.888974 347.098672,98 296.597411,98 Z M323.845016,173.849459 L259.719953,173.849459 C263.728694,155.383181 278.950076,142.544157 296.597411,142.544157 C313.431165,142.544157 324.259203,155.383181 324.259203,169.82153 C324.343981,171.172966 324.204015,172.529116 323.845016,173.834651 L323.845016,173.849459 Z" id="Shape"></path>
            </g>
            <g id="parrot" fill-rule="nonzero">
                <path d="M180.836877,141.300712 C180.836877,140.163633 180.862604,139.031676 180.914056,137.904842 C182.689169,98.6909883 213.962027,68.0745063 253.786299,67.9823108 C253.819829,65.241308 253.819829,61.1943103 253.786299,55.8413178 C223.884828,55.6202055 196.183646,62.7075207 170.433172,77.8394214 C162.24471,82.6548445 154.497045,88.1770758 147.279526,94.3424301 C144.861256,96.3912208 142.494439,98.537329 140.179074,100.780755 L99.552143,78.4233267 L77.170285,66.1305828 L42.408944,47 C13.9191702,98.012789 32.3127001,162.356732 83.514384,190.794372 L33.2092285,286.416554 C113.166304,328.074385 211.908228,297.3408 253.786299,217.761579 L254.974853,215.226201 L253.863478,215.226201 C213.343635,214.530645 180.856108,181.643227 180.836877,141.300712 Z" id="Shape" stroke="#2D6FE2" stroke-width="12" fill="#FFFFFF" stroke-linecap="round" stroke-linejoin="round"></path>
                <path d="M42.0550596,47.0769231 L18.6010129,34 C-16.9173049,98.1230769 6.49075351,179.338462 70.383869,215 L83,191.138462 C58.5337587,177.485212 40.474502,154.636284 32.7956836,127.618968 C25.1168653,100.601652 28.4476037,71.6294525 42.0550596,47.0769231 Z" id="Shape" stroke="#2D6FE2" stroke-width="12" fill="#FFFFFF" stroke-linecap="round" stroke-linejoin="round"></path>
                <path d="M254,158 L254,217 C281.557842,216.954122 305.275211,197.487247 311,170.278632 L254,158 Z" id="Shape" stroke="#2D6FE2" stroke-width="12" fill="#FFFFFF" stroke-linecap="round" stroke-linejoin="round"></path>
                <path d="M324.149858,82.7517378 C306.839267,67.0206843 284.674872,57.6597539 261.318511,56.2154916 C259.02281,56.0923535 256.696294,56.0153923 254.431407,56 L254,56 C254,56.3694141 254,158.343098 254,158.343098 L355.858271,180 C363.256817,144.262438 351.198354,107.279683 324.149858,82.7517378 Z" id="Shape" stroke="#2D6FE2" stroke-width="12" fill="#FFFFFF" stroke-linecap="round" stroke-linejoin="round"></path>
                <path d="M169.524209,77.7184438 L144.561167,23 C121.095612,33.5014033 104.141813,54.5799345 99,79.6458576 L139.615586,102 C148.800152,93.1917194 158.523116,84.148827 169.524209,77.7184438 Z" id="Shape" stroke="#2D6FE2" stroke-width="12" fill="#FFFFFF" stroke-linecap="round" stroke-linejoin="round"></path>
                <path d="M144.07626,22.1586928 L134.826285,0 C106.559535,12.6296674 85.3826768,37.0509107 77,66.6855199 L99.4192815,79 C104.563301,53.9486926 120.600635,32.6539728 144.07626,22.1586928 Z" id="Shape" stroke="#2D6FE2" stroke-width="12" fill="#FFFFFF" stroke-linecap="round" stroke-linejoin="round"></path>
                <path d="M0,349.114623 C18.6874762,358.888786 40.8326826,359.613414 60.1231867,351.081955 C79.4136908,342.550496 93.7332088,325.698902 99,305.330674 C75.8333609,303.99277 53.2198581,297.7434 32.67,287 L0,349.114623 Z" id="Shape" stroke="#2D6FE2" stroke-width="12" fill="#FFFFFF" stroke-linecap="round" stroke-linejoin="round"></path>
                <circle id="Oval" fill="#2D6FE2" cx="230.5" cy="137.5" r="13.5"></circle>
            </g>
        </g>
    </g>
</svg>