<?xml version="1.0" encoding="UTF-8"?>
<svg width="2855px" height="913px" viewBox="0 0 2855 913" version="1.1" xmlns="http://www.w3.org/2000/svg" xmlns:xlink="http://www.w3.org/1999/xlink">
    <!-- Generator: Sketch 58 (84663) - https://sketch.com -->
    <title>berty_technologies_line</title>
    <desc>Created with Sketch.</desc>
    <g id="Page-1" stroke="none" stroke-width="1" fill="none" fill-rule="evenodd">
        <g id="berty_line" transform="translate(22.000000, 18.000000)">
            <path d="M1208.74197,190.332079 C1194.22323,190.036075 1179.77316,192.407277 1166.10699,197.328317 L1166.10699,0 L1056,0 L1056,526.724962 C1087.01766,546.136655 1135.86191,564 1195.55089,564 C1315.73003,564 1401,492.517946 1401,371.316726 C1401,263.362481 1311.06594,190.332079 1208.74197,190.332079 Z M1203.31207,464.992715 C1190.53388,465.14953 1177.85156,462.773144 1166,458.00126 L1166,298.114688 C1174.61048,292.670522 1192.43417,288 1207.99044,288 C1251.55945,288 1292,322.957279 1292,374.963395 C1292,428.516801 1257.8451,464.992715 1203.31207,464.992715 Z" id="Shape" stroke="#000000" stroke-width="20" stroke-linecap="round" stroke-linejoin="round"></path>
            <path d="M1961.83107,256.163965 L1958.79599,201 L1854,201 L1854,553 L1967.38583,553 L1967.38583,413.943227 C1967.38583,329.276289 2023.21976,293.522929 2083.74946,293.522929 L2093.05512,293.522929 L2094,202.576932 C2036.47674,202.519589 1983.56335,211.809156 1961.83107,256.163965 Z" id="Shape" stroke="#000000" stroke-width="20" stroke-linecap="round" stroke-linejoin="round"></path>
            <path d="M2294.47098,92 L2185.66359,133.202133 L2185.66359,201.604561 L2144,201.604561 L2144.74604,294.9119 L2183.31069,294.9119 L2183.31069,438.746367 C2183.31069,509.472871 2236.16491,560 2313.89677,560 C2336.47889,560 2355.90468,556.901233 2367.55442,551.392312 L2376.1626,458.113666 C2366.06234,462.015817 2354.4126,463.565201 2339.63522,463.565201 C2313.95415,463.565201 2296.10653,448.788671 2296.10653,422.363068 L2296.10653,294.997977 L2396.39182,294.997977 L2405,201.690638 L2294.47098,201.690638 L2294.47098,92 Z" id="Shape" stroke="#000000" stroke-width="20" stroke-linecap="round" stroke-linejoin="round"></path>
            <path d="M2704.77756,201.114797 L2651.96908,339.531122 C2643.7161,361.665961 2636.71924,384.249981 2631.01196,407.175177 L2629.43517,407.175177 C2622.4399,381.518077 2615.44464,358.960492 2607.70398,338.756243 L2555.6409,201 L2443,201 L2574.27582,535.374581 C2540.87631,616.248975 2506.73141,648.133805 2452.31746,666.042117 L2498.93342,740 C2583.59327,719.020872 2641.07482,646.698844 2688.46484,523.033918 L2812,201.114797 L2704.77756,201.114797 Z" id="Shape" stroke="#000000" stroke-width="20" stroke-linecap="round" stroke-linejoin="round"></path>
            <path d="M1631.81997,190 C1532.91074,190 1448,260.736592 1448,375.062994 C1448,490.135502 1539.11951,564 1654.38426,564 C1701.12254,564 1735.38578,555.391084 1759.53101,543.91253 L1769.67776,449.845776 C1739.29501,467.723624 1708.13616,477.078646 1667.6354,477.078646 C1605.3177,477.078646 1572.60666,441.294253 1564.15582,410.18737 L1716.93192,410.617816 C1716.93192,410.617816 1780.51437,410.617816 1787.58548,364.703599 C1787.58548,364.703599 1790,341.488222 1790,330.06706 C1789.91376,257.608686 1729.9531,190 1631.81997,190 Z M1685.15159,337 L1561,337 C1568.76126,301.017502 1598.23116,276 1632.3979,276 C1664.98948,276 1685.95349,301.017502 1685.95349,329.151372 C1686.11762,331.784715 1685.84664,334.427243 1685.15159,336.971145 L1685.15159,337 Z" id="Shape" stroke="#000000" stroke-width="20" stroke-linecap="round" stroke-linejoin="round"></path>
            <path d="M437.806918,345.903674 C437.806918,343.131493 437.869407,340.3718 437.994383,337.624594 C442.306076,242.021828 521.153807,166.28128 617.885689,166.056509 C617.967132,159.373986 617.967132,149.354331 617.885689,135.997543 C545.255973,135.458475 475.083728,154.294692 412.536652,191.186031 C392.647139,202.925958 373.828307,216.389073 356.297185,231.420111 C350.423286,236.415031 344.674362,241.647209 339.050416,247.116646 L240.368899,192.609583 L186.004081,162.640064 L101.569896,116 C32.3691469,240.368389 77.0464425,397.237923 201.413695,466.56845 L79.2240815,699.693848 C273.437262,801.254994 513.278235,726.326989 614.99873,532.314083 L617.885689,526.13287 L615.186195,526.13287 C516.764794,524.437115 437.85363,444.2581 437.806918,345.903674 Z" id="Shape" stroke="#000000" stroke-width="20" stroke-linecap="round" stroke-linejoin="round"></path>
            <path d="M101.912368,115.789205 L44.5802538,84 C-42.2423008,239.879303 14.9773975,437.308967 171.160569,524 L202,465.99405 C142.193632,432.803831 98.0487827,377.259474 79.2783378,311.582021 C60.5078929,245.904568 68.649698,175.474912 101.912368,115.789205 Z" id="Shape" stroke="#000000" stroke-width="20" stroke-linecap="round" stroke-linejoin="round"></path>
            <path d="M618,385 L618,527 C685.202457,526.889581 743.03955,480.037102 757,414.551962 L618,385 Z" id="Shape" stroke="#000000" stroke-width="20" stroke-linecap="round" stroke-linejoin="round"></path>
            <path d="M788.653019,201.153426 C746.541679,162.840699 692.622525,140.042304 635.803686,136.524826 C630.218951,136.224926 624.559253,136.037488 619.04948,136 L618,136 C618,136.899702 618,385.254965 618,385.254965 L865.789833,438 C883.788217,350.961745 854.453689,260.89084 788.653019,201.153426 Z" id="Shape" stroke="#000000" stroke-width="20" stroke-linecap="round" stroke-linejoin="round"></path>
            <path d="M412,190.961688 L350.373531,54 C293.527398,79.655327 252.456223,131.150979 240,192.387981 L338.392686,247 C360.642621,225.481036 385.349465,206.671358 412,190.961688 Z" id="Shape" stroke="#000000" stroke-width="20" stroke-linecap="round" stroke-linejoin="round"></path>
            <path d="M351,54.6927114 L326.313779,0 C257.725341,30.854757 206.340319,90.5167818 186,162.915258 L240.399727,193 C252.881539,131.798705 294.037087,80.333079 351,54.6927114 Z" id="Shape" stroke="#000000" stroke-width="20" stroke-linecap="round" stroke-linejoin="round"></path>
            <path d="M0,850.849799 C45.3029725,874.587051 98.9883215,876.346863 145.75318,855.627606 C192.518038,834.908348 227.232021,793.983047 240,744.517352 C183.838451,741.268156 129.017838,726.091113 79.2,700 L0,850.849799 Z" id="Shape" stroke="#000000" stroke-width="20" stroke-linecap="round" stroke-linejoin="round"></path>
            <circle id="Oval" fill="#000000" fill-rule="nonzero" cx="560" cy="335" r="32"></circle>
        </g>
        <text id="technologies" font-family="Agenda-Bold, Agenda" font-size="250" font-weight="bold" letter-spacing="-0.771604938" fill="#000000">
            <tspan x="1063" y="798">technologies</tspan>
        </text>
    </g>
</svg>