<svg xmlns="http://www.w3.org/2000/svg" xmlns:xlink="http://www.w3.org/1999/xlink" width="488" height="488" version="1.1" viewBox="0 0 488 488"><title>berty_bot_circle</title><desc>Created with Sketch.</desc><g id="Page-1" fill="none" fill-rule="evenodd" stroke="none" stroke-width="1"><g id="developer" fill-rule="nonzero" transform="translate(64.000000, 43.000000)"><g id="Group" transform="translate(46.094646, 80.692308)"><path id="Shape" fill="#2D6FE2" d="M144.504779,90.3514793 C144.504779,89.2650888 144.52603,88.1786982 144.579156,87.1029586 C146.268587,49.5266272 177.985261,19.5869822 215.864639,19.5017751 C215.90714,12.4828402 215.120864,7.92426036 215.120864,7.76449704 C215.258994,7.76449704 215.397123,7.75384615 215.524627,7.75384615 C194.242049,7.55147929 173.214478,11.7798817 153.75946,19.9597633 C147.171742,22.7289941 140.77528,25.9455621 134.601951,29.5988166 C126.845445,34.1893491 119.460826,39.4615385 112.543722,45.4153846 C110.238021,47.3964497 107.985446,49.452071 105.785998,51.5822485 L67.1415954,30.1420118 L45.8483912,18.3408284 L12.7716724,0.0106508876 C-14.3442244,48.8982249 3.17698006,110.545562 51.8835908,137.779882 L4.01638282,229.398817 C4.02700817,229.398817 4.02700817,229.409467 4.03763353,229.409467 C24.2151758,239.99645 45.6571349,245.662722 67.0034658,246.908876 C126.144172,250.370414 184.626106,219.653254 213.898949,163.629586 L215.025236,161.211834 C214.674599,161.211834 214.313337,161.211834 213.962701,161.201183 C175.498929,160.540828 144.504779,129.078107 144.504779,90.3514793 Z"/><path id="Shape" fill="#F7B352" d="M162.907887,131.538462 C152.155032,119.694675 145.344182,104.186982 144.579156,87.1029586 C144.52603,88.1786982 144.504779,89.2650888 144.504779,90.3514793 C144.504779,129.078107 175.488303,160.551479 213.973326,161.201183 C214.387715,161.211834 214.791478,161.211834 215.205867,161.211834 L215.205867,154.704142 C194.486432,154.714793 175.83894,145.778698 162.907887,131.538462 Z"/><path id="Shape" fill="#FFF" d="M215.035861,19.4911243 C177.156484,19.5763314 146.279213,49.5266272 144.579156,87.1029586 C145.344182,104.186982 152.155032,119.694675 162.907887,131.538462 C175.83894,145.778698 194.475806,154.714793 215.205867,154.714793 L215.205867,19.4804734 C215.15274,19.4804734 215.099613,19.4804734 215.035861,19.4911243 Z"/></g><g id="Group" transform="translate(19.000000, 35.000000)"><path id="Shape" fill="#F7B352" d="M39.8663184,45.7029586 L17.4043256,33.1775148 C-16.6286749,94.5372781 5.80144186,172.267456 67.0140912,206.382249 L79.1057411,183.546746 C30.2928768,156.344379 12.729171,94.6331361 39.8663184,45.7029586 Z"/><g transform="translate(205.151758, 38.360947)"><path id="Shape" fill="#F49A18" d="M37.0637521,112.977515 L37.0637521,168.511243 C37.0850028,168.511243 37.1168789,168.511243 37.1381296,168.511243 C63.7440094,168.47929 85.9509938,149.63787 91.2530442,124.544379 L37.0637521,112.977515 Z"/><path id="rect3381-0" fill="#6350C8" d="M82.3637147,79.9500628 C79.9945466,79.9500628 78.0872388,81.8573662 78.0872388,84.2265334 L78.0872388,95.0958893 C72.5555046,96.4691236 67.2312415,98.6793143 62.2286686,101.688785 L54.5666617,94.026775 C52.8914099,92.3515222 50.1835823,92.3515222 48.50833,94.026775 L34.609806,107.925296 C32.9345546,109.600553 32.9345546,112.308373 34.609806,113.983631 L42.2718133,121.645643 C39.2858985,126.633602 37.2154531,132.018238 35.8571107,137.504208 L24.9877514,137.504208 C22.6185877,137.504208 20.7112825,139.411512 20.7112825,141.780662 L20.7112825,161.381151 C20.7112825,163.75032 22.6185877,165.657623 24.9877514,165.657623 L35.6789243,165.657623 C37.0519315,171.194289 39.2598184,176.509413 42.2718133,181.516192 L34.609806,189.178203 C32.9345546,190.853448 32.9345546,193.561281 34.609806,195.236543 L48.50833,209.13506 C50.1835828,210.810309 52.8914099,210.810309 54.5666617,209.13506 L62.2286686,201.473054 C67.2531019,204.503379 72.5545343,206.51402 78.0872388,207.887756 L78.0872388,218.757115 C78.0872388,221.126283 79.9945466,223.033586 82.3637147,223.033586 L101.964203,223.033586 C104.333354,223.033586 106.240657,221.126283 106.240657,218.757119 L106.240657,207.887756 C111.785188,206.521353 117.084532,204.481622 122.09923,201.473054 L129.761241,209.13506 C131.436498,210.810309 134.144318,210.810309 135.819576,209.13506 L149.718097,195.236543 C151.393346,193.561281 151.393346,190.853448 149.718097,189.178203 L142.056086,181.516192 C145.071804,176.518472 147.272585,171.160687 148.648977,165.657627 L159.518339,165.657627 C161.887503,165.657623 163.794806,163.75032 163.794806,161.381151 L163.794806,141.78068 C163.794806,139.411512 161.887503,137.504208 159.518339,137.504208 L148.648977,137.504208 C147.284027,132.005852 145.037602,126.622366 142.056086,121.645643 L149.718097,113.983631 C151.393346,112.308373 151.393346,109.600553 149.718097,107.925296 L135.819576,94.026775 C134.144318,92.3515222 131.436498,92.3515222 129.761241,94.026775 L122.09923,101.688785 C117.092026,98.6833359 111.750902,96.4594038 106.240657,95.0958893 L106.240657,84.2265334 C106.240657,81.8573662 104.333354,79.9500628 101.964203,79.9500628 L82.3637147,79.9500628 Z M91.4512041,124.496612 C98.3802205,124.312674 105.446534,126.655874 110.873505,131.802245 C121.727432,142.094985 122.235351,159.258351 111.94262,170.112283 C101.675286,180.939418 84.4955161,181.41086 73.6325837,171.181398 C62.7786579,160.888658 62.2707316,143.725292 72.5634681,132.87136 C77.7098426,127.444399 84.5221922,124.680503 91.4512041,124.496617 L91.4512041,124.496612 Z" transform="translate(92.253044, 151.491824) rotate(12.000000) translate(-92.253044, -151.491824)"/><path id="Shape" fill="#F7B352" d="M103.929088,40.6686391 C87.8954331,26.0769231 67.0378684,16.7360947 44.044608,15.287574 C41.8557856,15.1704142 39.6669632,15.095858 37.4781408,15.0745562 C37.3400112,15.0745562 37.2018817,15.0852071 37.0743775,15.0852071 C37.0743775,15.4473373 37.0743775,112.977515 37.0743775,112.977515 L134.168838,133.68284 C135.497007,127.228402 136.208906,120.550296 136.208906,113.701775 C136.187655,84.7526627 123.745369,58.7112426 103.929088,40.6686391 Z"/></g><g id="Shape"><g><path fill="#225EC6" d="M88.7960615,75.2804734 L64.6340125,21.5573964 C41.4813718,32.0272189 26.095863,52.6686391 21.3463309,75.8343195 L60.0013593,97.2532544 C68.7778995,88.7431953 78.46822,81.3940828 88.7960615,75.2804734 Z" transform="translate(72.889910, 0.000000)"/><path fill="#F7B352" d="M21.3463309,75.8343195 C26.1064884,52.6686391 41.4813718,32.0272189 64.6340125,21.5573964 L54.9755681,0.0852071006 C27.0521446,12.7065089 7.77775721,36.6284024 0.0425014055,64.0224852 L21.3463309,75.8343195 Z" transform="translate(72.889910, 0.000000)"/></g><path fill="#6350C8" d="M0.0743774597,334.416568 C32.1629386,351.298225 71.8273754,338.911243 88.6685573,306.745562 C91.0698867,302.15503 92.8655711,297.415385 94.0981119,292.601183 C72.7411556,291.35503 51.3098218,285.688757 31.1322796,275.101775 L0.0743774597,334.416568 Z"/></g><ellipse id="Oval" cx="219.541" cy="131.613" fill="#000" rx="12.665" ry="12.696"/></g></g></g></svg>