<svg xmlns="http://www.w3.org/2000/svg" xmlns:xlink="http://www.w3.org/1999/xlink" width="488" height="488" version="1.1" viewBox="0 0 488 488"><title>berty_bot_circle</title><desc>Created with Sketch.</desc><g id="Page-1" fill="none" fill-rule="evenodd" stroke="none" stroke-width="1"><g id="bot-purple" fill-rule="nonzero" transform="translate(47.000000, 24.000000)"><path id="Shape" fill="#B7AFE5" d="M226.002533,231.230769 C215.249678,219.386982 208.438828,203.87929 207.673802,186.795266 C207.620676,187.871006 207.599425,188.957396 207.599425,190.043787 C207.599425,228.770414 238.582949,260.243787 277.067972,260.893491 C277.482361,260.904142 277.886124,260.904142 278.300513,260.904142 L278.300513,254.39645 C257.581078,254.407101 238.933586,245.471006 226.002533,231.230769 Z"/><path id="Shape" fill="#EFEDF9" d="M278.130507,119.183432 C240.25113,119.268639 209.373859,149.218935 207.673802,186.795266 C208.438828,203.87929 215.249678,219.386982 226.002533,231.230769 C238.933586,245.471006 257.570452,254.407101 278.300513,254.407101 L278.300513,119.172781 C278.247386,119.172781 278.194259,119.172781 278.130507,119.183432 Z"/><g id="Group" transform="translate(36.000000, 26.000000)"><g id="Group-2" fill="#6350C8" transform="translate(0.000000, 18.000000)"><path id="Shape" d="M39.8663184,55.7029586 L17.4043256,43.1775148 C-16.6286749,104.537278 5.80144186,182.267456 67.0140912,216.382249 L79.1057411,193.546746 C30.2928768,166.344379 12.729171,104.633136 39.8663184,55.7029586 Z"/><path id="Shape" d="M94.2362414,85.8343195 C98.9963988,62.6686391 114.371282,42.0272189 137.523923,31.5573964 L127.865479,10.0852071 C99.9420551,22.7065089 80.6676677,46.6284024 72.9324119,74.0224852 L94.2362414,85.8343195 Z"/><path id="Shape" d="M0.0743774597,344.416568 C32.1629386,361.298225 71.8273754,348.911243 88.6685573,316.745562 C91.0698867,312.15503 92.8655711,307.415385 94.0981119,302.601183 C72.7411556,301.35503 51.3098218,295.688757 31.1322796,285.101775 L0.0743774597,344.416568 Z"/><path id="wheel" d="M210.813404,110.228467 C210.060798,110.228467 209.454909,110.834354 209.454909,111.58696 L209.454909,115.039795 C207.69766,115.476026 206.006318,116.17813 204.417166,117.13414 L201.983201,114.700173 C201.451028,114.168 200.590841,114.168 200.058669,114.700173 L195.643568,119.115273 C195.111396,119.647446 195.111396,120.507631 195.643568,121.039805 L198.077534,123.473773 C197.129008,125.058283 196.471296,126.768803 196.039795,128.511514 L192.58696,128.511514 C191.834355,128.511514 191.228467,129.117401 191.228467,129.870002 L191.228467,136.096429 C191.228467,136.849035 191.834355,137.454922 192.58696,137.454922 L195.983192,137.454922 C196.41935,139.213738 197.120723,140.902177 198.077534,142.492665 L195.643568,144.926632 C195.111396,145.458802 195.111396,146.318991 195.643568,146.851166 L200.058669,151.266265 C200.590841,151.798436 201.451028,151.798436 201.983201,151.266265 L204.417166,148.832299 C206.013263,149.794933 207.697352,150.433647 209.454909,150.870038 L209.454909,154.322873 C209.454909,155.075479 210.060798,155.681367 210.813404,155.681367 L217.039831,155.681367 C217.792431,155.681367 218.398318,155.075479 218.398318,154.322874 L218.398318,150.870038 C220.159632,150.435977 221.843059,149.788021 223.436062,148.832299 L225.870029,151.266265 C226.402203,151.798436 227.262388,151.798436 227.794562,151.266265 L232.209662,146.851166 C232.741833,146.318991 232.741833,145.458802 232.209662,144.926632 L229.775695,142.492665 C230.733688,140.905054 231.432804,139.203063 231.870038,137.454924 L235.322875,137.454924 C236.075479,137.454922 236.681367,136.849035 236.681367,136.096429 L236.681367,129.870008 C236.681367,129.117401 236.075479,128.511514 235.322875,128.511514 L231.870038,128.511514 C231.436439,126.764868 230.722824,125.054713 229.775695,123.473773 L232.209662,121.039805 C232.741833,120.507631 232.741833,119.647446 232.209662,119.115273 L227.794562,114.700173 C227.262388,114.168 226.402203,114.168 225.870029,114.700173 L223.436062,117.13414 C221.845439,116.179408 220.148741,115.472938 218.398318,115.039795 L218.398318,111.58696 C218.398318,110.834354 217.792431,110.228467 217.039831,110.228467 L210.813404,110.228467 Z M213.700199,124.379431 C215.901318,124.321 218.146052,125.065358 219.870021,126.700189 C223.317954,129.969852 223.479303,135.422085 220.209643,138.87002 C216.948051,142.309443 211.490607,142.459204 208.039813,139.209643 C204.59188,135.93998 204.430529,130.487747 207.70019,127.039812 C209.335023,125.315846 211.499081,124.437848 213.700199,124.379433 L213.700199,124.379431 Z" transform="translate(213.954917, 132.954917) rotate(12.000000) translate(-213.954917, -132.954917)"/><circle id="Oval-3" cx="224.5" cy="17.5" r="17.5"/><polygon id="Path-3" points="221 34.402 216.009 66.519 232.896 66.519 228.133 34.402"/></g><path id="Path-4" stroke="#6350C8" stroke-linecap="round" stroke-width="8" d="M188.145526,11.561367 C181.261815,20.3990803 178.408739,29.759133 179.5863,39.6415251 C180.763861,49.5239171 185.628897,57.8311627 194.181409,64.5632618"/><path id="Path-5" stroke="#6350C8" stroke-linecap="round" stroke-width="8" d="M171.736424,0.1842563 C163.338519,9.09048256 159.139566,21.5341116 159.139566,37.5151434 C159.139566,53.4961752 166.072838,66.3794348 179.939383,76.164922"/><path id="Path-4-Copy" stroke="#6350C8" stroke-linecap="round" stroke-width="8" d="M264.145526,11.561367 C257.261815,20.3990803 254.408739,29.759133 255.5863,39.6415251 C256.763861,49.5239171 261.628897,57.8311627 270.181409,64.5632618" transform="translate(262.754844, 38.062314) scale(-1, 1) translate(-262.754844, -38.062314)"/><path id="Path-5-Copy" stroke="#6350C8" stroke-linecap="round" stroke-width="8" d="M281.736424,0.1842563 C273.338519,9.09048256 269.139566,21.5341116 269.139566,37.5151434 C269.139566,53.4961752 276.072838,66.3794348 289.939383,76.164922" transform="translate(279.539475, 38.174589) scale(-1, 1) translate(-279.539475, -38.174589)"/><path id="Shape" fill="#846EFE" d="M171.599425,164.043787 C171.599425,162.957396 171.620676,161.871006 171.673802,160.795266 C173.363233,123.218935 205.079907,93.2792899 242.959285,93.1940828 C243.001786,86.1751479 242.21551,81.616568 242.21551,81.4568047 C242.35364,81.4568047 242.491769,81.4461538 242.619273,81.4461538 C221.336695,81.243787 200.309124,85.4721893 180.854106,93.652071 C174.266388,96.4213018 167.869927,99.6378698 161.696597,103.291124 C153.940091,107.881657 146.555472,113.153846 139.638368,119.107692 C137.332667,121.088757 135.080092,123.144379 132.880644,125.274556 L94.2362414,103.83432 L72.9430373,92.0331361 L39.8663184,73.7029586 C12.7504217,122.590533 30.2716261,184.23787 78.9782368,211.472189 L31.1110289,303.091124 C31.1216542,303.091124 31.1216542,303.101775 31.1322796,303.101775 C51.3098218,313.688757 72.7517809,319.35503 94.0981119,320.601183 C153.238818,324.062722 211.720752,293.345562 240.993595,237.321893 L242.119882,234.904142 C241.769245,234.904142 241.407983,234.904142 241.057347,234.893491 C202.593575,234.233136 171.599425,202.770414 171.599425,164.043787 Z"/><path id="Shape" fill="#7561E3" d="M161.685972,103.280473 L137.523923,49.5573964 C114.371282,60.0272189 98.9857735,80.6686391 94.2362414,103.83432 L132.89127,125.253254 C141.66781,116.743195 151.35813,109.394083 161.685972,103.280473 Z"/><path id="Shape" fill="#B7AFE5" d="M242.21551,179.338462 L242.21551,234.872189 C242.236761,234.872189 242.268637,234.872189 242.289888,234.872189 C268.895767,234.840237 291.102752,215.998817 296.404802,190.905325 L242.21551,179.338462 Z"/><path id="Shape" fill="#C0B8F0" d="M309.080846,107.029586 C293.047191,92.4378698 272.189626,83.0970414 249.196366,81.6485207 C247.007544,81.5313609 244.818721,81.4568047 242.629899,81.435503 C242.491769,81.435503 242.35364,81.4461538 242.226135,81.4461538 C242.226135,81.808284 242.226135,179.338462 242.226135,179.338462 L339.320596,200.043787 C340.648765,193.589349 341.360664,186.911243 341.360664,180.062722 C341.339413,151.113609 328.897127,125.072189 309.080846,107.029586 Z"/></g></g></g></svg>