<svg xmlns="http://www.w3.org/2000/svg" xmlns:xlink="http://www.w3.org/1999/xlink" width="488" height="488" version="1.1" viewBox="0 0 488 488"><title>berty_bot_circle</title><desc>Created with Sketch.</desc><g id="Page-1" fill="none" fill-rule="evenodd" stroke="none" stroke-width="1"><g id="pnj" fill-rule="nonzero" transform="translate(83.000000, 43.000000)"><g id="Group" transform="translate(27.094646, 80.692308)"><path id="Shape" fill="#6350C8" d="M144.504779,90.3514793 C144.504779,89.2650888 144.52603,88.1786982 144.579156,87.1029586 C146.268587,49.5266272 177.985261,19.5869822 215.864639,19.5017751 C215.90714,12.4828402 215.120864,7.92426036 215.120864,7.76449704 C215.258994,7.76449704 215.397123,7.75384615 215.524627,7.75384615 C194.242049,7.55147929 173.214478,11.7798817 153.75946,19.9597633 C147.171742,22.7289941 140.77528,25.9455621 134.601951,29.5988166 C126.845445,34.1893491 119.460826,39.4615385 112.543722,45.4153846 C110.238021,47.3964497 107.985446,49.452071 105.785998,51.5822485 L67.1415954,30.1420118 L45.8483912,18.3408284 L12.7716724,0.0106508876 C-14.3442244,48.8982249 3.17698006,110.545562 51.8835908,137.779882 L4.01638282,229.398817 C4.02700817,229.398817 4.02700817,229.409467 4.03763353,229.409467 C24.2151758,239.99645 45.6571349,245.662722 67.0034658,246.908876 C126.144172,250.370414 184.626106,219.653254 213.898949,163.629586 L215.025236,161.211834 C214.674599,161.211834 214.313337,161.211834 213.962701,161.201183 C175.498929,160.540828 144.504779,129.078107 144.504779,90.3514793 Z"/><path id="Shape" fill="#F7B352" d="M162.907887,131.538462 C152.155032,119.694675 145.344182,104.186982 144.579156,87.1029586 C144.52603,88.1786982 144.504779,89.2650888 144.504779,90.3514793 C144.504779,129.078107 175.488303,160.551479 213.973326,161.201183 C214.387715,161.211834 214.791478,161.211834 215.205867,161.211834 L215.205867,154.704142 C194.486432,154.714793 175.83894,145.778698 162.907887,131.538462 Z"/><path id="Shape" fill="#FFF" d="M215.035861,19.4911243 C177.156484,19.5763314 146.279213,49.5266272 144.579156,87.1029586 C145.344182,104.186982 152.155032,119.694675 162.907887,131.538462 C175.83894,145.778698 194.475806,154.714793 215.205867,154.714793 L215.205867,19.4804734 C215.15274,19.4804734 215.099613,19.4804734 215.035861,19.4911243 Z"/></g><g id="Group" transform="translate(0.000000, 35.000000)"><path id="Shape" fill="#F7B352" d="M39.8663184,45.7029586 L17.4043256,33.1775148 C-16.6286749,94.5372781 5.80144186,172.267456 67.0140912,206.382249 L79.1057411,183.546746 C30.2928768,156.344379 12.729171,94.6331361 39.8663184,45.7029586 Z"/><g id="Shape"><path fill="#F49A18" d="M37.0637521,112.977515 L37.0637521,168.511243 C37.0850028,168.511243 37.1168789,168.511243 37.1381296,168.511243 C63.7440094,168.47929 85.9509938,149.63787 91.2530442,124.544379 L37.0637521,112.977515 Z" transform="translate(205.151758, 38.360947)"/><path fill="#F7B352" d="M103.929088,40.6686391 C87.8954331,26.0769231 67.0378684,16.7360947 44.044608,15.287574 C41.8557856,15.1704142 39.6669632,15.095858 37.4781408,15.0745562 C37.3400112,15.0745562 37.2018817,15.0852071 37.0743775,15.0852071 C37.0743775,15.4473373 37.0743775,112.977515 37.0743775,112.977515 L134.168838,133.68284 C135.497007,127.228402 136.208906,120.550296 136.208906,113.701775 C136.187655,84.7526627 123.745369,58.7112426 103.929088,40.6686391 Z" transform="translate(205.151758, 38.360947)"/></g><g id="Shape"><g><path fill="#5844BF" d="M88.7960615,75.2804734 L64.6340125,21.5573964 C41.4813718,32.0272189 26.095863,52.6686391 21.3463309,75.8343195 L60.0013593,97.2532544 C68.7778995,88.7431953 78.46822,81.3940828 88.7960615,75.2804734 Z" transform="translate(72.889910, 0.000000)"/><path fill="#F7B352" d="M21.3463309,75.8343195 C26.1064884,52.6686391 41.4813718,32.0272189 64.6340125,21.5573964 L54.9755681,0.0852071006 C27.0521446,12.7065089 7.77775721,36.6284024 0.0425014055,64.0224852 L21.3463309,75.8343195 Z" transform="translate(72.889910, 0.000000)"/></g><path fill="#D735A1" d="M0.0743774597,334.416568 C32.1629386,351.298225 71.8273754,338.911243 88.6685573,306.745562 C91.0698867,302.15503 92.8655711,297.415385 94.0981119,292.601183 C72.7411556,291.35503 51.3098218,285.688757 31.1322796,275.101775 L0.0743774597,334.416568 Z"/></g><ellipse id="Oval" cx="219.541" cy="131.613" fill="#000" rx="12.665" ry="12.696"/></g><path id="Path" fill="#DB40A7" d="M149.432294,139.794039 C146.061904,138.782965 142.027671,138.703891 137.329593,139.556818 C132.631515,140.409745 127.051987,142.222644 120.591008,144.995514 C126.024565,151.283665 130.711642,155.844961 134.652238,158.679402 C140.563134,162.931064 143.015194,164.271817 145.136076,163.582701 C147.256957,162.893585 152.239208,159.493762 153.571193,152.532261 C154.459183,147.891261 153.07955,143.645186 149.432294,139.794039 Z" transform="translate(137.211500, 151.362735) scale(-1, 1) rotate(23.000000) translate(-137.211500, -151.362735)"/><path id="Path-2" fill="#ED4CB7" d="M268.910364,115.937203 L251.392334,117.698363 C239.176447,128.023479 229.791564,134.982327 223.237685,138.574907 C216.683805,142.167488 207.49215,145.391572 195.66272,148.247159 C179.550307,144.153717 168.338381,140.573487 162.026943,137.50647 C152.257721,132.759156 145.691836,123.442072 138.157704,120.355291 C123.322397,114.277172 113.947381,111.880069 110.032656,113.163982 L143.174448,88.7491363 L158.284671,41.9569441 C175.405895,36.397105 188.536376,33.3781099 197.676113,32.8999586 C206.81585,32.4218073 219.454273,34.0926856 235.591384,37.9125933 C252.412326,47.8133004 262.89281,57.6111016 267.032838,67.3059969 C271.172865,77.0008922 271.798707,93.2112942 268.910364,115.937203 Z" transform="translate(190.361744, 90.533664) rotate(-20.000000) translate(-190.361744, -90.533664)"/><g id="cap" fill="#D735A1" transform="translate(185.516163, 92.619370) scale(-1, 1) rotate(18.000000) translate(-185.516163, -92.619370) translate(93.016163, 26.119370)"><g id="Group" transform="translate(92.892780, 66.799526) scale(-1, 1) rotate(-183.000000) translate(-92.892780, -66.799526) translate(3.943816, 5.254826)"><path id="Shape" d="M68.120613,123.018367 C67.4598395,122.950806 65.3395555,122.712562 63.4280324,122.508099 C45.2839925,120.600373 27.9368744,114.302922 18.0652097,106.063964 C15.3894404,103.850433 11.426615,99.3913676 9.13206113,96.0203998 C0.756213203,83.6957432 -1.8160834,67.1164843 1.24271672,44.9189456 C1.93798108,39.9140541 3.36300072,32.9356529 4.05826508,31.2323896 C4.96047497,29.0206365 5.41248757,28.9192941 15.3204585,28.9192941 L24.0448463,28.9192941 L28.8753906,24.3233279 C42.9531324,11.0119165 57.6226658,2.63605714 70.7274005,0.458084787 C75.594251,-0.359766055 83.5543926,-0.052183021 88.6281886,1.13903451 C99.2296086,3.5908091 107.781542,7.84541141 125.960073,19.8642629 L134.998509,25.7883477 L138.821556,22.2822567 C146.226212,15.5083182 152.204033,11.1488176 157.417608,8.69882098 C160.129684,7.44004186 160.650678,7.30314074 163.188484,7.30314074 C165.655492,7.30314074 166.247284,7.44004186 168.298586,8.42679668 C172.504663,10.4358651 175.737733,15.0318312 177.300716,21.12482 C178.900006,27.2533675 177.197244,34.8451568 173.268909,39.0997591 C172.642627,39.7807088 164.161491,45.6016733 154.393299,52.0715846 L136.664965,63.8166339 L130.512874,83.391716 C127.14184,94.1500104 123.943261,103.750868 123.491249,104.670061 C120.918952,109.674953 116.574911,113.929555 111.708061,116.347549 C109.725741,117.334304 102.635133,119.684736 98.7067989,120.671491 C91.2676518,122.543658 87.9655999,122.952584 78.3716778,123.053926 C73.4049852,123.11971 68.7813864,123.085929 68.120613,123.018367 Z M89.6719928,115.118995 C97.1456309,113.860216 105.174754,111.509784 109.277359,109.365592 C111.849655,107.969912 115.360468,104.394481 116.576727,101.875145 C117.132212,100.717708 120.053048,91.9684822 123.042867,82.4689669 L128.465203,65.1749775 L126.20514,64.9047311 C107.329529,62.7249808 87.1341871,58.6055017 66.0348199,52.7151977 C58.0056965,50.4678858 45.6996989,46.4177462 40.3826511,44.3055575 C37.5671027,43.1819016 36.036795,42.7391954 35.9678132,42.9774389 C33.9854928,48.9015237 32.2827305,55.540339 31.1354536,61.5995469 C26.8603946,84.4086957 31.4131962,100.648369 44.4489492,109.193132 C50.6718375,113.27883 55.7111426,114.57139 70.2064061,115.865728 C74.1347405,116.20887 85.7781493,115.766164 89.6719928,115.118995 Z M29.2239304,104.191796 C26.8948856,101.025291 24.1138281,93.6717455 23.0718392,87.9859042 C22.307593,83.729524 22.0643413,74.8451747 22.5508448,69.6020396 C23.315091,61.6688865 25.3300869,52.1035875 28.1456353,43.1836795 C28.7374269,41.3790739 29.1876242,39.7451501 29.1876242,39.5744682 C29.1876242,39.4037863 28.0403472,38.5183738 26.6153276,37.6685201 L24.043031,36.0683772 L17.2646573,36.0683772 L10.453608,36.0683772 L10.1068835,37.362715 C9.93261356,38.0436648 9.44611004,40.5292202 9.0648946,42.8778744 C6.00427916,61.3968622 7.25502889,76.9218047 12.713671,87.543198 C15.841453,93.6379647 21.1603161,99.6633919 26.5136701,103.169483 C28.2164324,104.259358 29.675943,105.178551 29.7467402,105.178551 C29.8502129,105.178551 29.6069612,104.735845 29.2239304,104.191796 Z M143.307191,50.6741265 C149.286827,46.7253292 154.360623,43.2867998 154.603875,43.0485563 C154.986906,42.7071925 154.638366,42.5045077 152.657861,42.0262428 C145.636235,40.3585382 138.336867,36.578645 123.389591,26.8426641 C109.624083,17.9227561 105.801037,15.6416635 99.7524184,12.7827414 C91.9320558,9.13974926 86.4044319,7.60894584 79.5915673,7.26758201 C66.3125626,6.58663229 51.5050655,13.6681538 35.2725488,28.3752455 C33.2557376,30.2136319 31.6219571,31.8137749 31.6219571,31.9844568 C31.6219571,32.3933822 37.2185629,35.1171811 42.1543952,37.0569099 C65.7915681,46.4195241 112.788171,57.5174045 129.924713,57.8249875 L132.49701,57.8587683 L143.307191,50.6741265 Z M166.040338,35.4887699 C168.612635,34.2975523 170.386194,30.4838783 170.455176,26.0248133 C170.524158,19.9993861 166.180117,13.7001567 162.495035,14.4842267 C160.374751,14.9269329 156.065201,17.5138307 151.545075,21.0892612 C148.520766,23.4379155 141.811374,29.3282195 141.811374,29.6002438 C141.811374,29.9416076 149.666227,33.5152602 152.27483,34.3331111 C157.802454,36.102158 163.676803,36.6124258 166.040338,35.4887699 Z"/></g></g></g></g></svg>