<svg xmlns="http://www.w3.org/2000/svg" xmlns:xlink="http://www.w3.org/1999/xlink" width="800" height="800" version="1.1" viewBox="0 0 800 800"><title>carte visite carree</title><desc>Created with Sketch.</desc><defs><linearGradient id="linearGradient-1" x1="50%" x2="50%" y1="0%" y2="100%"><stop offset="0%" stop-color="#4E53FF"/><stop offset="100%" stop-color="#3442D9"/></linearGradient><path id="path-2" d="M30.875,17.0833333 L29.25,17.0833333 L29.25,11.9583333 C29.25,6.32083333 24.8625,1.70833333 19.5,1.70833333 C14.1375,1.70833333 9.75,6.32083333 9.75,11.9583333 L9.75,17.0833333 L8.125,17.0833333 C5.3625,17.0833333 3.25,19.3041667 3.25,22.2083333 L3.25,34.1666667 C3.25,37.0708333 5.3625,39.2916667 8.125,39.2916667 L30.875,39.2916667 C33.6375,39.2916667 35.75,37.0708333 35.75,34.1666667 L35.75,22.2083333 C35.75,19.3041667 33.6375,17.0833333 30.875,17.0833333 Z M13,11.9583333 C13,8.2 15.925,5.125 19.5,5.125 C23.075,5.125 26,8.2 26,11.9583333 L26,17.0833333 L13,17.0833333 L13,11.9583333 Z M32.5,34.1666667 C32.5,35.1916667 31.85,35.875 30.875,35.875 L8.125,35.875 C7.15,35.875 6.5,35.1916667 6.5,34.1666667 L6.5,22.2083333 C6.5,21.1833333 7.15,20.5 8.125,20.5 L30.875,20.5 C31.85,20.5 32.5,21.1833333 32.5,22.2083333 L32.5,34.1666667 Z"/><path id="path-4" d="M35.5,7.475 L22.1666667,0.975 C22.1666667,0.975 22.1666667,0.975 22.1666667,0.975 C20.8333333,0.325 19.1666667,0.325 17.6666667,0.975 L4.33333333,7.475 C2.66666667,8.2875 1.66666667,9.9125 1.66666667,11.7 L1.66666667,27.1375 C1.66666667,28.925 2.66666667,30.7125 4.5,31.525 L17.8333333,38.025 C18.5,38.35 19.3333333,38.5125 20,38.5125 C20.8333333,38.5125 21.5,38.35 22.1666667,38.025 L35.5,31.525 C37.1666667,30.7125 38.3333333,29.0875 38.3333333,27.1375 L38.3333333,11.7 C38.3333333,9.9125 37.3333333,8.2875 35.5,7.475 Z M19.3333333,3.7375 C19.5,3.575 19.8333333,3.575 20,3.575 C20.3333333,3.575 20.5,3.575 20.6666667,3.7375 L33,9.75 L20,16.0875 L7,9.75 L19.3333333,3.7375 Z M5.83333333,28.7625 C5.33333333,28.4375 5,27.7875 5,27.3 L5,12.35 L18.3333333,18.85 L18.3333333,34.775 L5.83333333,28.7625 Z M34,28.7625 L21.6666667,34.775 L21.6666667,18.85 L35,12.35 L35,27.3 C35,27.95 34.6666667,28.4375 34,28.7625 Z"/><path id="path-6" d="M30.875,17.0833333 L29.25,17.0833333 L29.25,11.9583333 C29.25,6.32083333 24.8625,1.70833333 19.5,1.70833333 C14.1375,1.70833333 9.75,6.32083333 9.75,11.9583333 L9.75,17.0833333 L8.125,17.0833333 C5.3625,17.0833333 3.25,19.3041667 3.25,22.2083333 L3.25,34.1666667 C3.25,37.0708333 5.3625,39.2916667 8.125,39.2916667 L30.875,39.2916667 C33.6375,39.2916667 35.75,37.0708333 35.75,34.1666667 L35.75,22.2083333 C35.75,19.3041667 33.6375,17.0833333 30.875,17.0833333 Z M13,11.9583333 C13,8.2 15.925,5.125 19.5,5.125 C23.075,5.125 26,8.2 26,11.9583333 L26,17.0833333 L13,17.0833333 L13,11.9583333 Z M32.5,34.1666667 C32.5,35.1916667 31.85,35.875 30.875,35.875 L8.125,35.875 C7.15,35.875 6.5,35.1916667 6.5,34.1666667 L6.5,22.2083333 C6.5,21.1833333 7.15,20.5 8.125,20.5 L30.875,20.5 C31.85,20.5 32.5,21.1833333 32.5,22.2083333 L32.5,34.1666667 Z"/><path id="path-8" d="M29.3665949,32.4583333 L29.3665949,35.875 C29.3665949,36.9 28.7140039,37.5833333 27.7351174,37.5833333 C26.7562309,37.5833333 26.1036399,36.9 26.1036399,35.875 L26.1036399,32.4583333 C26.1036399,29.5541667 23.9827192,27.3333333 21.2092074,27.3333333 L8.15738748,27.3333333 C5.38387574,27.3333333 3.26295499,29.5541667 3.26295499,32.4583333 L3.26295499,35.875 C3.26295499,36.9 2.61036399,37.5833333 1.6314775,37.5833333 C0.652590998,37.5833333 0,36.9 0,35.875 L0,32.4583333 C0,27.675 3.58925049,23.9166667 8.15738748,23.9166667 L21.2092074,23.9166667 C25.7773444,23.9166667 29.3665949,27.675 29.3665949,32.4583333 Z M6.52590998,11.9583333 C6.52590998,7.175 10.1151605,3.41666667 14.6832975,3.41666667 C19.2514344,3.41666667 22.8406849,7.175 22.8406849,11.9583333 C22.8406849,16.7416667 19.2514344,20.5 14.6832975,20.5 C10.1151605,20.5 6.52590998,16.7416667 6.52590998,11.9583333 Z M9.78886497,11.9583333 C9.78886497,14.8625 11.9097857,17.0833333 14.6832975,17.0833333 C17.4568092,17.0833333 19.5777299,14.8625 19.5777299,11.9583333 C19.5777299,9.05416667 17.4568092,6.83333333 14.6832975,6.83333333 C11.9097857,6.83333333 9.78886497,9.05416667 9.78886497,11.9583333 Z M32.9558454,24.2583333 C32.1401067,24.0875 31.1612202,24.6 30.9980724,25.4541667 C30.8349247,26.3083333 31.3243679,27.3333333 32.1401067,27.5041667 C34.2610274,28.0166667 35.7293572,30.0666667 35.7293572,32.4583333 L35.7293572,35.875 C35.7293572,36.9 36.3819482,37.5833333 37.3608346,37.5833333 C38.3397211,37.5833333 38.9923121,36.9 38.9923121,35.875 L38.9923121,32.4583333 C39.1554599,28.5291667 36.7082437,25.1125 32.9558454,24.2583333 Z M26.4299354,3.75833333 C25.6141967,3.41666667 24.7984579,3.92916667 24.4721624,4.95416667 C24.3090147,5.80833333 24.7984579,6.83333333 25.6141967,7.00416667 C28.2245607,7.6875 29.8560382,10.4208333 29.2034472,13.325 C28.7140039,15.2041667 27.4088219,16.5708333 25.6141967,17.0833333 C24.7984579,17.2541667 24.1458669,18.2791667 24.4721624,19.1333333 C24.6353102,19.9875 25.2879012,20.5 26.1036399,20.5 C26.2667877,20.5 26.4299354,20.5 26.4299354,20.5 C29.3665949,19.6458333 31.6506634,17.425 32.3032544,14.35 C33.4452887,9.56666667 30.8349247,4.78333333 26.4299354,3.75833333 Z"/><path id="path-10" d="M22.0083333,20.0067531 L29.6083333,12.0067531 C30.2416667,11.3400864 30.2416667,10.3400864 29.6083333,9.67341973 L20.9,0.506753059 C20.425,0.00675305915 19.7916667,-0.159913608 19.1583333,0.173419726 C18.525,0.340086392 18.2083333,1.00675306 18.2083333,1.67341973 L18.2083333,16.0067531 L12.1916667,9.67341973 C11.5583333,9.00675306 10.6083333,9.00675306 9.975,9.67341973 C9.34166667,10.3400864 9.34166667,11.3400864 9.975,12.0067531 L17.575,20.0067531 L9.975,28.0067531 C9.34166667,28.6734197 9.34166667,29.6734197 9.975,30.3400864 C10.6083333,31.0067531 11.5583333,31.0067531 12.1916667,30.3400864 L18.2083333,24.0067531 L18.2083333,38.3400864 C18.2083333,39.0067531 18.525,39.6734197 19.1583333,39.8400864 C19.3166667,40.0067531 19.6333333,40.0067531 19.7916667,40.0067531 C20.2666667,40.0067531 20.5833333,39.8400864 20.9,39.5067531 L29.6083333,30.3400864 C30.2416667,29.6734197 30.2416667,28.6734197 29.6083333,28.0067531 L22.0083333,20.0067531 Z M21.375,5.67341973 L26.2833333,10.8400864 L21.375,16.0067531 L21.375,5.67341973 Z M21.375,34.3400864 L21.375,24.0067531 L26.2833333,29.1734197 L21.375,34.3400864 Z"/><path id="path-12" d="M23.725,35.8333333 C22.75,37.5 21.125,38.3333333 19.5,38.3333333 C18.6875,38.3333333 17.875,38.1666667 17.0625,37.6666667 C16.25,37.1666667 15.7625,36.6666667 15.275,35.8333333 C14.7875,35 15.1125,34 15.925,33.5 C16.7375,33 17.7125,33.3333333 18.2,34.1666667 C18.3625,34.3333333 18.525,34.6666667 18.85,34.8333333 C19.6625,35.3333333 20.6375,35 21.125,34.1666667 C21.6125,33.3333333 22.5875,33.1666667 23.4,33.5 C24.2125,33.8333333 24.2125,35 23.725,35.8333333 Z M37.375,28.3333333 C37.375,29.3333333 36.725,30 35.75,30 L3.25,30 C2.275,30 1.625,29.3333333 1.625,28.3333333 C1.625,27.3333333 2.275,26.6666667 3.25,26.6666667 C5.0375,26.6666667 6.5,25.1666667 6.5,23.3333333 L6.5,15 C6.5,7.66666667 12.35,1.66666667 19.5,1.66666667 C26.65,1.66666667 32.5,7.66666667 32.5,15 L32.5,23.3333333 C32.5,25.1666667 33.9625,26.6666667 35.75,26.6666667 C36.725,26.6666667 37.375,27.3333333 37.375,28.3333333 Z M30.0625,26.6666667 C29.575,25.6666667 29.25,24.5 29.25,23.3333333 L29.25,15 C29.25,9.5 24.8625,5 19.5,5 C14.1375,5 9.75,9.5 9.75,15 L9.75,23.3333333 C9.75,24.5 9.425,25.6666667 8.9375,26.6666667 L30.0625,26.6666667 Z"/><path id="path-14" d="M27.625,1.66666667 L11.375,1.66666667 C8.6125,1.66666667 6.5,3.83333333 6.5,6.66666667 L6.5,33.3333333 C6.5,36.1666667 8.6125,38.3333333 11.375,38.3333333 L27.625,38.3333333 C30.3875,38.3333333 32.5,36.1666667 32.5,33.3333333 L32.5,6.66666667 C32.5,3.83333333 30.3875,1.66666667 27.625,1.66666667 Z M29.25,33.3333333 C29.25,34.3333333 28.6,35 27.625,35 L11.375,35 C10.4,35 9.75,34.3333333 9.75,33.3333333 L9.75,6.66666667 C9.75,5.66666667 10.4,5 11.375,5 L27.625,5 C28.6,5 29.25,5.66666667 29.25,6.66666667 L29.25,33.3333333 Z M20.6375,28.8333333 C20.9625,29.1666667 21.125,29.6666667 21.125,30 C21.125,30.5 20.9625,30.8333333 20.6375,31.1666667 C20.3125,31.5 19.9875,31.6666667 19.5,31.6666667 C19.3375,31.6666667 19.0125,31.6666667 18.85,31.5 C18.6875,31.5 18.525,31.3333333 18.3625,31.1666667 C18.0375,30.8333333 17.875,30.5 17.875,30 C17.875,29.8333333 17.875,29.5 18.0375,29.3333333 C18.2,29.1666667 18.2,29 18.3625,28.8333333 C19.0125,28.1666667 19.9875,28.1666667 20.6375,28.8333333 Z"/><path id="path-16" d="M35.6792237,23.2648402 C34.097032,23.0974125 32.5148402,22.7625571 31.1084475,22.260274 C29.1746575,21.5905632 27.0650685,22.0928463 25.4828767,23.4322679 L24.2522831,24.6042618 C21.0878995,22.5951294 18.2751142,20.0837139 16.1655251,16.9025875 L17.3961187,15.7305936 C18.8025114,14.391172 19.3299087,12.2146119 18.6267123,10.3729072 C18.0993151,9.03348554 17.7477169,7.52663623 17.5719178,6.01978691 C17.2203196,3.50837139 14.9349315,1.66666667 12.2979452,1.66666667 C12.2979452,1.66666667 12.2979452,1.66666667 12.2979452,1.66666667 L7.0239726,1.66666667 C6.84817352,1.66666667 6.67237443,1.66666667 6.49657534,1.66666667 C5.09018265,1.83409437 3.85958904,2.50380518 2.98059361,3.50837139 C2.10159817,4.5129376 1.75,5.85235921 1.75,7.19178082 C2.27739726,12.5494673 4.3869863,17.9071537 7.37557078,22.4277017 C10.1883562,26.6133942 14.0559361,30.2968037 18.4509132,32.9756469 C23.1974886,35.9893455 28.8230594,37.8310502 34.4486301,38.3333333 C34.6244292,38.3333333 34.8002283,38.3333333 34.9760274,38.3333333 C34.9760274,38.3333333 34.9760274,38.3333333 34.9760274,38.3333333 C36.3824201,38.3333333 37.7888128,37.8310502 38.6678082,36.826484 C39.5468037,35.8219178 40.25,34.6499239 40.25,33.3105023 L40.25,28.2876712 C40.25,25.7762557 38.31621,23.5996956 35.6792237,23.2648402 Z M36.7340183,28.2876712 L36.7340183,33.3105023 C36.7340183,33.8127854 36.5582192,34.1476408 36.206621,34.4824962 C35.8550228,34.8173516 35.5034247,34.9847793 34.8002283,34.9847793 C29.7020548,34.4824962 24.7796804,32.8082192 20.3847032,30.129376 C16.3413242,27.7853881 13.0011416,24.4368341 10.3641553,20.585997 C7.55136986,16.4003044 5.793379,11.7123288 5.26598174,6.85692542 C5.26598174,6.35464231 5.44178082,6.01978691 5.61757991,5.68493151 C5.96917808,5.3500761 6.49657534,5.0152207 7.0239726,5.0152207 L12.2979452,5.0152207 C12.2979452,5.0152207 12.2979452,5.0152207 12.2979452,5.0152207 C13.1769406,5.0152207 13.880137,5.68493151 14.0559361,6.52207002 C14.2317352,8.19634703 14.7591324,10.0380518 15.4623288,11.5449011 C15.6381279,12.2146119 15.4623288,12.8843227 15.1107306,13.3866058 L12.8253425,15.3957382 C12.2979452,15.8980213 12.1221461,16.7351598 12.4737443,17.4048706 C15.1107306,21.9254186 18.9783105,25.608828 23.7248858,28.1202435 C24.4280822,28.4550989 25.3070776,28.4550989 25.8344749,27.7853881 L28.119863,25.608828 C28.6472603,25.1065449 29.3504566,24.9391172 30.053653,25.2739726 C31.8116438,25.9436834 33.5696347,26.2785388 35.3276256,26.6133942 C36.0308219,26.7808219 36.7340183,27.4505327 36.7340183,28.2876712 C36.7340183,28.2876712 36.7340183,28.2876712 36.7340183,28.2876712 Z"/></defs><g id="carte-visite-carree" fill="none" fill-rule="evenodd" stroke="none" stroke-width="1"><rect width="800" height="800" x="0" y="0" fill="#FFF"/><text id="https://berty.tech" fill="#3643DB" font-family="OpenSans-Bold, Open Sans" font-size="30" font-weight="bold"><tspan x="266.069" y="642">https://berty.tech</tspan></text><text id="secure-peer-to-peer" fill="#3643DB" font-family="OpenSans-SemiBold, Open Sans SemiBold" font-size="30" font-weight="500" line-spacing="37"><tspan x="127.81" y="484.535">secure peer-to-peer messaging app</tspan> <tspan x="71.831" y="521.535">that works with or without internet access,</tspan> <tspan x="124.155" y="558.535">cellular data or trust in the network</tspan></text><g id="berty_new_color_gradient" fill-rule="nonzero" transform="translate(84.000000, 228.000000)"><g id="Group" fill="#F74868" transform="translate(201.000000, 2.000000)"><path id="Shape" d="M37.8112847,46.8524958 C33.2014017,46.8524958 29.7491116,47.6231632 27.2597748,48.5724621 L27.2597748,0.0306225463 L0.0204883689,0.0306225463 L0.0204883689,129.625238 C7.6985046,134.402356 19.7815201,138.801795 34.548512,138.801795 C64.2873794,138.801795 85.3852772,121.214246 85.3852772,91.3929893 C85.3801551,64.8228267 63.1297866,46.8524958 37.8112847,46.8524958 Z M36.4692966,114.518116 C32.6328495,114.518116 29.5647163,113.757656 27.2597748,112.798149 L27.2597748,73.4277622 C29.3700768,72.0905777 33.7801982,70.9371284 37.6166452,70.9371284 C48.3627947,70.9371284 58.3355082,79.5420639 58.3355082,92.347392 C58.3355082,105.540606 49.8943003,114.518116 36.4692966,114.518116 Z"/><path id="Path" d="M223.415418,63.1028603 L222.652227,49.5319686 L196.754928,49.5319686 L196.754928,136.122322 L224.757406,136.122322 L224.757406,101.90673 C224.757406,81.0731913 238.566567,72.2794167 253.528198,72.2794167 C254.870187,72.2794167 255.448983,72.2794167 255.83314,72.2794167 L256.068756,49.9045429 C241.870317,49.8994391 228.788493,52.2063376 223.415418,63.1028603 Z"/><path id="Path" d="M305.558411,22.5841279 L278.708404,32.7150869 L278.708404,49.5319686 L268.433487,49.5319686 L268.617882,72.4733595 L278.129607,72.4733595 L278.129607,107.832193 C278.129607,125.225799 291.170454,137.643242 310.352689,137.643242 C315.920404,137.643242 320.714682,136.882782 323.588176,135.540494 L325.698478,112.60931 C323.209141,113.568817 320.330525,113.946495 316.683595,113.946495 C310.347567,113.946495 305.942568,110.312619 305.942568,103.815536 L305.942568,72.4733595 L330.682273,72.4733595 L332.792575,49.5319686 L305.553289,49.5319686 L305.553289,22.5841279 L305.558411,22.5841279 Z"/><path id="Path" d="M403.625989,49.5319686 L390.585142,83.5536175 C388.664357,88.7135165 386.938212,94.0673584 385.406707,100.18166 L385.017428,100.18166 C383.291283,93.8785193 381.565137,88.3307347 379.649475,83.3647785 L366.793024,49.5268648 L338.974941,49.5268648 L371.392662,131.717779 C363.146094,151.602019 354.710008,159.436287 341.279882,163.835726 L352.789223,181.989792 C373.697604,176.829893 387.896043,159.058609 399.594902,128.660628 L430.102083,49.5268648 L403.625989,49.5268648 L403.625989,49.5319686 Z"/><path id="Shape" d="M142.025373,46.8524958 C117.664702,46.8524958 96.7511999,64.2461021 96.7511999,92.347392 C96.7511999,120.632417 119.196208,138.796691 147.587965,138.796691 C159.097306,138.796691 167.543636,136.693943 173.485263,133.825631 L175.984844,110.695401 C168.501468,115.089736 160.823451,117.386427 150.850738,117.386427 C135.50495,117.386427 127.442776,108.592653 125.337597,100.94212 L162.969608,101.049299 C162.969608,101.049299 178.632966,101.049299 180.369355,89.7802019 C180.369355,89.7802019 180.96864,84.0742008 180.96864,81.2620303 C180.96864,63.4856422 166.196526,46.8524958 142.025373,46.8524958 Z M155.071342,82.9871004 L124.379765,82.9871004 C126.30055,74.1933259 133.589287,68.0790241 142.030495,68.0790241 C150.092668,68.0790241 155.265981,74.1933259 155.265981,81.0731913 C155.265981,81.8336511 155.265981,82.4103758 155.071342,82.9871004 Z"/></g><g id="Group"><g id="Path"><path fill="url(#linearGradient-1)" d="M69.6101165,43.590626 C69.6101165,43.0664902 69.6203533,42.5423544 69.6459452,42.0233572 C70.4597694,23.8944254 85.7381663,9.44985986 103.986031,9.40875117 C104.005703,6.02242292 103.626943,3.82310807 103.626943,3.74602927 C103.693482,3.74602927 103.760021,3.74089069 103.821441,3.74089069 C93.5693044,3.64325755 83.4400088,5.68327624 74.068235,9.62971037 C70.8948326,10.9657428 67.8135613,12.5175958 64.8397762,14.2801308 L64.8397762,14.2801308 C61.1033508,16.4948614 57.5460691,19.0384615 54.2139966,21.9109312 C53.1033058,22.8667082 52.0182069,23.8584553 50.9587,24.8861725 L32.3431122,14.5421987 L22.0858568,8.84864528 L6.15230589,0.00513858611 C-6.90982774,23.5912488 1.53039889,53.3333852 24.9931029,66.4727499 L1.93475177,110.674868 C1.93987016,110.674868 1.93987016,110.680006 1.94498855,110.680006 C11.6648129,115.787761 21.9937258,118.521489 32.2765731,119.122703 C60.765537,120.792744 88.9371606,105.973061 103.038328,78.9440984 L103.580877,77.7776394 C103.41197,77.7776394 103.237945,77.7776394 103.069038,77.7725008 C84.5404628,77.4539084 69.6101165,62.2745251 69.6101165,43.590626 Z" transform="translate(13.051897, 22.044534)"/><path fill="#FFBF47" d="M78.4751696,63.4615385 C73.295358,57.7474307 70.0144694,50.2656493 69.6459452,42.0233572 C69.6203533,42.5423544 69.6101165,43.0664902 69.6101165,43.590626 C69.6101165,62.2745251 84.5353444,77.459047 103.074156,77.7725008 C103.273774,77.7776394 103.468272,77.7776394 103.66789,77.7776394 L103.66789,74.6379633 C93.6870274,74.6431018 84.7042513,70.3318281 78.4751696,63.4615385 Z" transform="translate(13.051897, 22.044534)"/><path fill="#FFF" d="M103.585995,9.40361258 C85.3389318,9.44472127 70.4648878,23.8944254 69.6459452,42.0233572 C70.0144694,50.2656493 73.295358,57.7474307 78.4751696,63.4615385 C84.7042513,70.3318281 93.681909,74.6431018 103.66789,74.6431018 L103.66789,9.398474 C103.642298,9.398474 103.616706,9.398474 103.585995,9.40361258 Z" transform="translate(13.051897, 22.044534)"/></g><g><path id="Path" fill="#FFBF47" d="M19.2042027,22.049673 L8.38392433,16.0066957 C-8.01028179,45.6100903 2.79464144,83.1114917 32.2816915,99.5703831 L38.1064204,88.5532544 C14.5925325,75.4293055 6.13183232,45.6563376 19.2042027,22.049673 Z"/><g id="Path"><path fill="#FFAE3A" d="M0.0307103455,47.2698536 L0.0307103455,74.0624416 C0.0409471274,74.0624416 0.0563023001,74.0624416 0.066539082,74.0624416 C12.8829899,74.0470258 23.580427,64.956867 26.134504,52.8503581 L0.0307103455,47.2698536 Z" transform="translate(116.648129, 25.744316)"/><path fill="#FFBF47" d="M32.2407444,12.3839925 C24.5170925,5.34412955 14.4696911,0.837589536 3.39349318,0.138741825 C2.33910465,0.0822173778 1.28471612,0.046247275 0.230327591,0.0359701028 C0.163788509,0.0359701028 0.0972494275,0.0411086889 0.0358287364,0.0411086889 C0.0358287364,0.215820617 0.0358287364,47.2698536 0.0358287364,47.2698536 L46.807685,57.259265 C47.4474838,54.1452818 47.790416,50.9233884 47.790416,47.6192775 C47.7801792,33.6526004 41.7865435,21.0887574 32.2407444,12.3839925 Z" transform="translate(116.648129, 25.744316)"/></g><g id="Path"><g id="Group" transform="translate(35.112162, 0.000000)"><path id="Path" fill="#3442D9" d="M42.7743929,36.3195266 L31.135172,10.4004983 C19.9821982,15.4517284 12.5707681,25.4103083 10.2828474,36.5867331 L28.9035535,46.9204298 C33.1313444,42.8146995 37.7993169,39.2690751 42.7743929,36.3195266 Z"/><path id="Path" fill="#FFBF47" d="M10.2828474,36.5867331 C12.5758865,25.4103083 19.9821982,15.4517284 31.135172,10.4004983 L26.4825546,0.0411086889 C13.0314233,6.13033323 3.74666215,17.6715976 0.0204735637,30.8880411 L10.2828474,36.5867331 L10.2828474,36.5867331 Z"/></g><path fill="#F74868" d="M0.0358287364,161.341327 C15.4933693,169.485986 34.6003226,163.50981 42.7129722,147.99128 C43.8697286,145.776549 44.7347366,143.489879 45.32847,141.167238 C35.0405042,140.566023 24.7167098,137.832295 14.9968854,132.724541 L0.0358287364,161.341327 Z"/></g><ellipse id="Oval" cx="105.756" cy="63.498" fill="#383B62" rx="6.101" ry="6.125"/></g></g></g><g id="icon-/-lock" transform="translate(165.311249, 662.352459) rotate(-8.000000) translate(-165.311249, -662.352459) translate(146.000000, 642.000000)"><mask id="mask-3" fill="#fff"><use xlink:href="#path-2"/></mask><use id="Mask" fill="#000" fill-rule="nonzero" xlink:href="#path-2"/><g id="color-/-b_yellow" fill="#FFAE3A" fill-rule="evenodd" mask="url(#mask-3)"><rect id="Shape" width="39" height="41" x="0" y="0"/></g></g><path id="Shape" fill="#FFBF47" fill-rule="nonzero" stroke="#FFBF47" d="M450.484747,692 L411.444709,692 C409.542943,692 408,693.533977 408,695.424693 L408,718.255977 C408,720.146692 409.542943,721.680669 411.444709,721.680669 L429.816492,721.680669 L429.816492,726.246926 L418.334128,726.246926 C417.702598,726.246926 417.185891,726.76063 417.185891,727.38849 C417.185891,728.016351 417.702598,728.530055 418.334128,728.530055 L443.595329,728.530055 C444.226859,728.530055 444.743565,728.016351 444.743565,727.38849 C444.743565,726.76063 444.226859,726.246926 443.595329,726.246926 L432.112965,726.246926 L432.112965,721.680669 L450.484747,721.680669 C452.386514,721.680669 453.929457,720.146692 453.929457,718.255977 L453.929457,695.424693 C453.929457,693.533977 452.386514,692 450.484747,692 Z M451.632984,718.255977 C451.632984,718.883837 451.116277,719.397541 450.484747,719.397541 L411.444709,719.397541 C410.813179,719.397541 410.296473,718.883837 410.296473,718.255977 L410.296473,695.424693 C410.296473,694.796832 410.813179,694.283128 411.444709,694.283128 L450.484747,694.283128 C451.116277,694.283128 451.632984,694.796832 451.632984,695.424693 L451.632984,718.255977 Z" transform="translate(430.964728, 710.265027) rotate(9.000000) translate(-430.964728, -710.265027)"/><path id="Shape" fill="#3F49EA" fill-rule="nonzero" stroke="#3F49EA" stroke-width=".5" d="M630.543504,174.605668 C630.507057,174.570855 628.896071,172.499442 627.780774,169.827494 C629.785394,167.468869 630.988165,164.509708 630.988165,161.280741 C630.988165,154.318009 625.411677,148.565052 618.144019,147.53805 C615.855108,142.524883 610.453568,139 604.162707,139 C595.78704,139 589.000491,145.231645 589.000491,152.925463 C589.000491,156.145726 590.203263,159.104887 592.207883,161.472216 C591.092585,164.144164 589.488889,166.215577 589.459731,166.250391 C589.000491,166.833519 588.869279,167.686454 589.138992,168.426244 C589.401415,169.166034 590.013735,169.644722 590.684372,169.644722 C594.584269,169.644722 597.733344,167.886632 599.810859,166.267797 C600.474206,166.450569 601.152132,166.589824 601.851927,166.685561 C604.148128,171.690025 609.542378,175.214907 615.833239,175.214907 C617.349461,175.214907 618.807366,175.006025 620.192376,174.623075 C622.269891,176.233207 625.411677,178 629.318864,178 C629.9895,178 630.594531,177.521312 630.864244,176.781522 C631.126666,176.041732 631.002745,175.188797 630.543504,174.605668 L630.543504,174.605668 Z M600.328416,163.543629 L599.366198,163.282526 L598.535192,163.926579 C597.069997,165.066726 594.853981,166.380942 592.142277,166.755189 C592.783755,165.771703 593.614761,164.353046 594.292687,162.716804 L595.050798,160.906494 L593.848026,159.487838 C592.696281,158.138808 591.33314,155.902031 591.33314,152.925463 C591.33314,146.780852 597.091866,141.785093 604.162707,141.785093 C611.233548,141.785093 616.992274,146.780852 616.992274,152.925463 C616.992274,159.070074 611.233548,164.065834 604.162707,164.065834 C602.872461,164.065834 601.582214,163.891765 600.328416,163.543629 Z M621.453464,172.281857 L620.622458,171.637804 L619.660241,171.90761 C618.406442,172.255746 617.116196,172.429815 615.82595,172.429815 C611.080468,172.429815 606.932727,170.17563 604.716711,166.833519 C612.829954,166.55501 619.324923,160.445213 619.324923,152.925463 C619.324923,152.098639 619.230159,151.297925 619.084368,150.514617 C624.580671,151.776612 628.655517,156.119616 628.655517,161.280741 C628.655517,164.257309 627.292375,166.494086 626.14063,167.843115 L624.937858,169.261772 L625.688679,171.063379 C626.373895,172.708324 627.204901,174.126981 627.83909,175.101763 C625.134675,174.73622 622.918659,173.413301 621.453464,172.281857 L621.453464,172.281857 Z"/><g id="icon-/-box" transform="translate(61.833174, 594.308743) rotate(-5.000000) translate(-61.833174, -594.308743) translate(42.000000, 575.000000)"><mask id="mask-5" fill="#fff"><use xlink:href="#path-4"/></mask><use id="Mask" fill="#000" fill-rule="nonzero" xlink:href="#path-4"/><g id="color-/-b_pink" fill="#F74868" fill-rule="evenodd" mask="url(#mask-5)"><rect id="Shape" width="40" height="39" x="0" y="0"/></g></g><g id="icon-/-lock" transform="translate(717.311249, 62.352459) rotate(14.000000) translate(-717.311249, -62.352459) translate(698.000000, 42.000000)"><mask id="mask-7" fill="#fff"><use xlink:href="#path-6"/></mask><use id="Mask" fill="#000" fill-rule="nonzero" xlink:href="#path-6"/><g id="color-/-b_yellow" fill="#FFAE3A" fill-rule="evenodd" mask="url(#mask-7)"><rect id="Shape" width="39" height="41" x="0" y="0"/></g></g><g id="icon-/-users" transform="translate(413.311249, 136.352459) rotate(-4.000000) translate(-413.311249, -136.352459) translate(394.000000, 116.000000)"><mask id="mask-9" fill="#fff"><use xlink:href="#path-8"/></mask><use id="Mask" fill="#000" fill-rule="nonzero" xlink:href="#path-8"/><g id="color-/-b_yellow" fill="#FFAE3A" fill-rule="evenodd" mask="url(#mask-9)"><rect id="Shape" width="39" height="41" x="0" y="0"/></g></g><g id="icon-/-bluetooth" transform="translate(329.789323, 47.830601) rotate(15.000000) translate(-329.789323, -47.830601) translate(311.000000, 28.000000)"><mask id="mask-11" fill="#fff"><use xlink:href="#path-10"/></mask><use id="Mask" fill="#000" fill-rule="nonzero" xlink:href="#path-10"/><g id="color-/-b_blue" fill="#3F49EA" fill-rule="evenodd" mask="url(#mask-11)"><rect id="Shape" width="38" height="40" x="0" y="0"/></g></g><g id="icon-/-bell" transform="translate(117.311249, 61.830601) rotate(7.000000) translate(-117.311249, -61.830601) translate(98.000000, 42.000000)"><mask id="mask-13" fill="#fff"><use xlink:href="#path-12"/></mask><use id="Mask" fill="#000" fill-rule="nonzero" xlink:href="#path-12"/><g id="color-/-b_yellow" fill="#FFAE3A" fill-rule="evenodd" mask="url(#mask-13)"><rect id="Shape" width="39" height="40" x="0" y="0"/></g></g><g id="icon-/-smartphone" transform="translate(53.311249, 162.830601) rotate(-13.000000) translate(-53.311249, -162.830601) translate(34.000000, 143.000000)"><mask id="mask-15" fill="#fff"><use xlink:href="#path-14"/></mask><use id="Mask" fill="#000" fill-rule="nonzero" xlink:href="#path-14"/><g id="color-/-b_blue" fill="#3F49EA" fill-rule="evenodd" mask="url(#mask-15)"><rect id="Shape" width="39" height="40" x="0" y="0"/></g></g><g id="icon-/-phone" transform="translate(226.877026, 162.830601) rotate(11.000000) translate(-226.877026, -162.830601) translate(206.000000, 143.000000)"><mask id="mask-17" fill="#fff"><use xlink:href="#path-16"/></mask><use id="Mask" fill="#000" fill-rule="nonzero" xlink:href="#path-16"/><g id="color-/-b_pink" fill="#F74868" fill-rule="evenodd" mask="url(#mask-17)"><rect id="Shape" width="42" height="40" x="0" y="0"/></g></g><path id="Shape" fill="#F74868" fill-rule="nonzero" stroke="#F74868" stroke-width=".7" d="M732.308389,462.528689 L736.831745,462.528689 L736.831745,460.180328 L732.308389,460.180328 L732.308389,462.528689 Z M734.570067,448.438525 C733.319076,448.438525 732.308389,449.487948 732.308389,450.786885 C732.308389,452.085822 733.319076,453.135246 734.570067,453.135246 C735.821057,453.135246 736.831745,452.085822 736.831745,450.786885 C736.831745,449.487948 735.821057,448.438525 734.570067,448.438525 Z M748.140133,448.438525 C746.889143,448.438525 745.878456,449.487948 745.878456,450.786885 C745.878456,452.085822 746.889143,453.135246 748.140133,453.135246 C749.391124,453.135246 750.401811,452.085822 750.401811,450.786885 C750.401811,449.487948 749.391124,448.438525 748.140133,448.438525 Z M759.448522,448.438525 L757.186845,448.438525 L757.186845,446.090164 C757.186845,442.200692 754.147715,439.045082 750.401811,439.045082 L742.485939,439.045082 L742.485939,433.17418 C742.485939,432.528381 741.977061,432 741.3551,432 C740.733139,432 740.224261,432.528381 740.224261,433.17418 L740.224261,439.045082 L732.308389,439.045082 C728.562485,439.045082 725.523356,442.200692 725.523356,446.090164 L725.523356,448.438525 L723.261678,448.438525 C722.010687,448.438525 721,449.487948 721,450.786885 L721,460.180328 C721,461.479265 722.010687,462.528689 723.261678,462.528689 L725.523356,462.528689 L725.523356,464.877049 C725.523356,467.467585 727.551798,469.57377 730.046711,469.57377 L752.663489,469.57377 C755.158402,469.57377 757.186845,467.467585 757.186845,464.877049 L757.186845,462.528689 L759.448522,462.528689 C760.699513,462.528689 761.7102,461.479265 761.7102,460.180328 L761.7102,450.786885 C761.7102,449.487948 760.699513,448.438525 759.448522,448.438525 Z M725.523356,460.180328 L723.261678,460.180328 L723.261678,450.786885 L725.523356,450.786885 L725.523356,460.180328 Z M754.925167,464.877049 C754.925167,466.168648 753.907412,467.22541 752.663489,467.22541 L730.046711,467.22541 C728.802788,467.22541 727.785033,466.168648 727.785033,464.877049 L727.785033,446.090164 C727.785033,443.499629 729.813476,441.393443 732.308389,441.393443 L750.401811,441.393443 C752.896725,441.393443 754.925167,443.499629 754.925167,446.090164 L754.925167,464.877049 Z M759.448522,460.180328 L757.186845,460.180328 L757.186845,450.786885 L759.448522,450.786885 L759.448522,460.180328 Z M745.878456,462.528689 L750.401811,462.528689 L750.401811,460.180328 L745.878456,460.180328 L745.878456,462.528689 Z M739.093422,462.528689 L743.616778,462.528689 L743.616778,460.180328 L739.093422,460.180328 L739.093422,462.528689 Z" transform="translate(741.355100, 450.786885) rotate(-7.000000) translate(-741.355100, -450.786885)"/><path id="Shape" fill="#3F49EA" fill-rule="nonzero" stroke="#3F49EA" stroke-width=".5" d="M713,706.866511 L726.86831,706.866511 L726.86831,693 L713,693 L713,706.866511 Z M715.311385,695.311085 L724.556925,695.311085 L724.556925,704.555425 L715.311385,704.555425 L715.311385,695.311085 Z M731.49108,693 L731.49108,706.866511 L745.35939,706.866511 L745.35939,693 L731.49108,693 Z M743.048005,704.555425 L733.802465,704.555425 L733.802465,695.311085 L743.048005,695.311085 L743.048005,704.555425 Z M713,725.355191 L726.86831,725.355191 L726.86831,711.488681 L713,711.488681 L713,725.355191 Z M715.311385,713.799766 L724.556925,713.799766 L724.556925,723.044106 L715.311385,723.044106 L715.311385,713.799766 Z M717.62277,697.62217 L722.24554,697.62217 L722.24554,702.24434 L717.62277,702.24434 L717.62277,697.62217 Z M740.73662,702.24434 L736.11385,702.24434 L736.11385,697.62217 L740.73662,697.62217 L740.73662,702.24434 Z M717.62277,716.110851 L722.24554,716.110851 L722.24554,720.733021 L717.62277,720.733021 L717.62277,716.110851 Z M743.048005,711.488681 L745.35939,711.488681 L745.35939,720.733021 L736.11385,720.733021 L736.11385,718.421936 L733.802465,718.421936 L733.802465,725.355191 L731.49108,725.355191 L731.49108,711.488681 L738.425235,711.488681 L738.425235,713.799766 L743.048005,713.799766 L743.048005,711.488681 Z M743.048005,723.044106 L745.35939,723.044106 L745.35939,725.355191 L743.048005,725.355191 L743.048005,723.044106 Z M738.425235,723.044106 L740.73662,723.044106 L740.73662,725.355191 L738.425235,725.355191 L738.425235,723.044106 Z" transform="translate(729.179695, 709.177596) rotate(-13.000000) translate(-729.179695, -709.177596)"/><path id="Shape" fill="#F74868" fill-rule="nonzero" stroke="#F74868" stroke-width=".5" d="M500,59.8665105 L513.86831,59.8665105 L513.86831,46 L500,46 L500,59.8665105 Z M502.311385,48.3110851 L511.556925,48.3110851 L511.556925,57.5554254 L502.311385,57.5554254 L502.311385,48.3110851 Z M518.49108,46 L518.49108,59.8665105 L532.35939,59.8665105 L532.35939,46 L518.49108,46 Z M530.048005,57.5554254 L520.802465,57.5554254 L520.802465,48.3110851 L530.048005,48.3110851 L530.048005,57.5554254 Z M500,78.3551913 L513.86831,78.3551913 L513.86831,64.4886807 L500,64.4886807 L500,78.3551913 Z M502.311385,66.7997658 L511.556925,66.7997658 L511.556925,76.0441062 L502.311385,76.0441062 L502.311385,66.7997658 Z M504.62277,50.6221702 L509.24554,50.6221702 L509.24554,55.2443404 L504.62277,55.2443404 L504.62277,50.6221702 Z M527.73662,55.2443404 L523.11385,55.2443404 L523.11385,50.6221702 L527.73662,50.6221702 L527.73662,55.2443404 Z M504.62277,69.1108509 L509.24554,69.1108509 L509.24554,73.7330211 L504.62277,73.7330211 L504.62277,69.1108509 Z M530.048005,64.4886807 L532.35939,64.4886807 L532.35939,73.7330211 L523.11385,73.7330211 L523.11385,71.421936 L520.802465,71.421936 L520.802465,78.3551913 L518.49108,78.3551913 L518.49108,64.4886807 L525.425235,64.4886807 L525.425235,66.7997658 L530.048005,66.7997658 L530.048005,64.4886807 Z M530.048005,76.0441062 L532.35939,76.0441062 L532.35939,78.3551913 L530.048005,78.3551913 L530.048005,76.0441062 Z M525.425235,76.0441062 L527.73662,76.0441062 L527.73662,78.3551913 L525.425235,78.3551913 L525.425235,76.0441062 Z" transform="translate(516.179695, 62.177596) rotate(-13.000000) translate(-516.179695, -62.177596)"/><path id="Shape" fill="#FFBF47" fill-rule="nonzero" stroke="#FFBF47" d="M68.2909318,441.283128 C73.8037429,441.283128 78.2727598,445.88299 78.2727598,451.557206 C78.2727598,457.231423 73.8037429,461.831284 68.2909318,461.831284 C66.9761033,461.831284 65.7208884,461.569081 64.5712453,461.09362 L61.6363799,464.114413 L58.3091039,464.114413 L58.3091039,468.680669 L53.8727359,468.680669 L53.8727359,473.246926 L47.218184,473.246926 L47.218184,467.539105 L59.0257853,455.385799 C58.5638485,454.202496 58.3091039,452.910531 58.3091039,451.557206 C58.3091039,445.88299 62.7781208,441.283128 68.2909318,441.283128 L68.2909318,441.283128 Z M68.2909318,439 C61.5543071,439 56.0909199,444.619992 56.0909199,451.557206 C56.0909199,452.649326 56.2257439,453.722754 56.4928271,454.764074 L45.487238,466.091887 C45.1752854,466.413023 45,466.848539 45,467.302659 L45,473.817708 C45,474.763423 45.7448246,475.530055 46.663638,475.530055 L54.4272819,475.530055 C55.3460953,475.530055 56.0909199,474.763423 56.0909199,473.817708 L56.0909199,470.963798 L58.8636499,470.963798 C59.7824633,470.963798 60.5272879,470.197166 60.5272879,469.251452 L60.5272879,466.397541 L61.8661006,466.397541 C62.3073112,466.397541 62.7304991,466.217102 63.0425006,465.896038 L65.1753538,463.700738 C66.1869843,463.975641 67.2298774,464.114413 68.2909318,464.114413 C75.0275566,464.114413 80.4909438,458.494421 80.4909438,451.557206 C80.4909438,444.623345 75.0308146,439 68.2909318,439 Z M71.6182078,446.705558 C72.3826495,446.705558 73.0045728,447.345691 73.0045728,448.132514 C73.0045728,448.919337 72.3826495,449.559469 71.6182078,449.559469 C70.8537662,449.559469 70.2318428,448.919337 70.2318428,448.132514 C70.2318428,447.345691 70.8537662,446.705558 71.6182078,446.705558 L71.6182078,446.705558 Z M71.6182078,444.707821 C69.780581,444.707821 68.2909318,446.241084 68.2909318,448.132514 C68.2909318,450.023943 69.780581,451.557206 71.6182078,451.557206 C73.4558346,451.557206 74.9454838,450.023943 74.9454838,448.132514 C74.9454838,446.241084 73.4558346,444.707821 71.6182078,444.707821 Z" transform="translate(62.745472, 457.265027) rotate(-344.000000) translate(-62.745472, -457.265027)"/><path id="Shape" fill="#F74868" fill-rule="nonzero" stroke="#F74868" stroke-width=".5" d="M738.267398,184 C728.176134,184 720,191.941499 720,201.743169 C720,211.54484 728.176134,219.486339 738.267398,219.486339 C748.358661,219.486339 756.534795,211.54484 756.534795,201.743169 C756.534795,191.941499 748.358661,184 738.267398,184 Z M752.498289,194.874846 L746.421433,194.874846 C745.758504,191.698246 744.646255,188.993844 743.239371,187.069282 C747.290608,188.371402 750.619989,191.21174 752.498289,194.874846 Z M744.749377,201.743169 C744.749377,203.381551 744.631523,204.90546 744.432644,206.322052 L732.102151,206.322052 C731.903272,204.90546 731.785418,203.381551 731.785418,201.743169 C731.785418,200.104788 731.903272,198.580879 732.102151,197.164287 L744.432644,197.164287 C744.631523,198.580879 744.749377,200.104788 744.749377,201.743169 L744.749377,201.743169 Z M738.267398,186.289441 C740.248821,186.289441 742.790052,189.444577 744.020155,194.874846 L732.51464,194.874846 C733.744743,189.444577 736.285974,186.289441 738.267398,186.289441 Z M733.295424,187.069282 C731.895906,188.986689 730.776291,191.691092 730.113362,194.874846 L724.036506,194.874846 C725.914807,191.21174 729.244187,188.371402 733.295424,187.069282 Z M722.357084,201.743169 C722.357084,200.147715 722.607524,198.609497 723.071575,197.164287 L729.737701,197.164287 C729.546188,198.63096 729.428334,200.15487 729.428334,201.743169 C729.428334,203.331469 729.538822,204.855379 729.737701,206.322052 L723.071575,206.322052 C722.607524,204.876842 722.357084,203.338624 722.357084,201.743169 Z M724.036506,208.611493 L730.113362,208.611493 C730.776291,211.788093 731.88854,214.492495 733.295424,216.417057 C729.244187,215.114937 725.914807,212.274599 724.036506,208.611493 Z M738.267398,217.196898 C736.285974,217.196898 733.744743,214.041761 732.51464,208.611493 L744.020155,208.611493 C742.790052,214.041761 740.248821,217.196898 738.267398,217.196898 L738.267398,217.196898 Z M743.239371,216.417057 C744.638889,214.49965 745.758504,211.795247 746.421433,208.611493 L752.498289,208.611493 C750.619989,212.274599 747.290608,215.114937 743.239371,216.417057 Z M746.797094,206.322052 C746.988607,204.855379 747.106461,203.331469 747.106461,201.743169 C747.106461,200.15487 746.995973,198.63096 746.797094,197.164287 L753.463221,197.164287 C753.927271,198.609497 754.177711,200.147715 754.177711,201.743169 C754.177711,203.338624 753.927271,204.876842 753.463221,206.322052 L746.797094,206.322052 Z" transform="translate(738.267398, 201.743169) rotate(-8.000000) translate(-738.267398, -201.743169)"/><path id="Shape" fill="#F74868" fill-rule="nonzero" stroke="#F74868" stroke-width=".5" d="M599.543504,748.605668 C599.507057,748.570855 597.896071,746.499442 596.780774,743.827494 C598.785394,741.468869 599.988165,738.509708 599.988165,735.280741 C599.988165,728.318009 594.411677,722.565052 587.144019,721.53805 C584.855108,716.524883 579.453568,713 573.162707,713 C564.78704,713 558.000491,719.231645 558.000491,726.925463 C558.000491,730.145726 559.203263,733.104887 561.207883,735.472216 C560.092585,738.144164 558.488889,740.215577 558.459731,740.250391 C558.000491,740.833519 557.869279,741.686454 558.138992,742.426244 C558.401415,743.166034 559.013735,743.644722 559.684372,743.644722 C563.584269,743.644722 566.733344,741.886632 568.810859,740.267797 C569.474206,740.450569 570.152132,740.589824 570.851927,740.685561 C573.148128,745.690025 578.542378,749.214907 584.833239,749.214907 C586.349461,749.214907 587.807366,749.006025 589.192376,748.623075 C591.269891,750.233207 594.411677,752 598.318864,752 C598.9895,752 599.594531,751.521312 599.864244,750.781522 C600.126666,750.041732 600.002745,749.188797 599.543504,748.605668 L599.543504,748.605668 Z M569.328416,737.543629 L568.366198,737.282526 L567.535192,737.926579 C566.069997,739.066726 563.853981,740.380942 561.142277,740.755189 C561.783755,739.771703 562.614761,738.353046 563.292687,736.716804 L564.050798,734.906494 L562.848026,733.487838 C561.696281,732.138808 560.33314,729.902031 560.33314,726.925463 C560.33314,720.780852 566.091866,715.785093 573.162707,715.785093 C580.233548,715.785093 585.992274,720.780852 585.992274,726.925463 C585.992274,733.070074 580.233548,738.065834 573.162707,738.065834 C571.872461,738.065834 570.582214,737.891765 569.328416,737.543629 Z M590.453464,746.281857 L589.622458,745.637804 L588.660241,745.90761 C587.406442,746.255746 586.116196,746.429815 584.82595,746.429815 C580.080468,746.429815 575.932727,744.17563 573.716711,740.833519 C581.829954,740.55501 588.324923,734.445213 588.324923,726.925463 C588.324923,726.098639 588.230159,725.297925 588.084368,724.514617 C593.580671,725.776612 597.655517,730.119616 597.655517,735.280741 C597.655517,738.257309 596.292375,740.494086 595.14063,741.843115 L593.937858,743.261772 L594.688679,745.063379 C595.373895,746.708324 596.204901,748.126981 596.83909,749.101763 C594.134675,748.73622 591.918659,747.413301 590.453464,746.281857 L590.453464,746.281857 Z"/><path id="Shape" fill="#3F49EA" fill-rule="nonzero" stroke="#3F49EA" stroke-width=".5" d="M282.833174,745.907201 C277.704439,745.907201 273.536374,741.771011 273.536374,736.681499 C273.536374,731.591986 277.704439,727.455796 282.833174,727.455796 C287.961909,727.455796 292.129975,731.591986 292.129975,736.681499 C292.129975,741.771011 287.961909,745.907201 282.833174,745.907201 Z M282.833174,729.915984 C279.075718,729.915984 276.015521,732.952777 276.015521,736.681499 C276.015521,740.41022 279.075718,743.447014 282.833174,743.447014 C286.590631,743.447014 289.650828,740.41022 289.650828,736.681499 C289.650828,732.952777 286.590631,729.915984 282.833174,729.915984 Z M288.705653,719.859968 L290.417814,724.380562 L298.947629,724.380562 C299.629394,724.380562 300.187202,724.934104 300.187202,725.610656 L300.187202,747.752342 C300.187202,748.428893 299.629394,748.982436 298.947629,748.982436 L266.71872,748.982436 C266.036955,748.982436 265.479147,748.428893 265.479147,747.752342 L265.479147,725.610656 C265.479147,724.934104 266.036955,724.380562 266.71872,724.380562 L275.256282,724.380562 L276.813496,720.259748 C276.991685,719.783087 277.456525,719.460187 277.975596,719.460187 L288.124603,719.460187 C288.380265,719.460187 288.612685,719.621637 288.705653,719.859968 Z M288.124603,717 L277.975596,717 C276.426129,717 275.039357,717.953323 274.497043,719.390995 L273.536374,721.920375 L266.71872,721.920375 C264.665677,721.920375 263,723.573313 263,725.610656 L263,747.752342 C263,749.789685 264.665677,751.442623 266.71872,751.442623 L298.947629,751.442623 C301.000672,751.442623 302.666349,749.789685 302.666349,747.752342 L302.666349,725.610656 C302.666349,723.573313 301.000672,721.920375 298.947629,721.920375 L292.129975,721.920375 L291.022106,718.998902 C290.572761,717.791873 289.418408,717 288.124603,717 Z" transform="translate(282.833174, 734.221311) rotate(3.000000) translate(-282.833174, -734.221311)"/><path id="Shape" fill="#3F49EA" fill-rule="nonzero" stroke="#3F49EA" d="M82.4973655,720.76926 C82.3488085,720.76926 82.2002515,720.730642 82.0702642,720.653407 C78.5048969,718.741842 75.4223398,717.930874 71.7084156,717.930874 C68.0502003,717.930874 64.5591116,718.838385 61.3837064,720.653407 C60.9380355,720.904421 60.3809468,720.730642 60.1209721,720.267232 C59.8795671,719.803822 60.0466936,719.205251 60.4923645,718.954238 C63.9463141,716.965437 67.7345167,716 71.7084156,716 C75.6823145,716 79.1362641,716.907511 82.9244667,718.896311 C83.3887073,719.185943 83.5558339,719.765205 83.3144288,720.228615 C83.1473022,720.576172 82.8501883,720.76926 82.4973655,720.76926 L82.4973655,720.76926 Z M55.9242378,730.90635 C55.7385416,730.90635 55.5528454,730.848423 55.3857188,730.732571 C54.9957567,730.423631 54.8657694,729.82506 55.1628833,729.380959 C57.0012758,726.677735 59.341048,724.553773 62.1264912,723.067 C67.9944914,719.938984 75.4223398,719.919675 81.2717705,723.047691 C84.0572136,724.534464 86.3969859,726.619809 88.2353784,729.323033 C88.5324923,729.747825 88.4210746,730.365705 88.0125429,730.674645 C87.5854416,730.983585 87.0097834,730.887041 86.7126694,730.481557 C85.0414035,728.010038 82.9244667,726.098473 80.4175679,724.766169 C75.0880867,721.927784 68.2730358,721.927784 62.9621241,724.785478 C60.4366557,726.13709 58.3197189,728.067964 56.648453,730.481557 C56.499896,730.771189 56.2213517,730.90635 55.9242378,730.90635 L55.9242378,730.90635 Z M67.5302509,754.212003 C67.2888458,754.212003 67.0660104,754.115459 66.8803142,753.922372 C65.2647572,752.242511 64.391985,751.161221 63.1478204,748.824863 C61.8665165,746.449888 61.1980101,743.553577 61.1980101,740.444869 C61.1980101,734.710172 65.9146939,730.037456 71.7084156,730.037456 C77.5021374,730.037456 82.2188211,734.710172 82.2188211,740.444869 C82.2188211,740.978065 81.803126,741.410306 81.2903401,741.410306 C80.7775542,741.410306 80.361859,740.978065 80.361859,740.444869 C80.361859,735.772153 76.4808082,731.968331 71.7084156,731.968331 C66.936023,731.968331 63.0549722,735.772153 63.0549722,740.444869 C63.0549722,743.225328 63.6492001,745.793391 64.781947,747.859426 C65.9704027,750.09924 66.7874661,751.045369 68.2173269,752.551451 C68.5701497,752.937626 68.5701497,753.536197 68.2173269,753.922372 C67.9944914,754.115459 67.771656,754.212003 67.5302509,754.212003 L67.5302509,754.212003 Z M80.8446692,750.639885 C78.6348843,750.639885 76.6850741,750.060623 75.0880867,748.921407 C72.3212131,746.971224 70.6685169,743.80459 70.6685169,740.444869 C70.6685169,739.911673 71.084212,739.479432 71.5969979,739.479432 C72.1097838,739.479432 72.525479,739.911673 72.525479,740.444869 C72.525479,743.167402 73.8624917,745.735464 76.1279854,747.318781 C77.4464285,748.245601 78.9877071,748.689702 80.8446692,748.689702 C81.2903401,748.689702 82.0331249,748.631776 82.7759098,748.496615 C83.2772895,748.400071 83.7786693,748.747628 83.8529478,749.288273 C83.9457959,749.790301 83.6115427,750.311637 83.0915933,750.40818 C82.0331249,750.620577 81.1046439,750.639885 80.8446692,750.639885 L80.8446692,750.639885 Z M77.1121754,754.617486 C77.0378969,754.617486 76.9450488,754.617486 76.8707703,754.617486 C73.9182005,753.729284 71.98696,752.590068 69.9628713,750.524033 C67.3631243,747.859426 65.9332635,744.268 65.9332635,740.444869 C65.9332635,737.316852 68.4958712,734.768098 71.6527068,734.768098 C74.8095424,734.768098 77.3721501,737.316852 77.3721501,740.444869 C77.3721501,742.510904 79.1362641,744.190765 81.2346312,744.190765 C83.3701376,744.190765 85.0971124,742.510904 85.0971124,740.444869 C85.0971124,733.165473 79.0619856,727.256997 71.6341372,727.256997 C66.3603648,727.256997 61.4951241,730.307779 59.3596177,735.038421 C58.6354024,736.602429 58.26401,738.43676 58.26401,740.444869 C58.26401,741.950951 58.3939974,744.325926 59.5081746,747.415325 C59.6938708,747.917352 59.4524658,748.477306 58.9696556,748.651085 C58.4868455,748.824863 57.9483265,748.57385 57.7811999,748.091131 C56.8527188,745.561686 56.4256175,743.03224 56.4256175,740.444869 C56.4256175,738.12782 56.8527188,736.023167 57.6883518,734.188836 C60.1581114,728.801697 65.6361496,725.306814 71.6341372,725.306814 C80.0647451,725.306814 86.9540745,732.084183 86.9540745,740.42556 C86.9540745,743.553577 84.3914668,746.102331 81.2346312,746.102331 C78.0777957,746.102331 75.515188,743.553577 75.515188,740.42556 C75.515188,738.359525 73.7882132,736.679664 71.6527068,736.679664 C69.5172004,736.679664 67.7902256,738.359525 67.7902256,740.42556 C67.7902256,743.727355 69.0158206,746.816754 71.2627447,749.133803 C73.0268587,750.948825 74.7166943,751.95288 77.3350108,752.686612 C77.8363906,752.841082 78.1149349,753.381727 77.9849476,753.883754 C77.8920994,754.327855 77.5021374,754.617486 77.1121754,754.617486 Z" transform="translate(71.701621, 735.308743) rotate(-11.000000) translate(-71.701621, -735.308743)"/><g id="rocket-light-(1)" fill="#FFBF47" fill-rule="nonzero" transform="translate(693.736285, 595.363223) rotate(-7.000000) translate(-693.736285, -595.363223) translate(672.236285, 573.863223)"><path id="Shape" d="M42.2379244,1.75810762 C42.1286165,1.25055049 41.731709,0.854318616 41.2239328,0.745841993 C38.5486688,0.171623243 36.4550552,0.171623243 34.3688251,0.171623243 C25.8590079,0.171623243 20.7365459,4.69154512 16.9029032,10.6716232 L8.58423489,10.6716232 C7.09534014,10.6728829 5.73447011,11.5137136 5.06725944,12.8446311 L1.01293412,20.9493186 C0.70850992,21.5597583 0.74178972,22.2842676 1.10089435,22.8642338 C1.45999898,23.4441999 2.09375114,23.79697 2.77593394,23.7966232 L10.3726665,23.7966232 L9.50388254,25.5537326 C9.00749251,26.5594819 9.21075558,27.7700348 10.0084172,28.5585373 L14.4196084,32.9652561 C14.9108109,33.4589168 15.5780578,33.7371835 16.274491,33.7388107 C16.6729987,33.7383726 17.0660338,33.6460172 17.4230251,33.4689279 L19.1778211,32.6010373 L19.1778211,40.2028732 C19.1814228,41.2886886 20.06083,42.1680218 21.1467366,42.1716232 C21.4496381,42.1716232 21.7482904,42.1003545 22.0188022,41.9640842 L30.1159675,37.9125607 C31.44932,37.2465634 32.2912224,35.8837492 32.2899784,34.3934201 L32.2899784,26.0697092 C38.2607149,22.2322873 42.804808,17.0905686 42.804808,8.62084199 C42.811371,6.52658418 42.811371,4.43724824 42.2379244,1.75810762 Z M11.3021588,21.1716232 L3.83668721,21.1716232 L7.41273012,14.0184982 C7.63698815,13.5772764 8.08926288,13.2985871 8.58423489,13.2966232 L15.5722444,13.2966232 C14.4286326,15.5992404 12.9699943,18.5466232 11.6705101,21.1716232 L11.3021588,21.1716232 Z M29.6672188,34.3934201 C29.6660222,34.8899285 29.3847296,35.3432603 28.9403608,35.5648264 L21.8030418,39.136467 L21.8030418,31.300842 C24.4282626,30.0022873 27.3668691,28.5454123 29.6672188,27.4010764 L29.6672188,34.3934201 Z M30.8682573,23.8704514 C27.6277504,25.4930295 19.721734,29.4034592 16.2728502,31.1088889 L11.857557,26.7161154 C13.5696932,23.2519357 17.4796314,15.3474045 19.0957829,12.0997873 C23.2149184,5.66771699 27.9296508,2.79662324 34.3688251,2.79662324 C36.1359268,2.79662324 37.8144274,2.79662324 39.835027,3.14853731 C40.1910725,5.18865449 40.1845095,6.85717012 40.1779464,8.62002168 C40.1797124,15.0250217 37.308252,19.7327951 30.8682573,23.8704514 Z M30.9913145,6.73412324 C28.0915757,6.73412324 25.740873,9.08462831 25.740873,11.9841232 C25.740873,14.8836182 28.0915757,17.2341232 30.9913145,17.2341232 C33.8910533,17.2341232 36.2417561,14.8836182 36.2417561,11.9841232 C36.2385911,9.08594018 33.8897413,6.73728794 30.9913145,6.73412324 L30.9913145,6.73412324 Z M30.9913145,14.6091232 C29.5414451,14.6091232 28.3660938,13.4338707 28.3660938,11.9841232 C28.3660938,10.5343758 29.5414451,9.35912324 30.9913145,9.35912324 C32.4411839,9.35912324 33.6165353,10.5343758 33.6165353,11.9841232 C33.6165353,13.4338707 32.4411839,14.6091232 30.9913145,14.6091232 Z"/></g></g></svg>