<?xml version="1.0" encoding="utf-8" ?>
<svg baseProfile="full" height="720px" version="1.1" width="720px" xmlns="http://www.w3.org/2000/svg" xmlns:ev="http://www.w3.org/2001/xml-events" xmlns:xlink="http://www.w3.org/1999/xlink"><defs /><rect fill="rgb(185,151,104)" height="41px" opacity="0.0862745098039" width="41px" x="80px" y="0px" /><rect fill="rgb(247,178,81)" height="41px" width="41px" x="200px" y="0px" /><rect fill="rgb(0,70,139)" height="41px" opacity="0.043137254902" width="41px" x="320px" y="0px" /><rect fill="rgb(247,178,81)" height="41px" width="41px" x="40px" y="40px" /><rect fill="rgb(247,178,81)" height="41px" width="41px" x="200px" y="40px" /><rect fill="rgb(4,58,112)" height="41px" width="41px" x="240px" y="40px" /><rect fill="rgb(247,178,81)" height="41px" width="41px" x="40px" y="80px" /><rect fill="rgb(7,83,159)" height="41px" width="41px" x="80px" y="80px" /><rect fill="rgb(6,83,159)" height="41px" width="41px" x="120px" y="80px" /><rect fill="rgb(247,178,81)" height="41px" width="41px" x="200px" y="80px" /><rect fill="rgb(4,58,112)" height="41px" width="41px" x="240px" y="80px" /><rect fill="rgb(4,58,112)" height="41px" width="41px" x="280px" y="80px" /><rect fill="rgb(7,83,159)" height="41px" width="41px" x="400px" y="80px" /><rect fill="rgb(7,83,159)" height="41px" width="41px" x="440px" y="80px" /><rect fill="rgb(7,83,159)" height="41px" width="41px" x="480px" y="80px" /><rect fill="rgb(247,178,81)" height="41px" width="41px" x="520px" y="80px" /><rect fill="rgb(247,178,81)" height="41px" width="41px" x="560px" y="80px" /><rect fill="rgb(247,178,81)" height="41px" width="41px" x="40px" y="120px" /><rect fill="rgb(7,83,159)" height="41px" width="41px" x="80px" y="120px" /><rect fill="rgb(7,83,159)" height="41px" width="41px" x="120px" y="120px" /><rect fill="rgb(7,83,159)" height="41px" width="41px" x="160px" y="120px" /><rect fill="rgb(7,83,159)" height="41px" width="41px" x="200px" y="120px" /><rect fill="rgb(7,83,159)" height="41px" width="41px" x="240px" y="120px" /><rect fill="rgb(7,83,159)" height="41px" width="41px" x="280px" y="120px" /><rect fill="rgb(6,82,156)" height="41px" opacity="0.98431372549" width="41px" x="320px" y="120px" /><rect fill="rgb(7,83,159)" height="41px" width="41px" x="360px" y="120px" /><rect fill="rgb(246,247,249)" height="41px" width="41px" x="400px" y="120px" /><rect fill="rgb(246,247,249)" height="41px" width="41px" x="440px" y="120px" /><rect fill="rgb(246,247,249)" height="41px" width="41px" x="480px" y="120px" /><rect fill="rgb(247,178,81)" height="41px" width="41px" x="520px" y="120px" /><rect fill="rgb(247,178,81)" height="41px" width="41px" x="560px" y="120px" /><rect fill="rgb(247,178,81)" height="41px" width="41px" x="600px" y="120px" /><rect fill="rgb(247,178,81)" height="41px" width="41px" x="40px" y="160px" /><rect fill="rgb(7,83,159)" height="41px" width="41px" x="80px" y="160px" /><rect fill="rgb(6,83,159)" height="41px" width="41px" x="120px" y="160px" /><rect fill="rgb(7,83,159)" height="41px" width="41px" x="160px" y="160px" /><rect fill="rgb(7,83,159)" height="41px" width="41px" x="200px" y="160px" /><rect fill="rgb(7,83,159)" height="41px" width="41px" x="240px" y="160px" /><rect fill="rgb(7,83,159)" height="41px" width="41px" x="280px" y="160px" /><rect fill="rgb(7,83,159)" height="41px" width="41px" x="320px" y="160px" /><rect fill="rgb(246,247,249)" height="41px" width="41px" x="360px" y="160px" /><rect fill="rgb(246,247,249)" height="41px" width="41px" x="400px" y="160px" /><rect fill="rgb(246,247,249)" height="41px" width="41px" x="440px" y="160px" /><rect fill="rgb(246,247,249)" height="41px" width="41px" x="480px" y="160px" /><rect fill="rgb(247,178,81)" height="41px" width="41px" x="520px" y="160px" /><rect fill="rgb(247,178,81)" height="41px" width="41px" x="560px" y="160px" /><rect fill="rgb(247,178,81)" height="41px" width="41px" x="600px" y="160px" /><rect fill="rgb(247,178,81)" height="41px" width="41px" x="640px" y="160px" /><rect fill="rgb(247,178,81)" height="41px" width="41px" x="40px" y="200px" /><rect fill="rgb(7,83,159)" height="41px" width="41px" x="80px" y="200px" /><rect fill="rgb(7,83,159)" height="41px" width="41px" x="120px" y="200px" /><rect fill="rgb(7,83,159)" height="41px" width="41px" x="160px" y="200px" /><rect fill="rgb(7,83,159)" height="41px" width="41px" x="200px" y="200px" /><rect fill="rgb(7,83,159)" height="41px" width="41px" x="240px" y="200px" /><rect fill="rgb(7,83,159)" height="41px" width="41px" x="280px" y="200px" /><rect fill="rgb(7,83,159)" height="41px" width="41px" x="320px" y="200px" /><rect fill="rgb(246,247,249)" height="41px" width="41px" x="360px" y="200px" /><rect fill="rgb(246,247,249)" height="41px" width="41px" x="400px" y="200px" /><rect fill="rgb(0,0,0)" height="41px" width="41px" x="440px" y="200px" /><rect fill="rgb(246,247,249)" height="41px" width="41px" x="480px" y="200px" /><rect fill="rgb(247,178,81)" height="41px" width="41px" x="520px" y="200px" /><rect fill="rgb(247,178,81)" height="41px" width="41px" x="560px" y="200px" /><rect fill="rgb(247,178,81)" height="41px" width="41px" x="600px" y="200px" /><rect fill="rgb(247,178,81)" height="41px" width="41px" x="640px" y="200px" /><rect fill="rgb(247,178,81)" height="41px" width="41px" x="40px" y="240px" /><rect fill="rgb(247,178,81)" height="41px" width="41px" x="80px" y="240px" /><rect fill="rgb(7,83,159)" height="41px" width="41px" x="120px" y="240px" /><rect fill="rgb(7,83,159)" height="41px" width="41px" x="160px" y="240px" /><rect fill="rgb(7,83,159)" height="41px" width="41px" x="200px" y="240px" /><rect fill="rgb(7,83,159)" height="41px" width="41px" x="240px" y="240px" /><rect fill="rgb(6,82,159)" height="41px" width="41px" x="280px" y="240px" /><rect fill="rgb(7,83,159)" height="41px" width="41px" x="320px" y="240px" /><rect fill="rgb(246,247,249)" height="41px" width="41px" x="360px" y="240px" /><rect fill="rgb(246,247,249)" height="41px" width="41px" x="400px" y="240px" /><rect fill="rgb(246,247,249)" height="41px" width="41px" x="440px" y="240px" /><rect fill="rgb(246,247,249)" height="41px" width="41px" x="480px" y="240px" /><rect fill="rgb(247,178,81)" height="41px" width="41px" x="520px" y="240px" /><rect fill="rgb(247,178,81)" height="41px" width="41px" x="560px" y="240px" /><rect fill="rgb(247,178,81)" height="41px" width="41px" x="600px" y="240px" /><rect fill="rgb(247,178,81)" height="41px" width="41px" x="640px" y="240px" /><rect fill="rgb(247,178,81)" height="41px" width="41px" x="80px" y="280px" /><rect fill="rgb(247,178,81)" height="41px" width="41px" x="120px" y="280px" /><rect fill="rgb(7,83,159)" height="41px" width="41px" x="160px" y="280px" /><rect fill="rgb(7,83,159)" height="41px" width="41px" x="200px" y="280px" /><rect fill="rgb(7,83,159)" height="41px" width="41px" x="240px" y="280px" /><rect fill="rgb(7,83,159)" height="41px" width="41px" x="280px" y="280px" /><rect fill="rgb(7,83,159)" height="41px" width="41px" x="320px" y="280px" /><rect fill="rgb(246,247,249)" height="41px" width="41px" x="360px" y="280px" /><rect fill="rgb(246,247,249)" height="41px" width="41px" x="400px" y="280px" /><rect fill="rgb(246,247,249)" height="41px" width="41px" x="440px" y="280px" /><rect fill="rgb(246,247,249)" height="41px" width="41px" x="480px" y="280px" /><rect fill="rgb(245,159,34)" height="41px" width="41px" x="520px" y="280px" /><rect fill="rgb(245,159,34)" height="41px" width="41px" x="560px" y="280px" /><rect fill="rgb(247,178,81)" height="41px" width="41px" x="120px" y="320px" /><rect fill="rgb(247,178,81)" height="41px" width="41px" x="160px" y="320px" /><rect fill="rgb(7,83,159)" height="41px" width="41px" x="200px" y="320px" /><rect fill="rgb(7,83,159)" height="41px" width="41px" x="240px" y="320px" /><rect fill="rgb(7,83,159)" height="41px" width="41px" x="280px" y="320px" /><rect fill="rgb(7,83,159)" height="41px" width="41px" x="320px" y="320px" /><rect fill="rgb(7,83,159)" height="41px" width="41px" x="360px" y="320px" /><rect fill="rgb(246,247,249)" height="41px" width="41px" x="400px" y="320px" /><rect fill="rgb(246,247,249)" height="41px" width="41px" x="440px" y="320px" /><rect fill="rgb(246,247,249)" height="41px" width="41px" x="480px" y="320px" /><rect fill="rgb(245,159,34)" height="41px" width="41px" x="520px" y="320px" /><rect fill="rgb(255,255,0)" height="41px" opacity="0.00392156862745" width="41px" x="640px" y="320px" /><rect fill="rgb(255,170,85)" height="41px" opacity="0.0352941176471" width="41px" x="680px" y="320px" /><rect fill="rgb(7,83,159)" height="41px" width="41px" x="160px" y="360px" /><rect fill="rgb(7,83,159)" height="41px" width="41px" x="200px" y="360px" /><rect fill="rgb(7,83,159)" height="41px" width="41px" x="240px" y="360px" /><rect fill="rgb(7,83,159)" height="41px" width="41px" x="280px" y="360px" /><rect fill="rgb(7,83,159)" height="41px" width="41px" x="320px" y="360px" /><rect fill="rgb(7,83,159)" height="41px" width="41px" x="360px" y="360px" /><rect fill="rgb(7,83,159)" height="41px" width="41px" x="400px" y="360px" /><rect fill="rgb(7,83,159)" height="41px" width="41px" x="440px" y="360px" /><rect fill="rgb(7,83,159)" height="41px" width="41px" x="480px" y="360px" /><rect fill="rgb(255,170,0)" height="41px" opacity="0.0117647058824" width="41px" x="600px" y="360px" /><rect fill="rgb(7,83,159)" height="41px" width="41px" x="160px" y="400px" /><rect fill="rgb(7,83,159)" height="41px" width="41px" x="200px" y="400px" /><rect fill="rgb(7,83,159)" height="41px" width="41px" x="240px" y="400px" /><rect fill="rgb(7,83,159)" height="41px" width="41px" x="280px" y="400px" /><rect fill="rgb(7,83,159)" height="41px" width="41px" x="320px" y="400px" /><rect fill="rgb(7,83,159)" height="41px" width="41px" x="360px" y="400px" /><rect fill="rgb(7,83,159)" height="41px" width="41px" x="400px" y="400px" /><rect fill="rgb(7,83,159)" height="41px" width="41px" x="440px" y="400px" /><rect fill="rgb(7,83,159)" height="41px" width="41px" x="120px" y="440px" /><rect fill="rgb(7,83,159)" height="41px" width="41px" x="160px" y="440px" /><rect fill="rgb(7,83,159)" height="41px" width="41px" x="200px" y="440px" /><rect fill="rgb(7,83,159)" height="41px" width="41px" x="240px" y="440px" /><rect fill="rgb(7,83,159)" height="41px" width="41px" x="280px" y="440px" /><rect fill="rgb(7,83,159)" height="41px" width="41px" x="320px" y="440px" /><rect fill="rgb(7,83,159)" height="41px" width="41px" x="360px" y="440px" /><rect fill="rgb(7,83,159)" height="41px" width="41px" x="400px" y="440px" /><rect fill="rgb(7,83,159)" height="41px" width="41px" x="120px" y="480px" /><rect fill="rgb(7,83,159)" height="41px" width="41px" x="160px" y="480px" /><rect fill="rgb(7,83,159)" height="41px" width="41px" x="200px" y="480px" /><rect fill="rgb(7,83,159)" height="41px" width="41px" x="240px" y="480px" /><rect fill="rgb(7,83,159)" height="41px" width="41px" x="280px" y="480px" /><rect fill="rgb(7,83,159)" height="41px" width="41px" x="320px" y="480px" /><rect fill="rgb(7,83,159)" height="41px" width="41px" x="360px" y="480px" /><rect fill="rgb(233,78,107)" height="41px" width="41px" x="80px" y="520px" /><rect fill="rgb(233,78,107)" height="41px" width="41px" x="120px" y="520px" /><rect fill="rgb(7,83,159)" height="41px" width="41px" x="160px" y="520px" /><rect fill="rgb(7,83,159)" height="41px" width="41px" x="200px" y="520px" /><rect fill="rgb(7,83,159)" height="41px" width="41px" x="240px" y="520px" /><rect fill="rgb(7,83,159)" height="41px" width="41px" x="280px" y="520px" /><rect fill="rgb(7,83,159)" height="41px" width="41px" x="320px" y="520px" /><rect fill="rgb(233,78,107)" height="41px" width="41px" x="80px" y="560px" /><rect fill="rgb(233,78,107)" height="41px" width="41px" x="120px" y="560px" /><rect fill="rgb(233,78,107)" height="41px" width="41px" x="160px" y="560px" /><rect fill="rgb(233,78,107)" height="41px" width="41px" x="200px" y="560px" /><rect fill="rgb(11,85,159)" height="41px" opacity="0.0941176470588" width="41px" x="280px" y="560px" /><rect fill="rgb(0,85,170)" height="41px" opacity="0.0235294117647" width="41px" x="320px" y="560px" /><rect fill="rgb(233,78,107)" height="41px" width="41px" x="40px" y="600px" /><rect fill="rgb(233,78,107)" height="41px" width="41px" x="80px" y="600px" /><rect fill="rgb(233,78,107)" height="41px" width="41px" x="120px" y="600px" /><rect fill="rgb(233,78,107)" height="41px" width="41px" x="160px" y="600px" /><rect fill="rgb(233,78,107)" height="41px" width="41px" x="40px" y="640px" /><rect fill="rgb(233,78,107)" height="41px" width="41px" x="80px" y="640px" /><rect fill="rgb(233,78,107)" height="41px" width="41px" x="120px" y="640px" /></svg>