<?xml version="1.0" encoding="UTF-8"?>
<svg width="3067px" height="3067px" viewBox="0 0 3067 3067" version="1.1" xmlns="http://www.w3.org/2000/svg" xmlns:xlink="http://www.w3.org/1999/xlink">
    <!-- Generator: Sketch 55.2 (78181) - https://sketchapp.com -->
    <title>Slice</title>
    <desc>Created with Sketch.</desc>
    <defs>
        <linearGradient x1="50%" y1="0%" x2="50%" y2="100%" id="linearGradient-1">
            <stop stop-color="#4E53FF" offset="0%"></stop>
            <stop stop-color="#3442D9" offset="100%"></stop>
        </linearGradient>
    </defs>
    <g id="Page-1" stroke="none" stroke-width="1" fill="none" fill-rule="evenodd">
        <g id="berty_classic" transform="translate(215.000000, -4.000000)">
            <polygon id="Path-6-Copy-6" stroke="#3F49E9" stroke-width="100" fill="#FFFFFF" points="1318.14915 76 52 807 52 2269 1318 3000 2584 2269 2584 807"></polygon>
            <g id="Group" transform="translate(529.000000, 705.000000)" fill-rule="nonzero">
                <g id="Path" transform="translate(127.000000, 213.000000)">
                    <path d="M678.661417,423.236277 C678.661417,418.147264 678.76122,413.058251 679.010728,408.01913 C686.945079,231.999138 835.90128,91.7519173 1013.8082,91.352779 C1014,58.4737613 1010.30728,37.1198621 1010.30728,36.3714778 C1010.956,36.3714778 1011.60472,36.3215855 1012.20354,36.3215855 C912.250689,35.3736321 813.495472,55.1808703 722.125689,93.4981474 C691.186713,106.470142 661.145965,121.537613 632.15315,138.650668 L632.15315,138.650668 C595.725,160.154244 561.043406,184.850926 528.55748,212.740715 C517.728839,222.020681 507.149705,231.649892 496.820079,241.62835 L315.328051,141.195174 L215.325295,85.9145196 L59.9816929,0.0498922878 C-67.367126,229.055493 14.9205709,517.832055 243.66939,645.406635 L18.8627953,1074.58009 C18.9126969,1074.58009 18.9126969,1074.62999 18.9625984,1074.62999 C113.725689,1124.22292 214.427067,1150.76562 314.679331,1156.60302 C592.431496,1172.81801 867.089764,1028.92865 1004.5686,766.495218 L1009.85817,755.169668 C1008.21142,755.169668 1006.51476,755.169668 1004.86801,755.119776 C824.224311,752.026454 678.661417,604.644636 678.661417,423.236277 Z" fill="url(#linearGradient-1)"></path>
                    <path d="M765.090945,616.169754 C714.590551,560.68953 682.603642,488.046359 679.010728,408.01913 C678.76122,413.058251 678.661417,418.147264 678.661417,423.236277 C678.661417,604.644636 824.174409,752.076346 1004.91791,755.119776 C1006.86407,755.169668 1008.76033,755.169668 1010.7065,755.169668 L1010.7065,724.68548 C913.398425,724.735373 825.821161,682.875743 765.090945,616.169754 Z" fill="#FFBF47"></path>
                    <path d="M1009.90807,91.3028867 C832.008957,91.702025 686.99498,231.999138 679.010728,408.01913 C682.603642,488.046359 714.590551,560.68953 765.090945,616.169754 C825.821161,682.875743 913.348524,724.735373 1010.7065,724.735373 L1010.7065,91.2529944 C1010.45699,91.2529944 1010.20748,91.2529944 1009.90807,91.3028867 Z" fill="#FFFFFF"></path>
                </g>
                <g>
                    <path d="M187.208695,214.08228 L81.7291693,155.410464 C-78.0867826,442.832513 27.2430564,806.937029 314.692229,966.737901 L371.473544,859.771598 C142.252663,732.349984 59.7750579,443.281532 187.208695,214.08228 Z" id="Path" fill="#FFBF47"></path>
                    <g id="Path" transform="translate(1137.123179, 249.953908)">
                        <path d="M0.299374246,458.947306 L0.299374246,719.078979 C0.399165662,719.078979 0.548852785,719.078979 0.648644201,719.078979 C125.587496,718.929306 229.869526,630.672127 254.767484,513.128932 L0.299374246,458.947306 Z" fill="#FFAE3A"></path>
                        <path d="M314.293063,120.237309 C239.00044,51.8866397 141.055166,8.13223295 33.0808542,1.34705699 C22.8023384,0.798255995 12.5238226,0.449018997 2.24530685,0.349236998 C1.59666265,0.349236998 0.948018447,0.399127998 0.349269954,0.399127998 C0.349269954,2.09542199 0.349269954,458.947306 0.349269954,458.947306 L456.296247,555.93541 C462.533211,525.701464 465.876223,494.419807 465.876223,462.339894 C465.776432,326.736157 407.348558,204.752663 314.293063,120.237309 Z" fill="#FFBF47"></path>
                    </g>
                    <g id="Path">
                        <g id="Group" transform="translate(342.284555, 0.000000)">
                            <path d="M416.97843,352.629586 L303.51559,100.979383 C194.792843,150.022236 122.543858,246.710993 100.240477,355.223918 L281.761062,455.554718 C322.974916,415.691809 368.479802,381.26702 416.97843,352.629586 Z" id="Path" fill="#3442D9"></path>
                            <path d="M100.240477,355.223918 C122.593754,246.710993 194.792843,150.022236 303.51559,100.979383 L258.160392,0.399127998 C127.034472,59.5199626 36.5236581,171.575148 0.199582831,299.894799 L100.240477,355.223918 L100.240477,355.223918 Z" id="Path" fill="#FFBF47"></path>
                        </g>
                        <path d="M0.349269954,1566.47761 C151.034307,1645.55484 337.294984,1587.53161 416.379681,1436.86079 C427.656111,1415.35777 436.088486,1393.15628 441.876388,1370.60554 C341.586015,1364.7683 240.946373,1338.22628 146.194424,1288.63463 L0.349269954,1566.47761 Z" fill="#F74868"></path>
                    </g>
                    <ellipse id="Oval" fill="#383B62" cx="1030.94511" cy="616.503083" rx="59.4756836" ry="59.4700716"></ellipse>
                </g>
            </g>
        </g>
    </g>
</svg>