<svg xmlns="http://www.w3.org/2000/svg" xmlns:xlink="http://www.w3.org/1999/xlink" width="3405" height="995" version="1.1" viewBox="0 0 3405 995"><title>berty_line</title><desc>Created with Sketch.</desc><g id="Page-1" fill="none" fill-rule="evenodd" stroke="none" stroke-width="1"><g id="berty_line" transform="translate(12.000000, 12.000000)"><path id="Shape" stroke="#000" stroke-linecap="round" stroke-linejoin="round" stroke-width="24" d="M1255.67139,253.714082 C1236.69182,253.327283 1217.80201,256.425821 1199.93697,262.856329 L1199.93697,5 L1056,5 L1056,693.291307 C1096.54773,718.657295 1160.39919,742 1238.42739,742 C1395.53114,742 1507,648.591713 1507,490.213523 C1507,349.145653 1389.43402,253.714082 1255.67139,253.714082 Z M1248.52691,613.071835 C1231.8736,613.276891 1215.34523,610.169454 1199.89956,603.929588 L1199.89956,394.856889 C1211.12126,387.737926 1234.35017,381.630605 1254.62404,381.630605 C1311.40582,381.630605 1364.11039,427.34184 1364.11039,495.34667 C1364.11039,565.374784 1319.59766,613.071835 1248.52691,613.071835 Z"/><path id="Shape" stroke="#000" stroke-linecap="round" stroke-linejoin="round" stroke-width="24" d="M2247.07898,339.089273 L2243.10809,267 L2106,267 L2106,727 L2254.34646,727 L2254.34646,545.278081 C2254.34646,434.633787 2327.39585,387.910646 2406.58888,387.910646 L2418.76378,387.910646 L2420,269.060764 C2344.7404,268.985827 2275.51205,281.125601 2247.07898,339.089273 Z"/><path id="Shape" stroke="#000" stroke-linecap="round" stroke-linejoin="round" stroke-width="24" d="M2692.59235,125 L2550.43404,178.791674 L2550.43404,268.094844 L2496,268.094844 L2496.97471,389.912758 L2547.35994,389.912758 L2547.35994,577.696646 C2547.35994,670.034026 2616.41469,736 2717.97241,736 C2747.47625,736 2772.85631,731.954387 2788.07685,724.762185 L2799.32355,602.98173 C2786.12742,608.076206 2770.90688,610.099013 2751.60004,610.099013 C2718.04738,610.099013 2694.72922,590.807431 2694.72922,556.307339 L2694.72922,390.025136 L2825.7533,390.025136 L2837,268.207222 L2692.59235,268.207222 L2692.59235,125 Z"/><path id="Shape" stroke="#000" stroke-linecap="round" stroke-linejoin="round" stroke-width="24" d="M3240.94251,267.149939 L3171.96232,447.938608 C3161.182,476.849418 3152.04247,506.346914 3144.58744,536.290027 L3142.52778,536.290027 C3133.39033,502.778713 3124.25289,473.315745 3114.14179,446.926521 L3046.13527,267 L2899,267 L3070.47681,703.734146 C3026.84927,809.366008 2982.24808,851.011501 2911.17077,874.401949 L2972.06208,971 C3082.64758,943.59869 3157.73188,849.137266 3219.63429,687.615729 L3381,267.149939 L3240.94251,267.149939 Z"/><path id="Shape" stroke="#000" stroke-linecap="round" stroke-linejoin="round" stroke-width="24" d="M1816.71844,253 C1687.73155,253 1577,345.487148 1577,494.96739 C1577,645.423157 1695.82837,742 1846.14439,742 C1907.09548,742 1951.77795,730.743958 1983.26559,715.735901 L1996.4979,592.744878 C1956.87595,616.119926 1916.24189,628.351492 1863.42511,628.351492 C1782.157,628.351492 1739.49874,581.563876 1728.47806,540.892043 L1927.71239,541.454845 C1927.71239,541.454845 2010.62985,541.454845 2019.85124,481.42262 C2019.85124,481.42262 2023,451.068825 2023,436.135809 C2022.88754,341.397453 1944.69323,253 1816.71844,253 Z M1885.76635,445.178163 L1723.26761,445.178163 C1733.42612,398.390547 1771.99849,365.860585 1816.71844,365.860585 C1859.3767,365.860585 1886.81594,398.390547 1886.81594,434.972685 C1887.03077,438.39679 1886.67608,441.832838 1885.76635,445.140643 L1885.76635,445.178163 Z"/><path id="Shape" stroke="#000" stroke-linecap="round" stroke-linejoin="round" stroke-width="24" d="M437.806918,345.903674 C437.806918,343.131493 437.869407,340.3718 437.994383,337.624594 C442.306076,242.021828 521.153807,166.28128 617.885689,166.056509 C617.967132,159.373986 617.967132,149.354331 617.885689,135.997543 C545.255973,135.458475 475.083728,154.294692 412.536652,191.186031 C392.647139,202.925958 373.828307,216.389073 356.297185,231.420111 C350.423286,236.415031 344.674362,241.647209 339.050416,247.116646 L240.368899,192.609583 L186.004081,162.640064 L101.569896,116 C32.3691469,240.368389 77.0464425,397.237923 201.413695,466.56845 L79.2240815,699.693848 C273.437262,801.254994 513.278235,726.326989 614.99873,532.314083 L617.885689,526.13287 L615.186195,526.13287 C516.764794,524.437115 437.85363,444.2581 437.806918,345.903674 Z"/><path id="Shape" stroke="#000" stroke-linecap="round" stroke-linejoin="round" stroke-width="24" d="M101.912368,115.789205 L44.5802538,84 C-42.2423008,239.879303 14.9773975,437.308967 171.160569,524 L202,465.99405 C142.193632,432.803831 98.0487827,377.259474 79.2783378,311.582021 C60.5078929,245.904568 68.649698,175.474912 101.912368,115.789205 Z"/><path id="Shape" stroke="#000" stroke-linecap="round" stroke-linejoin="round" stroke-width="24" d="M618,385 L618,527 C685.202457,526.889581 743.03955,480.037102 757,414.551962 L618,385 Z"/><path id="Shape" stroke="#000" stroke-linecap="round" stroke-linejoin="round" stroke-width="24" d="M788.653019,201.153426 C746.541679,162.840699 692.622525,140.042304 635.803686,136.524826 C630.218951,136.224926 624.559253,136.037488 619.04948,136 L618,136 C618,136.899702 618,385.254965 618,385.254965 L865.789833,438 C883.788217,350.961745 854.453689,260.89084 788.653019,201.153426 Z"/><path id="Shape" stroke="#000" stroke-linecap="round" stroke-linejoin="round" stroke-width="24" d="M412,190.961688 L350.373531,54 C293.527398,79.655327 252.456223,131.150979 240,192.387981 L338.392686,247 C360.642621,225.481036 385.349465,206.671358 412,190.961688 Z"/><path id="Shape" stroke="#000" stroke-linecap="round" stroke-linejoin="round" stroke-width="24" d="M351,54.6927114 L326.313779,0 C257.725341,30.854757 206.340319,90.5167818 186,162.915258 L240.399727,193 C252.881539,131.798705 294.037087,80.333079 351,54.6927114 Z"/><path id="Shape" stroke="#000" stroke-linecap="round" stroke-linejoin="round" stroke-width="24" d="M0,850.849799 C45.3029725,874.587051 98.9883215,876.346863 145.75318,855.627606 C192.518038,834.908348 227.232021,793.983047 240,744.517352 C183.838451,741.268156 129.017838,726.091113 79.2,700 L0,850.849799 Z"/><circle id="Oval" cx="554" cy="329" r="32" fill="#000"/></g></g></svg>