<svg xmlns="http://www.w3.org/2000/svg" xmlns:xlink="http://www.w3.org/1999/xlink" width="30" height="30" version="1.1" viewBox="0 0 30 30"><g id="Page-1" fill="none" fill-rule="evenodd" stroke="none" stroke-linejoin="round" stroke-width="1"><g id="check-circle" stroke="#000" stroke-linecap="round" stroke-width="2" transform="translate(14.500000, 15.000000) scale(-1, 1) translate(-14.500000, -15.000000) translate(1.000000, 2.000000)"><path id="Path" d="M23.1689403,12.0056849 L23.1689403,12.9256849 C23.1664081,17.3543707 20.2512342,21.2538978 16.0042927,22.5095858 C11.7573511,23.7652738 7.19033381,22.077997 4.77989535,18.3627512 C2.36945689,14.6475054 2.68980371,9.78932383 5.56721446,6.422757 C8.44462521,3.05619016 13.1936529,1.98321014 17.2389403,3.78568485" transform="translate(13.168912, 12.920111) rotate(-21.000000) translate(-13.168912, -12.920111)"/><path id="Path" d="M18.1793173,14.5831795 L16.0393413,12.4432035 L18.1793173,14.5831795 Z" transform="translate(17.109329, 13.513192) rotate(-45.000000) translate(-17.109329, -13.513192)"/></g><polygon id="1" fill="#000" stroke="#141414" points="19.462 19 14.752 19 14.752 18.092 16.65 18.092 16.65 11.135 14.86 12.03 14.86 10.989 16.796 9.993 17.691 9.993 17.691 18.092 19.462 18.092"/></g></svg>