
<svg width="46px" height="29px" viewBox="0 0 46 29" version="1.1" xmlns="http://www.w3.org/2000/svg" xmlns:xlink="http://www.w3.org/1999/xlink">
    <!-- Generator: Sketch 50.2 (55047) - http://www.bohemiancoding.com/sketch -->
    <desc>Created with Sketch.</desc>
    <defs>
        <path d="M17,5 L7,5 C5.3,5 4,6.3 4,8 L4,24 C4,25.7 5.3,27 7,27 L17,27 C18.7,27 20,25.7 20,24 L20,8 C20,6.3 18.7,5 17,5 Z M18,24 C18,24.6 17.6,25 17,25 L7,25 C6.4,25 6,24.6 6,24 L6,8 C6,7.4 6.4,7 7,7 L17,7 C17.6,7 18,7.4 18,8 L18,24 Z M12.7,21.3 C12.9,21.5 13,21.8 13,22 C13,22.3 12.9,22.5 12.7,22.7 C12.5,22.9 12.3,23 12,23 C11.9,23 11.7,23 11.6,22.9 C11.5,22.9 11.4,22.8 11.3,22.7 C11.1,22.5 11,22.3 11,22 C11,21.9 11,21.7 11.1,21.6 C11.2,21.5 11.2,21.4 11.3,21.3 C11.7,20.9 12.3,20.9 12.7,21.3 Z" id="path-1"></path>
        <path d="M24.5,0.615384615 L24.5,3.07692308 C24.5,3.44615385 24.2538462,3.69230769 23.8846154,3.69230769 C23.5153846,3.69230769 23.2692308,3.44615385 23.2692308,3.07692308 L23.2692308,0.615384615 C23.2692308,0.246153846 23.5153846,0 23.8846154,0 C24.2538462,0 24.5,0.246153846 24.5,0.615384615 Z M19.9461538,1.96923077 C19.7,1.72307692 19.3307692,1.72307692 19.0846154,1.96923077 C18.8384615,2.21538462 18.8384615,2.58461538 19.0846154,2.83076923 L20.8076923,4.55384615 C20.9307692,4.67692308 21.1153846,4.73846154 21.2384615,4.73846154 C21.3615385,4.73846154 21.5461538,4.67692308 21.6692308,4.55384615 C21.9153846,4.30769231 21.9153846,3.93846154 21.6692308,3.69230769 L19.9461538,1.96923077 Z M26.4692308,4.8 C26.6538462,4.8 26.7769231,4.73846154 26.9,4.61538462 L28.6230769,2.89230769 C28.8692308,2.64615385 28.8692308,2.27692308 28.6230769,2.03076923 C28.3769231,1.78461538 28.0076923,1.78461538 27.7615385,2.03076923 L26.0384615,3.75384615 C25.7923077,4 25.7923077,4.36923077 26.0384615,4.61538462 C26.1615385,4.73846154 26.3461538,4.8 26.4692308,4.8 Z" id="path-3"></path>
    </defs>
    <g id="Page-1" stroke="none" stroke-width="1" fill="none" fill-rule="evenodd">
        <g id="bump" transform="translate(-1.000000, 0.000000)">
            <mask id="mask-2" fill="white">
                <use xlink:href="#path-1"></use>
            </mask>
            <use id="Mask" fill="#000000" fill-rule="nonzero" transform="translate(12.000000, 16.000000) rotate(18.000000) translate(-12.000000, -16.000000) " xlink:href="#path-1"></use>
            <path d="M41,5 L31,5 C29.3,5 28,6.3 28,8 L28,24 C28,25.7 29.3,27 31,27 L41,27 C42.7,27 44,25.7 44,24 L44,8 C44,6.3 42.7,5 41,5 Z M42,24 C42,24.6 41.6,25 41,25 L31,25 C30.4,25 30,24.6 30,24 L30,8 C30,7.4 30.4,7 31,7 L41,7 C41.6,7 42,7.4 42,8 L42,24 Z M36.7,21.3 C36.9,21.5 37,21.8 37,22 C37,22.3 36.9,22.5 36.7,22.7 C36.5,22.9 36.3,23 36,23 C35.9,23 35.7,23 35.6,22.9 C35.5,22.9 35.4,22.8 35.3,22.7 C35.1,22.5 35,22.3 35,22 C35,21.9 35,21.7 35.1,21.6 C35.2,21.5 35.2,21.4 35.3,21.3 C35.7,20.9 36.3,20.9 36.7,21.3 Z" id="Mask-Copy" fill="#000000" fill-rule="nonzero" transform="translate(36.000000, 16.000000) scale(-1, 1) rotate(18.000000) translate(-36.000000, -16.000000) "></path>
            <mask id="mask-4" fill="white">
                <use xlink:href="#path-3"></use>
            </mask>
            <use id="Mask" fill="#000000" fill-rule="nonzero" xlink:href="#path-3"></use>
        </g>
    </g>
</svg>