<?xml version="1.0" encoding="UTF-8"?>
<svg width="469px" height="469px" viewBox="0 0 469 469" version="1.1" xmlns="http://www.w3.org/2000/svg" xmlns:xlink="http://www.w3.org/1999/xlink" style="background: #FFFFFF;">
    <!-- Generator: Sketch 55.2 (78181) - https://sketchapp.com -->
    <title>Slice</title>
    <desc>Created with Sketch.</desc>
    <defs>
        <linearGradient x1="50%" y1="0%" x2="50%" y2="100%" id="linearGradient-1">
            <stop stop-color="#4E53FF" offset="0%"></stop>
            <stop stop-color="#3442D9" offset="100%"></stop>
        </linearGradient>
    </defs>
    <g id="Page-1" stroke="none" stroke-width="1" fill="none" fill-rule="evenodd">
        <g id="sudo" transform="translate(74.000000, 17.000000)" fill-rule="nonzero">
            <g id="Group" transform="translate(27.094646, 81.692308)">
                <path d="M144.504779,90.3514793 C144.504779,89.2650888 144.52603,88.1786982 144.579156,87.1029586 C146.268587,49.5266272 177.985261,19.5869822 215.866302,19.5017751 C215.90714,12.4828402 215.120864,7.92426036 215.120864,7.76449704 C215.258994,7.76449704 215.397123,7.75384615 215.524627,7.75384615 C194.242049,7.55147929 173.214478,11.7798817 153.75946,19.9597633 C147.171742,22.7289941 140.77528,25.9455621 134.601951,29.5988166 L134.601951,29.5988166 C126.845445,34.1893491 119.460826,39.4615385 112.543722,45.4153846 C110.238021,47.3964497 107.985446,49.452071 105.785998,51.5822485 L67.1415954,30.1420118 L45.8483912,18.3408284 L12.7716724,0.0106508876 C-14.3442244,48.8982249 3.17698006,110.545562 51.8835908,137.779882 L4.01638282,229.398817 C4.02700817,229.398817 4.02700817,229.409467 4.03763353,229.409467 C24.2151758,239.99645 45.6571349,245.662722 67.0034658,246.908876 C126.144172,250.370414 184.626106,219.653254 213.898949,163.629586 L215.025236,161.211834 C214.674599,161.211834 214.313337,161.211834 213.962701,161.201183 C175.498929,160.540828 144.504779,129.078107 144.504779,90.3514793 Z" id="Shape" fill="url(#linearGradient-1)"></path>
                <path d="M162.907887,131.538462 C152.155032,119.694675 145.344182,104.186982 144.579156,87.1029586 C144.52603,88.1786982 144.504779,89.2650888 144.504779,90.3514793 C144.504779,129.078107 175.488303,160.551479 213.973326,161.201183 C214.387715,161.211834 214.791478,161.211834 215.205867,161.211834 L215.205867,154.704142 C194.486432,154.714793 175.83894,145.778698 162.907887,131.538462 Z" id="Shape" fill="#FFBF47"></path>
                <path d="M215.035861,19.4911243 C177.156484,19.5763314 146.279213,49.5266272 144.579156,87.1029586 C145.344182,104.186982 152.155032,119.694675 162.907887,131.538462 C175.83894,145.778698 194.475806,154.714793 215.205867,154.714793 L215.205867,19.4804734 C215.15274,19.4804734 215.099613,19.4804734 215.035861,19.4911243 Z" id="Shape" fill="#FFFFFF"></path>
            </g>
            <g id="Group" transform="translate(0.000000, 36.000000)">
                <path d="M39.8663184,45.7029586 L17.4043256,33.1775148 C-16.6286749,94.5372781 5.80144186,172.267456 67.0140912,206.382249 L79.1057411,183.546746 C30.2928768,156.344379 12.729171,94.6331361 39.8663184,45.7029586 Z" id="Shape" fill="#FFBF47"></path>
                <g transform="translate(205.151758, 38.360947)">
                    <path d="M37.0637521,112.977515 L37.0637521,168.511243 C37.0850028,168.511243 37.1168789,168.511243 37.1381296,168.511243 C63.7440094,168.47929 85.9509938,149.63787 91.2530442,124.544379 L37.0637521,112.977515 Z" id="Shape" fill="#FFAE3A"></path>
                    <path d="M81.8116837,77.9500628 C79.4425156,77.9500628 77.5352078,79.8573662 77.5352078,82.2265334 L77.5352078,93.0958893 C72.0034736,94.4691236 66.6792105,96.6793143 61.6766376,99.6887853 L54.0146307,92.026775 C52.3393789,90.3515222 49.6315514,90.3515222 47.9562991,92.026775 L34.057775,105.925296 C32.3825236,107.600553 32.3825236,110.308373 34.057775,111.983631 L41.7197824,119.645643 C38.7338675,124.633602 36.6634221,130.018238 35.3050797,135.504208 L24.4357204,135.504208 C22.0665567,135.504208 20.1592515,137.411512 20.1592515,139.780662 L20.1592515,159.381151 C20.1592515,161.75032 22.0665567,163.657623 24.4357204,163.657623 L35.1268933,163.657623 C36.4999005,169.194289 38.7077874,174.509413 41.7197824,179.516192 L34.057775,187.178203 C32.3825236,188.853448 32.3825236,191.561281 34.057775,193.236543 L47.9562991,207.13506 C49.6315518,208.810309 52.3393789,208.810309 54.0146307,207.13506 L61.6766376,199.473054 C66.701071,202.503379 72.0025033,204.51402 77.5352078,205.887756 L77.5352078,216.757115 C77.5352078,219.126283 79.4425156,221.033586 81.8116837,221.033586 L101.412172,221.033586 C103.781323,221.033586 105.688626,219.126283 105.688626,216.757119 L105.688626,205.887756 C111.233157,204.521353 116.532501,202.481622 121.547199,199.473054 L129.20921,207.13506 C130.884467,208.810309 133.592287,208.810309 135.267545,207.13506 L149.166066,193.236543 C150.841315,191.561281 150.841315,188.853448 149.166066,187.178203 L141.504055,179.516192 C144.519773,174.518472 146.720554,169.160687 148.096946,163.657627 L158.966308,163.657627 C161.335472,163.657623 163.242775,161.75032 163.242775,159.381151 L163.242775,139.78068 C163.242775,137.411512 161.335472,135.504208 158.966308,135.504208 L148.096946,135.504208 C146.731996,130.005852 144.485571,124.622366 141.504055,119.645643 L149.166066,111.983631 C150.841315,110.308373 150.841315,107.600553 149.166066,105.925296 L135.267545,92.026775 C133.592287,90.3515222 130.884467,90.3515222 129.20921,92.026775 L121.547199,99.6887853 C116.539995,96.6833359 111.198871,94.4594038 105.688626,93.0958893 L105.688626,82.2265334 C105.688626,79.8573662 103.781323,77.9500628 101.412172,77.9500628 L81.8116837,77.9500628 Z M90.8991731,122.496612 C97.8281895,122.312674 104.894503,124.655874 110.321474,129.802245 C121.175401,140.094985 121.68332,157.258351 111.390589,168.112283 C101.123255,178.939418 83.9434851,179.41086 73.0805527,169.181398 C62.226627,158.888658 61.7187006,141.725292 72.0114371,130.87136 C77.1578116,125.444399 83.9701612,122.680503 90.8991731,122.496617 L90.8991731,122.496612 Z" id="rect3381-0" fill="#F74868" transform="translate(91.701013, 149.491824) rotate(12.000000) translate(-91.701013, -149.491824) "></path>
                    <path d="M103.929088,40.6686391 C87.8954331,26.0769231 67.0378684,16.7360947 44.044608,15.287574 C41.8557856,15.1704142 39.6669632,15.095858 37.4781408,15.0745562 C37.3400112,15.0745562 37.2018817,15.0852071 37.0743775,15.0852071 C37.0743775,15.4473373 37.0743775,112.977515 37.0743775,112.977515 L134.168838,133.68284 C135.497007,127.228402 136.208906,120.550296 136.208906,113.701775 C136.187655,84.7526627 123.745369,58.7112426 103.929088,40.6686391 Z" id="Shape" fill="#FFBF47"></path>
                </g>
                <g id="Shape">
                    <g transform="translate(72.889910, 0.000000)">
                        <path d="M88.7960615,75.2804734 L64.6340125,21.5573964 C41.4813718,32.0272189 26.095863,52.6686391 21.3463309,75.8343195 L60.0013593,97.2532544 C68.7778995,88.7431953 78.46822,81.3940828 88.7960615,75.2804734 Z" fill="#3442D9"></path>
                        <path d="M21.3463309,75.8343195 C26.1064884,52.6686391 41.4813718,32.0272189 64.6340125,21.5573964 L54.9755681,0.0852071006 C27.0521446,12.7065089 7.77775721,36.6284024 0.0425014055,64.0224852 L21.3463309,75.8343195 L21.3463309,75.8343195 Z" fill="#FFBF47"></path>
                    </g>
                    <path d="M0.0743774597,334.416568 C32.1629386,351.298225 71.8273754,338.911243 88.6685573,306.745562 C91.0698867,302.15503 92.8655711,297.415385 94.0981119,292.601183 C72.7411556,291.35503 51.3098218,285.688757 31.1322796,275.101775 L0.0743774597,334.416568 Z" fill="#F74868"></path>
                </g>
                <ellipse id="Oval" fill="#383B62" cx="219.54101" cy="131.613018" rx="12.6654188" ry="12.695858"></ellipse>
            </g>
        </g>
    </g>
</svg>