<svg xmlns="http://www.w3.org/2000/svg" xmlns:xlink="http://www.w3.org/1999/xlink" width="227" height="120" version="1.1" viewBox="0 0 227 120"><title>ascii_lines</title><desc>Created with Sketch.</desc><g id="Page-1" fill="none" fill-rule="evenodd" stroke="none" stroke-width="1"><g id="ascii_lines" fill="#FFF" fill-rule="nonzero" stroke="#FFF" transform="translate(1.000000, 1.000000)"><g id="Page-1"><path id="ascii_lines" d="M43.3031141,0.27636719 L40.0106337,8.14501953 L39.2210829,8.14501953 L42.4974501,0.27636719 L43.3031141,0.27636719 Z M49.0990017,8.14501953 L48.3040799,8.14501953 L45.0169705,0.27636719 L45.8172635,0.27636719 L49.0990017,8.14501953 Z M14.2699653,12.2763672 L10.9774848,20.1450195 L10.187934,20.1450195 L13.4643012,12.2763672 L14.2699653,12.2763672 Z M20.0658529,20.1450195 L19.270931,20.1450195 L15.9838216,12.2763672 L16.7841146,12.2763672 L20.0658529,20.1450195 Z M37.4964844,12.2763672 L34.2040039,20.1450195 L33.4144531,20.1450195 L36.6908203,12.2763672 L37.4964844,12.2763672 Z M49.1097439,12.2763672 L45.8172635,20.1450195 L45.0277127,20.1450195 L48.3040799,12.2763672 L49.1097439,12.2763672 Z M54.9056315,20.1450195 L54.1107096,20.1450195 L50.8236003,12.2763672 L51.6238932,12.2763672 L54.9056315,20.1450195 Z M73.7005208,22.3955078 L67.0994466,22.3955078 L67.0994466,21.6918945 L73.7005208,21.6918945 L73.7005208,22.3955078 Z M79.5071506,22.3955078 L72.9060764,22.3955078 L72.9060764,21.6918945 L79.5071506,21.6918945 L79.5071506,22.3955078 Z M85.3137804,22.3955078 L78.7127062,22.3955078 L78.7127062,21.6918945 L85.3137804,21.6918945 L85.3137804,22.3955078 Z M91.1204102,22.3955078 L84.5193359,22.3955078 L84.5193359,21.6918945 L91.1204102,21.6918945 L91.1204102,22.3955078 Z M96.9270399,22.3955078 L90.3259657,22.3955078 L90.3259657,21.6918945 L96.9270399,21.6918945 L96.9270399,22.3955078 Z M102.73367,22.3955078 L96.1325955,22.3955078 L96.1325955,21.6918945 L102.73367,21.6918945 L102.73367,22.3955078 Z M8.4633355,24.2763672 L5.17085503,32.1450195 L4.38130425,32.1450195 L7.65767144,24.2763672 L8.4633355,24.2763672 Z M20.0765951,24.2763672 L16.7841146,32.1450195 L15.9945638,32.1450195 L19.270931,24.2763672 L20.0765951,24.2763672 Z M25.8724826,32.1450195 L25.0775608,32.1450195 L21.7904514,24.2763672 L22.5907444,24.2763672 L25.8724826,32.1450195 Z M31.6898546,24.2763672 L28.3973741,32.1450195 L27.6078234,32.1450195 L30.8841905,24.2763672 L31.6898546,24.2763672 Z M43.3031141,24.2763672 L40.0106337,32.1450195 L39.2210829,32.1450195 L42.4974501,24.2763672 L43.3031141,24.2763672 Z M60.7122613,32.1450195 L59.9173394,32.1450195 L56.63023,24.2763672 L57.430523,24.2763672 L60.7122613,32.1450195 Z M66.5296332,24.2763672 L63.2371528,32.1450195 L62.447602,32.1450195 L65.7239692,24.2763672 L66.5296332,24.2763672 Z M82.3972765,34.0571289 L81.570128,34.0571289 L81.570128,24.4213867 L82.3972765,24.4213867 L82.3972765,34.0571289 Z M107.165299,32.1450195 L106.370378,32.1450195 L103.083268,24.2763672 L103.883561,24.2763672 L107.165299,32.1450195 Z M1.10445964,46.0571289 L0.2773112,46.0571289 L0.2773112,36.4213867 L1.10445964,36.4213867 L1.10445964,46.0571289 Z M12.7177192,46.0571289 L11.8905707,46.0571289 L11.8905707,36.4213867 L12.7177192,36.4213867 L12.7177192,46.0571289 Z M31.6791124,44.1450195 L30.8841905,44.1450195 L27.5970812,36.2763672 L28.3973741,36.2763672 L31.6791124,44.1450195 Z M37.4964844,36.2763672 L34.2040039,44.1450195 L33.4144531,44.1450195 L36.6908203,36.2763672 L37.4964844,36.2763672 Z M59.1707574,46.0571289 L58.3436089,46.0571289 L58.3436089,36.4213867 L59.1707574,36.4213867 L59.1707574,46.0571289 Z M72.2449544,45.1225586 L71.9173177,45.5844727 C71.1188111,44.9793264 70.5100932,44.2757202 70.0911458,43.4736328 C69.6721984,42.6715455 69.4627279,41.8247115 69.4627279,40.9331055 C69.4627279,40.034338 69.6704081,39.1866088 70.0857747,38.3898926 C70.5011414,37.5931764 71.1116496,36.8922556 71.9173177,36.2871094 L72.2449544,36.7490234 C71.5896777,37.336266 71.1179214,37.95125 70.8296712,38.5939941 C70.5414211,39.2367382 70.3972982,40.0128535 70.3972982,40.9223633 C70.3972982,41.8640998 70.5467921,42.6563282 70.8457845,43.2990723 C71.1447769,43.9418164 71.6111622,44.5496391 72.2449544,45.1225586 Z M74.6892795,36.2871094 C75.4913669,36.8922556 76.1000847,37.5931764 76.5154514,38.3898926 C76.930818,39.1866088 77.1384983,40.034338 77.1384983,40.9331055 C77.1384983,41.8247115 76.9299229,42.6715455 76.5127658,43.4736328 C76.0956088,44.2757202 75.4877861,44.9793264 74.6892795,45.5844727 L74.3562717,45.1225586 C75.0115484,44.5424776 75.4833048,43.9257031 75.7715549,43.2722168 C76.059805,42.6187305 76.203928,41.8354538 76.203928,40.9223633 C76.203928,39.9806268 76.0553292,39.1928743 75.7581272,38.559082 C75.4609252,37.9252898 74.9936447,37.321943 74.3562717,36.7490234 L74.6892795,36.2871094 Z M82.3972765,46.0571289 L81.570128,46.0571289 L81.570128,36.4213867 L82.3972765,36.4213867 L82.3972765,46.0571289 Z M111.430425,46.0571289 L110.603277,46.0571289 L110.603277,36.4213867 L111.430425,36.4213867 L111.430425,46.0571289 Z M8.45259332,56.1450195 L7.65767144,56.1450195 L4.37056207,48.2763672 L5.17085503,48.2763672 L8.45259332,56.1450195 Z M20.0658529,56.1450195 L19.270931,56.1450195 L15.9838216,48.2763672 L16.7841146,48.2763672 L20.0658529,56.1450195 Z M59.1707574,58.0571289 L58.3436089,58.0571289 L58.3436089,48.4213867 L59.1707574,48.4213867 L59.1707574,58.0571289 Z M82.3972765,58.0571289 L81.570128,58.0571289 L81.570128,48.4213867 L82.3972765,48.4213867 L82.3972765,58.0571289 Z M91.1204102,58.3955078 L84.5193359,58.3955078 L84.5193359,57.6918945 L91.1204102,57.6918945 L91.1204102,58.3955078 Z M96.9270399,58.3955078 L90.3259657,58.3955078 L90.3259657,57.6918945 L96.9270399,57.6918945 L96.9270399,58.3955078 Z M102.73367,58.3955078 L96.1325955,58.3955078 L96.1325955,57.6918945 L102.73367,57.6918945 L102.73367,58.3955078 Z M108.540299,58.3955078 L101.939225,58.3955078 L101.939225,57.6918945 L108.540299,57.6918945 L108.540299,58.3955078 Z M111.430425,58.0571289 L110.603277,58.0571289 L110.603277,48.4213867 L111.430425,48.4213867 L111.430425,58.0571289 Z M14.2592231,68.1450195 L13.4643012,68.1450195 L10.1771918,60.2763672 L10.9774848,60.2763672 L14.2592231,68.1450195 Z M25.8724826,68.1450195 L25.0775608,68.1450195 L21.7904514,60.2763672 L22.5907444,60.2763672 L25.8724826,68.1450195 Z M66.5188911,68.1450195 L65.7239692,68.1450195 L62.4368598,60.2763672 L63.2371528,60.2763672 L66.5188911,68.1450195 Z M73.7005208,70.3955078 L67.0994466,70.3955078 L67.0994466,69.6918945 L73.7005208,69.6918945 L73.7005208,70.3955078 Z M79.5071506,70.3955078 L72.9060764,70.3955078 L72.9060764,69.6918945 L79.5071506,69.6918945 L79.5071506,70.3955078 Z M85.3137804,70.3955078 L78.7127062,70.3955078 L78.7127062,69.6918945 L85.3137804,69.6918945 L85.3137804,70.3955078 Z M91.1204102,70.3955078 L84.5193359,70.3955078 L84.5193359,69.6918945 L91.1204102,69.6918945 L91.1204102,70.3955078 Z M95.5627821,60.2763672 L92.2703016,68.1450195 L91.4807509,68.1450195 L94.7571181,60.2763672 L95.5627821,60.2763672 Z M108.540299,70.3955078 L101.939225,70.3955078 L101.939225,69.6918945 L108.540299,69.6918945 L108.540299,70.3955078 Z M114.346929,70.3955078 L107.745855,70.3955078 L107.745855,69.6918945 L114.346929,69.6918945 L114.346929,70.3955078 Z M184.026487,70.3955078 L177.425412,70.3955078 L177.425412,69.6918945 L184.026487,69.6918945 L184.026487,70.3955078 Z M189.833116,70.3955078 L183.232042,70.3955078 L183.232042,69.6918945 L189.833116,69.6918945 L189.833116,70.3955078 Z M20.0658529,80.1450195 L19.270931,80.1450195 L15.9838216,72.2763672 L16.7841146,72.2763672 L20.0658529,80.1450195 Z M25.8832248,72.2763672 L22.5907444,80.1450195 L21.8011936,80.1450195 L25.0775608,72.2763672 L25.8832248,72.2763672 Z M72.336263,72.2763672 L69.0437826,80.1450195 L68.2542318,80.1450195 L71.530599,72.2763672 L72.336263,72.2763672 Z M101.369412,72.2763672 L98.0769314,80.1450195 L97.2873806,80.1450195 L100.563748,72.2763672 L101.369412,72.2763672 Z M112.982671,72.2763672 L109.690191,80.1450195 L108.90064,80.1450195 L112.177007,72.2763672 L112.982671,72.2763672 Z M131.766819,82.3955078 L125.165744,82.3955078 L125.165744,81.6918945 L131.766819,81.6918945 L131.766819,82.3955078 Z M137.573448,82.3955078 L130.972374,82.3955078 L130.972374,81.6918945 L137.573448,81.6918945 L137.573448,82.3955078 Z M143.380078,82.3955078 L136.779004,82.3955078 L136.779004,81.6918945 L143.380078,81.6918945 L143.380078,82.3955078 Z M154.993338,82.3955078 L148.392263,82.3955078 L148.392263,81.6918945 L154.993338,81.6918945 L154.993338,82.3955078 Z M160.799967,82.3955078 L154.198893,82.3955078 L154.198893,81.6918945 L160.799967,81.6918945 L160.799967,82.3955078 Z M166.606597,82.3955078 L160.005523,82.3955078 L160.005523,81.6918945 L166.606597,81.6918945 L166.606597,82.3955078 Z M172.413227,82.3955078 L165.812153,82.3955078 L165.812153,81.6918945 L172.413227,81.6918945 L172.413227,82.3955078 Z M176.855599,72.2763672 L173.563118,80.1450195 L172.773568,80.1450195 L176.049935,72.2763672 L176.855599,72.2763672 Z M188.468859,72.2763672 L185.176378,80.1450195 L184.386827,80.1450195 L187.663194,72.2763672 L188.468859,72.2763672 Z M195.639746,82.3955078 L189.038672,82.3955078 L189.038672,81.6918945 L195.639746,81.6918945 L195.639746,82.3955078 Z M201.446376,82.3955078 L194.845302,82.3955078 L194.845302,81.6918945 L201.446376,81.6918945 L201.446376,82.3955078 Z M207.253006,82.3955078 L200.651931,82.3955078 L200.651931,81.6918945 L207.253006,81.6918945 L207.253006,82.3955078 Z M218.866265,82.3955078 L212.265191,82.3955078 L212.265191,81.6918945 L218.866265,81.6918945 L218.866265,82.3955078 Z M224.672895,82.3955078 L218.071821,82.3955078 L218.071821,81.6918945 L224.672895,81.6918945 L224.672895,82.3955078 Z M20.0765951,84.2763672 L16.7841146,92.1450195 L15.9945638,92.1450195 L19.270931,84.2763672 L20.0765951,84.2763672 Z M56.2806315,94.3955078 L49.6795573,94.3955078 L49.6795573,93.6918945 L56.2806315,93.6918945 L56.2806315,94.3955078 Z M62.0872613,94.3955078 L55.4861871,94.3955078 L55.4861871,93.6918945 L62.0872613,93.6918945 L62.0872613,94.3955078 Z M66.5296332,84.2763672 L63.2371528,92.1450195 L62.447602,92.1450195 L65.7239692,84.2763672 L66.5296332,84.2763672 Z M95.5627821,84.2763672 L92.2703016,92.1450195 L91.4807509,92.1450195 L94.7571181,84.2763672 L95.5627821,84.2763672 Z M108.540299,94.3955078 L101.939225,94.3955078 L101.939225,93.6918945 L108.540299,93.6918945 L108.540299,94.3955078 Z M118.778559,92.1450195 L117.983637,92.1450195 L114.696528,84.2763672 L115.496821,84.2763672 L118.778559,92.1450195 Z M124.595931,84.2763672 L121.303451,92.1450195 L120.5139,92.1450195 L123.790267,84.2763672 L124.595931,84.2763672 Z M135.81173,89.3842773 L132.6213,89.3842773 L132.6213,88.5678711 L135.81173,88.5678711 L135.81173,89.3842773 Z M143.380078,94.3955078 L136.779004,94.3955078 L136.779004,93.6918945 L143.380078,93.6918945 L143.380078,94.3955078 Z M144.368837,84.2871094 C145.170924,84.8922556 145.779642,85.5931764 146.195009,86.3898926 C146.610375,87.1866088 146.818056,88.034338 146.818056,88.9331055 C146.818056,89.8247115 146.60948,90.6715455 146.192323,91.4736328 C145.775166,92.2757202 145.167343,92.9793264 144.368837,93.5844727 L144.035829,93.1225586 C144.691106,92.5424776 145.162862,91.9257031 145.451112,91.2722168 C145.739362,90.6187305 145.883485,89.8354538 145.883485,88.9223633 C145.883485,87.9806268 145.734886,87.1928743 145.437684,86.559082 C145.140482,85.9252898 144.673202,85.321943 144.035829,84.7490234 L144.368837,84.2871094 Z M160.799967,94.3955078 L154.198893,94.3955078 L154.198893,93.6918945 L160.799967,93.6918945 L160.799967,94.3955078 Z M166.606597,94.3955078 L160.005523,94.3955078 L160.005523,93.6918945 L166.606597,93.6918945 L166.606597,94.3955078 Z M171.048969,84.2763672 L167.756489,92.1450195 L166.966938,92.1450195 L170.243305,84.2763672 L171.048969,84.2763672 Z M184.026487,94.3955078 L177.425412,94.3955078 L177.425412,93.6918945 L184.026487,93.6918945 L184.026487,94.3955078 Z M189.833116,94.3955078 L183.232042,94.3955078 L183.232042,93.6918945 L189.833116,93.6918945 L189.833116,94.3955078 Z M194.275488,84.2763672 L190.983008,92.1450195 L190.193457,92.1450195 L193.469824,84.2763672 L194.275488,84.2763672 Z M205.888748,84.2763672 L202.596267,92.1450195 L201.806717,92.1450195 L205.083084,84.2763672 L205.888748,84.2763672 Z M211.695378,84.2763672 L208.402897,92.1450195 L207.613346,92.1450195 L210.889714,84.2763672 L211.695378,84.2763672 Z M223.308637,84.2763672 L220.016157,92.1450195 L219.226606,92.1450195 L222.502973,84.2763672 L223.308637,84.2763672 Z M14.2699653,96.2763672 L10.9774848,104.14502 L10.187934,104.14502 L13.4643012,96.2763672 L14.2699653,96.2763672 Z M21.4408529,106.395508 L14.8397786,106.395508 L14.8397786,105.691895 L21.4408529,105.691895 L21.4408529,106.395508 Z M27.2474826,106.395508 L20.6464084,106.395508 L20.6464084,105.691895 L27.2474826,105.691895 L27.2474826,106.395508 Z M33.0541124,106.395508 L26.4530382,106.395508 L26.4530382,105.691895 L33.0541124,105.691895 L33.0541124,106.395508 Z M38.8607422,106.395508 L32.259668,106.395508 L32.259668,105.691895 L38.8607422,105.691895 L38.8607422,106.395508 Z M44.667372,106.395508 L38.0662977,106.395508 L38.0662977,105.691895 L44.667372,105.691895 L44.667372,106.395508 Z M49.1097439,96.2763672 L45.8172635,104.14502 L45.0277127,104.14502 L48.3040799,96.2763672 L49.1097439,96.2763672 Z M89.7561523,96.2763672 L86.4636719,104.14502 L85.6741211,104.14502 L88.9504883,96.2763672 L89.7561523,96.2763672 Z M96.9270399,106.395508 L90.3259657,106.395508 L90.3259657,105.691895 L96.9270399,105.691895 L96.9270399,106.395508 Z M102.73367,106.395508 L96.1325955,106.395508 L96.1325955,105.691895 L102.73367,105.691895 L102.73367,106.395508 Z M108.540299,106.395508 L101.939225,106.395508 L101.939225,105.691895 L108.540299,105.691895 L108.540299,106.395508 Z M114.346929,106.395508 L107.745855,106.395508 L107.745855,105.691895 L114.346929,105.691895 L114.346929,106.395508 Z M118.789301,96.2763672 L115.496821,104.14502 L114.70727,104.14502 L117.983637,96.2763672 L118.789301,96.2763672 Z M124.585189,104.14502 L123.790267,104.14502 L120.503158,96.2763672 L121.303451,96.2763672 L124.585189,104.14502 Z M131.766819,106.395508 L125.165744,106.395508 L125.165744,105.691895 L131.766819,105.691895 L131.766819,106.395508 Z M137.573448,106.395508 L130.972374,106.395508 L130.972374,105.691895 L137.573448,105.691895 L137.573448,106.395508 Z M142.01582,96.2763672 L138.72334,104.14502 L137.933789,104.14502 L141.210156,96.2763672 L142.01582,96.2763672 Z M149.186708,106.395508 L142.585634,106.395508 L142.585634,105.691895 L149.186708,105.691895 L149.186708,106.395508 Z M153.62908,96.2763672 L150.336599,104.14502 L149.547049,104.14502 L152.823416,96.2763672 L153.62908,96.2763672 Z M171.038227,104.14502 L170.243305,104.14502 L166.956196,96.2763672 L167.756489,96.2763672 L171.038227,104.14502 Z M178.219857,106.395508 L171.618783,106.395508 L171.618783,105.691895 L178.219857,105.691895 L178.219857,106.395508 Z M184.026487,106.395508 L177.425412,106.395508 L177.425412,105.691895 L184.026487,105.691895 L184.026487,106.395508 Z M188.468859,96.2763672 L185.176378,104.14502 L184.386827,104.14502 L187.663194,96.2763672 L188.468859,96.2763672 Z M194.264746,104.14502 L193.469824,104.14502 L190.182715,96.2763672 L190.983008,96.2763672 L194.264746,104.14502 Z M201.446376,106.395508 L194.845302,106.395508 L194.845302,105.691895 L201.446376,105.691895 L201.446376,106.395508 Z M207.253006,106.395508 L200.651931,106.395508 L200.651931,105.691895 L207.253006,105.691895 L207.253006,106.395508 Z M217.502007,96.2763672 L214.209527,104.14502 L213.419976,104.14502 L216.696343,96.2763672 L217.502007,96.2763672 Z M8.4633355,108.276367 L5.17085503,116.14502 L4.38130425,116.14502 L7.65767144,108.276367 L8.4633355,108.276367 Z M15.6342231,118.395508 L9.0331489,118.395508 L9.0331489,117.691895 L15.6342231,117.691895 L15.6342231,118.395508 Z M21.4408529,118.395508 L14.8397786,118.395508 L14.8397786,117.691895 L21.4408529,117.691895 L21.4408529,118.395508 Z M25.8832248,108.276367 L22.5907444,116.14502 L21.8011936,116.14502 L25.0775608,108.276367 L25.8832248,108.276367 Z M188.468859,108.276367 L185.176378,116.14502 L184.386827,116.14502 L187.663194,108.276367 L188.468859,108.276367 Z M195.639746,118.395508 L189.038672,118.395508 L189.038672,117.691895 L195.639746,117.691895 L195.639746,118.395508 Z M201.446376,118.395508 L194.845302,118.395508 L194.845302,117.691895 L201.446376,117.691895 L201.446376,118.395508 Z M207.253006,118.395508 L200.651931,118.395508 L200.651931,117.691895 L207.253006,117.691895 L207.253006,118.395508 Z M211.695378,108.276367 L208.402897,116.14502 L207.613346,116.14502 L210.889714,108.276367 L211.695378,108.276367 Z"/></g></g></g></svg>