<svg xmlns="http://www.w3.org/2000/svg" xmlns:xlink="http://www.w3.org/1999/xlink" width="294" height="461" version="1.1" viewBox="0 0 294 461"><title>tshirt noir</title><desc>Created with Sketch.</desc><g id="Page-1" fill="none" fill-rule="evenodd" stroke="none" stroke-width="1"><g id="tshirt-noir" fill="#000" transform="translate(-221.000000, -172.000000)"><path id="Combined-Shape" d="M456,600 C456.552285,600 457,600.447715 457,601 L457,628 C457,628.552285 456.552285,629 456,629 L281,629 C280.447715,629 280,628.552285 280,628 L280,601 C280,600.447715 280.447715,600 281,600 L456,600 Z M339.756022,612.683594 L338.019694,612.683594 C337.705239,612.683594 337.481934,612.740559 337.349772,612.854492 C337.21761,612.968425 337.15153,613.159829 337.15153,613.428711 C337.15153,613.674806 337.216471,613.861653 337.346354,613.989258 C337.476238,614.116863 337.664224,614.180664 337.910319,614.180664 L337.910319,614.180664 L338.019694,614.180664 L340.090983,618.842773 L339.448405,620.216797 L338.388835,620.216797 C338.07438,620.216797 337.851075,620.276041 337.718913,620.394531 C337.586751,620.513021 337.520671,620.706704 337.520671,620.975586 C337.520671,621.244467 337.586751,621.437011 337.718913,621.553223 C337.851075,621.669434 338.07438,621.727539 338.388835,621.727539 L338.388835,621.727539 L341.382975,621.727539 C341.692873,621.727539 341.915038,621.668295 342.049479,621.549805 C342.18392,621.431315 342.251139,621.23991 342.251139,620.975586 C342.251139,620.706704 342.18392,620.513021 342.049479,620.394531 C341.915038,620.276041 341.692873,620.216797 341.382975,620.216797 L341.382975,620.216797 L341.075358,620.216797 L343.884928,614.180664 L344.001139,614.180664 C344.247234,614.180664 344.434081,614.116863 344.561686,613.989258 C344.689291,613.861653 344.753092,613.674806 344.753092,613.428711 C344.753092,613.164387 344.688152,612.974122 344.558268,612.85791 C344.428385,612.741699 344.20394,612.683594 343.884928,612.683594 L343.884928,612.683594 L342.278483,612.683594 C341.959471,612.683594 341.735027,612.740559 341.605143,612.854492 C341.47526,612.968425 341.410319,613.159829 341.410319,613.428711 C341.410319,613.674806 341.47526,613.861653 341.605143,613.989258 C341.735027,614.116863 341.923013,614.180664 342.169108,614.180664 L342.169108,614.180664 L342.278483,614.180664 L340.986491,617.092773 L339.756022,614.180664 L339.872233,614.180664 C340.113771,614.180664 340.299479,614.116863 340.429362,613.989258 C340.559245,613.861653 340.624186,613.674806 340.624186,613.428711 C340.624186,613.164387 340.558106,612.974122 340.425944,612.85791 C340.293782,612.741699 340.070477,612.683594 339.756022,612.683594 L339.756022,612.683594 Z M405.782064,612.683594 L402.213704,612.683594 C401.894692,612.683594 401.670248,612.740559 401.540365,612.854492 C401.410481,612.968425 401.34554,613.159829 401.34554,613.428711 C401.34554,613.693035 401.41162,613.88444 401.543783,614.00293 C401.675945,614.12142 401.89925,614.180664 402.213704,614.180664 L402.213704,614.180664 L404.496908,614.180664 L404.496908,618.213867 C404.496908,619.05697 404.406902,619.608397 404.226888,619.868164 C404.046874,620.127931 403.724449,620.257812 403.259603,620.257812 C403.045409,620.257812 402.777671,620.235026 402.45638,620.189453 C402.13509,620.14388 401.922038,620.121094 401.81722,620.121094 C401.589354,620.121094 401.416179,620.175781 401.297689,620.285156 C401.179199,620.394532 401.119954,620.558593 401.119954,620.777344 C401.119954,621.1237 401.270344,621.368652 401.571126,621.512207 C401.871909,621.655762 402.380042,621.727539 403.09554,621.727539 C404.130051,621.727539 404.903643,621.491702 405.416341,621.02002 C405.929039,620.548337 406.185384,619.838546 406.185384,618.890625 L406.185384,618.890625 L406.185384,612.977539 C406.185384,612.886393 406.150065,612.814616 406.079427,612.762207 C406.008789,612.709798 405.909669,612.683594 405.782064,612.683594 L405.782064,612.683594 Z M397.527507,609.169922 C397.38623,609.169922 397.263184,609.22233 397.158366,609.327148 C397.053548,609.431967 396.937338,609.623371 396.809733,609.901367 L396.809733,609.901367 L392.81071,618.466797 L392.797038,618.494141 C392.67399,618.772137 392.612467,618.977213 392.612467,619.109375 C392.612467,619.30534 392.693359,619.4694 392.855143,619.601562 C393.016928,619.733725 393.202636,619.799805 393.412272,619.799805 C393.553549,619.799805 393.676595,619.747396 393.781413,619.642578 C393.886231,619.53776 394.000162,619.350913 394.12321,619.082031 L394.12321,619.082031 L398.129069,610.50293 C398.206543,610.338866 398.258952,610.211263 398.286296,610.120117 C398.313639,610.028971 398.327311,609.942383 398.327311,609.860352 C398.327311,609.664387 398.245281,609.500326 398.081217,609.368164 C397.917154,609.236002 397.732586,609.169922 397.527507,609.169922 Z M433.744954,612.478516 C433.612792,612.478516 433.493165,612.505859 433.386068,612.560547 C433.278971,612.615235 433.177572,612.699544 433.081868,612.813477 C432.753742,612.713216 432.433595,612.63916 432.121419,612.591309 C431.809243,612.543457 431.505047,612.519531 431.208822,612.519531 C430.347489,612.519531 429.68441,612.694985 429.219564,613.045898 C428.754718,613.396812 428.522298,613.893551 428.522298,614.536133 C428.522298,615.078453 428.715981,615.510252 429.103353,615.831543 C429.490725,616.152834 430.080888,616.368164 430.873861,616.477539 C431.006023,616.500326 431.188313,616.52539 431.420736,616.552734 C432.473475,616.694011 432.999837,616.949217 432.999837,617.318359 C432.999837,617.523439 432.901856,617.689778 432.705892,617.817383 C432.509927,617.944988 432.247886,618.008789 431.919759,618.008789 C431.541502,618.008789 431.204266,617.958659 430.90804,617.858398 C430.611815,617.758138 430.352052,617.607748 430.128743,617.407227 C430.060384,617.338867 429.976075,617.23405 429.875814,617.092773 C429.707193,616.833007 429.488445,616.703125 429.219564,616.703125 C428.973469,616.703125 428.800293,616.765787 428.700033,616.891113 C428.599772,617.016439 428.549642,617.229491 428.549642,617.530273 L428.549642,617.530273 L428.549642,618.439453 C428.549642,618.726564 428.589518,618.922526 428.669271,619.027344 C428.749024,619.132162 428.886881,619.18457 429.082845,619.18457 C429.215007,619.18457 429.343749,619.160645 429.469076,619.112793 C429.594402,619.064941 429.716308,618.995443 429.834798,618.904297 C430.149253,618.995443 430.475096,619.064941 430.812337,619.112793 C431.149579,619.160645 431.500486,619.18457 431.865072,619.18457 C432.799321,619.18457 433.520505,618.996584 434.028646,618.620605 C434.536786,618.244627 434.790853,617.712569 434.790853,617.024414 C434.790853,616.43652 434.598309,615.993328 434.213216,615.694824 C433.828123,615.39632 433.120611,615.171876 432.090658,615.021484 C431.953938,615.003255 431.767091,614.980469 431.530111,614.953125 C430.709794,614.843749 430.299642,614.629559 430.299642,614.310547 C430.299642,614.105468 430.397623,613.944825 430.593587,613.828613 C430.789552,613.712402 431.065265,613.654297 431.420736,613.654297 C431.876467,613.654297 432.331052,613.817218 432.784505,614.143066 C433.237958,614.468914 433.558105,614.631836 433.744954,614.631836 C433.927247,614.631836 434.068522,614.578288 434.168783,614.471191 C434.269043,614.364095 434.319173,614.212566 434.319173,614.016602 L434.319173,614.016602 L434.319173,613.175781 C434.319173,612.943358 434.270183,612.769044 434.172201,612.652832 C434.074218,612.536621 433.931804,612.478516 433.744954,612.478516 Z M368.293132,612.533203 C367.190261,612.533203 366.293623,612.843096 365.60319,613.462891 C364.912757,614.082685 364.567546,614.877925 364.567546,615.848633 C364.567546,616.823898 364.912757,617.621416 365.60319,618.241211 C366.293623,618.861006 367.190261,619.170898 368.293132,619.170898 C369.227381,619.170898 370.011227,619.015952 370.644694,618.706055 C371.278161,618.396157 371.594889,618.02702 371.594889,617.598633 C371.594889,617.402668 371.541342,617.242025 371.434245,617.116699 C371.327148,616.991373 371.189291,616.928711 371.020671,616.928711 C370.906738,616.928711 370.574059,617.066568 370.022624,617.342285 C369.471189,617.618003 368.912926,617.755859 368.347819,617.755859 C367.782712,617.755859 367.330405,617.630535 366.990885,617.379883 C366.651365,617.129231 366.422364,616.750979 366.303874,616.245117 L366.303874,616.245117 L370.713053,616.245117 C371.118654,616.245117 371.386393,616.194987 371.516276,616.094727 C371.64616,615.994466 371.7111,615.809897 371.7111,615.541016 C371.7111,614.697912 371.387536,613.985843 370.740397,613.404785 C370.093258,612.823728 369.277511,612.533203 368.293132,612.533203 Z M379.965658,612.519531 C379.783365,612.519531 379.634115,612.563964 379.517904,612.652832 C379.401692,612.7417 379.316244,612.874999 379.261556,613.052734 C378.933429,612.870442 378.603029,612.736003 378.270345,612.649414 C377.937661,612.562825 377.595868,612.519531 377.244954,612.519531 C376.205887,612.519531 375.344567,612.83626 374.66097,613.469727 C373.977373,614.103193 373.635579,614.896154 373.635579,615.848633 C373.635579,616.823898 373.980791,617.621416 374.671224,618.241211 C375.361657,618.861006 376.258295,619.170898 377.361165,619.170898 C378.254399,619.170898 379.025713,619.00228 379.67513,618.665039 C380.324548,618.327798 380.649251,617.944989 380.649251,617.516602 C380.649251,617.320637 380.593425,617.157715 380.481771,617.027832 C380.370117,616.897949 380.229981,616.833008 380.061361,616.833008 C379.942871,616.833008 379.618167,616.982258 379.08724,617.280762 C378.556312,617.579266 378.021975,617.728516 377.484212,617.728516 C376.891761,617.728516 376.420086,617.55534 376.069173,617.208984 C375.71826,616.862628 375.542806,616.404625 375.542806,615.834961 C375.542806,615.292641 375.712563,614.84717 376.052083,614.498535 C376.391603,614.149901 376.82796,613.975586 377.361165,613.975586 C377.789553,613.975586 378.151854,614.049641 378.448079,614.197754 C378.744305,614.345867 378.98356,614.574868 379.165853,614.884766 C379.293458,615.103517 379.414225,615.251627 379.528158,615.329102 C379.64209,615.406576 379.783365,615.445312 379.951986,615.445312 C380.188966,615.445312 380.36442,615.379232 380.478353,615.24707 C380.592286,615.114908 380.649251,614.909832 380.649251,614.631836 L380.649251,614.631836 L380.649251,613.510742 C380.649251,613.146157 380.596843,612.889812 380.492025,612.741699 C380.387207,612.593586 380.211753,612.519531 379.965658,612.519531 Z M303.039551,610.051758 L301.76123,610.051758 C301.446776,610.051758 301.223471,610.111002 301.091309,610.229492 C300.959146,610.347982 300.893066,610.541665 300.893066,610.810547 C300.893066,611.056642 300.958007,611.244628 301.087891,611.374512 C301.217774,611.504395 301.40576,611.569336 301.651855,611.569336 L301.651855,611.569336 L301.76123,611.569336 L301.76123,617.50293 L301.651855,617.50293 C301.40576,617.50293 301.220053,617.565592 301.094727,617.690918 C300.9694,617.816244 300.906738,617.999673 300.906738,618.241211 C300.906738,618.51465 300.971679,618.709472 301.101563,618.825684 C301.231446,618.941895 301.451333,619 301.76123,619 L301.76123,619 L302.813965,619 C302.94157,619 303.04069,618.973796 303.111328,618.921387 C303.181966,618.868978 303.217285,618.797201 303.217285,618.706055 L303.217285,618.706055 L303.217285,618.254883 C303.422364,618.560223 303.687824,618.789224 304.013672,618.941895 C304.33952,619.094565 304.723468,619.170898 305.165527,619.170898 C306.099777,619.170898 306.874509,618.87126 307.489746,618.271973 C308.104984,617.672686 308.412598,616.926437 308.412598,616.033203 C308.412598,615.053381 308.11068,614.250166 307.506836,613.623535 C306.902992,612.996904 306.127121,612.683594 305.179199,612.683594 C304.851073,612.683594 304.536623,612.738281 304.23584,612.847656 C303.935057,612.957032 303.675294,613.107421 303.456543,613.298828 L303.456543,613.298828 L303.456543,610.50293 C303.456543,610.343424 303.423503,610.228353 303.357422,610.157715 C303.291341,610.087076 303.185385,610.051758 303.039551,610.051758 L303.039551,610.051758 Z M313.884928,612.533203 C312.782058,612.533203 311.88542,612.843096 311.194987,613.462891 C310.504554,614.082685 310.159342,614.877925 310.159342,615.848633 C310.159342,616.823898 310.504554,617.621416 311.194987,618.241211 C311.88542,618.861006 312.782058,619.170898 313.884928,619.170898 C314.819178,619.170898 315.603024,619.015952 316.236491,618.706055 C316.869958,618.396157 317.186686,618.02702 317.186686,617.598633 C317.186686,617.402668 317.133139,617.242025 317.026042,617.116699 C316.918945,616.991373 316.781088,616.928711 316.612467,616.928711 C316.498535,616.928711 316.165856,617.066568 315.614421,617.342285 C315.062986,617.618003 314.504723,617.755859 313.939616,617.755859 C313.374509,617.755859 312.922202,617.630535 312.582682,617.379883 C312.243162,617.129231 312.014161,616.750979 311.895671,616.245117 L311.895671,616.245117 L316.30485,616.245117 C316.710451,616.245117 316.978189,616.194987 317.108073,616.094727 C317.237956,615.994466 317.302897,615.809897 317.302897,615.541016 C317.302897,614.697912 316.979333,613.985843 316.332194,613.404785 C315.685055,612.823728 314.869308,612.533203 313.884928,612.533203 Z M420.923991,610.051758 L419.645671,610.051758 C419.331216,610.051758 419.107911,610.111002 418.975749,610.229492 C418.843587,610.347982 418.777507,610.541665 418.777507,610.810547 C418.777507,611.056642 418.842447,611.244628 418.972331,611.374512 C419.102214,611.504395 419.290201,611.569336 419.536296,611.569336 L419.536296,611.569336 L419.645671,611.569336 L419.645671,617.50293 L419.536296,617.50293 C419.290201,617.50293 419.104493,617.565592 418.979167,617.690918 C418.853841,617.816244 418.791178,617.999673 418.791178,618.241211 C418.791178,618.51465 418.856119,618.709472 418.986003,618.825684 C419.115886,618.941895 419.335773,619 419.645671,619 L419.645671,619 L420.698405,619 C420.82601,619 420.92513,618.973796 420.995768,618.921387 C421.066407,618.868978 421.101725,618.797201 421.101725,618.706055 L421.101725,618.706055 L421.101725,618.254883 C421.306804,618.560223 421.572264,618.789224 421.898112,618.941895 C422.22396,619.094565 422.607908,619.170898 423.049967,619.170898 C423.984217,619.170898 424.758949,618.87126 425.374186,618.271973 C425.989424,617.672686 426.297038,616.926437 426.297038,616.033203 C426.297038,615.053381 425.99512,614.250166 425.391276,613.623535 C424.787432,612.996904 424.011561,612.683594 423.063639,612.683594 C422.735513,612.683594 422.421063,612.738281 422.12028,612.847656 C421.819497,612.957032 421.559734,613.107421 421.340983,613.298828 L421.340983,613.298828 L421.340983,610.50293 C421.340983,610.343424 421.307943,610.228353 421.241862,610.157715 C421.175781,610.087076 421.069825,610.051758 420.923991,610.051758 L420.923991,610.051758 Z M413.503418,612.533203 C412.405105,612.533203 411.510746,612.843096 410.820313,613.462891 C410.129879,614.082685 409.784668,614.877925 409.784668,615.848633 C409.784668,616.823898 410.12874,617.621416 410.816895,618.241211 C411.505049,618.861006 412.400548,619.170898 413.503418,619.170898 C414.610845,619.170898 415.508623,618.861006 416.196777,618.241211 C416.884932,617.621416 417.229004,616.823898 417.229004,615.848633 C417.229004,614.877925 416.884932,614.082685 416.196777,613.462891 C415.508623,612.843096 414.610845,612.533203 413.503418,612.533203 Z M357.782715,610.612305 C357.481932,610.612305 357.266602,610.676106 357.136719,610.803711 C357.006835,610.931316 356.941895,611.152342 356.941895,611.466797 L356.941895,611.466797 L356.941895,613.066406 L356.299316,613.066406 C355.984862,613.066406 355.763835,613.122233 355.63623,613.233887 C355.508626,613.345541 355.444824,613.535806 355.444824,613.804688 C355.444824,614.073569 355.509765,614.267252 355.639648,614.385742 C355.769532,614.504232 355.989419,614.563477 356.299316,614.563477 L356.299316,614.563477 L356.941895,614.563477 L356.941895,616.463867 C356.941895,617.060875 356.973795,617.486978 357.037598,617.742188 C357.1014,617.997397 357.208495,618.216145 357.358887,618.398438 C357.563966,618.635418 357.844237,618.817708 358.199707,618.945312 C358.555178,619.072917 358.967608,619.136719 359.437012,619.136719 C360.243656,619.136719 360.964841,618.992026 361.600586,618.702637 C362.236331,618.413247 362.554199,618.093101 362.554199,617.742188 C362.554199,617.532551 362.48698,617.353679 362.352539,617.205566 C362.218098,617.057454 362.057455,616.983398 361.870605,616.983398 C361.706542,616.983398 361.382978,617.085936 360.899902,617.291016 C360.416827,617.496095 359.99756,617.598633 359.64209,617.598633 C359.263833,617.598633 358.999512,617.507488 358.849121,617.325195 C358.69873,617.142903 358.623535,616.805667 358.623535,616.313477 L358.623535,616.313477 L358.623535,614.563477 L360.708496,614.563477 C361.018393,614.563477 361.240559,614.504232 361.375,614.385742 C361.509441,614.267252 361.57666,614.073569 361.57666,613.804688 C361.57666,613.540363 361.51058,613.351238 361.378418,613.237305 C361.246256,613.123372 361.022951,613.066406 360.708496,613.066406 L360.708496,613.066406 L358.623535,613.066406 L358.623535,611.466797 C358.623535,611.152342 358.558594,610.931316 358.428711,610.803711 C358.298827,610.676106 358.083498,610.612305 357.782715,610.612305 Z M330.578613,610.612305 C330.277831,610.612305 330.062501,610.676106 329.932617,610.803711 C329.802734,610.931316 329.737793,611.152342 329.737793,611.466797 L329.737793,611.466797 L329.737793,613.066406 L329.095215,613.066406 C328.78076,613.066406 328.559734,613.122233 328.432129,613.233887 C328.304524,613.345541 328.240723,613.535806 328.240723,613.804688 C328.240723,614.073569 328.305663,614.267252 328.435547,614.385742 C328.56543,614.504232 328.785317,614.563477 329.095215,614.563477 L329.095215,614.563477 L329.737793,614.563477 L329.737793,616.463867 C329.737793,617.060875 329.769694,617.486978 329.833496,617.742188 C329.897298,617.997397 330.004394,618.216145 330.154785,618.398438 C330.359864,618.635418 330.640135,618.817708 330.995605,618.945312 C331.351076,619.072917 331.763507,619.136719 332.23291,619.136719 C333.039555,619.136719 333.760739,618.992026 334.396484,618.702637 C335.03223,618.413247 335.350098,618.093101 335.350098,617.742188 C335.350098,617.532551 335.282878,617.353679 335.148438,617.205566 C335.013997,617.057454 334.853354,616.983398 334.666504,616.983398 C334.502441,616.983398 334.178876,617.085936 333.695801,617.291016 C333.212725,617.496095 332.793459,617.598633 332.437988,617.598633 C332.059731,617.598633 331.795411,617.507488 331.64502,617.325195 C331.494628,617.142903 331.419434,616.805667 331.419434,616.313477 L331.419434,616.313477 L331.419434,614.563477 L333.504395,614.563477 C333.814292,614.563477 334.036458,614.504232 334.170898,614.385742 C334.305339,614.267252 334.372559,614.073569 334.372559,613.804688 C334.372559,613.540363 334.306479,613.351238 334.174316,613.237305 C334.042154,613.123372 333.818849,613.066406 333.504395,613.066406 L333.504395,613.066406 L331.419434,613.066406 L331.419434,611.466797 C331.419434,611.152342 331.354493,610.931316 331.224609,610.803711 C331.094726,610.676106 330.879396,610.612305 330.578613,610.612305 Z M350.027181,616.525391 C349.607908,616.525391 349.266115,616.645018 349.00179,616.884277 C348.737466,617.123536 348.605306,617.43229 348.605306,617.810547 C348.605306,618.188804 348.737466,618.497557 349.00179,618.736816 C349.266115,618.976075 349.607908,619.095703 350.027181,619.095703 C350.455569,619.095703 350.80078,618.976075 351.062826,618.736816 C351.324871,618.497557 351.455892,618.188804 351.455892,617.810547 C351.455892,617.427732 351.324871,617.11784 351.062826,616.880859 C350.80078,616.643879 350.455569,616.525391 350.027181,616.525391 Z M384.788574,610.051758 L383.503418,610.051758 C383.188963,610.051758 382.965658,610.111002 382.833496,610.229492 C382.701334,610.347982 382.635254,610.541665 382.635254,610.810547 C382.635254,611.056642 382.700195,611.244628 382.830078,611.374512 C382.959962,611.504395 383.145669,611.569336 383.387207,611.569336 L383.387207,611.569336 L383.503418,611.569336 L383.503418,617.50293 L383.387207,617.50293 C383.145669,617.50293 382.96224,617.565592 382.836914,617.690918 C382.711588,617.816244 382.648926,617.999673 382.648926,618.241211 C382.648926,618.51465 382.712727,618.709472 382.840332,618.825684 C382.967937,618.941895 383.188963,619 383.503418,619 L383.503418,619 L385.19873,619 C385.504071,619 385.722818,618.940756 385.85498,618.822266 C385.987143,618.703775 386.053223,618.510092 386.053223,618.241211 C386.053223,617.999673 385.990561,617.816244 385.865234,617.690918 C385.739908,617.565592 385.5542,617.50293 385.308105,617.50293 L385.308105,617.50293 L385.19873,617.50293 L385.19873,615.513672 C385.19873,615.067055 385.328612,614.696779 385.588379,614.402832 C385.848146,614.108885 386.160317,613.961914 386.524902,613.961914 C386.871258,613.961914 387.11621,614.074706 387.259766,614.300293 C387.403321,614.52588 387.475098,614.930336 387.475098,615.513672 L387.475098,615.513672 L387.475098,617.50293 L387.365723,617.50293 C387.119628,617.50293 386.935059,617.564453 386.812012,617.6875 C386.688964,617.810547 386.627441,617.995116 386.627441,618.241211 C386.627441,618.510092 386.692382,618.703775 386.822266,618.822266 C386.952149,618.940756 387.169758,619 387.475098,619 L387.475098,619 L389.17041,619 C389.480308,619 389.700195,618.940756 389.830078,618.822266 C389.959962,618.703775 390.024902,618.510092 390.024902,618.241211 C390.024902,617.999673 389.96224,617.816244 389.836914,617.690918 C389.711588,617.565592 389.528159,617.50293 389.286621,617.50293 L389.286621,617.50293 L389.17041,617.50293 L389.17041,614.953125 C389.17041,614.169267 388.975588,613.56771 388.585938,613.148438 C388.196287,612.729165 387.641442,612.519531 386.921387,612.519531 C386.515786,612.519531 386.167156,612.592447 385.875488,612.738281 C385.58382,612.884115 385.358236,613.096027 385.19873,613.374023 L385.19873,613.374023 L385.19873,610.50293 C385.19873,610.329752 385.169108,610.211263 385.109863,610.147461 C385.050618,610.083659 384.943523,610.051758 384.788574,610.051758 L384.788574,610.051758 Z M325.16097,612.505859 C324.664223,612.505859 324.200523,612.619791 323.769857,612.847656 C323.339191,613.075522 322.875491,613.456052 322.378743,613.989258 L322.378743,613.989258 L322.378743,612.977539 C322.378743,612.886393 322.344564,612.814616 322.276204,612.762207 C322.207845,612.709798 322.112143,612.683594 321.989095,612.683594 L321.989095,612.683594 L320.53304,612.683594 C320.214028,612.683594 319.991863,612.740559 319.866536,612.854492 C319.74121,612.968425 319.678548,613.159829 319.678548,613.428711 C319.678548,613.697592 319.743489,613.890136 319.873372,614.006348 C320.003256,614.122559 320.223143,614.180664 320.53304,614.180664 L320.53304,614.180664 L320.826986,614.180664 L320.826986,617.50293 L320.307454,617.50293 C319.988442,617.50293 319.763998,617.559895 319.634115,617.673828 C319.504231,617.787761 319.43929,617.976887 319.43929,618.241211 C319.43929,618.510092 319.50537,618.703775 319.637533,618.822266 C319.769695,618.940756 319.993,619 320.307454,619 L320.307454,619 L324.128743,619 C324.438641,619 324.658528,618.940756 324.788411,618.822266 C324.918295,618.703775 324.983236,618.510092 324.983236,618.241211 C324.983236,617.976887 324.918295,617.787761 324.788411,617.673828 C324.658528,617.559895 324.438641,617.50293 324.128743,617.50293 L324.128743,617.50293 L322.515462,617.50293 L322.515462,615.288086 C322.921063,614.877928 323.271971,614.574871 323.568197,614.378906 C323.864422,614.182942 324.121906,614.084961 324.340658,614.084961 C324.450033,614.084961 324.644855,614.160155 324.92513,614.310547 C325.205405,614.460938 325.448078,614.536133 325.653158,614.536133 C325.940268,614.536133 326.174967,614.450684 326.357259,614.279785 C326.539552,614.108886 326.630697,613.891277 326.630697,613.626953 C326.630697,613.285155 326.498536,613.012859 326.234212,612.810059 C325.969888,612.607258 325.612144,612.505859 325.16097,612.505859 Z M413.503418,613.975586 C414.041181,613.975586 414.482095,614.149901 414.826172,614.498535 C415.170249,614.84717 415.342285,615.292641 415.342285,615.834961 C415.342285,616.381839 415.16911,616.834145 414.822754,617.191895 C414.476398,617.549644 414.036624,617.728516 413.503418,617.728516 C412.970212,617.728516 412.531577,617.549644 412.1875,617.191895 C411.843423,616.834145 411.671387,616.381839 411.671387,615.834961 C411.671387,615.292641 411.843423,614.84717 412.1875,614.498535 C412.531577,614.149901 412.970212,613.975586 413.503418,613.975586 Z M304.967285,614.139648 C305.413902,614.139648 305.785318,614.308267 306.081543,614.645508 C306.377768,614.982749 306.525879,615.406573 306.525879,615.916992 C306.525879,616.441083 306.378908,616.871743 306.084961,617.208984 C305.791014,617.546226 305.418459,617.714844 304.967285,617.714844 C304.516111,617.714844 304.144695,617.547365 303.853027,617.212402 C303.561359,616.87744 303.415527,616.445641 303.415527,615.916992 C303.415527,615.402016 303.562499,614.977052 303.856445,614.64209 C304.150392,614.307127 304.520668,614.139648 304.967285,614.139648 Z M422.851725,614.139648 C423.298342,614.139648 423.669758,614.308267 423.965983,614.645508 C424.262209,614.982749 424.410319,615.406573 424.410319,615.916992 C424.410319,616.441083 424.263348,616.871743 423.969401,617.208984 C423.675454,617.546226 423.302899,617.714844 422.851725,617.714844 C422.400551,617.714844 422.029136,617.547365 421.737467,617.212402 C421.445799,616.87744 421.299967,616.445641 421.299967,615.916992 C421.299967,615.402016 421.446939,614.977052 421.740885,614.64209 C422.034832,614.307127 422.405108,614.139648 422.851725,614.139648 Z M368.135905,613.845703 C368.650881,613.845703 369.069009,613.961913 369.390299,614.194336 C369.71159,614.426759 369.91097,614.754881 369.988444,615.178711 L369.988444,615.178711 L366.303874,615.178711 C366.422364,614.732094 366.633137,614.398276 366.936198,614.177246 C367.239259,613.956216 367.639158,613.845703 368.135905,613.845703 Z M313.727702,613.845703 C314.242678,613.845703 314.660806,613.961913 314.982096,614.194336 C315.303387,614.426759 315.502767,614.754881 315.580241,615.178711 L315.580241,615.178711 L311.895671,615.178711 C312.014161,614.732094 312.224933,614.398276 312.527995,614.177246 C312.831056,613.956216 313.230955,613.845703 313.727702,613.845703 Z M404.900228,609.59375 C404.5402,609.59375 404.30778,609.673502 404.202962,609.833008 C404.098144,609.992514 404.045736,610.363929 404.045736,610.947266 C404.045736,611.257163 404.098144,611.465657 404.202962,611.572754 C404.30778,611.679851 404.5402,611.733398 404.900228,611.733398 C405.255698,611.733398 405.482421,611.679851 405.580404,611.572754 C405.678386,611.465657 405.727376,611.175133 405.727376,610.701172 C405.727376,610.218097 405.67155,609.912761 405.559896,609.785156 C405.448242,609.657551 405.228355,609.59375 404.900228,609.59375 Z"/><text id="MESH-NETWORK---BAZEl" font-family="BostonTraffic, Boston Traffic" font-size="19.8" font-weight="normal" letter-spacing=".457" line-spacing="53"><tspan x="221" y="539">MESH NETWORK - BAZEl - DOCKER</tspan></text><text id="HARDWARE---BLUETOOTH" font-family="BostonTraffic, Boston Traffic" font-size="27" font-weight="normal" letter-spacing=".623" line-spacing="53"><tspan x="221" y="507">HARDWARE - BLUETOOTH</tspan></text><text id="MOBX---TYPESCRIPT" font-family="BostonTraffic, Boston Traffic" font-size="33.4" font-weight="normal" letter-spacing=".98" line-spacing="53"><tspan x="221" y="469">MOBX - TYPESCRIPT</tspan></text><text id="CRYPTO---p2p---IPFS" font-family="BostonTraffic, Boston Traffic" font-size="25" font-weight="normal" letter-spacing=".577" line-spacing="59"><tspan x="221.338" y="413" font-size="34" letter-spacing=".785">CRYPTO - p2p - IPFS</tspan></text><text id="ZERO-KNOWLEDGE" font-family="BostonTraffic, Boston Traffic" font-size="37.2" font-weight="normal" letter-spacing=".858" line-spacing="53"><tspan x="221" y="375">ZERO KNOWLEDGE</tspan></text><text id="gRPC---PROTOBUF" font-family="BostonTraffic, Boston Traffic" font-size="38.7" font-weight="normal" letter-spacing=".893" line-spacing="59"><tspan x="221" y="321">gRPC - PROTOBUF</tspan></text><text id="G0---REACT-native" font-family="BostonTraffic, Boston Traffic" font-size="36.3" font-weight="normal" letter-spacing=".838"><tspan x="220.963" y="275">G0</tspan> <tspan x="264.61" y="275" font-size="22" letter-spacing=".508"> </tspan> <tspan x="269.308" y="275">-</tspan> <tspan x="279.575" y="275" font-size="22" letter-spacing=".508"> </tspan> <tspan x="284.272" y="275">REACT native</tspan></text><text id="WE-ARE-HIRING" font-family="BostonTraffic, Boston Traffic" font-size="45.5" font-weight="normal" letter-spacing="1.05"><tspan x="220.71" y="219">WE ARE HIRING</tspan></text></g></g></svg>