<?xml version="1.0" encoding="UTF-8"?>
<svg width="5798px" height="5798px" viewBox="0 0 5798 5798" version="1.1" xmlns="http://www.w3.org/2000/svg" xmlns:xlink="http://www.w3.org/1999/xlink">
    <!-- Generator: Sketch 55.1 (78136) - https://sketchapp.com -->
    <title>berty_gradient_square</title>
    <desc>Created with Sketch.</desc>
    <defs>
        <linearGradient x1="50%" y1="0%" x2="50%" y2="100%" id="linearGradient-1">
            <stop stop-color="#4E53FF" offset="0%"></stop>
            <stop stop-color="#3442D9" offset="100%"></stop>
        </linearGradient>
    </defs>
    <g id="Page-1" stroke="none" stroke-width="1" fill="none" fill-rule="evenodd">
        <g id="berty_new_color_gradient_square" transform="translate(741.000000, 443.000000)" fill-rule="nonzero">
            <g id="Group" transform="translate(0.000000, 3140.000000)" fill="#F74868">
                <path d="M377.621145,468.990805 C331.557302,468.990805 297.060602,476.710188 272.186127,486.21883 L272.186127,0 L0,0 L0,1298.08312 C76.7218889,1345.93306 197.460338,1390 345.018181,1390 C642.181147,1390 853,1213.8345 853,915.130195 C852.948818,648.990438 630.614005,468.990805 377.621145,468.990805 Z M364.211448,1146.76278 C325.876095,1146.76278 295.218049,1139.14564 272.186127,1129.53476 L272.186127,735.181684 C293.273131,721.78779 337.340874,710.234277 375.676227,710.234277 C483.056162,710.234277 582.707608,796.425524 582.707608,924.68996 C582.707608,1056.83965 498.359594,1146.76278 364.211448,1146.76278 Z" id="Shape"></path>
                <path d="M2231.09326,631.037487 L2223.47599,495 L1965,495 L1965,1363 L2244.48739,1363 L2244.48739,1020.01568 C2244.48739,811.175881 2382.31399,723.025227 2531.64318,723.025227 C2545.03731,723.025227 2550.81416,723.025227 2554.64836,723.025227 L2557,498.734764 C2415.28808,498.683602 2284.7209,521.80844 2231.09326,631.037487 Z" id="Path"></path>
                <path d="M3052.33156,225 L2784.49519,326.521691 L2784.49519,495.042583 L2682,495.042583 L2683.8394,724.93679 L2778.72153,724.93679 L2778.72153,1079.26539 C2778.72153,1253.56561 2908.80764,1378 3100.15583,1378 C3155.69534,1378 3203.51962,1370.37948 3232.18353,1356.9285 L3253.23438,1127.13658 C3228.40255,1136.75173 3199.68754,1140.53642 3163.3084,1140.53642 C3100.10474,1140.53642 3056.16363,1104.12158 3056.16363,1039.01473 L3056.16363,724.93679 L3302.94914,724.93679 L3324,495.042583 L3052.28046,495.042583 L3052.28046,225 L3052.33156,225 Z" id="Path"></path>
                <path d="M4031.02737,495.051167 L3900.51464,836.13339 C3881.29144,887.863682 3864.01619,941.538337 3848.68889,1002.83694 L3844.79299,1002.83694 C3827.51773,939.645141 3810.24248,884.026123 3791.07054,834.240194 L3662.40324,495 L3384,495 L3708.4364,1319.00062 C3625.90478,1518.349 3541.47648,1596.89104 3407.06784,1640.99738 L3522.25327,1823 C3731.50424,1771.26971 3873.60216,1593.10465 3990.68428,1288.35131 L4296,495 L4031.02737,495 L4031.02737,495.051167 Z" id="Path"></path>
                <path d="M1418.11039,468 C1174.84339,468 966,642.419983 966,924.21471 C966,1207.8519 1190.13709,1390 1473.65874,1390 C1588.59166,1390 1672.93717,1368.91402 1732.27059,1340.1511 L1757.23154,1108.20527 C1682.50213,1152.27089 1605.82904,1175.30169 1506.24097,1175.30169 C1352.99708,1175.30169 1272.48778,1087.11929 1251.46533,1010.40111 L1627.26067,1011.47588 C1627.26067,1011.47588 1783.67583,1011.47588 1801.01551,898.471385 C1801.01551,898.471385 1807,841.252623 1807,813.052678 C1807,634.794227 1659.48486,468 1418.11039,468 Z M1548.38815,830.351374 L1241.90038,830.351374 C1261.08144,742.16897 1333.86717,680.855842 1418.16154,680.855842 C1498.67084,680.855842 1550.33183,742.16897 1550.33183,811.159034 C1550.33183,818.78479 1550.33183,824.568082 1548.38815,830.351374 Z" id="Shape"></path>
            </g>
            <g id="Group" transform="translate(548.000000, 0.000000)">
                <g transform="translate(255.000000, 429.000000)" id="Path">
                    <path d="M1360,848.3 C1360,838.1 1360.2,827.9 1360.7,817.8 C1376.6,465 1675.1,183.9 2031.61565,183.1 C2032,117.2 2024.6,74.4 2024.6,72.9 C2025.9,72.9 2027.2,72.8 2028.4,72.8 C1828.1,70.9 1630.2,110.6 1447.1,187.4 C1385.1,213.4 1324.9,243.6 1266.8,277.9 L1266.8,277.9 C1193.8,321 1124.3,370.5 1059.2,426.4 C1037.5,445 1016.3,464.3 995.6,484.3 L631.9,283 L431.5,172.2 L120.2,0.1 C-135,459.1 29.9,1037.9 488.3,1293.6 L37.8,2153.8 C37.9,2153.8 37.9,2153.9 38,2153.9 C227.9,2253.3 429.7,2306.5 630.6,2318.2 C1187.2,2350.7 1737.6,2062.3 2013.1,1536.3 L2023.7,1513.6 C2020.4,1513.6 2017,1513.6 2013.7,1513.5 C1651.7,1507.3 1360,1211.9 1360,848.3 Z" fill="url(#linearGradient-1)"></path>
                    <path d="M1533.2,1235 C1432,1123.8 1367.9,978.2 1360.7,817.8 C1360.2,827.9 1360,838.1 1360,848.3 C1360,1211.9 1651.6,1507.4 2013.8,1513.5 C2017.7,1513.6 2021.5,1513.6 2025.4,1513.6 L2025.4,1452.5 C1830.4,1452.6 1654.9,1368.7 1533.2,1235 Z" fill="#FFBF47"></path>
                    <path d="M2023.8,183 C1667.3,183.8 1376.7,465 1360.7,817.8 C1367.9,978.2 1432,1123.8 1533.2,1235 C1654.9,1368.7 1830.3,1452.6 2025.4,1452.6 L2025.4,182.9 C2024.9,182.9 2024.4,182.9 2023.8,183 Z" fill="#FFFFFF"></path>
                </g>
                <g>
                    <path d="M375.2,429.1 L163.8,311.5 C-156.5,887.6 54.6,1617.4 630.7,1937.7 L744.5,1723.3 C285.1,1467.9 119.8,888.5 375.2,429.1 Z" id="Path" fill="#FFBF47"></path>
                    <g transform="translate(2279.000000, 501.000000)" id="Path">
                        <path d="M0.6,919.9 L0.6,1441.3 C0.8,1441.3 1.1,1441.3 1.3,1441.3 C251.7,1441 460.7,1264.1 510.6,1028.5 L0.6,919.9 Z" fill="#FFAE3A"></path>
                        <path d="M629.9,241 C479,104 282.7,16.3 66.3,2.7 C45.7,1.6 25.1,0.9 4.5,0.7 C3.2,0.7 1.9,0.8 0.7,0.8 C0.7,4.2 0.7,919.9 0.7,919.9 L914.5,1114.3 C927,1053.7 933.7,991 933.7,926.7 C933.5,654.9 816.4,410.4 629.9,241 Z" fill="#FFBF47"></path>
                    </g>
                    <g id="Path">
                        <g transform="translate(686.000000, 0.000000)">
                            <path d="M835.7,706.8 L608.3,202.4 C390.4,300.7 245.6,494.5 200.9,712 L564.7,913.1 C647.3,833.2 738.5,764.2 835.7,706.8 Z" fill="#3442D9"></path>
                            <path d="M200.9,712 C245.7,494.5 390.4,300.7 608.3,202.4 L517.4,0.8 C254.6,119.3 73.2,343.9 0.4,601.1 L200.9,712 L200.9,712 Z" fill="#FFBF47"></path>
                        </g>
                        <path d="M0.7,3139.8 C302.7,3298.3 676,3182 834.5,2880 C857.1,2836.9 874,2792.4 885.6,2747.2 C684.6,2735.5 482.9,2682.3 293,2582.9 L0.7,3139.8 Z" fill="#F74868"></path>
                    </g>
                    <circle id="Oval" fill="#383B62" cx="2066.2" cy="1235.7" r="119.2"></circle>
                </g>
            </g>
        </g>
    </g>
</svg>