<svg xmlns="http://www.w3.org/2000/svg" xmlns:ev="http://www.w3.org/2001/xml-events" xmlns:xlink="http://www.w3.org/1999/xlink" width="720" height="720" baseProfile="full" version="1.1"><rect width="41" height="41" x="80" y="0" fill="#B99768" opacity=".086"/><rect width="41" height="41" x="200" y="0" fill="#F7B251"/><rect width="41" height="41" x="320" y="0" fill="#00468B" opacity=".043"/><rect width="41" height="41" x="40" y="40" fill="#F7B251"/><rect width="41" height="41" x="200" y="40" fill="#F7B251"/><rect width="41" height="41" x="240" y="40" fill="#043A70"/><rect width="41" height="41" x="40" y="80" fill="#F7B251"/><rect width="41" height="41" x="80" y="80" fill="#07539F"/><rect width="41" height="41" x="120" y="80" fill="#06539F"/><rect width="41" height="41" x="200" y="80" fill="#F7B251"/><rect width="41" height="41" x="240" y="80" fill="#043A70"/><rect width="41" height="41" x="280" y="80" fill="#043A70"/><rect width="41" height="41" x="400" y="80" fill="#07539F"/><rect width="41" height="41" x="440" y="80" fill="#07539F"/><rect width="41" height="41" x="480" y="80" fill="#07539F"/><rect width="41" height="41" x="520" y="80" fill="#F7B251"/><rect width="41" height="41" x="560" y="80" fill="#F7B251"/><rect width="41" height="41" x="40" y="120" fill="#F7B251"/><rect width="41" height="41" x="80" y="120" fill="#07539F"/><rect width="41" height="41" x="120" y="120" fill="#07539F"/><rect width="41" height="41" x="160" y="120" fill="#07539F"/><rect width="41" height="41" x="200" y="120" fill="#07539F"/><rect width="41" height="41" x="240" y="120" fill="#07539F"/><rect width="41" height="41" x="280" y="120" fill="#07539F"/><rect width="41" height="41" x="320" y="120" fill="#06529C" opacity=".984"/><rect width="41" height="41" x="360" y="120" fill="#07539F"/><rect width="41" height="41" x="400" y="120" fill="#F6F7F9"/><rect width="41" height="41" x="440" y="120" fill="#F6F7F9"/><rect width="41" height="41" x="480" y="120" fill="#F6F7F9"/><rect width="41" height="41" x="520" y="120" fill="#F7B251"/><rect width="41" height="41" x="560" y="120" fill="#F7B251"/><rect width="41" height="41" x="600" y="120" fill="#F7B251"/><rect width="41" height="41" x="40" y="160" fill="#F7B251"/><rect width="41" height="41" x="80" y="160" fill="#07539F"/><rect width="41" height="41" x="120" y="160" fill="#06539F"/><rect width="41" height="41" x="160" y="160" fill="#07539F"/><rect width="41" height="41" x="200" y="160" fill="#07539F"/><rect width="41" height="41" x="240" y="160" fill="#07539F"/><rect width="41" height="41" x="280" y="160" fill="#07539F"/><rect width="41" height="41" x="320" y="160" fill="#07539F"/><rect width="41" height="41" x="360" y="160" fill="#F6F7F9"/><rect width="41" height="41" x="400" y="160" fill="#F6F7F9"/><rect width="41" height="41" x="440" y="160" fill="#F6F7F9"/><rect width="41" height="41" x="480" y="160" fill="#F6F7F9"/><rect width="41" height="41" x="520" y="160" fill="#F7B251"/><rect width="41" height="41" x="560" y="160" fill="#F7B251"/><rect width="41" height="41" x="600" y="160" fill="#F7B251"/><rect width="41" height="41" x="640" y="160" fill="#F7B251"/><rect width="41" height="41" x="40" y="200" fill="#F7B251"/><rect width="41" height="41" x="80" y="200" fill="#07539F"/><rect width="41" height="41" x="120" y="200" fill="#07539F"/><rect width="41" height="41" x="160" y="200" fill="#07539F"/><rect width="41" height="41" x="200" y="200" fill="#07539F"/><rect width="41" height="41" x="240" y="200" fill="#07539F"/><rect width="41" height="41" x="280" y="200" fill="#07539F"/><rect width="41" height="41" x="320" y="200" fill="#07539F"/><rect width="41" height="41" x="360" y="200" fill="#F6F7F9"/><rect width="41" height="41" x="400" y="200" fill="#F6F7F9"/><rect width="41" height="41" x="440" y="200" fill="#000"/><rect width="41" height="41" x="480" y="200" fill="#F6F7F9"/><rect width="41" height="41" x="520" y="200" fill="#F7B251"/><rect width="41" height="41" x="560" y="200" fill="#F7B251"/><rect width="41" height="41" x="600" y="200" fill="#F7B251"/><rect width="41" height="41" x="640" y="200" fill="#F7B251"/><rect width="41" height="41" x="40" y="240" fill="#F7B251"/><rect width="41" height="41" x="80" y="240" fill="#F7B251"/><rect width="41" height="41" x="120" y="240" fill="#07539F"/><rect width="41" height="41" x="160" y="240" fill="#07539F"/><rect width="41" height="41" x="200" y="240" fill="#07539F"/><rect width="41" height="41" x="240" y="240" fill="#07539F"/><rect width="41" height="41" x="280" y="240" fill="#06529F"/><rect width="41" height="41" x="320" y="240" fill="#07539F"/><rect width="41" height="41" x="360" y="240" fill="#F6F7F9"/><rect width="41" height="41" x="400" y="240" fill="#F6F7F9"/><rect width="41" height="41" x="440" y="240" fill="#F6F7F9"/><rect width="41" height="41" x="480" y="240" fill="#F6F7F9"/><rect width="41" height="41" x="520" y="240" fill="#F7B251"/><rect width="41" height="41" x="560" y="240" fill="#F7B251"/><rect width="41" height="41" x="600" y="240" fill="#F7B251"/><rect width="41" height="41" x="640" y="240" fill="#F7B251"/><rect width="41" height="41" x="80" y="280" fill="#F7B251"/><rect width="41" height="41" x="120" y="280" fill="#F7B251"/><rect width="41" height="41" x="160" y="280" fill="#07539F"/><rect width="41" height="41" x="200" y="280" fill="#07539F"/><rect width="41" height="41" x="240" y="280" fill="#07539F"/><rect width="41" height="41" x="280" y="280" fill="#07539F"/><rect width="41" height="41" x="320" y="280" fill="#07539F"/><rect width="41" height="41" x="360" y="280" fill="#F6F7F9"/><rect width="41" height="41" x="400" y="280" fill="#F6F7F9"/><rect width="41" height="41" x="440" y="280" fill="#F6F7F9"/><rect width="41" height="41" x="480" y="280" fill="#F6F7F9"/><rect width="41" height="41" x="520" y="280" fill="#F59F22"/><rect width="41" height="41" x="560" y="280" fill="#F59F22"/><rect width="41" height="41" x="120" y="320" fill="#F7B251"/><rect width="41" height="41" x="160" y="320" fill="#F7B251"/><rect width="41" height="41" x="200" y="320" fill="#07539F"/><rect width="41" height="41" x="240" y="320" fill="#07539F"/><rect width="41" height="41" x="280" y="320" fill="#07539F"/><rect width="41" height="41" x="320" y="320" fill="#07539F"/><rect width="41" height="41" x="360" y="320" fill="#07539F"/><rect width="41" height="41" x="400" y="320" fill="#F6F7F9"/><rect width="41" height="41" x="440" y="320" fill="#F6F7F9"/><rect width="41" height="41" x="480" y="320" fill="#F6F7F9"/><rect width="41" height="41" x="520" y="320" fill="#F59F22"/><rect width="41" height="41" x="640" y="320" fill="#FF0" opacity=".004"/><rect width="41" height="41" x="680" y="320" fill="#FA5" opacity=".035"/><rect width="41" height="41" x="160" y="360" fill="#07539F"/><rect width="41" height="41" x="200" y="360" fill="#07539F"/><rect width="41" height="41" x="240" y="360" fill="#07539F"/><rect width="41" height="41" x="280" y="360" fill="#07539F"/><rect width="41" height="41" x="320" y="360" fill="#07539F"/><rect width="41" height="41" x="360" y="360" fill="#07539F"/><rect width="41" height="41" x="400" y="360" fill="#07539F"/><rect width="41" height="41" x="440" y="360" fill="#07539F"/><rect width="41" height="41" x="480" y="360" fill="#07539F"/><rect width="41" height="41" x="600" y="360" fill="#FA0" opacity=".012"/><rect width="41" height="41" x="160" y="400" fill="#07539F"/><rect width="41" height="41" x="200" y="400" fill="#07539F"/><rect width="41" height="41" x="240" y="400" fill="#07539F"/><rect width="41" height="41" x="280" y="400" fill="#07539F"/><rect width="41" height="41" x="320" y="400" fill="#07539F"/><rect width="41" height="41" x="360" y="400" fill="#07539F"/><rect width="41" height="41" x="400" y="400" fill="#07539F"/><rect width="41" height="41" x="440" y="400" fill="#07539F"/><rect width="41" height="41" x="120" y="440" fill="#07539F"/><rect width="41" height="41" x="160" y="440" fill="#07539F"/><rect width="41" height="41" x="200" y="440" fill="#07539F"/><rect width="41" height="41" x="240" y="440" fill="#07539F"/><rect width="41" height="41" x="280" y="440" fill="#07539F"/><rect width="41" height="41" x="320" y="440" fill="#07539F"/><rect width="41" height="41" x="360" y="440" fill="#07539F"/><rect width="41" height="41" x="400" y="440" fill="#07539F"/><rect width="41" height="41" x="120" y="480" fill="#07539F"/><rect width="41" height="41" x="160" y="480" fill="#07539F"/><rect width="41" height="41" x="200" y="480" fill="#07539F"/><rect width="41" height="41" x="240" y="480" fill="#07539F"/><rect width="41" height="41" x="280" y="480" fill="#07539F"/><rect width="41" height="41" x="320" y="480" fill="#07539F"/><rect width="41" height="41" x="360" y="480" fill="#07539F"/><rect width="41" height="41" x="80" y="520" fill="#E94E6B"/><rect width="41" height="41" x="120" y="520" fill="#E94E6B"/><rect width="41" height="41" x="160" y="520" fill="#07539F"/><rect width="41" height="41" x="200" y="520" fill="#07539F"/><rect width="41" height="41" x="240" y="520" fill="#07539F"/><rect width="41" height="41" x="280" y="520" fill="#07539F"/><rect width="41" height="41" x="320" y="520" fill="#07539F"/><rect width="41" height="41" x="80" y="560" fill="#E94E6B"/><rect width="41" height="41" x="120" y="560" fill="#E94E6B"/><rect width="41" height="41" x="160" y="560" fill="#E94E6B"/><rect width="41" height="41" x="200" y="560" fill="#E94E6B"/><rect width="41" height="41" x="280" y="560" fill="#0B559F" opacity=".094"/><rect width="41" height="41" x="320" y="560" fill="#05A" opacity=".024"/><rect width="41" height="41" x="40" y="600" fill="#E94E6B"/><rect width="41" height="41" x="80" y="600" fill="#E94E6B"/><rect width="41" height="41" x="120" y="600" fill="#E94E6B"/><rect width="41" height="41" x="160" y="600" fill="#E94E6B"/><rect width="41" height="41" x="40" y="640" fill="#E94E6B"/><rect width="41" height="41" x="80" y="640" fill="#E94E6B"/><rect width="41" height="41" x="120" y="640" fill="#E94E6B"/></svg>