<svg xmlns="http://www.w3.org/2000/svg" xmlns:xlink="http://www.w3.org/1999/xlink" id="Layer_1" x="0" y="0" enable-background="new 0 0 5720 5720" version="1.1" viewBox="0 0 5720 5720" xml:space="preserve"><style type="text/css">.st0{fill:#e94e6b}.st1{fill:#07539f}.st2{fill:#f7b352}.st3{fill:#fff}.st4{fill:#f49a18}.st5{fill:#074c84}</style><g><g transform="matrix( 1, 0, 0, 1, 0,0)"><g id="Layer0_0_FILL"><path d="M2890,4250v-170h-170v850h170v-510h170v-170H2890 M3060,4250h170v-170h-170V4250 M3740,4760v170h340v-170 H3740 M4080,4250v-170h-340v-340h-170v340h-170v170h170v510h170v-510H4080 M4080,5270v170h340v-170H4080 M4590,5270v-170h-170 v170H4590 M4590,4420h-170v340h170V4420 M4930,4420h-170v340h-170v340h170v-170h170V4420 M5100,4080h-170v340h170V4080 M4420,4080h-170v340h170V4080 M1360,4250v-170h-340v-510H850v1360h510v-170h-340v-510H1360 M1530,4250h-170v510h170V4250 M2380,4930v-170h-510v170H2380 M2550,4250h-170v170h170V4250 M1870,4080v170h510v-170H1870 M1870,4250h-170v510h170v-170h510 v-170h-510V4250z" class="st0"/></g></g></g><g><g><g transform="matrix( 1, 0, 0, 1, 0,0)"><g id="Layer0_1_MEMBER_0_FILL"><path d="M3230,850v170h-510l-340,170l-340-170h-340v680l170,170l78.8,208.8L1870,2210v340h-170v340l122,298 l216.7-128H2720v-170h340v-170h170v-170h170v-340c-1.2-34.2-2.6-66.3-4.1-96.4c72.2-0.2,130.6-25.3,175.3-75.2L3570,850H3230z" class="st1"/></g></g></g><g><g transform="matrix( 1, 0, 0, 1, 0,0)"><g id="Layer0_1_MEMBER_1_FILL"><path d="M4080,1020V850h-510v170h-340v170h-170v170h-170v510h170v170h170v170h680v-170h170v-170h340v-680h-170v-170 H4080z" class="st2"/></g></g></g><g><g transform="matrix( 1, 0, 0, 1, 0,0)"><g id="Layer0_1_MEMBER_2_FILL"><path d="M3060,1190v170h-170v510h170v170h510V1020h-340v170H3060z" class="st3"/></g></g></g><g><g transform="matrix( 1, 0, 0, 1, 0,0)"><g id="Layer0_1_MEMBER_3_FILL"><path d="M3400,1530h-170v170h170V1530z"/></g></g></g><g><g transform="matrix( 1, 0, 0, 1, 0,0)"><g id="Layer0_1_MEMBER_4_FILL"><path d="M3570,1700v340h-340v170h680v-170h170v-170h-170v-170H3570z" class="st4"/></g></g></g><g><g transform="matrix( 1, 0, 0, 1, 0,0)"><g id="Layer0_1_MEMBER_5_FILL"><path d="M1870,3060v-170h-340v340h-170v340h510v-170h170v-340H1870z" class="st0"/></g></g></g><g><g transform="matrix( 1, 0, 0, 1, 0,0)"><g id="Layer0_1_MEMBER_6_FILL"><path d="M1360,1530h170v340h170v170h170v170h170v-340h-170v-170h-170V850h-340V1530z" class="st2"/></g></g></g><g><g transform="matrix( 1, 0, 0, 1, 0,0)"><g id="Layer0_1_MEMBER_7_FILL"><path d="M2720,1190V850h-170V680c-58.8-50.1-115.4-50.1-170,0l-170,170c-74.8,98.8-74.8,212.1,0,340h170v170h170 v-170H2720z" class="st5"/></g></g></g><g><g transform="matrix( 1, 0, 0, 1, 0,0)"><g id="Layer0_1_MEMBER_8_FILL"><path d="M2210,680h-170v510h170V850h170V680h170V510h-340V680z" class="st2"/></g></g></g></g></svg>