<svg xmlns="http://www.w3.org/2000/svg" xmlns:ev="http://www.w3.org/2001/xml-events" xmlns:xlink="http://www.w3.org/1999/xlink" width="1360" height="1360" baseProfile="full" version="1.1"><rect width="41" height="41" x="520" y="120" fill="#F7B352"/><rect width="41" height="41" x="560" y="120" fill="#F7B352"/><rect width="41" height="41" x="480" y="160" fill="#F7B352"/><rect width="41" height="41" x="520" y="160" fill="#F7B352"/><rect width="41" height="41" x="560" y="160" fill="#074C84"/><rect width="41" height="41" x="320" y="200" fill="#F7B352"/><rect width="41" height="41" x="360" y="200" fill="#F7B352"/><rect width="41" height="41" x="480" y="200" fill="#F7B352"/><rect width="41" height="41" x="520" y="200" fill="#074C84"/><rect width="41" height="41" x="560" y="200" fill="#074C84"/><rect width="41" height="41" x="600" y="200" fill="#074C84"/><rect width="41" height="41" x="760" y="200" fill="#07539F"/><rect width="41" height="41" x="800" y="200" fill="#07539F"/><rect width="41" height="41" x="840" y="200" fill="#07539F"/><rect width="41" height="41" x="320" y="240" fill="#F7B352"/><rect width="41" height="41" x="360" y="240" fill="#F7B352"/><rect width="41" height="41" x="400" y="240" fill="#07539F"/><rect width="41" height="41" x="440" y="240" fill="#07539F"/><rect width="41" height="41" x="480" y="240" fill="#F7B352"/><rect width="41" height="41" x="520" y="240" fill="#074C84"/><rect width="41" height="41" x="560" y="240" fill="#074C84"/><rect width="41" height="41" x="600" y="240" fill="#074C84"/><rect width="41" height="41" x="640" y="240" fill="#07539F"/><rect width="41" height="41" x="680" y="240" fill="#07539F"/><rect width="41" height="41" x="720" y="240" fill="#07539F"/><rect width="41" height="41" x="760" y="240" fill="#FFF"/><rect width="41" height="41" x="800" y="240" fill="#FFF"/><rect width="41" height="41" x="840" y="240" fill="#F7B352"/><rect width="41" height="41" x="880" y="240" fill="#F7B352"/><rect width="41" height="41" x="920" y="240" fill="#F7B352"/><rect width="41" height="41" x="320" y="280" fill="#F7B352"/><rect width="41" height="41" x="360" y="280" fill="#F7B352"/><rect width="41" height="41" x="400" y="280" fill="#07539F"/><rect width="41" height="41" x="440" y="280" fill="#07539F"/><rect width="41" height="41" x="480" y="280" fill="#07539F"/><rect width="41" height="41" x="520" y="280" fill="#07539F"/><rect width="41" height="41" x="560" y="280" fill="#074C84"/><rect width="41" height="41" x="600" y="280" fill="#07539F"/><rect width="41" height="41" x="640" y="280" fill="#07539F"/><rect width="41" height="41" x="680" y="280" fill="#07539F"/><rect width="41" height="41" x="720" y="280" fill="#FFF"/><rect width="41" height="41" x="760" y="280" fill="#FFF"/><rect width="41" height="41" x="800" y="280" fill="#FFF"/><rect width="41" height="41" x="840" y="280" fill="#F7B352"/><rect width="41" height="41" x="880" y="280" fill="#F7B352"/><rect width="41" height="41" x="920" y="280" fill="#F7B352"/><rect width="41" height="41" x="960" y="280" fill="#F7B352"/><rect width="41" height="41" x="320" y="320" fill="#F7B352"/><rect width="41" height="41" x="360" y="320" fill="#F7B352"/><rect width="41" height="41" x="400" y="320" fill="#07539F"/><rect width="41" height="41" x="440" y="320" fill="#07539F"/><rect width="41" height="41" x="480" y="320" fill="#07539F"/><rect width="41" height="41" x="520" y="320" fill="#07539F"/><rect width="41" height="41" x="560" y="320" fill="#07539F"/><rect width="41" height="41" x="600" y="320" fill="#07539F"/><rect width="41" height="41" x="640" y="320" fill="#07539F"/><rect width="41" height="41" x="680" y="320" fill="#FFF"/><rect width="41" height="41" x="720" y="320" fill="#FFF"/><rect width="41" height="41" x="760" y="320" fill="#FFF"/><rect width="41" height="41" x="800" y="320" fill="#FFF"/><rect width="41" height="41" x="840" y="320" fill="#F7B352"/><rect width="41" height="41" x="880" y="320" fill="#F7B352"/><rect width="41" height="41" x="920" y="320" fill="#F7B352"/><rect width="41" height="41" x="960" y="320" fill="#F7B352"/><rect width="41" height="41" x="1000" y="320" fill="#F7B352"/><rect width="41" height="41" x="360" y="360" fill="#F7B352"/><rect width="41" height="41" x="400" y="360" fill="#07539F"/><rect width="41" height="41" x="440" y="360" fill="#07539F"/><rect width="41" height="41" x="480" y="360" fill="#07539F"/><rect width="41" height="41" x="520" y="360" fill="#07539F"/><rect width="41" height="41" x="560" y="360" fill="#07539F"/><rect width="41" height="41" x="600" y="360" fill="#07539F"/><rect width="41" height="41" x="640" y="360" fill="#07539F"/><rect width="41" height="41" x="680" y="360" fill="#FFF"/><rect width="41" height="41" x="720" y="360" fill="#FFF"/><rect width="41" height="41" x="760" y="360" fill="#000"/><rect width="41" height="41" x="800" y="360" fill="#FFF"/><rect width="41" height="41" x="840" y="360" fill="#F7B352"/><rect width="41" height="41" x="880" y="360" fill="#F7B352"/><rect width="41" height="41" x="920" y="360" fill="#F7B352"/><rect width="41" height="41" x="960" y="360" fill="#F7B352"/><rect width="41" height="41" x="1000" y="360" fill="#F7B352"/><rect width="41" height="41" x="360" y="400" fill="#F7B352"/><rect width="41" height="41" x="400" y="400" fill="#F7B352"/><rect width="41" height="41" x="440" y="400" fill="#07539F"/><rect width="41" height="41" x="480" y="400" fill="#07539F"/><rect width="41" height="41" x="520" y="400" fill="#07539F"/><rect width="41" height="41" x="560" y="400" fill="#07539F"/><rect width="41" height="41" x="600" y="400" fill="#07539F"/><rect width="41" height="41" x="640" y="400" fill="#07539F"/><rect width="41" height="41" x="680" y="400" fill="#FFF"/><rect width="41" height="41" x="720" y="400" fill="#FFF"/><rect width="41" height="41" x="760" y="400" fill="#FFF"/><rect width="41" height="41" x="800" y="400" fill="#FFF"/><rect width="41" height="41" x="840" y="400" fill="#F49A18"/><rect width="41" height="41" x="880" y="400" fill="#F49A18"/><rect width="41" height="41" x="920" y="400" fill="#F7B352"/><rect width="41" height="41" x="960" y="400" fill="#F7B352"/><rect width="41" height="41" x="1000" y="400" fill="#F7B352"/><rect width="41" height="41" x="400" y="440" fill="#F7B352"/><rect width="41" height="41" x="440" y="440" fill="#F7B352"/><rect width="41" height="41" x="480" y="440" fill="#07539F"/><rect width="41" height="41" x="520" y="440" fill="#07539F"/><rect width="41" height="41" x="560" y="440" fill="#07539F"/><rect width="41" height="41" x="600" y="440" fill="#07539F"/><rect width="41" height="41" x="640" y="440" fill="#07539F"/><rect width="41" height="41" x="680" y="440" fill="#07539F"/><rect width="41" height="41" x="720" y="440" fill="#FFF"/><rect width="41" height="41" x="760" y="440" fill="#FFF"/><rect width="41" height="41" x="800" y="440" fill="#FFF"/><rect width="41" height="41" x="840" y="440" fill="#F49A18"/><rect width="41" height="41" x="880" y="440" fill="#F49A18"/><rect width="41" height="41" x="920" y="440" fill="#F49A18"/><rect width="41" height="41" x="440" y="480" fill="#F7B352"/><rect width="41" height="41" x="480" y="480" fill="#07539F"/><rect width="41" height="41" x="520" y="480" fill="#07539F"/><rect width="41" height="41" x="560" y="480" fill="#07539F"/><rect width="41" height="41" x="600" y="480" fill="#07539F"/><rect width="41" height="41" x="640" y="480" fill="#07539F"/><rect width="41" height="41" x="680" y="480" fill="#07539F"/><rect width="41" height="41" x="720" y="480" fill="#07539F"/><rect width="41" height="41" x="760" y="480" fill="#FFF"/><rect width="41" height="41" x="800" y="480" fill="#FFF"/><rect width="41" height="41" x="840" y="480" fill="#F49A18"/><rect width="41" height="41" x="880" y="480" fill="#F49A18"/><rect width="41" height="41" x="440" y="520" fill="#07539F"/><rect width="41" height="41" x="480" y="520" fill="#07539F"/><rect width="41" height="41" x="520" y="520" fill="#07539F"/><rect width="41" height="41" x="560" y="520" fill="#07539F"/><rect width="41" height="41" x="600" y="520" fill="#07539F"/><rect width="41" height="41" x="640" y="520" fill="#07539F"/><rect width="41" height="41" x="680" y="520" fill="#07539F"/><rect width="41" height="41" x="720" y="520" fill="#07539F"/><rect width="41" height="41" x="760" y="520" fill="#07539F"/><rect width="41" height="41" x="800" y="520" fill="#07539F"/><rect width="41" height="41" x="440" y="560" fill="#07539F"/><rect width="41" height="41" x="480" y="560" fill="#07539F"/><rect width="41" height="41" x="520" y="560" fill="#07539F"/><rect width="41" height="41" x="560" y="560" fill="#07539F"/><rect width="41" height="41" x="600" y="560" fill="#07539F"/><rect width="41" height="41" x="640" y="560" fill="#07539F"/><rect width="41" height="41" x="680" y="560" fill="#07539F"/><rect width="41" height="41" x="720" y="560" fill="#07539F"/><rect width="41" height="41" x="760" y="560" fill="#07539F"/><rect width="41" height="41" x="800" y="560" fill="#07539F"/><rect width="41" height="41" x="400" y="600" fill="#07539F"/><rect width="41" height="41" x="440" y="600" fill="#07539F"/><rect width="41" height="41" x="480" y="600" fill="#07539F"/><rect width="41" height="41" x="520" y="600" fill="#07539F"/><rect width="41" height="41" x="560" y="600" fill="#07539F"/><rect width="41" height="41" x="600" y="600" fill="#07539F"/><rect width="41" height="41" x="640" y="600" fill="#07539F"/><rect width="41" height="41" x="680" y="600" fill="#07539F"/><rect width="41" height="41" x="720" y="600" fill="#07539F"/><rect width="41" height="41" x="760" y="600" fill="#07539F"/><rect width="41" height="41" x="400" y="640" fill="#07539F"/><rect width="41" height="41" x="440" y="640" fill="#07539F"/><rect width="41" height="41" x="480" y="640" fill="#07539F"/><rect width="41" height="41" x="520" y="640" fill="#07539F"/><rect width="41" height="41" x="560" y="640" fill="#07539F"/><rect width="41" height="41" x="600" y="640" fill="#07539F"/><rect width="41" height="41" x="640" y="640" fill="#07539F"/><rect width="41" height="41" x="680" y="640" fill="#07539F"/><rect width="41" height="41" x="720" y="640" fill="#07539F"/><rect width="41" height="41" x="360" y="680" fill="#E94E6B"/><rect width="41" height="41" x="400" y="680" fill="#E94E6B"/><rect width="41" height="41" x="440" y="680" fill="#07539F"/><rect width="41" height="41" x="480" y="680" fill="#07539F"/><rect width="41" height="41" x="520" y="680" fill="#07539F"/><rect width="41" height="41" x="560" y="680" fill="#07539F"/><rect width="41" height="41" x="600" y="680" fill="#07539F"/><rect width="41" height="41" x="640" y="680" fill="#07539F"/><rect width="41" height="41" x="360" y="720" fill="#E94E6B"/><rect width="41" height="41" x="400" y="720" fill="#E94E6B"/><rect width="41" height="41" x="440" y="720" fill="#E94E6B"/><rect width="41" height="41" x="480" y="720" fill="#E94E6B"/><rect width="41" height="41" x="320" y="760" fill="#E94E6B"/><rect width="41" height="41" x="360" y="760" fill="#E94E6B"/><rect width="41" height="41" x="400" y="760" fill="#E94E6B"/><rect width="41" height="41" x="440" y="760" fill="#E94E6B"/><rect width="41" height="41" x="480" y="760" fill="#E94E6B"/><rect width="41" height="41" x="320" y="800" fill="#E94E6B"/><rect width="41" height="41" x="360" y="800" fill="#E94E6B"/><rect width="41" height="41" x="400" y="800" fill="#E94E6B"/><rect width="41" height="41" x="440" y="800" fill="#E94E6B"/><rect width="41" height="41" x="200" y="840" fill="#E94E6B"/><rect width="41" height="41" x="200" y="880" fill="#E94E6B"/><rect width="41" height="41" x="840" y="880" fill="#E94E6B"/><rect width="41" height="41" x="200" y="920" fill="#E94E6B"/><rect width="41" height="41" x="840" y="920" fill="#E94E6B"/><rect width="41" height="41" x="200" y="960" fill="#E94E6B"/><rect width="41" height="41" x="240" y="960" fill="#E94E6B"/><rect width="41" height="41" x="280" y="960" fill="#E94E6B"/><rect width="41" height="41" x="440" y="960" fill="#E94E6B"/><rect width="41" height="41" x="480" y="960" fill="#E94E6B"/><rect width="41" height="41" x="520" y="960" fill="#E94E6B"/><rect width="41" height="41" x="640" y="960" fill="#E94E6B"/><rect width="41" height="41" x="720" y="960" fill="#E94E6B"/><rect width="41" height="41" x="800" y="960" fill="#E94E6B"/><rect width="41" height="41" x="840" y="960" fill="#E94E6B"/><rect width="41" height="41" x="880" y="960" fill="#E94E6B"/><rect width="41" height="41" x="920" y="960" fill="#E94E6B"/><rect width="41" height="41" x="1000" y="960" fill="#E94E6B"/><rect width="41" height="41" x="1160" y="960" fill="#E94E6B"/><rect width="41" height="41" x="200" y="1000" fill="#E94E6B"/><rect width="41" height="41" x="320" y="1000" fill="#E94E6B"/><rect width="41" height="41" x="400" y="1000" fill="#E94E6B"/><rect width="41" height="41" x="560" y="1000" fill="#E94E6B"/><rect width="41" height="41" x="640" y="1000" fill="#E94E6B"/><rect width="41" height="41" x="680" y="1000" fill="#E94E6B"/><rect width="41" height="41" x="840" y="1000" fill="#E94E6B"/><rect width="41" height="41" x="1000" y="1000" fill="#E94E6B"/><rect width="41" height="41" x="1160" y="1000" fill="#E94E6B"/><rect width="41" height="41" x="200" y="1040" fill="#E94E6B"/><rect width="41" height="41" x="320" y="1040" fill="#E94E6B"/><rect width="41" height="41" x="400" y="1040" fill="#E94E6B"/><rect width="41" height="41" x="440" y="1040" fill="#E94E6B"/><rect width="41" height="41" x="480" y="1040" fill="#E94E6B"/><rect width="41" height="41" x="520" y="1040" fill="#E94E6B"/><rect width="41" height="41" x="640" y="1040" fill="#E94E6B"/><rect width="41" height="41" x="840" y="1040" fill="#E94E6B"/><rect width="41" height="41" x="1040" y="1040" fill="#E94E6B"/><rect width="41" height="41" x="1120" y="1040" fill="#E94E6B"/><rect width="41" height="41" x="200" y="1080" fill="#E94E6B"/><rect width="41" height="41" x="320" y="1080" fill="#E94E6B"/><rect width="41" height="41" x="400" y="1080" fill="#E94E6B"/><rect width="41" height="41" x="640" y="1080" fill="#E94E6B"/><rect width="41" height="41" x="840" y="1080" fill="#E94E6B"/><rect width="41" height="41" x="1040" y="1080" fill="#E94E6B"/><rect width="41" height="41" x="1120" y="1080" fill="#E94E6B"/><rect width="41" height="41" x="200" y="1120" fill="#E94E6B"/><rect width="41" height="41" x="240" y="1120" fill="#E94E6B"/><rect width="41" height="41" x="280" y="1120" fill="#E94E6B"/><rect width="41" height="41" x="440" y="1120" fill="#E94E6B"/><rect width="41" height="41" x="480" y="1120" fill="#E94E6B"/><rect width="41" height="41" x="520" y="1120" fill="#E94E6B"/><rect width="41" height="41" x="640" y="1120" fill="#E94E6B"/><rect width="41" height="41" x="880" y="1120" fill="#E94E6B"/><rect width="41" height="41" x="920" y="1120" fill="#E94E6B"/><rect width="41" height="41" x="1080" y="1120" fill="#E94E6B"/><rect width="41" height="41" x="1120" y="1120" fill="#E94E6B"/><rect width="41" height="41" x="1080" y="1160" fill="#E94E6B"/><rect width="41" height="41" x="1040" y="1200" fill="#E94E6B"/><rect width="41" height="41" x="960" y="1240" fill="#E94E6B"/><rect width="41" height="41" x="1000" y="1240" fill="#E94E6B"/></svg>